<svg width="124" height="32" viewBox="0 0 124 32" fill="none" xmlns="http://www.w3.org/2000/svg">
    <path d="M19.9295 14.8694C19.8969 11.337 22.8888 9.6185 23.0256 9.53849C21.3312 7.124 18.7049 6.79411 17.782 6.7678C15.5763 6.54093 13.4367 8.0578 12.3131 8.0578C11.1671 8.0578 9.43679 6.78972 7.57194 6.82699C5.17221 6.86315 2.92723 8.2211 1.69596 10.3298C-0.845067 14.6294 1.05005 20.9479 3.48455 24.4233C4.70236 26.1254 6.12538 28.0258 7.98797 27.959C9.8102 27.8855 10.4909 26.8235 12.6899 26.8235C14.8687 26.8235 15.5079 27.959 17.4075 27.9162C19.3632 27.8855 20.5944 26.2065 21.7696 24.489C23.1769 22.5382 23.7421 20.6169 23.7645 20.5182C23.7186 20.5029 19.9665 19.1033 19.9295 14.8694Z" fill="white"/>
    <path d="M16.3411 4.48155C17.3211 3.28362 17.9917 1.65386 17.8056 0C16.387 0.061376 14.613 0.959001 13.5915 2.13063C12.6876 3.16306 11.8803 4.85528 12.0888 6.44668C13.6823 6.56285 15.3184 5.66084 16.3411 4.48155Z" fill="white"/>
    <path d="M46.3007 27.7147H43.7541L42.3591 23.4305H37.5103L36.1815 27.7147H33.7021L38.5061 13.1292H41.4732L46.3007 27.7147ZM41.9386 21.633L40.6771 17.8244C40.5436 17.4353 40.2936 16.5191 39.9246 15.0767H39.8798C39.7329 15.6971 39.4963 16.6133 39.1711 17.8244L37.932 21.633H41.9386Z" fill="white"/>
    <path d="M58.655 22.3266C58.655 24.1153 58.1605 25.5292 57.1714 26.5671C56.2856 27.491 55.1855 27.9524 53.8724 27.9524C52.4549 27.9524 51.4367 27.4548 50.8166 26.4597H50.7718V31.9999H48.381V20.6596C48.381 19.5351 48.3507 18.381 48.2924 17.1974H50.395L50.5284 18.8644H50.5733C51.3706 17.6084 52.5805 16.9814 54.2043 16.9814C55.4737 16.9814 56.5334 17.4714 57.3811 18.4523C58.2311 19.4343 58.655 20.7254 58.655 22.3266ZM56.2194 22.4121C56.2194 21.3885 55.9839 20.5445 55.5107 19.8804C54.9937 19.1877 54.2996 18.8414 53.4294 18.8414C52.8396 18.8414 52.3036 19.0343 51.8247 19.4146C51.3448 19.7982 51.0308 20.299 50.8839 20.9194C50.8099 21.2087 50.7729 21.4455 50.7729 21.6318V23.3854C50.7729 24.1504 51.0129 24.7959 51.4928 25.3231C51.9728 25.8503 52.5962 26.1133 53.3633 26.1133C54.2637 26.1133 54.9646 25.7736 55.4658 25.0962C55.9682 24.4178 56.2194 23.5235 56.2194 22.4121Z" fill="white"/>
    <path d="M71.0314 22.3266C71.0314 24.1153 70.5369 25.5292 69.5467 26.5671C68.6619 27.491 67.5619 27.9524 66.2487 27.9524C64.8313 27.9524 63.8131 27.4548 63.1941 26.4597H63.1493V31.9999H60.7585V20.6596C60.7585 19.5351 60.7282 18.381 60.6699 17.1974H62.7725L62.9059 18.8644H62.9508C63.747 17.6084 64.9569 16.9814 66.5818 16.9814C67.8501 16.9814 68.9098 17.4714 69.7598 18.4523C70.6064 19.4343 71.0314 20.7254 71.0314 22.3266ZM68.5958 22.4121C68.5958 21.3885 68.3592 20.5445 67.8859 19.8804C67.369 19.1877 66.6771 18.8414 65.8058 18.8414C65.2148 18.8414 64.6799 19.0343 64.2 19.4146C63.7201 19.7982 63.4072 20.299 63.2603 20.9194C63.1874 21.2087 63.1493 21.4455 63.1493 21.6318V23.3854C63.1493 24.1504 63.3892 24.7959 63.8669 25.3231C64.3469 25.8492 64.9704 26.1133 65.7396 26.1133C66.6401 26.1133 67.341 25.7736 67.8422 25.0962C68.3446 24.4178 68.5958 23.5235 68.5958 22.4121Z" fill="white"/>
    <path d="M84.8692 23.6243C84.8692 24.865 84.4285 25.8744 83.5437 26.6537C82.5715 27.5052 81.218 27.9305 79.4788 27.9305C77.873 27.9305 76.5856 27.628 75.6111 27.0219L76.1651 25.0743C77.2147 25.6947 78.3664 26.0059 79.6212 26.0059C80.5216 26.0059 81.2225 25.8064 81.726 25.4097C82.2272 25.0129 82.4773 24.4803 82.4773 23.8161C82.4773 23.2243 82.271 22.7256 81.8572 22.3212C81.4456 21.9167 80.7582 21.5408 79.7983 21.1934C77.1856 20.241 75.8803 18.8457 75.8803 17.011C75.8803 15.812 76.3378 14.8289 77.254 14.0639C78.1668 13.2978 79.3846 12.9153 80.9074 12.9153C82.2654 12.9153 83.3935 13.1465 84.2939 13.608L83.6962 15.5128C82.8552 15.0656 81.9043 14.8421 80.8401 14.8421C79.9991 14.8421 79.342 15.0448 78.871 15.4481C78.4729 15.8087 78.2733 16.2482 78.2733 16.7688C78.2733 17.3453 78.5009 17.8221 78.9584 18.1969C79.3565 18.5432 80.0798 18.9181 81.1294 19.3225C82.4134 19.8278 83.3565 20.4185 83.9631 21.0958C84.5675 21.771 84.8692 22.616 84.8692 23.6243Z" fill="white"/>
    <path d="M92.7739 18.951H90.1386V24.0573C90.1386 25.3561 90.6029 26.0049 91.5336 26.0049C91.9609 26.0049 92.3152 25.9687 92.5956 25.8964L92.6617 27.6708C92.1908 27.8429 91.5706 27.9295 90.8025 27.9295C89.8583 27.9295 89.1204 27.6478 88.5878 27.0856C88.0574 26.5222 87.7905 25.5775 87.7905 24.2502V18.9489H86.2206V17.1953H87.7905V15.2696L90.1386 14.5769V17.1953H92.7739V18.951Z" fill="white"/>
    <path d="M104.664 22.3695C104.664 23.9861 104.19 25.3134 103.246 26.3513C102.256 27.4199 100.942 27.9525 99.3035 27.9525C97.7246 27.9525 96.4676 27.4407 95.5301 26.417C94.5926 25.3934 94.1239 24.1012 94.1239 22.5438C94.1239 20.914 94.6061 19.5791 95.5738 18.5412C96.5393 17.5022 97.8424 16.9827 99.4807 16.9827C101.06 16.9827 102.33 17.4945 103.289 18.5193C104.206 19.5133 104.664 20.7967 104.664 22.3695ZM102.183 22.4451C102.183 21.4752 101.971 20.6433 101.542 19.9495C101.041 19.11 100.324 18.6913 99.3955 18.6913C98.4344 18.6913 97.7044 19.1111 97.2032 19.9495C96.7737 20.6444 96.5618 21.4894 96.5618 22.489C96.5618 23.4589 96.7737 24.2908 97.2032 24.9835C97.7201 25.823 98.4423 26.2417 99.3742 26.2417C100.287 26.2417 101.004 25.8142 101.52 24.9616C101.961 24.2546 102.183 23.414 102.183 22.4451Z" fill="white"/>
    <path d="M112.435 19.2524C112.198 19.2096 111.946 19.1877 111.681 19.1877C110.84 19.1877 110.19 19.4979 109.732 20.1193C109.334 20.6673 109.134 21.36 109.134 22.1962V27.7146H106.745L106.767 20.5095C106.767 19.2973 106.737 18.1936 106.677 17.1985H108.76L108.847 19.2107H108.914C109.166 18.5191 109.564 17.9624 110.109 17.5448C110.642 17.1689 111.217 16.9814 111.837 16.9814C112.058 16.9814 112.257 16.9968 112.435 17.0242V19.2524Z" fill="white"/>
    <path d="M123.127 21.9583C123.127 22.377 123.099 22.7299 123.04 23.0182H115.867C115.895 24.0572 116.242 24.8518 116.908 25.3998C117.512 25.8897 118.294 26.1352 119.254 26.1352C120.316 26.1352 121.285 25.9697 122.156 25.6376L122.53 27.2597C121.512 27.6937 120.31 27.9096 118.923 27.9096C117.254 27.9096 115.945 27.4296 114.991 26.4706C114.041 25.5116 113.564 24.2238 113.564 22.6083C113.564 21.0224 114.007 19.7017 114.894 18.6484C115.822 17.5239 117.077 16.9617 118.656 16.9617C120.207 16.9617 121.381 17.5239 122.178 18.6484C122.81 19.5417 123.127 20.6464 123.127 21.9583ZM120.847 21.3522C120.863 20.6596 120.707 20.0612 120.383 19.5559C119.969 18.906 119.333 18.5816 118.478 18.5816C117.696 18.5816 117.06 18.8983 116.575 19.534C116.177 20.0392 115.94 20.6453 115.867 21.3512H120.847V21.3522Z" fill="white"/>
    <path d="M41.1482 4.1561C41.1482 5.4461 40.7524 6.41715 39.9618 7.06927C39.2295 7.67098 38.1889 7.97238 36.841 7.97238C36.1727 7.97238 35.6008 7.94388 35.1219 7.88689V0.838509C35.7466 0.739869 36.4194 0.689453 37.146 0.689453C38.43 0.689453 39.3977 0.962357 40.0504 1.50817C40.7815 2.12521 41.1482 3.00749 41.1482 4.1561ZM39.9091 4.18789C39.9091 3.35164 39.6826 2.71048 39.2295 2.26331C38.7765 1.81724 38.1149 1.59365 37.2436 1.59365C36.8735 1.59365 36.5584 1.61777 36.2971 1.66818V7.02653C36.4418 7.04845 36.7064 7.05831 37.0911 7.05831C37.9904 7.05831 38.6846 6.81391 39.1735 6.32509C39.6624 5.83627 39.9091 5.12387 39.9091 4.18789Z" fill="white"/>
    <path d="M47.7182 5.28295C47.7182 6.07755 47.4861 6.72858 47.0218 7.23931C46.5352 7.7643 45.8904 8.02624 45.0852 8.02624C44.3092 8.02624 43.6914 7.77526 43.2305 7.2711C42.7707 6.76803 42.5408 6.13345 42.5408 5.36844C42.5408 4.56836 42.7774 3.91186 43.2529 3.40222C43.7284 2.89258 44.3675 2.63721 45.1727 2.63721C45.9487 2.63721 46.5722 2.88819 47.0443 3.39126C47.4928 3.88007 47.7182 4.51137 47.7182 5.28295ZM46.4993 5.32022C46.4993 4.84346 46.3939 4.43465 46.1842 4.09379C45.9375 3.6817 45.5865 3.47565 45.1301 3.47565C44.658 3.47565 44.2991 3.6817 44.0524 4.09379C43.8416 4.43465 43.7373 4.85003 43.7373 5.34104C43.7373 5.8178 43.8427 6.22661 44.0524 6.56746C44.307 6.97956 44.6613 7.18561 45.1189 7.18561C45.5674 7.18561 45.9195 6.97627 46.173 6.55651C46.3905 6.20907 46.4993 5.79698 46.4993 5.32022Z" fill="white"/>
    <path d="M56.5277 2.74219L54.8737 7.90874H53.7971L53.112 5.66522C52.9382 5.10517 52.7969 4.5484 52.687 3.99601H52.6657C52.5636 4.56374 52.4223 5.11941 52.2407 5.66522L51.5129 7.90874H50.4241L48.8687 2.74219H50.0764L50.6741 5.19833C50.8188 5.77921 50.9376 6.33269 51.033 6.85657H51.0543C51.1417 6.42475 51.2864 5.87456 51.4905 5.20929L52.2407 2.74328H53.1983L53.9171 5.15668C54.0909 5.74523 54.2322 6.31186 54.341 6.85767H54.3735C54.4531 6.32611 54.5731 5.75948 54.7324 5.15668L55.3738 2.74328H56.5277V2.74219Z" fill="white"/>
    <path d="M62.6201 7.90884H61.4449V4.94964C61.4449 4.03777 61.0906 3.58183 60.3796 3.58183C60.0309 3.58183 59.7494 3.70677 59.5308 3.95776C59.3143 4.20874 59.2044 4.50466 59.2044 4.84333V7.90775H58.0292V4.21861C58.0292 3.76486 58.0147 3.27276 57.9866 2.7401H59.0194L59.0744 3.54785H59.1069C59.2437 3.29687 59.4478 3.08973 59.7158 2.92423C60.0343 2.73133 60.3908 2.63379 60.7811 2.63379C61.2745 2.63379 61.6849 2.78942 62.0112 3.10178C62.4172 3.48429 62.6201 4.0553 62.6201 4.81374V7.90884Z" fill="white"/>
    <path d="M65.861 7.90878H64.687V0.371582H65.861V7.90878Z" fill="white"/>
    <path d="M72.7798 5.28295C72.7798 6.07755 72.5477 6.72858 72.0834 7.23931C71.5967 7.7643 70.9508 8.02624 70.1468 8.02624C69.3697 8.02624 68.7518 7.77526 68.2921 7.2711C67.8323 6.76803 67.6024 6.13345 67.6024 5.36844C67.6024 4.56836 67.839 3.91186 68.3145 3.40222C68.79 2.89258 69.4291 2.63721 70.2332 2.63721C71.0103 2.63721 71.6326 2.88819 72.1058 3.39126C72.5544 3.88007 72.7798 4.51137 72.7798 5.28295ZM71.5597 5.32022C71.5597 4.84346 71.4543 4.43465 71.2446 4.09379C70.9991 3.6817 70.6469 3.47565 70.1917 3.47565C69.7184 3.47565 69.3596 3.6817 69.114 4.09379C68.9032 4.43465 68.7989 4.85003 68.7989 5.34104C68.7989 5.8178 68.9043 6.22661 69.114 6.56746C69.3686 6.97956 69.7229 7.18561 70.1805 7.18561C70.629 7.18561 70.98 6.97627 71.2334 6.55651C71.4521 6.20907 71.5597 5.79698 71.5597 5.32022Z" fill="white"/>
    <path d="M78.4673 7.90897H77.4121L77.3246 7.31384H77.2921C76.931 7.78841 76.4163 8.02624 75.748 8.02624C75.249 8.02624 74.8453 7.86951 74.5414 7.55825C74.2656 7.27548 74.1276 6.92367 74.1276 6.50609C74.1276 5.87479 74.3968 5.39365 74.9384 5.06046C75.4789 4.72728 76.2392 4.56398 77.2181 4.57165V4.4752C77.2181 3.79458 76.8526 3.45482 76.1203 3.45482C75.5989 3.45482 75.1391 3.58306 74.7421 3.83733L74.5033 3.08328C74.9944 2.78626 75.6011 2.63721 76.3165 2.63721C77.6981 2.63721 78.3911 3.34961 78.3911 4.77441V6.67706C78.3911 7.19328 78.4169 7.60428 78.4673 7.90897ZM77.2473 6.13345V5.33666C75.951 5.31474 75.3028 5.66217 75.3028 6.37786C75.3028 6.64747 75.3768 6.84914 75.5282 6.98394C75.6796 7.11875 75.8725 7.18561 76.1024 7.18561C76.3603 7.18561 76.6014 7.1056 76.8212 6.94668C77.0421 6.78667 77.1777 6.5839 77.2282 6.33511C77.2405 6.27922 77.2473 6.21126 77.2473 6.13345Z" fill="white"/>
    <path d="M85.1452 7.90878H84.1023L84.0473 7.07911H84.0148C83.6818 7.7104 83.1144 8.02605 82.3171 8.02605C81.6801 8.02605 81.1497 7.78164 80.7292 7.29283C80.3087 6.80401 80.099 6.16943 80.099 5.39017C80.099 4.55392 80.3266 3.87659 80.7842 3.35928C81.2271 2.87704 81.7698 2.63592 82.4157 2.63592C83.1256 2.63592 83.6223 2.86937 83.9049 3.33736H83.9273V0.371582H85.1037V6.51686C85.1037 7.01992 85.1171 7.48353 85.1452 7.90878ZM83.9273 5.72993V4.86847C83.9273 4.71942 83.9161 4.59886 83.8948 4.50679C83.8287 4.2306 83.6863 3.99825 83.4698 3.81083C83.2512 3.62342 82.9876 3.52916 82.6837 3.52916C82.2453 3.52916 81.9022 3.69904 81.6498 4.0399C81.3998 4.38075 81.2731 4.81586 81.2731 5.34742C81.2731 5.85816 81.3931 6.27245 81.6341 6.59139C81.8887 6.93115 82.2318 7.10103 82.6613 7.10103C83.0471 7.10103 83.3555 6.95964 83.5898 6.67578C83.8163 6.41383 83.9273 6.09819 83.9273 5.72993Z" fill="white"/>
    <path d="M95.196 5.28295C95.196 6.07755 94.9639 6.72858 94.4996 7.23931C94.0129 7.7643 93.3693 8.02624 92.563 8.02624C91.7881 8.02624 91.1703 7.77526 90.7083 7.2711C90.2485 6.76803 90.0186 6.13345 90.0186 5.36844C90.0186 4.56836 90.2552 3.91186 90.7307 3.40222C91.2061 2.89258 91.8453 2.63721 92.6516 2.63721C93.4265 2.63721 94.0511 2.88819 94.522 3.39126C94.9706 3.88007 95.196 4.51137 95.196 5.28295ZM93.9782 5.32022C93.9782 4.84346 93.8728 4.43465 93.6631 4.09379C93.4152 3.6817 93.0654 3.47565 92.6079 3.47565C92.1369 3.47565 91.778 3.6817 91.5302 4.09379C91.3194 4.43465 91.2151 4.85003 91.2151 5.34104C91.2151 5.8178 91.3205 6.22661 91.5302 6.56746C91.7848 6.97956 92.1391 7.18561 92.5966 7.18561C93.0452 7.18561 93.3984 6.97627 93.6519 6.55651C93.8683 6.20907 93.9782 5.79698 93.9782 5.32022Z" fill="white"/>
    <path d="M101.515 7.90884H100.341V4.94964C100.341 4.03777 99.9865 3.58183 99.2744 3.58183C98.9256 3.58183 98.6442 3.70677 98.4266 3.95776C98.2091 4.20874 98.1003 4.50466 98.1003 4.84333V7.90775H96.924V4.21861C96.924 3.76486 96.9105 3.27276 96.8825 2.7401H97.9142L97.9691 3.54785H98.0016C98.1396 3.29687 98.3437 3.08973 98.6105 2.92423C98.9301 2.73133 99.2856 2.63379 99.677 2.63379C100.169 2.63379 100.58 2.78942 100.906 3.10178C101.313 3.48429 101.515 4.0553 101.515 4.81374V7.90884Z" fill="white"/>
    <path d="M109.424 3.60263H108.13V6.11247C108.13 6.75035 108.36 7.06928 108.815 7.06928C109.026 7.06928 109.201 7.05175 109.339 7.01558L109.369 7.8869C109.137 7.97239 108.832 8.01513 108.456 8.01513C107.992 8.01513 107.631 7.87704 107.37 7.60084C107.107 7.32465 106.977 6.85995 106.977 6.20783V3.60263H106.205V2.74227H106.977V1.79533L108.129 1.45557V2.74118H109.423V3.60263H109.424Z" fill="white"/>
    <path d="M115.645 7.90878H114.469V4.9715C114.469 4.04538 114.115 3.58177 113.405 3.58177C112.86 3.58177 112.488 3.85029 112.283 4.38733C112.249 4.50022 112.229 4.63831 112.229 4.80052V7.90768H111.054V0.371582H112.229V3.48532H112.251C112.621 2.91869 113.151 2.63592 113.839 2.63592C114.326 2.63592 114.728 2.79155 115.048 3.10391C115.446 3.49299 115.645 4.07168 115.645 4.83669V7.90878Z" fill="white"/>
    <path d="M122.063 5.08114C122.063 5.28719 122.047 5.46036 122.019 5.60174H118.495C118.51 6.11248 118.678 6.50156 119.005 6.77118C119.303 7.0123 119.688 7.13286 120.159 7.13286C120.68 7.13286 121.156 7.05175 121.584 6.88845L121.768 7.68634C121.267 7.89896 120.677 8.00527 119.994 8.00527C119.175 8.00527 118.53 7.76963 118.064 7.29835C117.595 6.82707 117.363 6.19468 117.363 5.40118C117.363 4.62192 117.58 3.97309 118.016 3.45577C118.471 2.90339 119.087 2.6272 119.864 2.6272C120.624 2.6272 121.202 2.90339 121.592 3.45577C121.907 3.89417 122.063 4.43669 122.063 5.08114ZM120.941 4.78413C120.95 4.44327 120.873 4.14954 120.714 3.90185C120.51 3.58291 120.199 3.42289 119.779 3.42289C119.395 3.42289 119.082 3.57853 118.843 3.89089C118.648 4.13968 118.533 4.43669 118.495 4.78413H120.941Z" fill="white"/>
</svg>

