<svg width="140" height="33" viewBox="0 0 140 33" fill="none" xmlns="http://www.w3.org/2000/svg">
    <path d="M45.1807 4.97318C45.1807 5.95508 44.8799 6.74149 44.2874 7.32798C43.6061 8.02325 42.7188 8.37309 41.6314 8.37309C40.5922 8.37309 39.7049 8.01737 38.977 7.31622C38.2476 6.60478 37.8836 5.73165 37.8836 4.68655C37.8836 3.64144 38.2476 2.76831 38.977 2.06275C39.7049 1.35572 40.5922 1 41.6314 1C42.1488 1 42.6421 1.10436 43.1128 1.29839C43.582 1.49389 43.964 1.75848 44.2408 2.0848L43.6121 2.7051C43.1293 2.148 42.4721 1.87313 41.6314 1.87313C40.8734 1.87313 40.2162 2.13183 39.6583 2.65365C39.1063 3.17694 38.8296 3.85457 38.8296 4.68655C38.8296 5.51852 39.1063 6.20203 39.6583 6.72531C40.2162 7.24125 40.8734 7.50584 41.6314 7.50584C42.436 7.50584 43.1128 7.24125 43.6467 6.71944C43.9986 6.37401 44.1987 5.89775 44.2513 5.28921H41.6314V4.4396H45.1266C45.1687 4.62334 45.1807 4.8012 45.1807 4.97318Z" fill="white" stroke="white" stroke-width="0.16" stroke-miterlimit="10"/>
    <path d="M50.7258 2.0274H47.4427V4.26167H50.4025V5.11128H47.4427V7.34555H50.7258V8.21133H46.5133V1.16162H50.7258V2.0274Z" fill="white" stroke="white" stroke-width="0.16" stroke-miterlimit="10"/>
    <path d="M54.6391 8.21133H53.7096V2.0274H51.6959V1.16162H56.6543V2.0274H54.6391V8.21133Z" fill="white" stroke="white" stroke-width="0.16" stroke-miterlimit="10"/>
    <path d="M60.2427 8.21133V1.16162H61.1707V8.21133H60.2427Z" fill="white" stroke="white" stroke-width="0.16" stroke-miterlimit="10"/>
    <path d="M65.2836 8.21133H64.3617V2.0274H62.3404V1.16162H67.3049V2.0274H65.2836V8.21133Z" fill="white" stroke="white" stroke-width="0.16" stroke-miterlimit="10"/>
    <path d="M76.6927 7.30446C75.9814 8.01737 75.1001 8.37309 74.0488 8.37309C72.9915 8.37309 72.1102 8.01737 71.3989 7.30446C70.689 6.59302 70.3356 5.71989 70.3356 4.68655C70.3356 3.6532 70.689 2.78007 71.3989 2.06863C72.1102 1.35572 72.9915 1 74.0488 1C75.094 1 75.9754 1.35572 76.6867 2.07451C77.4026 2.79183 77.756 3.65907 77.756 4.68655C77.756 5.71989 77.4026 6.59302 76.6927 7.30446ZM72.0862 6.71356C72.6216 7.24126 73.2728 7.50584 74.0488 7.50584C74.8188 7.50584 75.476 7.24126 76.0054 6.71356C76.5393 6.18586 76.81 5.50823 76.81 4.68655C76.81 3.86486 76.5393 3.18723 76.0054 2.65953C75.476 2.13183 74.8188 1.86725 74.0488 1.86725C73.2728 1.86725 72.6216 2.13183 72.0862 2.65953C71.5523 3.18723 71.2816 3.86486 71.2816 4.68655C71.2816 5.50823 71.5523 6.18586 72.0862 6.71356Z" fill="white" stroke="white" stroke-width="0.16" stroke-miterlimit="10"/>
    <path d="M79.06 8.21133V1.16162H80.188L83.6951 6.6444H83.7357L83.6951 5.28914V1.16162H84.6231V8.21133H83.6545L79.9819 2.45809H79.9413L79.9819 3.81922V8.21133H79.06Z" fill="white" stroke="white" stroke-width="0.16" stroke-miterlimit="10"/>
    <path d="M70.107 18.5066C67.2811 18.5066 64.9726 20.6086 64.9726 23.5088C64.9726 26.3854 67.2811 28.5094 70.107 28.5094C72.9389 28.5094 75.2475 26.3854 75.2475 23.5088C75.2475 20.6086 72.9389 18.5066 70.107 18.5066ZM70.107 26.5397C68.5565 26.5397 67.2225 25.2888 67.2225 23.5088C67.2225 21.7052 68.5565 20.4763 70.107 20.4763C71.6576 20.4763 72.9976 21.7052 72.9976 23.5088C72.9976 25.2888 71.6576 26.5397 70.107 26.5397ZM58.9042 18.5066C56.0723 18.5066 53.7697 20.6086 53.7697 23.5088C53.7697 26.3854 56.0723 28.5094 58.9042 28.5094C61.7346 28.5094 64.0386 26.3854 64.0386 23.5088C64.0386 20.6086 61.7346 18.5066 58.9042 18.5066ZM58.9042 26.5397C57.3521 26.5397 56.0136 25.2888 56.0136 23.5088C56.0136 21.7052 57.3521 20.4763 58.9042 20.4763C60.4547 20.4763 61.7887 21.7052 61.7887 23.5088C61.7887 25.2888 60.4547 26.5397 58.9042 26.5397ZM45.5733 20.0398V22.1653H50.7664C50.6145 23.353 50.2084 24.2261 49.5858 24.8346C48.8278 25.5696 47.6472 26.3854 45.5733 26.3854C42.3774 26.3854 39.8748 23.8645 39.8748 20.7409C39.8748 17.6174 42.3774 15.0964 45.5733 15.0964C47.3013 15.0964 48.5586 15.7564 49.4865 16.6119L51.019 15.1141C49.7211 13.9029 47.9946 12.9724 45.5733 12.9724C41.1908 12.9724 37.5076 16.4576 37.5076 20.7409C37.5076 25.0242 41.1908 28.5094 45.5733 28.5094C47.942 28.5094 49.7211 27.7509 51.1198 26.3281C52.553 24.9272 52.9997 22.9575 52.9997 21.3671C52.9997 20.8732 52.9576 20.419 52.8824 20.0398H45.5733ZM100.085 21.6875C99.6624 20.5689 98.3585 18.5066 95.7026 18.5066C93.0707 18.5066 90.8794 20.5337 90.8794 23.5088C90.8794 26.3104 93.0481 28.5094 95.9552 28.5094C98.3059 28.5094 99.6624 27.1086 100.22 26.2928L98.4758 25.1565C97.8938 25.9885 97.1012 26.5397 95.9552 26.5397C94.8167 26.5397 94.0001 26.0297 93.4767 25.0242L100.321 22.2564L100.085 21.6875ZM93.1068 23.353C93.0481 21.4244 94.6393 20.4366 95.7793 20.4366C96.6726 20.4366 97.4306 20.8732 97.6833 21.4979L93.1068 23.353ZM87.5437 28.2051H89.7936V13.506H87.5437V28.2051ZM83.859 19.6208H83.7838C83.2785 19.0358 82.3145 18.5066 81.0933 18.5066C78.5306 18.5066 76.1875 20.7056 76.1875 23.5249C76.1875 26.3281 78.5306 28.5094 81.0933 28.5094C82.3145 28.5094 83.2785 27.9758 83.7838 27.3732H83.859V28.0905C83.859 30.0028 82.8138 31.0303 81.1279 31.0303C79.7533 31.0303 78.9006 30.0602 78.5486 29.2444L76.592 30.0425C77.156 31.3684 78.6494 33 81.1279 33C83.7658 33 85.9916 31.483 85.9916 27.7921V18.8109H83.859V19.6208ZM81.2858 26.5397C79.7352 26.5397 78.4373 25.2712 78.4373 23.5249C78.4373 21.7625 79.7352 20.4763 81.2858 20.4763C82.8138 20.4763 84.0185 21.7625 84.0185 23.5249C84.0185 25.2712 82.8138 26.5397 81.2858 26.5397ZM110.619 13.506H105.238V28.2051H107.481V22.6356H110.619C113.111 22.6356 115.555 20.8732 115.555 18.0701C115.555 15.2684 113.105 13.506 110.619 13.506ZM110.677 20.591H107.481V15.5507H110.677C112.353 15.5507 113.309 16.9103 113.309 18.0701C113.309 19.2078 112.353 20.591 110.677 20.591ZM124.548 18.4787C122.927 18.4787 121.241 19.1784 120.548 20.7292L122.539 21.545C122.967 20.7292 123.756 20.4646 124.589 20.4646C125.753 20.4646 126.933 21.1481 126.951 22.3549V22.5092C126.545 22.2799 125.676 21.9404 124.607 21.9404C122.462 21.9404 120.277 23.0943 120.277 25.2477C120.277 27.2174 122.034 28.4859 124.008 28.4859C125.518 28.4859 126.351 27.82 126.875 27.0454H126.951V28.1816H129.119V22.543C129.119 19.9369 127.127 18.4787 124.548 18.4787ZM124.277 26.5338C123.543 26.5338 122.521 26.1781 122.521 25.2888C122.521 24.1511 123.796 23.7146 124.9 23.7146C125.888 23.7146 126.351 23.9277 126.951 24.2084C126.775 25.5696 125.577 26.5338 124.277 26.5338ZM137.014 18.8006L134.435 25.1727H134.358L131.692 18.8006H129.272L133.279 27.7054L130.993 32.6604H133.337L139.511 18.8006H137.014ZM116.788 28.2051H119.038V13.506H116.788V28.2051Z" fill="white"/>
    <path d="M0.685036 1.7924C0.33161 2.154 0.127075 2.71698 0.127075 3.44606V29.4518C0.127075 30.1809 0.33161 30.7438 0.685036 31.1054L0.772265 31.1848L15.6823 16.618V16.274L0.772265 1.70715L0.685036 1.7924Z" fill="url(#paint0_linear_175_974)"/>
    <path d="M20.6468 21.4758L15.6823 16.6178V16.2738L20.6528 11.4157L20.7641 11.4789L26.6505 14.7524C28.3304 15.6814 28.3304 17.2101 26.6505 18.145L20.7641 21.4126L20.6468 21.4758Z" fill="url(#paint1_linear_175_974)"/>
    <path d="M20.7642 21.4126L15.6823 16.4458L0.685059 31.1052C1.24302 31.6785 2.1529 31.7476 3.18761 31.1743L20.7642 21.4126Z" fill="url(#paint2_linear_175_974)"/>
    <path d="M20.7642 11.479L3.18761 1.71726C2.1529 1.14987 1.24302 1.21896 0.685059 1.79222L15.6823 16.4458L20.7642 11.479Z" fill="url(#paint3_linear_175_974)"/>
    <defs>
        <linearGradient id="paint0_linear_175_974" x1="14.3585" y1="29.7226" x2="-5.3713" y2="9.53612" gradientUnits="userSpaceOnUse">
            <stop stop-color="#00A0FF"/>
            <stop offset="0.0066" stop-color="#00A1FF"/>
            <stop offset="0.2601" stop-color="#00BEFF"/>
            <stop offset="0.5122" stop-color="#00D2FF"/>
            <stop offset="0.7604" stop-color="#00DFFF"/>
            <stop offset="1" stop-color="#00E3FF"/>
        </linearGradient>
        <linearGradient id="paint1_linear_175_974" x1="28.8381" y1="16.4441" x2="-0.274489" y2="16.4441" gradientUnits="userSpaceOnUse">
            <stop stop-color="#FFE000"/>
            <stop offset="0.4087" stop-color="#FFBD00"/>
            <stop offset="0.7754" stop-color="#FFA500"/>
            <stop offset="1" stop-color="#FF9C00"/>
        </linearGradient>
        <linearGradient id="paint2_linear_175_974" x1="18.0008" y1="13.7457" x2="-8.75437" y2="-13.6288" gradientUnits="userSpaceOnUse">
            <stop stop-color="#FF3A44"/>
            <stop offset="1" stop-color="#C31162"/>
        </linearGradient>
        <linearGradient id="paint3_linear_175_974" x1="-3.09007" y1="39.7572" x2="8.85732" y2="27.5334" gradientUnits="userSpaceOnUse">
            <stop stop-color="#32A071"/>
            <stop offset="0.0685" stop-color="#2DA771"/>
            <stop offset="0.4762" stop-color="#15CF74"/>
            <stop offset="0.8009" stop-color="#06E775"/>
            <stop offset="1" stop-color="#00F076"/>
        </linearGradient>
    </defs>
</svg>
