<svg width="200" height="200" viewBox="0 0 200 200" fill="none" xmlns="http://www.w3.org/2000/svg">
    <path d="M15.5003 78.8333H9.16699V85.1666H15.5003V78.8333Z" fill="white"/>
    <path d="M15.5003 91.5H9.16699V97.8333H15.5003V91.5Z" fill="white"/>
    <path d="M15.5003 97.8333H9.16699V104.167H15.5003V97.8333Z" fill="white"/>
    <path d="M15.5003 104.167H9.16699V110.5H15.5003V104.167Z" fill="white"/>
    <path d="M15.5003 123.167H9.16699V129.5H15.5003V123.167Z" fill="white"/>
    <path d="M21.8333 59.8333H15.5V66.1666H21.8333V59.8333Z" fill="white"/>
    <path d="M21.8333 66.1666H15.5V72.5H21.8333V66.1666Z" fill="white"/>
    <path d="M21.8333 85.1666H15.5V91.5H21.8333V85.1666Z" fill="white"/>
    <path d="M21.8333 91.5H15.5V97.8333H21.8333V91.5Z" fill="white"/>
    <path d="M21.8333 104.167H15.5V110.5H21.8333V104.167Z" fill="white"/>
    <path d="M21.8333 110.5H15.5V116.833H21.8333V110.5Z" fill="white"/>
    <path d="M21.8333 116.833H15.5V123.167H21.8333V116.833Z" fill="white"/>
    <path d="M21.8333 129.5H15.5V135.833H21.8333V129.5Z" fill="white"/>
    <path d="M21.8333 135.833H15.5V142.167H21.8333V135.833Z" fill="white"/>
    <path d="M28.1673 66.1666H21.834V72.5H28.1673V66.1666Z" fill="white"/>
    <path d="M28.1673 72.5H21.834V78.8333H28.1673V72.5Z" fill="white"/>
    <path d="M28.1673 78.8333H21.834V85.1666H28.1673V78.8333Z" fill="white"/>
    <path d="M28.1673 104.167H21.834V110.5H28.1673V104.167Z" fill="white"/>
    <path d="M28.1673 110.5H21.834V116.833H28.1673V110.5Z" fill="white"/>
    <path d="M28.1673 123.167H21.834V129.5H28.1673V123.167Z" fill="white"/>
    <path d="M28.1673 135.833H21.834V142.167H28.1673V135.833Z" fill="white"/>
    <path d="M34.5003 59.8333H28.167V66.1666H34.5003V59.8333Z" fill="white"/>
    <path d="M34.5003 66.1666H28.167V72.5H34.5003V66.1666Z" fill="white"/>
    <path d="M34.5003 85.1666H28.167V91.5H34.5003V85.1666Z" fill="white"/>
    <path d="M34.5003 104.167H28.167V110.5H34.5003V104.167Z" fill="white"/>
    <path d="M34.5003 110.5H28.167V116.833H34.5003V110.5Z" fill="white"/>
    <path d="M34.5003 116.833H28.167V123.167H34.5003V116.833Z" fill="white"/>
    <path d="M34.5003 135.833H28.167V142.167H34.5003V135.833Z" fill="white"/>
    <path d="M40.8333 59.8333H34.5V66.1666H40.8333V59.8333Z" fill="white"/>
    <path d="M40.8333 72.5H34.5V78.8333H40.8333V72.5Z" fill="white"/>
    <path d="M40.8333 85.1666H34.5V91.5H40.8333V85.1666Z" fill="white"/>
    <path d="M40.8333 97.8333H34.5V104.167H40.8333V97.8333Z" fill="white"/>
    <path d="M40.8333 110.5H34.5V116.833H40.8333V110.5Z" fill="white"/>
    <path d="M40.8333 123.167H34.5V129.5H40.8333V123.167Z" fill="white"/>
    <path d="M40.8333 129.5H34.5V135.833H40.8333V129.5Z" fill="white"/>
    <path d="M40.8333 135.833H34.5V142.167H40.8333V135.833Z" fill="white"/>
    <path d="M47.1673 72.5H40.834V78.8333H47.1673V72.5Z" fill="white"/>
    <path d="M47.1673 78.8333H40.834V85.1666H47.1673V78.8333Z" fill="white"/>
    <path d="M47.1673 91.5H40.834V97.8333H47.1673V91.5Z" fill="white"/>
    <path d="M47.1673 110.5H40.834V116.833H47.1673V110.5Z" fill="white"/>
    <path d="M47.1673 116.833H40.834V123.167H47.1673V116.833Z" fill="white"/>
    <path d="M47.1673 123.167H40.834V129.5H47.1673V123.167Z" fill="white"/>
    <path d="M53.5003 59.8333H47.167V66.1666H53.5003V59.8333Z" fill="white"/>
    <path d="M53.5003 72.5H47.167V78.8333H53.5003V72.5Z" fill="white"/>
    <path d="M53.5003 85.1666H47.167V91.5H53.5003V85.1666Z" fill="white"/>
    <path d="M53.5003 97.8333H47.167V104.167H53.5003V97.8333Z" fill="white"/>
    <path d="M53.5003 110.5H47.167V116.833H53.5003V110.5Z" fill="white"/>
    <path d="M53.5003 123.167H47.167V129.5H53.5003V123.167Z" fill="white"/>
    <path d="M53.5003 135.833H47.167V142.167H53.5003V135.833Z" fill="white"/>
    <path d="M59.8333 59.8333H53.5V66.1666H59.8333V59.8333Z" fill="white"/>
    <path d="M59.8333 66.1666H53.5V72.5H59.8333V66.1666Z" fill="white"/>
    <path d="M59.8333 78.8333H53.5V85.1666H59.8333V78.8333Z" fill="white"/>
    <path d="M59.8333 85.1666H53.5V91.5H59.8333V85.1666Z" fill="white"/>
    <path d="M59.8333 91.5H53.5V97.8333H59.8333V91.5Z" fill="white"/>
    <path d="M59.8333 110.5H53.5V116.833H59.8333V110.5Z" fill="white"/>
    <path d="M59.8333 135.833H53.5V142.167H59.8333V135.833Z" fill="white"/>
    <path d="M66.1673 15.5H59.834V21.8333H66.1673V15.5Z" fill="white"/>
    <path d="M66.1673 28.1666H59.834V34.5H66.1673V28.1666Z" fill="white"/>
    <path d="M66.1673 34.5H59.834V40.8333H66.1673V34.5Z" fill="white"/>
    <path d="M66.1673 40.8333H59.834V47.1666H66.1673V40.8333Z" fill="white"/>
    <path d="M66.1673 47.1666H59.834V53.5H66.1673V47.1666Z" fill="white"/>
    <path d="M66.1673 59.8333H59.834V66.1666H66.1673V59.8333Z" fill="white"/>
    <path d="M66.1673 66.1666H59.834V72.5H66.1673V66.1666Z" fill="white"/>
    <path d="M66.1673 78.8333H59.834V85.1666H66.1673V78.8333Z" fill="white"/>
    <path d="M66.1673 85.1666H59.834V91.5H66.1673V85.1666Z" fill="white"/>
    <path d="M66.1673 91.5H59.834V97.8333H66.1673V91.5Z" fill="white"/>
    <path d="M66.1673 116.833H59.834V123.167H66.1673V116.833Z" fill="white"/>
    <path d="M66.1673 129.5H59.834V135.833H66.1673V129.5Z" fill="white"/>
    <path d="M66.1673 142.167H59.834V148.5H66.1673V142.167Z" fill="white"/>
    <path d="M66.1673 148.5H59.834V154.833H66.1673V148.5Z" fill="white"/>
    <path d="M66.1673 161.167H59.834V167.5H66.1673V161.167Z" fill="white"/>
    <path d="M66.1673 167.5H59.834V173.833H66.1673V167.5Z" fill="white"/>
    <path d="M66.1673 180.167H59.834V186.5H66.1673V180.167Z" fill="white"/>
    <path d="M72.5003 21.8333H66.167V28.1666H72.5003V21.8333Z" fill="white"/>
    <path d="M72.5003 40.8333H66.167V47.1666H72.5003V40.8333Z" fill="white"/>
    <path d="M72.5003 97.8333H66.167V104.167H72.5003V97.8333Z" fill="white"/>
    <path d="M72.5003 104.167H66.167V110.5H72.5003V104.167Z" fill="white"/>
    <path d="M72.5003 110.5H66.167V116.833H72.5003V110.5Z" fill="white"/>
    <path d="M72.5003 116.833H66.167V123.167H72.5003V116.833Z" fill="white"/>
    <path d="M72.5003 123.167H66.167V129.5H72.5003V123.167Z" fill="white"/>
    <path d="M72.5003 129.5H66.167V135.833H72.5003V129.5Z" fill="white"/>
    <path d="M72.5003 142.167H66.167V148.5H72.5003V142.167Z" fill="white"/>
    <path d="M72.5003 161.167H66.167V167.5H72.5003V161.167Z" fill="white"/>
    <path d="M72.5003 173.833H66.167V180.167H72.5003V173.833Z" fill="white"/>
    <path d="M72.5003 180.167H66.167V186.5H72.5003V180.167Z" fill="white"/>
    <path d="M78.8333 21.8333H72.5V28.1666H78.8333V21.8333Z" fill="white"/>
    <path d="M78.8333 28.1666H72.5V34.5H78.8333V28.1666Z" fill="white"/>
    <path d="M78.8333 34.5H72.5V40.8333H78.8333V34.5Z" fill="white"/>
    <path d="M78.8333 47.1666H72.5V53.5H78.8333V47.1666Z" fill="white"/>
    <path d="M78.8333 59.8333H72.5V66.1666H78.8333V59.8333Z" fill="white"/>
    <path d="M78.8333 85.1666H72.5V91.5H78.8333V85.1666Z" fill="white"/>
    <path d="M78.8333 91.5H72.5V97.8333H78.8333V91.5Z" fill="white"/>
    <path d="M78.8333 97.8333H72.5V104.167H78.8333V97.8333Z" fill="white"/>
    <path d="M78.8333 104.167H72.5V110.5H78.8333V104.167Z" fill="white"/>
    <path d="M78.8333 110.5H72.5V116.833H78.8333V110.5Z" fill="white"/>
    <path d="M78.8333 116.833H72.5V123.167H78.8333V116.833Z" fill="white"/>
    <path d="M78.8333 135.833H72.5V142.167H78.8333V135.833Z" fill="white"/>
    <path d="M78.8333 142.167H72.5V148.5H78.8333V142.167Z" fill="white"/>
    <path d="M78.8333 148.5H72.5V154.833H78.8333V148.5Z" fill="white"/>
    <path d="M78.8333 167.5H72.5V173.833H78.8333V167.5Z" fill="white"/>
    <path d="M85.1673 34.5H78.834V40.8333H85.1673V34.5Z" fill="white"/>
    <path d="M85.1673 59.8333H78.834V66.1666H85.1673V59.8333Z" fill="white"/>
    <path d="M85.1673 78.8333H78.834V85.1666H85.1673V78.8333Z" fill="white"/>
    <path d="M85.1673 85.1666H78.834V91.5H85.1673V85.1666Z" fill="white"/>
    <path d="M85.1673 97.8333H78.834V104.167H85.1673V97.8333Z" fill="white"/>
    <path d="M85.1673 104.167H78.834V110.5H85.1673V104.167Z" fill="white"/>
    <path d="M85.1673 116.833H78.834V123.167H85.1673V116.833Z" fill="white"/>
    <path d="M85.1673 135.833H78.834V142.167H85.1673V135.833Z" fill="white"/>
    <path d="M85.1673 161.167H78.834V167.5H85.1673V161.167Z" fill="white"/>
    <path d="M85.1673 167.5H78.834V173.833H85.1673V167.5Z" fill="white"/>
    <path d="M85.1673 186.5H78.834V192.833H85.1673V186.5Z" fill="white"/>
    <path d="M91.5003 9.16663H85.167V15.5H91.5003V9.16663Z" fill="white"/>
    <path d="M91.5003 28.1666H85.167V34.5H91.5003V28.1666Z" fill="white"/>
    <path d="M91.5003 34.5H85.167V40.8333H91.5003V34.5Z" fill="white"/>
    <path d="M91.5003 47.1666H85.167V53.5H91.5003V47.1666Z" fill="white"/>
    <path d="M91.5003 53.5H85.167V59.8333H91.5003V53.5Z" fill="white"/>
    <path d="M91.5003 66.1666H85.167V72.5H91.5003V66.1666Z" fill="white"/>
    <path d="M91.5003 78.8333H85.167V85.1666H91.5003V78.8333Z" fill="white"/>
    <path d="M91.5003 97.8333H85.167V104.167H91.5003V97.8333Z" fill="white"/>
    <path d="M91.5003 110.5H85.167V116.833H91.5003V110.5Z" fill="white"/>
    <path d="M91.5003 129.5H85.167V135.833H91.5003V129.5Z" fill="white"/>
    <path d="M91.5003 142.167H85.167V148.5H91.5003V142.167Z" fill="white"/>
    <path d="M91.5003 148.5H85.167V154.833H91.5003V148.5Z" fill="white"/>
    <path d="M91.5003 167.5H85.167V173.833H91.5003V167.5Z" fill="white"/>
    <path d="M91.5003 180.167H85.167V186.5H91.5003V180.167Z" fill="white"/>
    <path d="M97.8333 15.5H91.5V21.8333H97.8333V15.5Z" fill="white"/>
    <path d="M97.8333 34.5H91.5V40.8333H97.8333V34.5Z" fill="white"/>
    <path d="M97.8333 59.8333H91.5V66.1666H97.8333V59.8333Z" fill="white"/>
    <path d="M97.8333 66.1666H91.5V72.5H97.8333V66.1666Z" fill="white"/>
    <path d="M97.8333 78.8333H91.5V85.1666H97.8333V78.8333Z" fill="white"/>
    <path d="M97.8333 85.1666H91.5V91.5H97.8333V85.1666Z" fill="white"/>
    <path d="M97.8333 91.5H91.5V97.8333H97.8333V91.5Z" fill="white"/>
    <path d="M97.8333 110.5H91.5V116.833H97.8333V110.5Z" fill="white"/>
    <path d="M97.8333 116.833H91.5V123.167H97.8333V116.833Z" fill="white"/>
    <path d="M97.8333 123.167H91.5V129.5H97.8333V123.167Z" fill="white"/>
    <path d="M97.8333 148.5H91.5V154.833H97.8333V148.5Z" fill="white"/>
    <path d="M97.8333 161.167H91.5V167.5H97.8333V161.167Z" fill="white"/>
    <path d="M97.8333 173.833H91.5V180.167H97.8333V173.833Z" fill="white"/>
    <path d="M97.8333 186.5H91.5V192.833H97.8333V186.5Z" fill="white"/>
    <path d="M104.167 9.16663H97.834V15.5H104.167V9.16663Z" fill="white"/>
    <path d="M104.167 21.8333H97.834V28.1666H104.167V21.8333Z" fill="white"/>
    <path d="M104.167 34.5H97.834V40.8333H104.167V34.5Z" fill="white"/>
    <path d="M104.167 47.1666H97.834V53.5H104.167V47.1666Z" fill="white"/>
    <path d="M104.167 59.8333H97.834V66.1666H104.167V59.8333Z" fill="white"/>
    <path d="M104.167 85.1666H97.834V91.5H104.167V85.1666Z" fill="white"/>
    <path d="M104.167 104.167H97.834V110.5H104.167V104.167Z" fill="white"/>
    <path d="M104.167 110.5H97.834V116.833H104.167V110.5Z" fill="white"/>
    <path d="M104.167 116.833H97.834V123.167H104.167V116.833Z" fill="white"/>
    <path d="M104.167 129.5H97.834V135.833H104.167V129.5Z" fill="white"/>
    <path d="M104.167 135.833H97.834V142.167H104.167V135.833Z" fill="white"/>
    <path d="M104.167 148.5H97.834V154.833H104.167V148.5Z" fill="white"/>
    <path d="M104.167 154.833H97.834V161.167H104.167V154.833Z" fill="white"/>
    <path d="M104.167 167.5H97.834V173.833H104.167V167.5Z" fill="white"/>
    <path d="M104.167 186.5H97.834V192.833H104.167V186.5Z" fill="white"/>
    <path d="M110.5 9.16663H104.167V15.5H110.5V9.16663Z" fill="white"/>
    <path d="M110.5 15.5H104.167V21.8333H110.5V15.5Z" fill="white"/>
    <path d="M110.5 21.8333H104.167V28.1666H110.5V21.8333Z" fill="white"/>
    <path d="M110.5 28.1666H104.167V34.5H110.5V28.1666Z" fill="white"/>
    <path d="M110.5 40.8333H104.167V47.1666H110.5V40.8333Z" fill="white"/>
    <path d="M110.5 53.5H104.167V59.8333H110.5V53.5Z" fill="white"/>
    <path d="M110.5 78.8333H104.167V85.1666H110.5V78.8333Z" fill="white"/>
    <path d="M110.5 85.1666H104.167V91.5H110.5V85.1666Z" fill="white"/>
    <path d="M110.5 91.5H104.167V97.8333H110.5V91.5Z" fill="white"/>
    <path d="M110.5 104.167H104.167V110.5H110.5V104.167Z" fill="white"/>
    <path d="M110.5 110.5H104.167V116.833H110.5V110.5Z" fill="white"/>
    <path d="M110.5 135.833H104.167V142.167H110.5V135.833Z" fill="white"/>
    <path d="M110.5 161.167H104.167V167.5H110.5V161.167Z" fill="white"/>
    <path d="M110.5 167.5H104.167V173.833H110.5V167.5Z" fill="white"/>
    <path d="M110.5 173.833H104.167V180.167H110.5V173.833Z" fill="white"/>
    <path d="M116.833 9.16663H110.5V15.5H116.833V9.16663Z" fill="white"/>
    <path d="M116.833 15.5H110.5V21.8333H116.833V15.5Z" fill="white"/>
    <path d="M116.833 40.8333H110.5V47.1666H116.833V40.8333Z" fill="white"/>
    <path d="M116.833 47.1666H110.5V53.5H116.833V47.1666Z" fill="white"/>
    <path d="M116.833 53.5H110.5V59.8333H116.833V53.5Z" fill="white"/>
    <path d="M116.833 59.8333H110.5V66.1666H116.833V59.8333Z" fill="white"/>
    <path d="M116.833 72.5H110.5V78.8333H116.833V72.5Z" fill="white"/>
    <path d="M116.833 78.8333H110.5V85.1666H116.833V78.8333Z" fill="white"/>
    <path d="M116.833 97.8333H110.5V104.167H116.833V97.8333Z" fill="white"/>
    <path d="M116.833 116.833H110.5V123.167H116.833V116.833Z" fill="white"/>
    <path d="M116.833 123.167H110.5V129.5H116.833V123.167Z" fill="white"/>
    <path d="M116.833 142.167H110.5V148.5H116.833V142.167Z" fill="white"/>
    <path d="M116.833 167.5H110.5V173.833H116.833V167.5Z" fill="white"/>
    <path d="M116.833 186.5H110.5V192.833H116.833V186.5Z" fill="white"/>
    <path d="M123.167 9.16663H116.834V15.5H123.167V9.16663Z" fill="white"/>
    <path d="M123.167 15.5H116.834V21.8333H123.167V15.5Z" fill="white"/>
    <path d="M123.167 34.5H116.834V40.8333H123.167V34.5Z" fill="white"/>
    <path d="M123.167 53.5H116.834V59.8333H123.167V53.5Z" fill="white"/>
    <path d="M123.167 59.8333H116.834V66.1666H123.167V59.8333Z" fill="white"/>
    <path d="M123.167 66.1666H116.834V72.5H123.167V66.1666Z" fill="white"/>
    <path d="M123.167 72.5H116.834V78.8333H123.167V72.5Z" fill="white"/>
    <path d="M123.167 85.1666H116.834V91.5H123.167V85.1666Z" fill="white"/>
    <path d="M123.167 97.8333H116.834V104.167H123.167V97.8333Z" fill="white"/>
    <path d="M123.167 116.833H116.834V123.167H123.167V116.833Z" fill="white"/>
    <path d="M123.167 123.167H116.834V129.5H123.167V123.167Z" fill="white"/>
    <path d="M123.167 135.833H116.834V142.167H123.167V135.833Z" fill="white"/>
    <path d="M123.167 142.167H116.834V148.5H123.167V142.167Z" fill="white"/>
    <path d="M123.167 154.833H116.834V161.167H123.167V154.833Z" fill="white"/>
    <path d="M123.167 161.167H116.834V167.5H123.167V161.167Z" fill="white"/>
    <path d="M123.167 167.5H116.834V173.833H123.167V167.5Z" fill="white"/>
    <path d="M123.167 173.833H116.834V180.167H123.167V173.833Z" fill="white"/>
    <path d="M129.5 9.16663H123.167V15.5H129.5V9.16663Z" fill="white"/>
    <path d="M129.5 15.5H123.167V21.8333H129.5V15.5Z" fill="white"/>
    <path d="M129.5 40.8333H123.167V47.1666H129.5V40.8333Z" fill="white"/>
    <path d="M129.5 47.1666H123.167V53.5H129.5V47.1666Z" fill="white"/>
    <path d="M129.5 59.8333H123.167V66.1666H129.5V59.8333Z" fill="white"/>
    <path d="M129.5 97.8333H123.167V104.167H129.5V97.8333Z" fill="white"/>
    <path d="M129.5 110.5H123.167V116.833H129.5V110.5Z" fill="white"/>
    <path d="M129.5 116.833H123.167V123.167H129.5V116.833Z" fill="white"/>
    <path d="M129.5 129.5H123.167V135.833H129.5V129.5Z" fill="white"/>
    <path d="M129.5 186.5H123.167V192.833H129.5V186.5Z" fill="white"/>
    <path d="M135.833 9.16663H129.5V15.5H135.833V9.16663Z" fill="white"/>
    <path d="M135.833 15.5H129.5V21.8333H135.833V15.5Z" fill="white"/>
    <path d="M135.833 21.8333H129.5V28.1666H135.833V21.8333Z" fill="white"/>
    <path d="M135.833 28.1666H129.5V34.5H135.833V28.1666Z" fill="white"/>
    <path d="M135.833 34.5H129.5V40.8333H135.833V34.5Z" fill="white"/>
    <path d="M135.833 40.8333H129.5V47.1666H135.833V40.8333Z" fill="white"/>
    <path d="M135.833 72.5H129.5V78.8333H135.833V72.5Z" fill="white"/>
    <path d="M135.833 78.8333H129.5V85.1666H135.833V78.8333Z" fill="white"/>
    <path d="M135.833 104.167H129.5V110.5H135.833V104.167Z" fill="white"/>
    <path d="M135.833 110.5H129.5V116.833H135.833V110.5Z" fill="white"/>
    <path d="M135.833 142.167H129.5V148.5H135.833V142.167Z" fill="white"/>
    <path d="M135.833 148.5H129.5V154.833H135.833V148.5Z" fill="white"/>
    <path d="M135.833 154.833H129.5V161.167H135.833V154.833Z" fill="white"/>
    <path d="M135.833 173.833H129.5V180.167H135.833V173.833Z" fill="white"/>
    <path d="M135.833 180.167H129.5V186.5H135.833V180.167Z" fill="white"/>
    <path d="M142.167 9.16663H135.834V15.5H142.167V9.16663Z" fill="white"/>
    <path d="M142.167 15.5H135.834V21.8333H142.167V15.5Z" fill="white"/>
    <path d="M142.167 34.5H135.834V40.8333H142.167V34.5Z" fill="white"/>
    <path d="M142.167 40.8333H135.834V47.1666H142.167V40.8333Z" fill="white"/>
    <path d="M142.167 47.1666H135.834V53.5H142.167V47.1666Z" fill="white"/>
    <path d="M142.167 85.1666H135.834V91.5H142.167V85.1666Z" fill="white"/>
    <path d="M142.167 91.5H135.834V97.8333H142.167V91.5Z" fill="white"/>
    <path d="M142.167 116.833H135.834V123.167H142.167V116.833Z" fill="white"/>
    <path d="M142.167 123.167H135.834V129.5H142.167V123.167Z" fill="white"/>
    <path d="M142.167 129.5H135.834V135.833H142.167V129.5Z" fill="white"/>
    <path d="M142.167 135.833H135.834V142.167H142.167V135.833Z" fill="white"/>
    <path d="M142.167 142.167H135.834V148.5H142.167V142.167Z" fill="white"/>
    <path d="M142.167 148.5H135.834V154.833H142.167V148.5Z" fill="white"/>
    <path d="M142.167 154.833H135.834V161.167H142.167V154.833Z" fill="white"/>
    <path d="M142.167 161.167H135.834V167.5H142.167V161.167Z" fill="white"/>
    <path d="M142.167 167.5H135.834V173.833H142.167V167.5Z" fill="white"/>
    <path d="M142.167 173.833H135.834V180.167H142.167V173.833Z" fill="white"/>
    <path d="M148.5 59.8333H142.167V66.1666H148.5V59.8333Z" fill="white"/>
    <path d="M148.5 104.167H142.167V110.5H148.5V104.167Z" fill="white"/>
    <path d="M148.5 116.833H142.167V123.167H148.5V116.833Z" fill="white"/>
    <path d="M148.5 123.167H142.167V129.5H148.5V123.167Z" fill="white"/>
    <path d="M148.5 129.5H142.167V135.833H148.5V129.5Z" fill="white"/>
    <path d="M148.5 135.833H142.167V142.167H148.5V135.833Z" fill="white"/>
    <path d="M148.5 161.167H142.167V167.5H148.5V161.167Z" fill="white"/>
    <path d="M148.5 167.5H142.167V173.833H148.5V167.5Z" fill="white"/>
    <path d="M148.5 173.833H142.167V180.167H148.5V173.833Z" fill="white"/>
    <path d="M154.833 66.1666H148.5V72.5H154.833V66.1666Z" fill="white"/>
    <path d="M154.833 72.5H148.5V78.8333H154.833V72.5Z" fill="white"/>
    <path d="M154.833 85.1666H148.5V91.5H154.833V85.1666Z" fill="white"/>
    <path d="M154.833 97.8333H148.5V104.167H154.833V97.8333Z" fill="white"/>
    <path d="M154.833 104.167H148.5V110.5H154.833V104.167Z" fill="white"/>
    <path d="M154.833 110.5H148.5V116.833H154.833V110.5Z" fill="white"/>
    <path d="M154.833 129.5H148.5V135.833H154.833V129.5Z" fill="white"/>
    <path d="M154.833 135.833H148.5V142.167H154.833V135.833Z" fill="white"/>
    <path d="M154.833 148.5H148.5V154.833H154.833V148.5Z" fill="white"/>
    <path d="M154.833 161.167H148.5V167.5H154.833V161.167Z" fill="white"/>
    <path d="M154.833 173.833H148.5V180.167H154.833V173.833Z" fill="white"/>
    <path d="M154.833 180.167H148.5V186.5H154.833V180.167Z" fill="white"/>
    <path d="M161.167 59.8333H154.834V66.1666H161.167V59.8333Z" fill="white"/>
    <path d="M161.167 66.1666H154.834V72.5H161.167V66.1666Z" fill="white"/>
    <path d="M161.167 72.5H154.834V78.8333H161.167V72.5Z" fill="white"/>
    <path d="M161.167 91.5H154.834V97.8333H161.167V91.5Z" fill="white"/>
    <path d="M161.167 110.5H154.834V116.833H161.167V110.5Z" fill="white"/>
    <path d="M161.167 123.167H154.834V129.5H161.167V123.167Z" fill="white"/>
    <path d="M161.167 129.5H154.834V135.833H161.167V129.5Z" fill="white"/>
    <path d="M161.167 135.833H154.834V142.167H161.167V135.833Z" fill="white"/>
    <path d="M161.167 161.167H154.834V167.5H161.167V161.167Z" fill="white"/>
    <path d="M161.167 167.5H154.834V173.833H161.167V167.5Z" fill="white"/>
    <path d="M167.5 59.8333H161.167V66.1666H167.5V59.8333Z" fill="white"/>
    <path d="M167.5 91.5H161.167V97.8333H167.5V91.5Z" fill="white"/>
    <path d="M167.5 104.167H161.167V110.5H167.5V104.167Z" fill="white"/>
    <path d="M167.5 116.833H161.167V123.167H167.5V116.833Z" fill="white"/>
    <path d="M167.5 129.5H161.167V135.833H167.5V129.5Z" fill="white"/>
    <path d="M167.5 135.833H161.167V142.167H167.5V135.833Z" fill="white"/>
    <path d="M167.5 142.167H161.167V148.5H167.5V142.167Z" fill="white"/>
    <path d="M167.5 148.5H161.167V154.833H167.5V148.5Z" fill="white"/>
    <path d="M167.5 154.833H161.167V161.167H167.5V154.833Z" fill="white"/>
    <path d="M167.5 161.167H161.167V167.5H167.5V161.167Z" fill="white"/>
    <path d="M167.5 180.167H161.167V186.5H167.5V180.167Z" fill="white"/>
    <path d="M167.5 186.5H161.167V192.833H167.5V186.5Z" fill="white"/>
    <path d="M173.833 59.8333H167.5V66.1666H173.833V59.8333Z" fill="white"/>
    <path d="M173.833 66.1666H167.5V72.5H173.833V66.1666Z" fill="white"/>
    <path d="M173.833 72.5H167.5V78.8333H173.833V72.5Z" fill="white"/>
    <path d="M173.833 78.8333H167.5V85.1666H173.833V78.8333Z" fill="white"/>
    <path d="M173.833 85.1666H167.5V91.5H173.833V85.1666Z" fill="white"/>
    <path d="M173.833 97.8333H167.5V104.167H173.833V97.8333Z" fill="white"/>
    <path d="M173.833 116.833H167.5V123.167H173.833V116.833Z" fill="white"/>
    <path d="M173.833 123.167H167.5V129.5H173.833V123.167Z" fill="white"/>
    <path d="M173.833 154.833H167.5V161.167H173.833V154.833Z" fill="white"/>
    <path d="M173.833 180.167H167.5V186.5H173.833V180.167Z" fill="white"/>
    <path d="M180.167 66.1666H173.834V72.5H180.167V66.1666Z" fill="white"/>
    <path d="M180.167 85.1666H173.834V91.5H180.167V85.1666Z" fill="white"/>
    <path d="M180.167 104.167H173.834V110.5H180.167V104.167Z" fill="white"/>
    <path d="M180.167 135.833H173.834V142.167H180.167V135.833Z" fill="white"/>
    <path d="M180.167 142.167H173.834V148.5H180.167V142.167Z" fill="white"/>
    <path d="M180.167 154.833H173.834V161.167H180.167V154.833Z" fill="white"/>
    <path d="M180.167 161.167H173.834V167.5H180.167V161.167Z" fill="white"/>
    <path d="M180.167 180.167H173.834V186.5H180.167V180.167Z" fill="white"/>
    <path d="M180.167 186.5H173.834V192.833H180.167V186.5Z" fill="white"/>
    <path d="M186.5 59.8333H180.167V66.1666H186.5V59.8333Z" fill="white"/>
    <path d="M186.5 66.1666H180.167V72.5H186.5V66.1666Z" fill="white"/>
    <path d="M186.5 110.5H180.167V116.833H186.5V110.5Z" fill="white"/>
    <path d="M186.5 148.5H180.167V154.833H186.5V148.5Z" fill="white"/>
    <path d="M186.5 161.167H180.167V167.5H186.5V161.167Z" fill="white"/>
    <path d="M186.5 173.833H180.167V180.167H186.5V173.833Z" fill="white"/>
    <path d="M186.5 186.5H180.167V192.833H186.5V186.5Z" fill="white"/>
    <path d="M192.833 66.1666H186.5V72.5H192.833V66.1666Z" fill="white"/>
    <path d="M192.833 72.5H186.5V78.8333H192.833V72.5Z" fill="white"/>
    <path d="M192.833 78.8333H186.5V85.1666H192.833V78.8333Z" fill="white"/>
    <path d="M192.833 97.8333H186.5V104.167H192.833V97.8333Z" fill="white"/>
    <path d="M192.833 104.167H186.5V110.5H192.833V104.167Z" fill="white"/>
    <path d="M192.833 110.5H186.5V116.833H192.833V110.5Z" fill="white"/>
    <path d="M192.833 129.5H186.5V135.833H192.833V129.5Z" fill="white"/>
    <path d="M192.833 135.833H186.5V142.167H192.833V135.833Z" fill="white"/>
    <path d="M192.833 142.167H186.5V148.5H192.833V142.167Z" fill="white"/>
    <path d="M192.833 148.5H186.5V154.833H192.833V148.5Z" fill="white"/>
    <path d="M192.833 154.833H186.5V161.167H192.833V154.833Z" fill="white"/>
    <path d="M192.833 161.167H186.5V167.5H192.833V161.167Z" fill="white"/>
    <path d="M15.5003 9.16663H9.16699V15.5H15.5003V9.16663Z" fill="white"/>
    <path d="M15.5003 15.5H9.16699V21.8333H15.5003V15.5Z" fill="white"/>
    <path d="M15.5003 21.8333H9.16699V28.1666H15.5003V21.8333Z" fill="white"/>
    <path d="M15.5003 28.1666H9.16699V34.5H15.5003V28.1666Z" fill="white"/>
    <path d="M15.5003 34.5H9.16699V40.8333H15.5003V34.5Z" fill="white"/>
    <path d="M15.5003 40.8333H9.16699V47.1666H15.5003V40.8333Z" fill="white"/>
    <path d="M15.5003 47.1666H9.16699V53.5H15.5003V47.1666Z" fill="white"/>
    <path d="M21.8333 9.16663H15.5V15.5H21.8333V9.16663Z" fill="white"/>
    <path d="M21.8333 47.1666H15.5V53.5H21.8333V47.1666Z" fill="white"/>
    <path d="M28.1673 9.16663H21.834V15.5H28.1673V9.16663Z" fill="white"/>
    <path d="M28.1673 47.1666H21.834V53.5H28.1673V47.1666Z" fill="white"/>
    <path d="M34.5003 9.16663H28.167V15.5H34.5003V9.16663Z" fill="white"/>
    <path d="M34.5003 47.1666H28.167V53.5H34.5003V47.1666Z" fill="white"/>
    <path d="M40.8333 9.16663H34.5V15.5H40.8333V9.16663Z" fill="white"/>
    <path d="M40.8333 47.1666H34.5V53.5H40.8333V47.1666Z" fill="white"/>
    <path d="M47.1673 9.16663H40.834V15.5H47.1673V9.16663Z" fill="white"/>
    <path d="M47.1673 47.1666H40.834V53.5H47.1673V47.1666Z" fill="white"/>
    <path d="M53.5003 9.16663H47.167V15.5H53.5003V9.16663Z" fill="white"/>
    <path d="M53.5003 15.5H47.167V21.8333H53.5003V15.5Z" fill="white"/>
    <path d="M53.5003 21.8333H47.167V28.1666H53.5003V21.8333Z" fill="white"/>
    <path d="M53.5003 28.1666H47.167V34.5H53.5003V28.1666Z" fill="white"/>
    <path d="M53.5003 34.5H47.167V40.8333H53.5003V34.5Z" fill="white"/>
    <path d="M53.5003 40.8333H47.167V47.1666H53.5003V40.8333Z" fill="white"/>
    <path d="M53.5003 47.1666H47.167V53.5H53.5003V47.1666Z" fill="white"/>
    <path d="M28.1663 21.8334H21.833V28.1667H28.1663V21.8334Z" fill="white"/>
    <path d="M28.1663 28.1667H21.833V34.5001H28.1663V28.1667Z" fill="white"/>
    <path d="M28.1663 34.5H21.833V40.8333H28.1663V34.5Z" fill="white"/>
    <path d="M34.4993 21.8334H28.166V28.1667H34.4993V21.8334Z" fill="white"/>
    <path d="M34.4993 28.1667H28.166V34.5001H34.4993V28.1667Z" fill="white"/>
    <path d="M34.4993 34.5H28.166V40.8333H34.4993V34.5Z" fill="white"/>
    <path d="M40.8333 21.8334H34.5V28.1667H40.8333V21.8334Z" fill="white"/>
    <path d="M40.8333 28.1667H34.5V34.5001H40.8333V28.1667Z" fill="white"/>
    <path d="M40.8333 34.5H34.5V40.8333H40.8333V34.5Z" fill="white"/>
    <path d="M154.833 9.16663H148.5V15.5H154.833V9.16663Z" fill="white"/>
    <path d="M154.833 15.5H148.5V21.8333H154.833V15.5Z" fill="white"/>
    <path d="M154.833 21.8333H148.5V28.1666H154.833V21.8333Z" fill="white"/>
    <path d="M154.833 28.1666H148.5V34.5H154.833V28.1666Z" fill="white"/>
    <path d="M154.833 34.5H148.5V40.8333H154.833V34.5Z" fill="white"/>
    <path d="M154.833 40.8333H148.5V47.1666H154.833V40.8333Z" fill="white"/>
    <path d="M154.833 47.1666H148.5V53.5H154.833V47.1666Z" fill="white"/>
    <path d="M161.166 9.16663H154.833V15.5H161.166V9.16663Z" fill="white"/>
    <path d="M161.166 47.1666H154.833V53.5H161.166V47.1666Z" fill="white"/>
    <path d="M167.5 9.16663H161.167V15.5H167.5V9.16663Z" fill="white"/>
    <path d="M167.5 47.1666H161.167V53.5H167.5V47.1666Z" fill="white"/>
    <path d="M173.833 9.16663H167.5V15.5H173.833V9.16663Z" fill="white"/>
    <path d="M173.833 47.1666H167.5V53.5H173.833V47.1666Z" fill="white"/>
    <path d="M180.166 9.16663H173.833V15.5H180.166V9.16663Z" fill="white"/>
    <path d="M180.166 47.1666H173.833V53.5H180.166V47.1666Z" fill="white"/>
    <path d="M186.5 9.16663H180.167V15.5H186.5V9.16663Z" fill="white"/>
    <path d="M186.5 47.1666H180.167V53.5H186.5V47.1666Z" fill="white"/>
    <path d="M192.833 9.16663H186.5V15.5H192.833V9.16663Z" fill="white"/>
    <path d="M192.833 15.5H186.5V21.8333H192.833V15.5Z" fill="white"/>
    <path d="M192.833 21.8333H186.5V28.1666H192.833V21.8333Z" fill="white"/>
    <path d="M192.833 28.1666H186.5V34.5H192.833V28.1666Z" fill="white"/>
    <path d="M192.833 34.5H186.5V40.8333H192.833V34.5Z" fill="white"/>
    <path d="M192.833 40.8333H186.5V47.1666H192.833V40.8333Z" fill="white"/>
    <path d="M192.833 47.1666H186.5V53.5H192.833V47.1666Z" fill="white"/>
    <path d="M167.5 21.8334H161.167V28.1667H167.5V21.8334Z" fill="white"/>
    <path d="M167.5 28.1667H161.167V34.5001H167.5V28.1667Z" fill="white"/>
    <path d="M167.5 34.5H161.167V40.8333H167.5V34.5Z" fill="white"/>
    <path d="M173.833 21.8334H167.5V28.1667H173.833V21.8334Z" fill="white"/>
    <path d="M173.833 28.1667H167.5V34.5001H173.833V28.1667Z" fill="white"/>
    <path d="M173.833 34.5H167.5V40.8333H173.833V34.5Z" fill="white"/>
    <path d="M180.167 21.8334H173.834V28.1667H180.167V21.8334Z" fill="white"/>
    <path d="M180.167 28.1667H173.834V34.5001H180.167V28.1667Z" fill="white"/>
    <path d="M180.167 34.5H173.834V40.8333H180.167V34.5Z" fill="white"/>
    <path d="M15.5003 148.5H9.16699V154.833H15.5003V148.5Z" fill="white"/>
    <path d="M15.5003 154.833H9.16699V161.167H15.5003V154.833Z" fill="white"/>
    <path d="M15.5003 161.167H9.16699V167.5H15.5003V161.167Z" fill="white"/>
    <path d="M15.5003 167.5H9.16699V173.833H15.5003V167.5Z" fill="white"/>
    <path d="M15.5003 173.833H9.16699V180.167H15.5003V173.833Z" fill="white"/>
    <path d="M15.5003 180.167H9.16699V186.5H15.5003V180.167Z" fill="white"/>
    <path d="M15.5003 186.5H9.16699V192.833H15.5003V186.5Z" fill="white"/>
    <path d="M21.8333 148.5H15.5V154.833H21.8333V148.5Z" fill="white"/>
    <path d="M21.8333 186.5H15.5V192.833H21.8333V186.5Z" fill="white"/>
    <path d="M28.1673 148.5H21.834V154.833H28.1673V148.5Z" fill="white"/>
    <path d="M28.1673 186.5H21.834V192.833H28.1673V186.5Z" fill="white"/>
    <path d="M34.5003 148.5H28.167V154.833H34.5003V148.5Z" fill="white"/>
    <path d="M34.5003 186.5H28.167V192.833H34.5003V186.5Z" fill="white"/>
    <path d="M40.8333 148.5H34.5V154.833H40.8333V148.5Z" fill="white"/>
    <path d="M40.8333 186.5H34.5V192.833H40.8333V186.5Z" fill="white"/>
    <path d="M47.1673 148.5H40.834V154.833H47.1673V148.5Z" fill="white"/>
    <path d="M47.1673 186.5H40.834V192.833H47.1673V186.5Z" fill="white"/>
    <path d="M53.5003 148.5H47.167V154.833H53.5003V148.5Z" fill="white"/>
    <path d="M53.5003 154.833H47.167V161.167H53.5003V154.833Z" fill="white"/>
    <path d="M53.5003 161.167H47.167V167.5H53.5003V161.167Z" fill="white"/>
    <path d="M53.5003 167.5H47.167V173.833H53.5003V167.5Z" fill="white"/>
    <path d="M53.5003 173.833H47.167V180.167H53.5003V173.833Z" fill="white"/>
    <path d="M53.5003 180.167H47.167V186.5H53.5003V180.167Z" fill="white"/>
    <path d="M53.5003 186.5H47.167V192.833H53.5003V186.5Z" fill="white"/>
    <path d="M28.1663 161.167H21.833V167.5H28.1663V161.167Z" fill="white"/>
    <path d="M28.1663 167.5H21.833V173.833H28.1663V167.5Z" fill="white"/>
    <path d="M28.1663 173.833H21.833V180.167H28.1663V173.833Z" fill="white"/>
    <path d="M34.4993 161.167H28.166V167.5H34.4993V161.167Z" fill="white"/>
    <path d="M34.4993 167.5H28.166V173.833H34.4993V167.5Z" fill="white"/>
    <path d="M34.4993 173.833H28.166V180.167H34.4993V173.833Z" fill="white"/>
    <path d="M40.8333 161.167H34.5V167.5H40.8333V161.167Z" fill="white"/>
    <path d="M40.8333 167.5H34.5V173.833H40.8333V167.5Z" fill="white"/>
    <path d="M40.8333 173.833H34.5V180.167H40.8333V173.833Z" fill="white"/>
</svg>
