<svg width="62" height="16" viewBox="0 0 62 16" fill="none" xmlns="http://www.w3.org/2000/svg">
    <path d="M9.7201 7.43472C9.70384 5.66852 11.1997 4.80925 11.2681 4.76925C10.421 3.562 9.10783 3.39705 8.64638 3.3839C7.54352 3.27047 6.47373 4.0289 5.91192 4.0289C5.3389 4.0289 4.47376 3.39486 3.54134 3.41349C2.34148 3.43158 1.21898 4.11055 0.603351 5.1649C-0.667162 7.31471 0.280396 10.4739 1.49764 12.2116C2.10655 13.0627 2.81806 14.0129 3.74936 13.9795C4.66047 13.9428 5.00081 13.4118 6.10031 13.4118C7.18972 13.4118 7.50931 13.9795 8.45912 13.9581C9.43695 13.9428 10.0526 13.1032 10.6402 12.2445C11.3438 11.2691 11.6264 10.3084 11.6376 10.2591C11.6147 10.2514 9.7386 9.55165 9.7201 7.43472Z" fill="currentColor"/>
    <path d="M7.9259 2.24077C8.41594 1.64181 8.75123 0.826932 8.65816 0C7.94889 0.030688 7.06189 0.4795 6.5511 1.06531C6.09919 1.58153 5.6955 2.42764 5.79978 3.22334C6.59652 3.28143 7.41456 2.83042 7.9259 2.24077Z" fill="currentColor"/>
    <path d="M22.9055 13.8568H21.6322L20.9347 11.7146H18.5103L17.8459 13.8568H16.6062L19.0082 6.56396H20.4918L22.9055 13.8568ZM20.7244 10.8159L20.0937 8.9116C20.0269 8.71706 19.9019 8.25893 19.7174 7.53776H19.695C19.6216 7.84793 19.5033 8.30606 19.3407 8.9116L18.7211 10.8159H20.7244Z" fill="currentColor"/>
    <path d="M29.0829 11.1633C29.0829 12.0577 28.8356 12.7646 28.3411 13.2835C27.8982 13.7455 27.3481 13.9762 26.6916 13.9762C25.9829 13.9762 25.4738 13.7274 25.1637 13.2298H25.1413V16H23.9459V10.3298C23.9459 9.76756 23.9308 9.19052 23.9016 8.59868H24.9529L25.0196 9.43219H25.042C25.4407 8.80418 26.0457 8.49072 26.8575 8.49072C27.4922 8.49072 28.0221 8.73568 28.446 9.22614C28.871 9.71715 29.0829 10.3627 29.0829 11.1633ZM27.8651 11.2061C27.8651 10.6942 27.7474 10.2723 27.5107 9.94018C27.2523 9.59385 26.9052 9.42068 26.4701 9.42068C26.1752 9.42068 25.9072 9.51713 25.6678 9.70728C25.4278 9.89908 25.2708 10.1495 25.1974 10.4597C25.1603 10.6044 25.1418 10.7227 25.1418 10.8159V11.6927C25.1418 12.0752 25.2618 12.398 25.5018 12.6616C25.7418 12.9251 26.0535 13.0567 26.437 13.0567C26.8873 13.0567 27.2377 12.8868 27.4883 12.5481C27.7395 12.2089 27.8651 11.7617 27.8651 11.2061Z" fill="currentColor"/>
    <path d="M35.2711 11.1633C35.2711 12.0577 35.0238 12.7646 34.5287 13.2835C34.0863 13.7455 33.5363 13.9762 32.8797 13.9762C32.171 13.9762 31.6619 13.7274 31.3524 13.2298H31.33V16H30.1346V10.3298C30.1346 9.76756 30.1195 9.19052 30.0903 8.59868H31.1416L31.2083 9.43219H31.2308C31.6289 8.80418 32.2338 8.49072 33.0463 8.49072C33.6804 8.49072 34.2103 8.73568 34.6353 9.22614C35.0586 9.71715 35.2711 10.3627 35.2711 11.1633ZM34.0533 11.2061C34.0533 10.6942 33.935 10.2723 33.6983 9.94018C33.4399 9.59385 33.0939 9.42068 32.6583 9.42068C32.3628 9.42068 32.0953 9.51713 31.8554 9.70728C31.6154 9.89908 31.459 10.1495 31.3855 10.4597C31.3491 10.6044 31.33 10.7227 31.33 10.8159V11.6927C31.33 12.0752 31.45 12.398 31.6888 12.6616C31.9288 12.9246 32.2406 13.0567 32.6252 13.0567C33.0754 13.0567 33.4259 12.8868 33.6765 12.5481C33.9277 12.2089 34.0533 11.7617 34.0533 11.2061Z" fill="currentColor"/>
    <path d="M42.1898 11.8125C42.1898 12.4329 41.9695 12.9376 41.5271 13.3272C41.041 13.753 40.3642 13.9656 39.4946 13.9656C38.6917 13.9656 38.048 13.8144 37.5608 13.5113L37.8378 12.5375C38.3626 12.8477 38.9384 13.0033 39.5658 13.0033C40.016 13.0033 40.3665 12.9036 40.6182 12.7052C40.8688 12.5068 40.9939 12.2405 40.9939 11.9084C40.9939 11.6125 40.8907 11.3632 40.6838 11.1609C40.478 10.9587 40.1343 10.7708 39.6544 10.5971C38.348 10.1208 37.6954 9.42324 37.6954 8.50589C37.6954 7.90637 37.9241 7.41482 38.3822 7.03231C38.8386 6.64926 39.4475 6.45801 40.2089 6.45801C40.8879 6.45801 41.4519 6.57364 41.9022 6.80434L41.6033 7.75677C41.1828 7.53319 40.7074 7.42139 40.1753 7.42139C39.7548 7.42139 39.4262 7.52277 39.1907 7.72444C38.9917 7.90473 38.8919 8.12448 38.8919 8.38478C38.8919 8.67303 39.0057 8.91141 39.2344 9.09882C39.4335 9.27199 39.7951 9.45941 40.3199 9.66162C40.9619 9.91425 41.4334 10.2096 41.7368 10.5483C42.039 10.8859 42.1898 11.3084 42.1898 11.8125Z" fill="currentColor"/>
    <path d="M46.1424 9.47516H44.8248V12.0283C44.8248 12.6777 45.0569 13.0021 45.5222 13.0021C45.7359 13.0021 45.913 12.984 46.0532 12.9478L46.0863 13.835C45.8508 13.9211 45.5408 13.9644 45.1567 13.9644C44.6846 13.9644 44.3157 13.8235 44.0493 13.5424C43.7841 13.2607 43.6507 12.7884 43.6507 12.1247V9.47406H42.8657V8.59726H43.6507V7.63442L44.8248 7.28809V8.59726H46.1424V9.47516Z" fill="currentColor"/>
    <path d="M52.087 11.1846C52.087 11.9929 51.8504 12.6566 51.3783 13.1755C50.8832 13.7098 50.2261 13.9761 49.4069 13.9761C48.6175 13.9761 47.989 13.7202 47.5202 13.2084C47.0515 12.6966 46.8171 12.0505 46.8171 11.2718C46.8171 10.4569 47.0582 9.78942 47.5421 9.27047C48.0249 8.75096 48.6764 8.49121 49.4955 8.49121C50.285 8.49121 50.9202 8.74713 51.3996 9.25951C51.8583 9.75654 52.087 10.3983 52.087 11.1846ZM50.8468 11.2224C50.8468 10.7375 50.7408 10.3215 50.5261 9.97465C50.2754 9.55488 49.9172 9.34554 49.4529 9.34554C48.9724 9.34554 48.6074 9.55543 48.3568 9.97465C48.142 10.3221 48.0361 10.7446 48.0361 11.2444C48.0361 11.7293 48.142 12.1453 48.3568 12.4916C48.6153 12.9114 48.9763 13.1207 49.4423 13.1207C49.8987 13.1207 50.2569 12.907 50.5154 12.4807C50.7358 12.1272 50.8468 11.7069 50.8468 11.2224Z" fill="currentColor"/>
    <path d="M55.9726 9.62618C55.8543 9.60481 55.7281 9.59385 55.5958 9.59385C55.1753 9.59385 54.8501 9.74893 54.6213 10.0596C54.4223 10.3336 54.3225 10.68 54.3225 11.0981V13.8573H53.1276L53.1389 10.2547C53.1389 9.64865 53.1237 9.09681 53.094 8.59923H54.1352L54.1789 9.60536H54.212C54.3382 9.25957 54.5372 8.98118 54.8097 8.77239C55.076 8.58443 55.3637 8.49072 55.6737 8.49072C55.7842 8.49072 55.884 8.49839 55.9726 8.51209V9.62618Z" fill="currentColor"/>
    <path d="M61.3189 10.9798C61.3189 11.1891 61.3049 11.3656 61.2751 11.5097H57.689C57.703 12.0292 57.8763 12.4265 58.2093 12.7005C58.5115 12.9455 58.9023 13.0682 59.3823 13.0682C59.9132 13.0682 60.3977 12.9855 60.8333 12.8194L61.0206 13.6305C60.5115 13.8475 59.9104 13.9554 59.2169 13.9554C58.3826 13.9554 57.7277 13.7154 57.2511 13.2359C56.7756 12.7564 56.5374 12.1125 56.5374 11.3047C56.5374 10.5118 56.7588 9.85145 57.2023 9.32482C57.6666 8.76257 58.294 8.48145 59.0834 8.48145C59.8589 8.48145 60.4459 8.76257 60.8445 9.32482C61.1602 9.77144 61.3189 10.3238 61.3189 10.9798ZM60.179 10.6767C60.1869 10.3304 60.1089 10.0312 59.9469 9.77856C59.74 9.4536 59.4221 9.29139 58.9943 9.29139C58.6035 9.29139 58.2856 9.44976 58.0428 9.7676C57.8438 10.0202 57.7254 10.3233 57.689 10.6762H60.179V10.6767Z" fill="currentColor"/>
    <path d="M20.3293 2.07805C20.3293 2.72305 20.1314 3.20858 19.7361 3.53464C19.37 3.83549 18.8496 3.98619 18.1757 3.98619C17.8415 3.98619 17.5556 3.97194 17.3162 3.94345V0.419254C17.6285 0.369934 17.9649 0.344727 18.3282 0.344727C18.9702 0.344727 19.4541 0.481179 19.7804 0.754083C20.1459 1.06261 20.3293 1.50375 20.3293 2.07805ZM19.7097 2.09394C19.7097 1.67582 19.5965 1.35524 19.37 1.13165C19.1434 0.908619 18.8126 0.796827 18.377 0.796827C18.192 0.796827 18.0344 0.808883 17.9038 0.834091V3.51327C17.9761 3.52423 18.1084 3.52916 18.3007 3.52916C18.7504 3.52916 19.0975 3.40695 19.3419 3.16254C19.5864 2.91814 19.7097 2.56194 19.7097 2.09394Z" fill="currentColor"/>
    <path d="M23.6143 2.64172C23.6143 3.03902 23.4983 3.36453 23.2661 3.6199C23.0228 3.88239 22.7004 4.01337 22.2978 4.01337C21.9098 4.01337 21.6009 3.88787 21.3705 3.63579C21.1406 3.38426 21.0256 3.06697 21.0256 2.68446C21.0256 2.28442 21.1439 1.95617 21.3817 1.70135C21.6194 1.44653 21.939 1.31885 22.3416 1.31885C22.7296 1.31885 23.0413 1.44434 23.2773 1.69587C23.5016 1.94028 23.6143 2.25593 23.6143 2.64172ZM23.0049 2.66035C23.0049 2.42197 22.9522 2.21757 22.8473 2.04714C22.724 1.84109 22.5485 1.73807 22.3203 1.73807C22.0842 1.73807 21.9048 1.84109 21.7814 2.04714C21.676 2.21757 21.6239 2.42526 21.6239 2.67076C21.6239 2.90914 21.6766 3.11355 21.7814 3.28398C21.9087 3.49003 22.0859 3.59305 22.3147 3.59305C22.5389 3.59305 22.715 3.48838 22.8417 3.2785C22.9505 3.10478 23.0049 2.89873 23.0049 2.66035Z" fill="currentColor"/>
    <path d="M28.0192 1.37207L27.1922 3.95534H26.6539L26.3113 2.83359C26.2244 2.55356 26.1538 2.27518 26.0988 1.99898H26.0882C26.0372 2.28285 25.9665 2.56068 25.8757 2.83359L25.5118 3.95534H24.9674L24.1897 1.37207H24.7936L25.0924 2.60014C25.1647 2.89058 25.2242 3.16732 25.2718 3.42926H25.2825C25.3262 3.21335 25.3985 2.93826 25.5006 2.60562L25.8757 1.37262H26.3545L26.7139 2.57932C26.8008 2.87359 26.8715 3.15691 26.9258 3.42981H26.9421C26.9819 3.16403 27.0419 2.88072 27.1215 2.57932L27.4422 1.37262H28.0192V1.37207Z" fill="currentColor"/>
    <path d="M31.0653 3.9554H30.4777V2.4758C30.4777 2.01986 30.3005 1.79189 29.945 1.79189C29.7707 1.79189 29.6299 1.85436 29.5206 1.97986C29.4124 2.10535 29.3574 2.25331 29.3574 2.42264V3.95485H28.7698V2.11028C28.7698 1.88341 28.7626 1.63736 28.7485 1.37103H29.2649L29.2924 1.7749H29.3087C29.3771 1.64941 29.4791 1.54584 29.6131 1.46309C29.7723 1.36664 29.9506 1.31787 30.1458 1.31787C30.3925 1.31787 30.5977 1.39569 30.7608 1.55187C30.9638 1.74312 31.0653 2.02863 31.0653 2.40784V3.9554Z" fill="currentColor"/>
    <path d="M32.6859 3.95463H32.0989V0.186035H32.6859V3.95463Z" fill="currentColor"/>
    <path d="M36.1451 2.64172C36.1451 3.03902 36.029 3.36453 35.7969 3.6199C35.5536 3.88239 35.2306 4.01337 34.8286 4.01337C34.44 4.01337 34.1311 3.88787 33.9012 3.63579C33.6713 3.38426 33.5564 3.06697 33.5564 2.68446C33.5564 2.28442 33.6747 1.95617 33.9124 1.70135C34.1502 1.44653 34.4698 1.31885 34.8718 1.31885C35.2603 1.31885 35.5715 1.44434 35.8081 1.69587C36.0324 1.94028 36.1451 2.25593 36.1451 2.64172ZM35.5351 2.66035C35.5351 2.42197 35.4824 2.21757 35.3775 2.04714C35.2547 1.84109 35.0787 1.73807 34.851 1.73807C34.6144 1.73807 34.435 1.84109 34.3122 2.04714C34.2068 2.21757 34.1546 2.42526 34.1546 2.67076C34.1546 2.90914 34.2074 3.11355 34.3122 3.28398C34.4395 3.49003 34.6167 3.59305 34.8454 3.59305C35.0697 3.59305 35.2452 3.48838 35.3719 3.2785C35.4812 3.10478 35.5351 2.89873 35.5351 2.66035Z" fill="currentColor"/>
    <path d="M38.9887 3.95473H38.4611L38.4174 3.65717H38.4011C38.2206 3.89445 37.9632 4.01337 37.629 4.01337C37.3795 4.01337 37.1777 3.935 37.0257 3.77937C36.8878 3.63799 36.8188 3.46208 36.8188 3.25329C36.8188 2.93764 36.9534 2.69707 37.2242 2.53048C37.4945 2.36388 37.8746 2.28223 38.3641 2.28607V2.23784C38.3641 1.89754 38.1813 1.72766 37.8152 1.72766C37.5545 1.72766 37.3246 1.79177 37.1261 1.91891L37.0067 1.54188C37.2523 1.39338 37.5556 1.31885 37.9133 1.31885C38.6041 1.31885 38.9506 1.67505 38.9506 2.38745V3.33878C38.9506 3.59689 38.9635 3.80239 38.9887 3.95473ZM38.3787 3.06697V2.66857C37.7305 2.65761 37.4064 2.83133 37.4064 3.18917C37.4064 3.32398 37.4435 3.42481 37.5191 3.49222C37.5948 3.55962 37.6913 3.59305 37.8062 3.59305C37.9352 3.59305 38.0557 3.55305 38.1656 3.47359C38.2761 3.39358 38.3439 3.2922 38.3691 3.1678C38.3753 3.13985 38.3787 3.10588 38.3787 3.06697Z" fill="currentColor"/>
    <path d="M42.3278 3.95463H41.8063L41.7789 3.5398H41.7626C41.5961 3.85545 41.3124 4.01327 40.9137 4.01327C40.5953 4.01327 40.33 3.89107 40.1198 3.64666C39.9095 3.40225 39.8047 3.08496 39.8047 2.69533C39.8047 2.2772 39.9185 1.93854 40.1473 1.67988C40.3687 1.43876 40.6401 1.3182 40.9631 1.3182C41.318 1.3182 41.5664 1.43493 41.7077 1.66892H41.7189V0.186035H42.307V3.25867C42.307 3.51021 42.3138 3.74201 42.3278 3.95463ZM41.7189 2.86521V2.43448C41.7189 2.35995 41.7133 2.29967 41.7026 2.25364C41.6695 2.11554 41.5983 1.99937 41.4901 1.90566C41.3808 1.81195 41.249 1.76482 41.0971 1.76482C40.8778 1.76482 40.7063 1.84976 40.5801 2.02019C40.4551 2.19062 40.3917 2.40818 40.3917 2.67396C40.3917 2.92933 40.4517 3.13647 40.5723 3.29594C40.6995 3.46582 40.8711 3.55076 41.0859 3.55076C41.2787 3.55076 41.4329 3.48007 41.5501 3.33813C41.6634 3.20716 41.7189 3.04934 41.7189 2.86521Z" fill="currentColor"/>
    <path d="M47.3533 2.64172C47.3533 3.03902 47.2373 3.36453 47.0051 3.6199C46.7618 3.88239 46.44 4.01337 46.0368 4.01337C45.6494 4.01337 45.3405 3.88787 45.1095 3.63579C44.8796 3.38426 44.7646 3.06697 44.7646 2.68446C44.7646 2.28442 44.883 1.95617 45.1207 1.70135C45.3584 1.44653 45.678 1.31885 46.0811 1.31885C46.4686 1.31885 46.7809 1.44434 47.0164 1.69587C47.2406 1.94028 47.3533 2.25593 47.3533 2.64172ZM46.7444 2.66035C46.7444 2.42197 46.6917 2.21757 46.5869 2.04714C46.463 1.84109 46.288 1.73807 46.0593 1.73807C45.8238 1.73807 45.6444 1.84109 45.5205 2.04714C45.415 2.21757 45.3629 2.42526 45.3629 2.67076C45.3629 2.90914 45.4156 3.11355 45.5205 3.28398C45.6477 3.49003 45.8249 3.59305 46.0537 3.59305C46.2779 3.59305 46.4546 3.48838 46.5813 3.2785C46.6895 3.10478 46.7444 2.89873 46.7444 2.66035Z" fill="currentColor"/>
    <path d="M50.5127 3.9554H49.9257V2.4758C49.9257 2.01986 49.7485 1.79189 49.3925 1.79189C49.2181 1.79189 49.0774 1.85436 48.9686 1.97986C48.8598 2.10535 48.8054 2.25331 48.8054 2.42264V3.95485H48.2173V2.11028C48.2173 1.88341 48.2106 1.63736 48.1965 1.37103H48.7124L48.7398 1.7749H48.7561C48.8251 1.64941 48.9271 1.54584 49.0605 1.46309C49.2203 1.36664 49.3981 1.31787 49.5938 1.31787C49.8399 1.31787 50.0451 1.39569 50.2083 1.55187C50.4118 1.74312 50.5127 2.02863 50.5127 2.40784V3.9554Z" fill="currentColor"/>
    <path d="M54.4671 1.80107H53.8201V3.05599C53.8201 3.37493 53.9351 3.5344 54.1627 3.5344C54.2681 3.5344 54.3556 3.52563 54.4245 3.50754L54.4397 3.94321C54.3236 3.98595 54.1711 4.00732 53.9833 4.00732C53.7512 4.00732 53.5706 3.93827 53.44 3.80018C53.3088 3.66208 53.2437 3.42973 53.2437 3.10367V1.80107H52.8574V1.37089H53.2437V0.897419L53.8196 0.727539V1.37034H54.4666V1.80107H54.4671Z" fill="currentColor"/>
    <path d="M57.5779 3.95463H56.9898V2.48599C56.9898 2.02293 56.8126 1.79113 56.4577 1.79113C56.1852 1.79113 55.999 1.92539 55.897 2.19391C55.8796 2.25035 55.8695 2.3194 55.8695 2.4005V3.95409H55.2825V0.186035H55.8695V1.7429H55.8807C56.0658 1.45959 56.331 1.3182 56.6747 1.3182C56.918 1.3182 57.1193 1.39602 57.2791 1.5522C57.4781 1.74674 57.5779 2.03608 57.5779 2.41859V3.95463Z" fill="currentColor"/>
    <path d="M60.7866 2.54045C60.7866 2.64347 60.7787 2.73006 60.7647 2.80075H59.0025C59.0103 3.05612 59.0945 3.25066 59.2576 3.38547C59.4068 3.50603 59.5991 3.56631 59.8346 3.56631C60.0953 3.56631 60.333 3.52575 60.5472 3.4441L60.6391 3.84305C60.3885 3.94936 60.0936 4.00251 59.7521 4.00251C59.3428 4.00251 59.0204 3.88469 58.7872 3.64905C58.5528 3.41341 58.4368 3.09722 58.4368 2.70047C58.4368 2.31084 58.545 1.98642 58.7631 1.72776C58.9907 1.45157 59.2985 1.31348 59.6871 1.31348C60.0672 1.31348 60.356 1.45157 60.5511 1.72776C60.7087 1.94696 60.7866 2.21822 60.7866 2.54045ZM60.2259 2.39194C60.2304 2.22151 60.1917 2.07465 60.1121 1.9508C60.01 1.79133 59.8547 1.71132 59.6445 1.71132C59.4527 1.71132 59.2963 1.78914 59.1769 1.94532C59.0793 2.06972 59.0216 2.21822 59.0025 2.39194H60.2259Z" fill="currentColor"/>
</svg>
