<svg width="20" height="20" viewBox="0 0 20 20" fill="none" xmlns="http://www.w3.org/2000/svg">
<path d="M19.7007 12.4191C18.3649 17.7763 12.9384 21.0365 7.58001 19.7006C2.22382 18.365 -1.03684 12.9388 0.299551 7.58198C1.63469 2.22423 7.06121 -1.03637 12.418 0.299246C17.7761 1.63486 21.0364 7.06168 19.7007 12.4191Z" fill="#F7931A"/>
<path fill-rule="evenodd" clip-rule="evenodd" d="M14.5571 8.69362C14.7652 7.29261 13.7062 6.53945 12.2582 6.03702L12.7279 4.13917L11.581 3.85127L11.1237 5.69911C10.8222 5.62343 10.5126 5.55203 10.2049 5.48129L10.6654 3.62128L9.51923 3.33337L9.04918 5.23057C8.79962 5.17332 8.55464 5.11672 8.31684 5.05717L8.31814 5.05125L6.73651 4.65345L6.43143 5.88731C6.43143 5.88731 7.28234 6.08375 7.26438 6.09592C7.72887 6.21273 7.81282 6.52235 7.79877 6.7678L7.26372 8.92987C7.29574 8.93809 7.33722 8.94994 7.38295 8.96836L7.34409 8.95859L7.34402 8.95857C7.31744 8.95186 7.28989 8.9449 7.26176 8.93809L6.51178 11.9668C6.45494 12.109 6.31089 12.3222 5.9862 12.2412C5.99764 12.258 5.1526 12.0316 5.1526 12.0316L4.58325 13.354L6.07571 13.7288C6.24238 13.7709 6.40706 13.8141 6.57002 13.8569C6.67852 13.8854 6.78625 13.9137 6.89331 13.9413L6.41869 15.8609L7.56424 16.1488L8.03429 14.2496C8.34721 14.3352 8.651 14.4142 8.94825 14.4885L8.47983 16.3788L9.62669 16.6667L10.1013 14.7508C12.057 15.1236 13.5275 14.9732 14.1465 13.1915C14.6453 11.7569 14.1217 10.9294 13.0928 10.3898C13.8421 10.2157 14.4065 9.71921 14.5571 8.69362ZM11.9367 12.3949C11.6116 13.7111 9.56636 13.1669 8.63057 12.9179L8.63047 12.9179C8.54632 12.8955 8.47114 12.8755 8.40699 12.8595L9.03677 10.3164C9.11491 10.336 9.21038 10.3576 9.31854 10.3821C10.2864 10.6008 12.2699 11.0492 11.9367 12.3949ZM9.513 9.20191C10.2932 9.41164 11.995 9.86912 12.2915 8.67289C12.5942 7.44933 10.9401 7.08049 10.1323 6.90036C10.0415 6.88009 9.96131 6.86222 9.89585 6.84578L9.32487 9.15229C9.37881 9.16583 9.4421 9.18285 9.513 9.20191Z" fill="white"/>
</svg>
