<svg width="14" height="14" viewBox="0 0 14 14" fill="none" xmlns="http://www.w3.org/2000/svg">
    <path d="M11.5131 4.71654C11.6773 4.55442 11.6946 4.30131 11.5651 4.12C11.5651 4.11491 11.5645 4.11147 11.5637 4.11023L11.5589 4.1045L11.5567 4.10215L11.555 4.10042L11.5541 4.09948L11.5133 4.05907L11.4725 4.01873L11.4716 4.0178L11.4698 4.01613L11.4675 4.01398L11.4617 4.00929C11.4605 4.00845 11.457 4.00794 11.4519 4.00797C11.2695 3.88017 11.0154 3.89728 10.8522 4.0593L10.8521 4.05933L5.71704 9.16029L3.49911 6.97379C3.49907 6.97376 3.49904 6.97372 3.499 6.97369C3.31646 6.79265 3.02049 6.79268 2.838 6.97379C2.65509 7.15531 2.65496 7.44972 2.83809 7.63099L2.83824 7.63114L5.38792 10.1444C5.56898 10.3236 5.86815 10.3236 6.04921 10.1444L6.04934 10.1443L11.5131 4.71659C11.5131 4.71657 11.5131 4.71656 11.5131 4.71654ZM11.4729 4.01914C11.4728 4.01902 11.4728 4.01904 11.4729 4.01914L11.4729 4.01914ZM11.4429 4.13028L11.4429 4.13018L11.4429 4.13028Z" fill="white" stroke="white" stroke-width="0.2"/>
</svg>
