<svg width="20" height="20" viewBox="0 0 20 20" fill="none" xmlns="http://www.w3.org/2000/svg">
    <path d="M16.2754 4.6086C16.5195 4.36452 16.5195 3.96879 16.2754 3.72471C16.0313 3.48064 15.6356 3.48064 15.3915 3.72471L10.0001 9.11612L4.60869 3.72472C4.36461 3.48064 3.96888 3.48064 3.72481 3.72472C3.48073 3.96879 3.48073 4.36452 3.72481 4.6086L9.11621 10L3.72483 15.3914C3.48075 15.6355 3.48075 16.0312 3.72483 16.2753C3.96891 16.5193 4.36463 16.5193 4.60871 16.2753L10.0001 10.8839L15.3915 16.2753C15.6355 16.5193 16.0313 16.5193 16.2754 16.2753C16.5194 16.0312 16.5194 15.6355 16.2754 15.3914L10.884 10L16.2754 4.6086Z" fill="white"/>
</svg>
