<svg width="120" height="28" viewBox="0 0 120 28" fill="none" xmlns="http://www.w3.org/2000/svg">
<g clip-path="url(#clip0_184_4389)">
<path fill-rule="evenodd" clip-rule="evenodd" d="M10.5432 0.0370998C10.5896 0.0236998 10.631 0.0117 10.6725 0H10.6714H8.1986C8.2095 0.0132 8.2205 0.0260996 8.2315 0.0389996C8.2425 0.0519996 8.2535 0.0649002 8.2646 0.0781002C8.2596 0.0802002 8.25459 0.0830994 8.24959 0.0858994C8.23909 0.0918994 8.2284 0.0979004 8.2173 0.0979004C7.1469 0.1408 6.1151 0.377301 5.1075 0.723801C3.8567 1.1539 2.7105 1.771 1.74468 2.6874C0.633646 3.7412 -0.00546479 5.0018 3.52091e-05 6.565C0.00710521 8.8597 0.00599511 11.1544 0.00487511 13.4494C0.00426511 14.7244 0.00364546 15.9996 0.00443546 17.2749C0.00443546 18.1824 0.249735 19.0217 0.732645 19.7928C1.38936 20.8423 2.3079 21.6123 3.376 22.2107C4.9612 23.0995 6.6849 23.5285 8.4846 23.6528C10.2501 23.7749 11.9706 23.534 13.6349 22.9125C14.8394 22.4615 15.9439 21.8521 16.8866 20.9699C16.9248 20.9345 16.9649 20.9016 17.0201 20.8562C17.0492 20.8322 17.0825 20.8049 17.122 20.7719C16.5544 23.1765 16.0022 25.5163 15.451 27.8549L15.4972 27.878L27.371 10.6615C27.3658 10.6544 27.3608 10.6474 27.3559 10.6404L27.3416 10.62L27.3358 10.612C27.0013 10.752 26.667 10.8922 26.3327 11.0325C25.5663 11.3541 24.7999 11.6758 24.0324 11.9936C23.6219 12.1633 23.2124 12.3353 22.8006 12.5084C22.0991 12.8032 21.391 13.1007 20.6597 13.394C20.6691 13.3562 20.6763 13.3254 20.6825 13.2992C20.6942 13.2492 20.7021 13.2155 20.7136 13.1839C20.8615 12.79 21.0103 12.3966 21.1592 12.0032L21.1596 12.002L21.1601 12.0009L21.1605 11.9997L21.1611 11.9982L21.1617 11.9966C21.2478 11.7691 21.3339 11.5415 21.4198 11.3138C21.4973 11.1093 21.5743 10.9042 21.6513 10.6991C21.7283 10.4939 21.8053 10.2886 21.8829 10.084C21.9643 9.8717 21.9654 9.8717 22.1997 9.8695H22.3647H27.8044C27.875 9.8695 27.9457 9.8661 28.0135 9.8628C28.0481 9.8612 28.0819 9.8596 28.1146 9.8585C28.6415 7.896 29.6205 3.7225 29.5963 3.5157H29.2718L27.1741 3.5155C24.0273 3.5152 20.8801 3.5149 17.7336 3.5212C17.5092 3.5223 17.3662 3.4552 17.2287 3.2803C16.8151 2.7523 16.3234 2.2991 15.7712 1.9174C14.7767 1.2298 13.6932 0.733699 12.5195 0.433399C11.8209 0.254099 11.1169 0.1122 10.3348 0.0967999C10.4191 0.0729998 10.4851 0.0538998 10.5432 0.0370998ZM16.219 9.0762C16.2216 9.0513 16.2246 9.0229 16.2288 8.9894H10.3161L10.7268 7.2689L10.7278 7.2651L10.7283 7.2628L10.7308 7.2522L10.7345 7.2369C10.9603 6.2912 11.1847 5.3514 11.4095 4.4078H28.5337C28.5469 4.6267 27.5932 8.6891 27.4546 8.9949H27.1378C26.6982 8.9949 26.2587 8.9952 25.8192 8.9955C24.5009 8.9963 23.1826 8.9971 21.8642 8.9905C21.6409 8.9894 21.5287 9.051 21.4374 9.2655C20.8147 10.7337 20.1837 12.1977 19.5526 13.662L19.5497 13.6685C19.3836 14.054 19.2174 14.4395 19.0514 14.8251C19.0347 14.8645 19.0198 14.9043 19.001 14.9544C18.9878 14.9896 18.9726 15.0302 18.9535 15.0792C18.9918 15.0648 19.0261 15.0522 19.0577 15.0407C19.1225 15.0171 19.1757 14.9976 19.2274 14.9747C20.9413 14.2146 22.6551 13.4545 24.369 12.6954C24.4591 12.6557 24.5502 12.6192 24.6417 12.5826C24.682 12.5664 24.7224 12.5502 24.7628 12.5337L24.8068 12.5843C23.6181 14.3808 22.4292 16.1772 21.2403 17.9736C20.0493 19.7732 18.8583 21.5728 17.6676 23.3723C17.6517 23.3661 17.6352 23.3607 17.619 23.3554L17.6071 23.3514C17.647 23.0385 17.7121 22.7295 17.7772 22.4205C17.8091 22.269 17.8411 22.1174 17.87 21.9654C17.9337 21.6277 18.0021 21.2911 18.0704 20.9544C18.0965 20.8261 18.1225 20.6978 18.1483 20.5694C18.2429 20.0986 18.3375 19.6267 18.4398 19.113L17.0608 19.71C15.8492 20.2345 14.6476 20.7546 13.4204 21.2856C13.424 21.2484 13.4264 21.2154 13.4286 21.1852C13.4332 21.1235 13.4368 21.074 13.4479 21.026C13.7775 19.6048 14.1088 18.1842 14.4402 16.7634L14.8196 15.1364L16.2024 9.1929C16.2103 9.159 16.214 9.1238 16.219 9.0762ZM16.3069 3.4821L16.2937 3.5157H10.7891L10.1525 6.1451L10.152 6.1468L10.1515 6.1492L10.1485 6.1617C9.8508 7.3909 9.55289 8.6211 9.25239 9.8629H15.143C15.1606 10.1313 15.0781 10.2974 14.8603 10.4239C13.7647 11.0564 12.591 11.4711 11.3534 11.7263C10.1104 11.9826 8.86849 11.9914 7.6144 11.8033C6.4363 11.6273 5.3088 11.3028 4.2461 10.7693C3.2693 10.2798 2.4047 9.6451 1.74248 8.7639C1.39817 8.3063 1.14077 7.8058 0.996655 7.2503C0.740355 6.2625 0.888855 5.3318 1.40477 4.4573C1.92288 3.5773 2.6676 2.9261 3.5311 2.4003C4.7192 1.6764 6.01939 1.2617 7.38669 1.0406C8.37679 0.88 9.3734 0.840401 10.37 0.937201C12.2599 1.1209 14.0254 1.6676 15.5676 2.8139C15.7489 2.9489 15.9193 3.0986 16.0894 3.2481C16.1659 3.3154 16.2426 3.3827 16.3201 3.4486L16.3069 3.4821ZM14.6383 11.5886L14.7811 11.5261C14.7562 11.6346 14.7334 11.7352 14.7116 11.8307C14.6739 11.9967 14.6396 12.1475 14.604 12.2983C14.5566 12.4978 14.5084 12.6971 14.4601 12.8964L14.4599 12.8974L14.4596 12.8984L14.4594 12.8994C14.3512 13.3461 14.2429 13.7934 14.1442 14.2421C14.1002 14.4423 14.0012 14.5512 13.8131 14.6304C12.3897 15.231 10.9024 15.4631 9.3635 15.4367C8.2888 15.418 7.225 15.3289 6.18 15.0693C4.849 14.7371 3.62019 14.1893 2.5708 13.2906C1.80408 12.6338 1.23317 11.8462 0.974655 10.854C0.873215 10.4642 0.877335 10.0727 0.881725 9.6554C0.883375 9.498 0.885075 9.3369 0.881155 9.1709C0.948595 9.2473 1.00921 9.3175 1.06593 9.3832C1.17019 9.504 1.26128 9.6095 1.35746 9.71C2.36069 10.7627 3.5729 11.4942 4.9293 12.0002C6.2691 12.4996 7.6595 12.7581 9.0863 12.8153C9.9047 12.8483 10.711 12.7196 11.5129 12.5744C12.5437 12.3874 13.5359 12.0739 14.494 11.6515C14.5374 11.6327 14.5814 11.6136 14.6383 11.5886ZM0.881155 12.8748C0.881155 12.9727 0.881865 13.0656 0.882545 13.1551C0.883945 13.3389 0.885235 13.5083 0.880055 13.6778C0.863555 14.2003 0.984555 14.6909 1.19466 15.1639C1.59287 16.0571 2.2386 16.7446 3.02509 17.3057C4.39689 18.2858 5.949 18.7951 7.6056 19.0118C8.4967 19.1284 9.3932 19.1427 10.2919 19.0833C11.173 19.025 12.0322 18.8567 12.8858 18.651C13.0464 18.6125 13.1245 18.5344 13.163 18.3639C13.2988 17.7631 13.4429 17.1639 13.5872 16.5645L13.5874 16.5635L13.5876 16.5625L13.5879 16.5614C13.6525 16.2928 13.7173 16.0236 13.7812 15.7546C13.7886 15.722 13.7865 15.6875 13.7844 15.6516C13.7834 15.6342 13.7823 15.6164 13.7823 15.5984C13.7702 15.5997 13.7591 15.6006 13.7489 15.6015C13.7248 15.6035 13.7054 15.6051 13.6877 15.6105C13.6085 15.6347 13.5304 15.66 13.4534 15.6875C12.5613 16.0076 11.6427 16.2111 10.6978 16.2749C10.3002 16.3021 9.9003 16.3014 9.50049 16.3007C9.35079 16.3004 9.20059 16.3001 9.0511 16.3013C7.88169 16.3101 6.7344 16.1583 5.6102 15.8338C4.18449 15.4224 2.8777 14.7888 1.77328 13.7834C1.57403 13.6026 1.38863 13.4069 1.18854 13.1957C1.09071 13.0925 0.989345 12.9855 0.881155 12.8748ZM12.8635 19.6104L12.8003 19.62C12.7322 19.6303 12.6788 19.6383 12.6262 19.6476C12.4857 19.6728 12.3456 19.7004 12.2055 19.728C11.9056 19.787 11.6057 19.8459 11.3028 19.8819C10.0895 20.026 8.8751 20.0359 7.6595 19.8951C6.433 19.7532 5.25049 19.4496 4.13169 18.9216C2.89859 18.3397 1.81287 17.5664 0.995555 16.4564C0.982145 16.4386 0.966705 16.4222 0.936255 16.3899C0.921815 16.3746 0.903685 16.3553 0.881155 16.331C0.881155 16.3981 0.880866 16.457 0.880606 16.5107C0.880136 16.605 0.879755 16.6833 0.881155 16.7611C0.884115 16.8783 0.883926 16.9959 0.883736 17.1135C0.883296 17.3892 0.882865 17.665 0.922955 17.9349C1.04506 18.7643 1.46417 19.4573 2.0219 20.07C2.6269 20.7345 3.3529 21.2394 4.1537 21.6365C5.421 22.2668 6.7685 22.6067 8.1755 22.7475C9.4284 22.8729 10.6593 22.7431 11.887 22.5099C12.1147 22.467 12.2269 22.3647 12.2731 22.1315C12.3435 21.7697 12.4306 21.4108 12.5177 21.0519C12.5489 20.9232 12.5803 20.7941 12.6108 20.6651C12.6647 20.4386 12.7191 20.212 12.7755 19.9768L12.7758 19.9757L12.7763 19.9737L12.7768 19.9714L12.7772 19.9698L12.7779 19.967L12.7783 19.9655L12.7787 19.9636L12.8635 19.6104ZM55.1533 9.9177H56.4601H56.4612V5.5825L56.514 5.566C56.541 5.6111 56.5682 5.6562 56.5954 5.7013C56.6227 5.7464 56.6499 5.7915 56.6768 5.8366L57.2281 6.7598C57.8304 7.7681 58.433 8.7772 59.0331 9.7868C59.0969 9.8935 59.1706 9.943 59.296 9.9397C59.4789 9.9347 59.6618 9.934 59.8448 9.9333C59.982 9.9327 60.1192 9.9322 60.2563 9.9298C60.2972 9.9291 60.3376 9.9179 60.3768 9.907C60.3945 9.9021 60.412 9.8973 60.429 9.8935V3.4166H59.131V5.918V6.5472C59.131 6.6061 59.1315 6.665 59.132 6.7239V6.725V6.7261V6.7273C59.1331 6.8677 59.1342 7.0088 59.1288 7.149C59.1266 7.2072 59.1286 7.2658 59.1307 7.3254C59.1359 7.4707 59.1412 7.6235 59.0859 7.7925C59.058 7.7482 59.0329 7.709 59.0097 7.6728L59.0089 7.6715C58.9703 7.6112 58.937 7.5592 58.9055 7.5065L58.4671 6.7761C57.8241 5.7049 57.1808 4.6333 56.5426 3.5596C56.4733 3.4419 56.3985 3.3924 56.2621 3.3957C56.0857 3.4002 55.9096 3.3994 55.7335 3.3987C55.6076 3.3981 55.4818 3.3976 55.3557 3.399C55.3079 3.399 55.2596 3.4071 55.2126 3.4149C55.1926 3.4182 55.1727 3.4216 55.1533 3.4243V9.9177ZM97.784 6.7859L97.832 6.808C97.89 6.8347 97.922 6.8499 97.954 6.864C98.531 7.1038 98.816 7.5482 98.856 8.1565C98.871 8.3655 98.87 8.5767 98.866 8.7857C98.861 9.1774 98.92 9.5492 99.198 9.8825C99.175 9.8894 99.153 9.8971 99.134 9.9042C99.097 9.9175 99.066 9.9287 99.036 9.9287C98.893 9.9305 98.75 9.9308 98.608 9.9311C98.412 9.9315 98.215 9.9319 98.019 9.9364C97.856 9.9397 97.754 9.866 97.709 9.7208C97.664 9.5734 97.62 9.4227 97.606 9.2698C97.582 9.0097 97.57 8.7489 97.558 8.4879L97.552 8.3402C97.521 7.6736 97.187 7.3425 96.513 7.3271C96.291 7.3219 96.069 7.3232 95.835 7.3246C95.723 7.3253 95.608 7.326 95.489 7.326V9.9177H94.183V3.4143C94.201 3.4123 94.217 3.41 94.232 3.4079C94.267 3.4031 94.297 3.3989 94.326 3.3989L94.728 3.3987C95.308 3.3982 95.889 3.3977 96.469 3.4066C96.883 3.4132 97.291 3.4682 97.677 3.6288C98.535 3.9852 98.983 4.8509 98.762 5.7222C98.662 6.1171 98.413 6.3976 98.078 6.6121C98.023 6.647 97.967 6.6792 97.9 6.7176L97.851 6.746C97.829 6.7588 97.805 6.7724 97.781 6.787L97.784 6.7859ZM95.509 6.2964C95.641 6.2964 95.77 6.2984 95.898 6.3004C96.183 6.3048 96.46 6.3091 96.737 6.2909C97.139 6.2645 97.418 6.0192 97.487 5.6771C97.535 5.4406 97.523 5.2051 97.431 4.9774C97.316 4.6947 97.112 4.5077 96.811 4.4505C96.472 4.3854 96.13 4.3914 95.777 4.3975C95.688 4.399 95.599 4.4006 95.509 4.401V6.2964ZM114.724 9.9169H116.029L116.027 9.9158V7.2472C116.397 7.1911 118.462 7.2065 118.693 7.2692C118.696 7.6825 118.696 8.0973 118.695 8.5136C118.695 8.9857 118.694 9.4598 118.699 9.9356C118.785 9.9356 118.867 9.9359 118.945 9.9362C119.094 9.9366 119.231 9.9371 119.369 9.9356C119.517 9.9341 119.664 9.9308 119.815 9.9275L119.997 9.9235V3.4389C119.715 3.3806 118.921 3.385 118.695 3.4488V4.3717C118.695 4.4717 118.696 4.5719 118.696 4.6721V4.6734C118.697 4.8737 118.698 5.0742 118.695 5.2748C118.694 5.3737 118.696 5.4728 118.697 5.5718C118.7 5.7789 118.703 5.9854 118.683 6.1878C118.193 6.2439 116.219 6.2208 116.015 6.1537V5.2341V5.0705V4.9357V4.9345V4.9324C116.016 4.7322 116.017 4.5316 116.015 4.331C116.013 4.2165 116.015 4.1018 116.017 3.9863C116.02 3.7942 116.023 3.6 116.01 3.4015C115.909 3.401 115.809 3.4002 115.712 3.3994C115.37 3.3966 115.047 3.3939 114.724 3.4059V9.9169ZM91.9493 5.3987H90.7525C90.744 5.3586 90.7366 5.3199 90.7295 5.2823C90.7153 5.2072 90.7018 5.1365 90.6821 5.0676C90.5897 4.7376 90.3872 4.5077 90.0583 4.3922C89.3279 4.1337 88.6371 4.434 88.3511 5.1534C88.2752 5.3459 88.2191 5.5582 88.2136 5.7628C88.1982 6.3734 88.2026 6.9861 88.218 7.5966C88.2268 7.9607 88.3522 8.2929 88.5909 8.5756C88.7867 8.8077 89.0298 8.9617 89.3334 9.0068C89.7492 9.0673 90.154 9.0332 90.5413 8.8572C90.7008 8.7846 90.7767 8.679 90.7712 8.4953C90.7634 8.2531 90.7649 8.0104 90.7665 7.7575V7.7557C90.7672 7.6497 90.7679 7.5419 90.7679 7.4316H89.5171V6.5307H92.076C92.079 6.5655 92.082 6.5989 92.085 6.6315C92.092 6.6915 92.098 6.7487 92.098 6.8057C92.098 7.0244 92.097 7.2434 92.096 7.4623C92.095 7.9005 92.093 8.3391 92.098 8.7769C92.1 8.9672 92.035 9.1058 91.8965 9.2312C91.4697 9.614 90.9769 9.8571 90.4125 9.9539C89.8757 10.0464 89.3389 10.0541 88.8054 9.9154C87.7813 9.6503 87.0311 8.778 86.9365 7.7242C86.8716 6.996 86.865 6.2655 86.9408 5.5373C87.0652 4.3537 88.0453 3.4143 89.2355 3.3351C89.714 3.3032 90.1859 3.323 90.6447 3.4858C91.462 3.7773 91.9284 4.4043 91.957 5.2557C91.9577 5.2773 91.9554 5.2989 91.9523 5.3289C91.9504 5.3478 91.9481 5.37 91.946 5.3976L91.9493 5.3987ZM49.4452 7.2271C49.4549 7.1091 49.4649 6.9877 49.4783 6.8619L49.4772 6.8608C49.4688 6.7348 49.4639 6.6039 49.4587 6.47C49.4469 6.1607 49.4345 5.8354 49.3793 5.5176C49.1395 4.1371 48.0163 3.2857 46.5951 3.3209C45.2695 3.3528 44.2542 4.268 44.0397 5.5275C43.9253 6.1964 43.9418 6.8718 44.0056 7.5472C44.0518 8.0389 44.1959 8.4965 44.4819 8.9002C45.0748 9.7351 45.9109 10.0608 46.9108 10.0124C48.1274 9.9541 49.1097 9.129 49.3573 7.9432C49.4052 7.7141 49.4245 7.4784 49.4452 7.2271ZM45.2882 6.6804C45.2783 6.6793 45.2684 6.6793 45.2585 6.6793L45.2574 6.6782C45.2649 6.5739 45.2716 6.4695 45.2784 6.3652L45.2785 6.3642L45.2786 6.3631L45.2787 6.3621V6.3611C45.2961 6.0947 45.3134 5.8281 45.341 5.5627C45.3553 5.4208 45.4016 5.2767 45.4588 5.1447C45.6678 4.6651 46.0187 4.3659 46.5599 4.3263C47.1528 4.2834 47.6115 4.4957 47.9074 5.0259C48.0394 5.2624 48.1219 5.5165 48.123 5.7816C48.1274 6.4362 48.1208 7.0918 48.0911 7.7463C48.0834 7.93 48.0042 8.1203 47.9195 8.2886C47.6698 8.7825 47.2529 9.0212 46.6985 9.0146C46.143 9.008 45.7228 8.7671 45.4984 8.2589C45.3905 8.0136 45.3311 7.7397 45.2959 7.4724C45.2722 7.2919 45.2778 7.1071 45.2834 6.9226C45.2858 6.842 45.2882 6.7605 45.2882 6.6804ZM106.08 9.9299L105.884 9.9297C105.592 9.9292 105.321 9.9288 105.051 9.9311C104.929 9.9311 104.875 9.8739 104.841 9.7617C104.767 9.5192 104.688 9.2788 104.61 9.0382L104.609 9.037L104.548 8.8498C104.528 8.7888 104.506 8.7283 104.482 8.6623C104.468 8.6259 104.455 8.5879 104.44 8.5473H102.297C102.159 8.9818 102.012 9.4383 101.859 9.9146H100.516C101.234 7.7289 101.961 5.564 102.72 3.4102H104.05C104.559 4.9141 105.068 6.4159 105.583 7.9331L105.587 7.9477L105.592 7.9603L106.26 9.93L106.08 9.9299ZM103.35 5.2131L103.415 5.2196C103.645 5.9537 103.874 6.6877 104.103 7.4218V7.4236L104.104 7.4253V7.4271L104.105 7.4289V7.4307L104.106 7.4316V7.4333L104.107 7.4351V7.4369L104.108 7.4387V7.4405L104.109 7.4414V7.4429C103.899 7.5089 103.054 7.5276 102.64 7.4792C102.805 6.9015 102.989 6.3332 103.172 5.7663C103.232 5.5821 103.291 5.3974 103.35 5.2131ZM108.788 3.3932C108.487 3.3869 108.184 3.3804 107.879 3.3726V9.9166H109.175L109.174 9.5178C109.174 9.2596 109.174 9.007 109.175 8.7539C109.175 8.53 109.177 8.3057 109.179 8.077V8.0744V8.0688C109.18 7.9047 109.181 7.7383 109.182 7.5681C109.302 7.5681 109.417 7.5685 109.529 7.5688C109.744 7.5696 109.948 7.5702 110.151 7.5681C110.574 7.5637 110.993 7.5318 111.397 7.3965C113.103 6.8256 113.091 4.8048 112.155 4.004C111.788 3.6905 111.369 3.4793 110.893 3.4562C110.195 3.423 109.496 3.4082 108.788 3.3932ZM109.723 6.5619C109.546 6.5589 109.367 6.5559 109.186 6.5615L109.185 4.433C109.193 4.4289 109.201 4.4237 109.21 4.4186C109.226 4.4086 109.241 4.3989 109.256 4.3989C109.381 4.4013 109.506 4.4026 109.631 4.4038L109.632 4.4039C109.955 4.4071 110.278 4.4103 110.599 4.4341C111.081 4.4693 111.377 4.7674 111.465 5.2437C111.511 5.4923 111.497 5.7343 111.4 5.9686C111.276 6.27 111.05 6.4647 110.731 6.5175C110.399 6.5732 110.064 6.5676 109.723 6.5619ZM80.9655 9.9035V3.4155H85.1324C85.159 3.6096 85.1546 3.8004 85.1502 3.9962C85.1473 4.1246 85.1443 4.2551 85.15 4.3902H82.2679V6.0215C82.4599 6.0415 82.6466 6.0389 82.8308 6.0363C82.9094 6.0352 82.9875 6.034 83.0654 6.0347C83.2422 6.0369 83.4195 6.0362 83.5966 6.0354C83.6851 6.0351 83.7735 6.0347 83.8619 6.0347H84.6858C84.6994 6.2606 84.6971 6.4762 84.6948 6.6956C84.6936 6.8127 84.6923 6.9309 84.6935 7.0522H82.3251C82.258 7.2623 82.2382 8.4515 82.2899 8.9223H85.1632C85.183 9.2633 85.1841 9.5768 85.1632 9.8848C84.9421 9.9464 81.312 9.9596 80.9666 9.9024L80.9655 9.9035ZM72.9628 8.9302H70.0851L70.084 8.9291V7.0591H72.492C72.492 6.9585 72.4938 6.8608 72.4955 6.7646V6.7633V6.762V6.7608V6.7595C72.5 6.5153 72.5042 6.2807 72.4799 6.0349H71.6592C71.5709 6.0349 71.4825 6.0352 71.394 6.0354C71.2169 6.0359 71.0396 6.0364 70.8628 6.0349C70.7828 6.0343 70.7027 6.0352 70.6222 6.0362C70.4405 6.0385 70.2569 6.0407 70.0686 6.0239C70.0686 5.9354 70.0681 5.85 70.0676 5.7668V5.7648V5.7628V5.7608C70.0665 5.5642 70.0654 5.3799 70.0708 5.1956C70.0728 5.1155 70.0702 5.0351 70.0675 4.9539C70.0614 4.7717 70.0552 4.5852 70.1016 4.3882H72.9441C72.9444 4.2857 72.9472 4.1858 72.9499 4.0876L72.95 4.0866C72.9564 3.8575 72.9625 3.6379 72.9364 3.418H68.7739V9.9235H72.9617C72.9859 9.5891 72.9848 9.2701 72.9628 8.9302ZM42.217 5.5377H40.9761C40.9668 5.483 40.9588 5.4297 40.951 5.3777C40.9348 5.2699 40.9192 5.167 40.8947 5.0669C40.8078 4.7083 40.5889 4.4685 40.2248 4.3805C40.0653 4.342 39.9014 4.3101 39.7386 4.3068C39.2766 4.2958 38.9279 4.5004 38.7035 4.903C38.5495 5.1791 38.4714 5.4783 38.4692 5.794C38.4659 6.3781 38.4659 6.9622 38.4692 7.5474C38.4714 7.9039 38.5759 8.2317 38.7827 8.5232C39.1589 9.0534 39.9498 9.2085 40.502 8.8609C40.7902 8.6794 40.8925 8.3912 40.9409 8.0744C40.9495 8.0171 40.9548 7.9595 40.9605 7.8977C40.9635 7.8646 40.9668 7.8299 40.9706 7.7939H42.2148C42.228 8.3582 42.1059 8.8697 41.7142 9.2789C41.5349 9.4659 41.3138 9.6364 41.0795 9.7453C40.3139 10.0995 39.5175 10.1259 38.731 9.8223C37.9708 9.5286 37.4659 8.9599 37.2866 8.1778C37.0578 7.1811 37.049 6.1559 37.2866 5.1637C37.5154 4.2111 38.149 3.5851 39.1325 3.3816C39.7331 3.2573 40.337 3.2958 40.9167 3.5169C41.7791 3.8459 42.2368 4.5488 42.217 5.5377ZM65.1111 9.9238C65.1325 9.9205 65.1559 9.9169 65.1823 9.9135L65.1834 9.9124V6.5925V5.4969C65.1838 5.3622 65.1833 5.2274 65.1828 5.0913V5.0902V5.089V5.0879C65.1819 4.8606 65.181 4.629 65.1845 4.3892H67.0347V3.4102H62.0395V4.3936C62.2477 4.3962 62.4548 4.3951 62.6621 4.394C63.0626 4.3919 63.4641 4.3898 63.8765 4.4145V9.9355C64.01 9.9355 64.1401 9.9358 64.268 9.936H64.2691C64.5181 9.9365 64.7587 9.937 64.9997 9.9355C65.0346 9.9355 65.0691 9.9302 65.1111 9.9238ZM74.8636 3.4092H76.1573C76.168 3.8403 76.1664 4.2661 76.1649 4.6902V4.6914V4.6926V4.6938V4.695V4.6962V4.6973V4.6985C76.1642 4.8796 76.1635 5.061 76.1639 5.2418C76.1653 5.6489 76.1648 6.0564 76.1643 6.4638C76.1641 6.6673 76.1639 6.8711 76.1639 7.0745V8.9291H79.0767C79.1249 9.1884 79.116 9.4334 79.1072 9.6731C79.1046 9.7455 79.102 9.8178 79.1009 9.8895C78.8688 9.95 75.187 9.9599 74.8625 9.9027V3.4092H74.8636ZM86.8342 17.3803C86.3358 16.5905 85.1236 16.5707 84.4878 17.3495H84.4845C84.4714 17.2912 84.4596 17.2396 84.4487 17.1921L84.4484 17.1906L84.4479 17.1888L84.4472 17.1855C84.4311 17.1156 84.4171 17.0543 84.4042 16.9931C84.3855 16.9062 84.3514 16.8347 84.248 16.8336C84.1412 16.8329 84.0345 16.8331 83.9265 16.8333L83.7618 16.8336V20.5924H84.5175L84.5195 20.5596L84.5228 20.5107C84.5269 20.4494 84.5307 20.3935 84.5307 20.3372C84.5322 20.1515 84.5333 19.9658 84.5344 19.7801C84.5366 19.4092 84.5388 19.0383 84.5439 18.6673C84.5472 18.5034 84.5571 18.3384 84.5824 18.1767C84.6671 17.6333 84.985 17.3847 85.5372 17.4188C85.821 17.4364 85.9992 17.5673 86.0696 17.8456C86.1092 18.0018 86.1224 18.169 86.1257 18.3318C86.1334 18.7976 86.1374 19.2639 86.1413 19.73C86.143 19.9299 86.1447 20.1297 86.1466 20.3295C86.1466 20.3876 86.1506 20.4461 86.1548 20.5095L86.1578 20.5553C86.1589 20.5724 86.16 20.5899 86.1609 20.6078C86.2121 20.6078 86.2597 20.6081 86.3051 20.6083H86.3062C86.3911 20.6088 86.4684 20.6092 86.5449 20.6078C86.6475 20.606 86.7495 20.6019 86.8612 20.5974L86.9332 20.5946V20.2932L86.9337 20.0107C86.9344 19.5387 86.9352 19.0672 86.9398 18.5958C86.942 18.4495 86.9497 18.3021 86.9761 18.1602C87.0795 17.6069 87.3809 17.3792 87.9386 17.4177C88.2213 17.4375 88.405 17.5695 88.4776 17.8423C88.5194 17.9985 88.5326 18.1657 88.5337 18.3285C88.5383 18.7837 88.5381 19.2383 88.5379 19.6928C88.5378 19.8951 88.5378 20.0974 88.5381 20.2998C88.5381 20.369 88.542 20.4382 88.5463 20.513C88.548 20.5428 88.5497 20.5736 88.5513 20.6056C88.6406 20.6038 88.727 20.6063 88.8114 20.6087C88.9919 20.6139 89.1629 20.6189 89.3323 20.5814C89.335 20.5684 89.3377 20.5569 89.3401 20.5465C89.3457 20.5225 89.3499 20.5041 89.3499 20.4857L89.3508 20.0321V20.0299C89.352 19.4247 89.3532 18.819 89.3488 18.2141C89.3477 18.0513 89.3268 17.8863 89.3004 17.7246C89.2476 17.4045 89.1046 17.1339 88.8219 16.959C88.3555 16.6697 87.4579 16.6895 87.0201 17.1867C86.9796 17.2325 86.937 17.2757 86.893 17.3202C86.8737 17.3398 86.8539 17.3598 86.8342 17.3803ZM52.8487 9.9102C52.836 9.9121 52.8237 9.9142 52.8118 9.9163L52.7879 9.9206C52.7484 9.9279 52.7131 9.9344 52.6782 9.9344C52.4368 9.9359 52.1954 9.9354 51.9486 9.9349C51.8234 9.9346 51.6959 9.9344 51.5672 9.9344V3.442C51.7674 3.3837 52.5605 3.3771 52.8498 3.4365V9.9102H52.8487ZM41.7582 20.5969H42.5074L42.5041 20.5958L42.5038 20.1365V20.1353V20.1342C42.5034 19.687 42.503 19.2519 42.5063 18.8171C42.5085 18.6169 42.5162 18.4156 42.5437 18.2176C42.6339 17.5718 43.207 17.2396 43.8241 17.464C44.0133 17.5322 44.1321 17.6675 44.1794 17.8513C44.2201 18.0086 44.2388 18.1747 44.2399 18.3375C44.2443 18.7753 44.2438 19.2132 44.2433 19.6511C44.2431 19.8699 44.2428 20.0888 44.2432 20.3076C44.2439 20.3669 44.2471 20.4266 44.2505 20.4895C44.2526 20.528 44.2547 20.5684 44.2564 20.6101C44.3599 20.6045 44.4591 20.6069 44.5555 20.6092C44.7253 20.6133 44.8871 20.6171 45.0484 20.5771L45.0485 20.081V20.0795C45.0487 19.4243 45.0489 18.7769 45.0462 18.1296C45.0462 18.0207 45.0286 17.9107 45.0077 17.804C44.9428 17.4706 44.8108 17.178 44.5127 16.9844C44.054 16.6874 43.1278 16.6588 42.6581 17.1769C42.6296 17.209 42.5959 17.2367 42.551 17.2736C42.5282 17.2923 42.5026 17.3134 42.4733 17.3386L42.4789 17.2034C42.5068 16.5421 42.5329 15.9237 42.4876 15.3047H41.7351C41.6867 15.6446 41.7076 20.4077 41.7582 20.5969ZM102.725 22.2139V21.6386C102.749 21.6386 102.772 21.6384 102.796 21.6382L102.849 21.6376C102.928 21.6366 103.004 21.6356 103.079 21.6386C103.439 21.6562 103.693 21.4967 103.859 21.1842C103.868 21.1683 103.876 21.1518 103.884 21.1353L103.896 21.1099L103.902 21.0986L103.909 21.0863C104.072 20.7926 104.085 20.5187 103.941 20.1887C103.623 19.4645 103.33 18.7296 103.036 17.9944L103.035 17.9922V17.9909L103.034 17.9896V17.9883L103.033 17.9874C102.928 17.7244 102.824 17.4614 102.717 17.1988C102.688 17.1265 102.662 17.0527 102.631 16.966V16.9644C102.616 16.9224 102.6 16.8774 102.582 16.8281L102.846 16.8279C103.008 16.8276 103.161 16.8274 103.314 16.8281C103.427 16.8292 103.461 16.9106 103.493 17.003C103.719 17.6445 103.946 18.2859 104.174 18.9281L104.177 18.9347L104.183 18.9536C104.279 19.2236 104.375 19.4938 104.471 19.7641C104.794 18.7983 105.124 17.8149 105.454 16.8314H106.309C106.303 16.8525 106.297 16.8729 106.291 16.8929L106.281 16.9295C106.261 17.0011 106.243 17.0669 106.219 17.1295C106.112 17.4092 106.005 17.6888 105.899 17.9685C105.511 18.9848 105.124 20.001 104.727 21.0137C104.625 21.2744 104.487 21.5275 104.328 21.7574C103.984 22.2513 103.219 22.4053 102.725 22.2139ZM46.814 18.8964H49.3199V18.8953C49.312 18.7966 49.3063 18.703 49.3008 18.6129C49.2902 18.4382 49.2804 18.276 49.2571 18.1164C49.1449 17.342 48.6873 16.8811 47.914 16.7854C47.1902 16.6963 46.4114 16.9724 46.0957 17.8689C45.912 18.3914 45.8867 18.9228 46.055 19.4552C46.2464 20.0624 46.6501 20.4518 47.2705 20.6003C47.6852 20.6993 48.1065 20.6971 48.5234 20.6135C48.684 20.5816 48.8424 20.531 48.9942 20.4694C49.0492 20.4463 49.1152 20.3726 49.1207 20.3165C49.1324 20.1983 49.1303 20.079 49.1281 19.9516C49.1272 19.8989 49.1262 19.8444 49.1262 19.7885C49.0613 19.809 49.0004 19.8288 48.9423 19.8476C48.8075 19.8914 48.6874 19.9303 48.5652 19.9634C48.2077 20.0591 47.8458 20.0954 47.4817 19.9931C47.0296 19.8655 46.726 19.3826 46.814 18.8964ZM48.4827 18.2902H46.7887C46.8899 17.6148 47.2111 17.3244 47.7732 17.3728C48.2209 17.4113 48.486 17.7479 48.4827 18.2902ZM102.357 18.9019H101.084H99.856C99.797 19.5344 100.22 20.0173 100.843 20.0493C101.232 20.0702 101.606 19.9899 101.973 19.8633C102.016 19.8479 102.059 19.8336 102.101 19.8193C102.106 19.8179 102.112 19.8201 102.123 19.8242C102.129 19.8265 102.137 19.8294 102.147 19.8325V20.4101C102.116 20.4229 102.086 20.4371 102.054 20.4516C101.992 20.4805 101.927 20.5106 101.859 20.5333C101.416 20.6807 100.959 20.7027 100.503 20.64C99.759 20.5366 99.241 20.0471 99.079 19.3122C98.974 18.8403 98.988 18.3684 99.141 17.9086C99.486 16.8702 100.724 16.4346 101.655 17.0198C101.869 17.1551 102.029 17.3388 102.148 17.5599C102.356 17.9492 102.356 18.3681 102.357 18.824V18.9019ZM101.538 18.2914C101.566 17.7249 101.24 17.3641 100.724 17.3707C100.203 17.3773 99.834 17.7766 99.879 18.2914H101.538ZM57.16 20.0949C57.1385 20.1135 57.1202 20.1288 57.1041 20.1423C57.077 20.165 57.0558 20.1827 57.0366 20.2019C56.547 20.7145 55.9508 20.7574 55.3161 20.5682C54.9542 20.4604 54.7397 20.1887 54.6462 19.8312C54.6055 19.6739 54.5813 19.5078 54.5802 19.345C54.5739 18.7032 54.5742 18.0614 54.5745 17.4196L54.5747 16.992C54.5747 16.9637 54.5792 16.9358 54.5846 16.9034C54.5875 16.8855 54.5906 16.8662 54.5934 16.8446H55.3788C55.3804 16.886 55.3827 16.9254 55.3849 16.9635C55.3885 17.0278 55.392 17.0886 55.392 17.1494C55.392 17.3611 55.3934 17.5729 55.3947 17.7847C55.3978 18.257 55.4009 18.7297 55.3887 19.202C55.3711 19.8895 55.7847 20.1117 56.3798 20.0006C56.7153 19.9379 56.9475 19.7443 57.019 19.4044C57.0641 19.1921 57.0949 18.9732 57.0993 18.7554C57.107 18.3751 57.1055 17.9949 57.1039 17.6142V17.613C57.1032 17.4559 57.1026 17.2979 57.1026 17.1406V16.8424C57.3721 16.8171 57.6229 16.8259 57.8693 16.838C57.932 17.0493 57.9551 20.0028 57.9023 20.5583C57.7131 20.6199 57.5855 20.6254 57.2874 20.5825C57.2505 20.4402 57.2127 20.2959 57.1694 20.1311L57.16 20.0949ZM93.82 18.7291C93.826 19.0712 93.767 19.4023 93.625 19.7136C93.377 20.257 92.942 20.5651 92.36 20.6476C91.1067 20.8247 90.3729 20.0183 90.2508 18.981C90.2079 18.6136 90.2574 18.2517 90.374 17.9019C90.6061 17.21 91.1595 16.8118 91.9306 16.7733C92.966 16.7227 93.706 17.375 93.805 18.4277C93.811 18.4921 93.814 18.5564 93.816 18.6208L93.818 18.6721C93.819 18.6908 93.819 18.7094 93.82 18.728V18.7291ZM91.0407 18.6257C91.0498 18.7054 91.0569 18.7778 91.0634 18.8451C91.0767 18.9805 91.0879 19.0956 91.11 19.2087C91.2277 19.8082 91.6358 20.0909 92.244 20.0073C92.544 19.9655 92.759 19.806 92.859 19.5266C93.047 19.0041 93.058 18.4695 92.871 17.9448C92.739 17.5763 92.463 17.4146 92.032 17.4157C91.5973 17.4157 91.3179 17.5752 91.1914 17.9426C91.133 18.1128 91.1012 18.2927 91.0734 18.4506C91.0623 18.513 91.0519 18.5721 91.0407 18.6257ZM72.1092 20.4365V19.804V19.8029L72.0168 19.8346L71.94 19.8608C71.895 19.8761 71.8541 19.89 71.8133 19.9041C71.4711 20.0218 71.1191 20.0746 70.7594 20.0416C70.1467 19.9855 69.765 19.5345 69.8134 18.8943H72.3028C72.3391 18.4279 72.3105 18.0077 72.1279 17.6062C72.019 17.3674 71.8529 17.1782 71.635 17.0308C70.7781 16.4522 69.5252 16.8262 69.1468 17.7833C68.929 18.3355 68.9059 18.9064 69.083 19.474C69.2722 20.0823 69.6847 20.4629 70.3084 20.6059C70.6879 20.6928 71.0729 20.6906 71.4535 20.6191C71.6061 20.591 71.7556 20.5446 71.9059 20.4979C71.9733 20.477 72.041 20.456 72.1092 20.4365ZM70.6901 17.3696C71.2731 17.3597 71.5426 17.7745 71.5217 18.2937H69.8167C69.8376 17.7151 70.1643 17.3773 70.6901 17.3696ZM98.079 20.5917H97.314C97.313 20.5608 97.311 20.5304 97.309 20.5005V20.4965C97.305 20.417 97.301 20.3401 97.3 20.2628C97.299 20.0565 97.299 19.8502 97.3 19.6439C97.3 19.2572 97.301 18.8703 97.294 18.4829C97.291 18.275 97.268 18.0638 97.22 17.8625C97.168 17.6436 97.009 17.5083 96.787 17.4478C96.204 17.2905 95.738 17.5644 95.617 18.1529C95.58 18.33 95.569 18.5148 95.568 18.6963C95.564 19.0252 95.565 19.3544 95.565 19.6836C95.566 19.8929 95.566 20.1021 95.565 20.3112C95.565 20.3726 95.56 20.4336 95.555 20.4995L95.552 20.546L95.549 20.5917H94.781V16.8461H95.378C95.423 17.0056 95.466 17.1596 95.516 17.3389C95.541 17.3163 95.563 17.2985 95.581 17.2832C95.607 17.2621 95.626 17.2456 95.644 17.2278C96.141 16.7273 96.734 16.6723 97.369 16.8813C97.75 17.0067 97.955 17.3048 98.038 17.6854C98.073 17.8449 98.093 18.011 98.094 18.1738C98.099 18.8391 98.097 19.5043 98.095 20.1703L98.094 20.419C98.094 20.4557 98.09 20.4924 98.085 20.534C98.083 20.5522 98.081 20.5712 98.079 20.5917ZM74.8988 19.2253C75.0352 19.9634 75.6403 20.6916 76.6347 20.6663H76.6358C77.5686 20.674 78.2143 20.1339 78.3782 19.2176C78.4332 18.9096 78.4354 18.6038 78.3859 18.2936C78.2253 17.2936 77.5136 16.7172 76.5049 16.7755C75.6854 16.8239 75.0968 17.3079 74.9208 18.0857C74.835 18.463 74.8284 18.8414 74.8988 19.2253ZM75.6722 18.9314C75.6618 18.8508 75.6511 18.7671 75.637 18.6797H75.6381C75.6509 18.6154 75.6626 18.5479 75.6746 18.4786C75.7047 18.305 75.7369 18.1194 75.7943 17.9427C75.9032 17.6027 76.1672 17.4388 76.5225 17.4212C77.1297 17.3904 77.452 17.6357 77.5653 18.2276C77.6357 18.5983 77.628 18.9723 77.5378 19.3397C77.43 19.7775 77.1396 20.0085 76.6974 20.0261C76.231 20.0459 75.8834 19.8237 75.7558 19.3925C75.7129 19.2477 75.6934 19.096 75.6722 18.9314ZM64.5283 20.6067L64.5874 20.6069L64.6391 20.6073C64.7042 20.6077 64.7632 20.6082 64.8226 20.6067C64.8952 20.6051 64.9678 20.6016 65.0403 20.5981L65.113 20.5946V16.8402H64.3297V17.1461C64.3277 17.3495 64.3281 17.5532 64.3285 17.7569V17.7588C64.3293 18.212 64.3302 18.6655 64.3044 19.1173C64.2615 19.8763 63.7346 20.0963 63.1351 20.0061C62.8909 19.9698 62.7314 19.8279 62.6665 19.6013C62.6225 19.4462 62.6071 19.279 62.606 19.1162C62.6016 18.6782 62.6021 18.2406 62.6026 17.8029V17.8016C62.6028 17.5824 62.6031 17.3632 62.6027 17.1439C62.602 17.0795 62.5978 17.0151 62.5935 16.9481C62.5913 16.9144 62.5891 16.8799 62.5873 16.8447C62.309 16.8237 62.0593 16.8072 61.8052 16.8468L61.8024 16.8711L61.7987 16.9022C61.7937 16.9433 61.7898 16.9751 61.7898 17.0064L61.7908 17.3644C61.7925 17.9571 61.7942 18.5502 61.7997 19.1426C61.8008 19.3065 61.8129 19.4715 61.8349 19.6343C61.8855 20.005 62.0395 20.3185 62.3838 20.5022C62.8557 20.7542 63.7764 20.763 64.2428 20.2305C64.2682 20.2015 64.2998 20.1778 64.3357 20.1508C64.3464 20.1428 64.3575 20.1344 64.3689 20.1256C64.3773 20.1191 64.3859 20.1123 64.3946 20.1051C64.4407 20.2804 64.4801 20.4284 64.5283 20.6067ZM38.7365 20.5958H39.5483L39.5505 20.5947V16.3013H40.9937V15.627H37.2778V16.3222H38.72C38.72 16.5715 38.7195 16.8164 38.719 17.0584C38.718 17.5341 38.717 17.9988 38.72 18.4639C38.7214 18.691 38.7197 18.9181 38.7181 19.1455V19.1469C38.7146 19.6281 38.7111 20.1106 38.7365 20.5958ZM53.0336 16.8272H53.9378V17.4234H53.0413C53.0126 17.8005 53.0165 18.1657 53.0204 18.5268C53.0222 18.6921 53.0239 18.8574 53.0226 19.0217C53.0188 19.3788 53.0197 19.7359 53.0206 20.0981V20.1V20.1014V20.1027C53.021 20.2645 53.0215 20.4273 53.0215 20.5915H52.2118V17.4454L52.1667 17.4433C51.9737 17.4342 51.7995 17.4261 51.6167 17.4179V17.0714C51.8048 16.9922 52.0039 16.9086 52.2195 16.8184C52.2195 16.7717 52.2188 16.7263 52.218 16.6817C52.2166 16.595 52.2152 16.5114 52.2195 16.4279C52.2624 15.6678 52.6551 15.2761 53.4175 15.2475C53.7101 15.2365 53.9983 15.2882 54.3096 15.3971C54.2776 15.4926 54.2467 15.5857 54.2157 15.6787L54.2151 15.6806L54.2143 15.6831L54.2138 15.6844C54.1827 15.7781 54.1515 15.8719 54.1193 15.9681C54.0726 15.9609 54.0281 15.9537 53.9851 15.9467C53.8823 15.93 53.7879 15.9147 53.6925 15.9054C53.2591 15.8625 53.0588 16.0352 53.0336 16.4686C53.0293 16.5382 53.0305 16.6078 53.032 16.6866C53.0327 16.7298 53.0336 16.7759 53.0336 16.8261V16.8272ZM81.246 17.4277V16.8216H81.2449H80.344C80.344 16.7765 80.3433 16.7336 80.3426 16.6923C80.3412 16.607 80.3399 16.5274 80.3451 16.4497C80.3726 16.0284 80.6003 15.8458 81.0227 15.9052C81.1157 15.9183 81.2083 15.9368 81.307 15.9565C81.3495 15.9649 81.3932 15.9736 81.4385 15.9822C81.5034 15.7831 81.5639 15.5983 81.6266 15.408C81.312 15.276 81.0139 15.2342 80.7125 15.2496C80.0029 15.2848 79.6454 15.6236 79.5607 16.3232C79.5473 16.4333 79.5394 16.5444 79.5312 16.6596C79.5274 16.7133 79.5235 16.769 79.5189 16.8249C79.3851 16.8797 79.2517 16.9341 79.1226 16.9867L78.9315 17.0647V17.4398H79.5409V20.587H80.3462V17.4277H81.246ZM61.066 19.9731V20.1249C61.066 20.5836 61.0495 20.6177 60.5819 20.6441C60.33 20.6584 60.0671 20.6474 59.8229 20.5913C59.4841 20.5132 59.2718 20.269 59.2003 19.9291C59.1574 19.7256 59.1387 19.5132 59.1343 19.3053C59.1279 18.9295 59.1291 18.5537 59.1302 18.1779C59.1306 18.0334 59.131 17.8889 59.131 17.7444V17.4474C58.9627 17.4364 58.8131 17.4265 58.6679 17.4166L58.6653 17.4017C58.6127 17.1035 58.6089 17.0818 58.8329 16.9898C59.1145 16.8743 59.2663 16.6807 59.3268 16.3903C59.3456 16.3008 59.3793 16.2139 59.4135 16.1258C59.4293 16.085 59.4453 16.0437 59.4599 16.002H59.9417V16.8226H60.9989V17.421H59.9725C59.9683 17.4547 59.9638 17.484 59.9598 17.5104C59.9522 17.5599 59.9461 17.5998 59.9461 17.6399C59.9461 18.1965 59.9461 18.7542 59.9472 19.3108C59.9472 19.3834 59.9505 19.4571 59.956 19.5297C59.9846 19.8774 60.1573 20.0391 60.5104 20.0303C60.6272 20.0273 60.7439 20.0123 60.8725 19.9957C60.9342 19.9877 60.9986 19.9794 61.0671 19.972L61.066 19.9731ZM66.312 16.8403H66.3109L66.312 16.8392V16.8403ZM66.9071 16.8403H66.312V20.6013C66.3759 20.6021 66.4385 20.604 66.5005 20.6058C66.7018 20.6118 66.8957 20.6176 67.1018 20.5848V20.0689C67.1018 19.9075 67.1004 19.7458 67.0989 19.5841C67.0958 19.2356 67.0928 18.8867 67.104 18.5388C67.1249 17.8886 67.5836 17.4794 68.2316 17.508C68.2765 17.5101 68.3215 17.5124 68.3668 17.5147C68.419 17.5173 68.4717 17.52 68.5253 17.5223C68.533 17.4705 68.5416 17.4199 68.55 17.3702C68.5839 17.171 68.6155 16.9858 68.5759 16.7886C68.3438 16.7545 68.1292 16.7644 67.9147 16.8227C67.5429 16.9239 67.3009 17.1934 67.0457 17.5311C66.9918 17.2638 66.95 17.0548 66.9071 16.8403Z" fill="currentColor"/>
</g>
<defs>
<clipPath id="clip0_184_4389">
<rect width="120" height="28" fill="currentColor"/>
</clipPath>
</defs>
</svg>
