<svg width="98" height="28" viewBox="0 0 98 28" fill="none" xmlns="http://www.w3.org/2000/svg">
<g clip-path="url(#clip0_184_4405)">
<path fill-rule="evenodd" clip-rule="evenodd" d="M30.5265 23.3366C30.6378 23.2301 30.7511 23.1215 30.8683 23.0119L30.8718 23.0137C30.6619 22.8054 30.4553 22.6002 30.2511 22.3973L30.2502 22.3964C29.8166 21.9657 29.3932 21.5449 28.968 21.1258C28.618 20.7811 28.6287 20.7652 28.9557 20.3869L29.1225 20.1943C29.5752 19.6719 30.029 19.1483 30.4352 18.591C31.1794 17.571 31.7875 16.475 32.2665 15.3013C32.59 14.5077 32.8498 13.6892 32.9612 12.8549C33.1256 11.6263 33.191 10.3784 32.8339 9.15513C32.5211 8.08036 32.0032 7.13468 31.1971 6.3445C30.3971 5.55943 29.6044 4.76818 28.8118 3.977L28.8112 3.97635L28.8091 3.97427C28.5658 3.73138 28.3225 3.4885 28.0789 3.24576C27.8752 3.04251 27.6716 2.83897 27.4681 2.63544C26.8576 2.02489 26.2471 1.41442 25.6306 0.809908C25.5034 0.686206 25.3372 0.587201 25.1711 0.520001C23.5501 -0.144605 21.8814 -0.0809941 20.1986 0.217744C20.1774 0.223057 20.1561 0.228369 20.135 0.235405C19.9868 0.281354 19.8385 0.326585 19.6901 0.371888C19.3589 0.472903 19.0275 0.57399 18.6978 0.682687L18.6806 0.688288C18.3186 0.806605 17.9552 0.925426 17.6054 1.07505C15.5337 1.96071 13.7572 3.27405 12.1469 4.82611C11.9082 5.05586 11.917 5.16197 12.1645 5.40234C12.6445 5.86814 13.1235 6.33488 13.609 6.80801L13.6097 6.80866L14.162 7.34676C14.1089 7.39702 14.0537 7.44627 13.998 7.49588C13.8813 7.59998 13.763 7.70552 13.66 7.82405C12.7372 8.87936 11.8994 9.99298 11.2082 11.2144C10.5295 12.4112 10.068 13.6945 9.7446 15.0185C9.58019 15.6902 9.47766 16.392 9.50416 17.1008C9.52713 17.7124 9.56784 18.3169 9.69334 18.9197C9.8436 19.6427 10.0963 20.2738 10.6514 20.8129C12.4579 22.5629 14.2327 24.343 16.0075 26.1266C16.8701 26.9927 17.9218 27.5177 19.0938 27.7511C20.1897 27.9703 21.3176 27.9242 22.4277 27.7793C23.3433 27.6591 24.2253 27.3622 25.0703 27.0033C25.8498 26.671 26.5976 26.2574 27.3329 25.8332C28.2698 25.294 29.1095 24.6152 29.919 23.9028C30.1239 23.722 30.322 23.5323 30.5265 23.3366ZM28.3617 20.0354C28.2966 20.1125 28.23 20.1913 28.1602 20.272H28.1567L27.7261 19.8213C27.3055 19.3811 26.8904 18.9464 26.4615 18.499C26.4754 18.4816 26.4961 18.4569 26.5208 18.4274C26.5589 18.3819 26.6063 18.3253 26.6524 18.2675C26.7897 18.0962 26.9298 17.9269 27.07 17.7576C27.3972 17.3624 27.7245 16.967 28.0152 16.5476C28.4059 15.9854 28.7559 15.3861 29.0546 14.7693C29.3092 14.2407 29.486 13.6715 29.6574 13.1077C29.7113 12.9312 29.7391 12.7467 29.767 12.5622C29.7957 12.3714 29.8244 12.1808 29.8819 11.9993C30.0004 11.6228 29.9862 11.248 29.9544 10.8733C29.889 10.0885 29.691 9.33892 29.1271 8.75387C28.7612 8.37379 28.3264 8.08388 27.8155 7.89829C27.0713 7.62784 26.3006 7.63315 25.5529 7.7463C24.441 7.91595 23.3857 8.30307 22.3923 8.84045C21.2663 9.45035 20.1933 10.1326 19.2812 11.0413C19.1239 11.1986 18.9665 11.1314 18.8534 11.0235C18.3973 10.5887 17.9519 10.1414 17.5135 9.68892C17.3686 9.53873 17.3915 9.39378 17.5789 9.23468C18.0067 8.86874 18.4433 8.50991 18.8817 8.1546C19.7214 7.47226 20.6652 6.94909 21.6198 6.45234C21.9482 6.28161 22.3007 6.15511 22.6524 6.02882C22.7777 5.98381 22.9029 5.93886 23.0269 5.89198C23.7039 5.63388 24.4039 5.42179 25.1215 5.35287C25.8428 5.28215 26.5781 5.26973 27.2994 5.32631C28.7753 5.44298 30.0498 6.03693 31.0203 7.17C31.7662 8.03972 32.2188 9.05261 32.3354 10.2016C32.3447 10.2896 32.3621 10.3773 32.3794 10.465C32.4018 10.578 32.4242 10.6909 32.4291 10.8043C32.4716 11.7925 32.3107 12.7612 32.0579 13.7104C31.8016 14.6791 31.4463 15.6177 30.9532 16.4945C30.3379 17.5869 29.6557 18.6334 28.7878 19.5508C28.6427 19.7031 28.5061 19.8647 28.3617 20.0354ZM27.9322 21.4621C28.02 21.3931 28.1142 21.3189 28.2168 21.2354L28.215 21.2371L28.4713 21.5107C28.9091 21.9782 29.3326 22.4304 29.7635 22.8776C29.8607 22.9766 29.8378 23.0384 29.7564 23.1109L29.6848 23.175L29.5835 23.266C29.3746 23.4536 29.165 23.6419 28.9504 23.8233C28.0064 24.6205 27.0024 25.3364 25.8941 25.8826C24.9943 26.3263 24.061 26.6869 23.0816 26.9397C22.0794 27.1978 21.0701 27.2861 20.0554 27.1942C18.5334 27.0546 17.1812 26.5172 16.1718 25.3046C15.318 24.2794 14.8496 23.1074 14.8337 21.7692C14.833 21.6986 14.8321 21.6278 14.8311 21.557C14.8253 21.1073 14.8195 20.6563 14.8638 20.2119C14.9397 19.4553 15.1306 18.7218 15.3852 18.0023C15.9173 16.5015 16.6633 15.1157 17.6567 13.8695C17.9149 13.5453 18.1885 13.2336 18.4619 12.922C18.6133 12.7494 18.7648 12.5769 18.9135 12.4023C19.0284 12.268 19.1079 12.2857 19.2299 12.4112C19.5997 12.7953 19.9763 13.1728 20.3518 13.5492C20.486 13.6837 20.6201 13.8181 20.7536 13.9526C20.6324 14.1015 20.512 14.2478 20.3928 14.3927C20.1624 14.6726 19.9362 14.9475 19.716 15.2271C18.7421 16.4609 17.9943 17.8167 17.5382 19.3263C17.2589 20.249 17.1388 21.1877 17.3155 22.1351C17.4287 22.7432 17.639 23.3442 18.1075 23.7897C18.5617 24.2228 19.0797 24.5286 19.7196 24.6753C20.1809 24.7814 20.6334 24.8291 21.086 24.7814C21.5417 24.7322 21.9939 24.6368 22.4445 24.5418C22.5444 24.5207 22.6443 24.4996 22.7441 24.4791C23.6155 24.2987 24.3933 23.8851 25.1605 23.4627C25.9948 23.0031 26.7938 22.4816 27.4938 21.8258C27.6253 21.7035 27.7674 21.5918 27.9322 21.4621ZM15.2177 6.39411C15.0528 6.53598 14.885 6.68022 14.7117 6.82531L14.71 6.82883C14.658 6.7859 14.6051 6.74361 14.5519 6.70118C14.4369 6.60943 14.3208 6.51674 14.2133 6.41522C14.0096 6.22094 13.8096 6.02236 13.6097 5.82385C13.4713 5.68636 13.3329 5.54894 13.1933 5.41296C12.9494 5.17432 12.9405 4.99404 13.2039 4.78541C13.4277 4.60822 13.6494 4.42808 13.8712 4.24788C14.4744 3.75781 15.0774 3.26788 15.7211 2.83747C16.5961 2.25234 17.5542 1.79802 18.5476 1.42505C19.3466 1.12459 20.1668 0.898288 21.0047 0.792247C21.7064 0.703867 22.4294 0.716216 23.1382 0.755129C23.7728 0.788729 24.4004 0.923057 24.9802 1.21296C25.0332 1.23773 25.0862 1.26774 25.1269 1.30838C25.4521 1.62485 25.7739 1.94477 26.0956 2.26648C26.1148 2.2845 26.1283 2.30913 26.1439 2.33749C26.1512 2.35077 26.159 2.36491 26.168 2.37963C25.263 2.26296 24.3739 2.23288 23.4935 2.34251C22.9559 2.41007 22.4244 2.55086 21.8959 2.69086C21.7885 2.71929 21.681 2.7478 21.5739 2.77558C21.1797 2.8781 20.7855 2.99477 20.4142 3.15918L20.3997 3.16564C19.6903 3.47989 18.9761 3.79636 18.3019 4.1791C17.616 4.56801 16.962 5.01874 16.3256 5.4872C15.9473 5.76634 15.5893 6.07434 15.2177 6.39411ZM14.4411 7.97913C14.4781 7.94165 14.5149 7.90425 14.5509 7.86648C15.1484 8.4799 15.7299 9.0773 16.338 9.70307C16.2635 9.78807 16.1784 9.88535 16.0875 9.98924C15.978 10.1145 15.8602 10.2494 15.7423 10.3837C14.6269 11.6564 13.6812 13.044 12.9635 14.5784C12.8273 14.8693 12.7208 15.1741 12.6143 15.4787C12.5785 15.5812 12.5427 15.6837 12.5057 15.7857C12.3501 16.2152 12.1981 16.643 12.0602 17.0778C12.0351 17.1571 12.029 17.2422 12.0231 17.3275C12.0177 17.404 12.0123 17.4807 11.9931 17.5533C11.8022 18.2834 11.7739 19.0258 11.8004 19.7735C11.8097 20.0462 11.8305 20.3189 11.8528 20.6099C11.8643 20.7602 11.8762 20.9155 11.887 21.0781C11.8191 21.0161 11.7549 20.9568 11.6929 20.8997L11.6922 20.899C11.553 20.7706 11.425 20.6525 11.2931 20.5389C10.7469 20.0723 10.5153 19.4642 10.3686 18.7731C10.1547 17.7584 10.2166 16.749 10.3103 15.7414C10.3518 15.299 10.4822 14.8607 10.611 14.4275C10.6299 14.3639 10.6488 14.3005 10.6673 14.2372C10.9554 13.2561 11.355 12.3122 11.887 11.4407C12.3153 10.7377 12.7942 10.064 13.2728 9.39069C13.3453 9.28867 13.4179 9.18657 13.4903 9.08441C13.6537 8.85381 13.8426 8.64079 14.0315 8.42799C14.0959 8.35548 14.1606 8.28261 14.2239 8.20938C14.2933 8.12932 14.3675 8.05401 14.4411 7.97913ZM23.7318 15.7921L23.7396 15.7891C23.7567 15.7825 23.7659 15.779 23.7728 15.7733C24.6991 14.8241 25.4645 13.7669 26.0673 12.5809C26.4508 11.8243 26.7655 11.0465 26.9352 10.2263C27.0151 9.83424 27.0114 9.42529 27.0076 9.01721C27.0062 8.86601 27.0048 8.71474 27.0077 8.56469C27.0077 8.52405 26.9211 8.4445 26.8751 8.4445C26.3907 8.44802 25.9064 8.45865 25.4239 8.48162C25.369 8.48342 25.2913 8.55765 25.2683 8.61595C25.1857 8.8197 25.1101 9.02719 25.0346 9.23468C24.8853 9.6447 24.736 10.0546 24.5329 10.4349C24.1599 11.1349 23.7127 11.8031 23.2443 12.4448C22.9655 12.8261 22.6512 13.1812 22.3319 13.5419C22.1836 13.7095 22.0342 13.8784 21.8868 14.0515C22.073 14.2322 22.2574 14.4206 22.4433 14.6105C22.8446 15.0205 23.2534 15.4381 23.705 15.8028C23.7155 15.7985 23.7243 15.795 23.7318 15.7921ZM23.6411 16.7181C22.7664 17.5697 21.8829 18.2677 20.9233 18.8685C20.864 18.9057 20.8048 18.9434 20.7455 18.9812C20.4529 19.1674 20.1582 19.3549 19.8451 19.496C19.493 19.6543 19.1308 19.79 18.7686 19.9254C18.5688 20.0002 18.369 20.075 18.1711 20.1536C18.1075 20.1783 18.0208 20.2543 18.019 20.3109C17.9978 20.7776 17.9908 21.2442 17.9855 21.7109C17.9855 21.8505 18.0562 21.9213 18.2082 21.9071C18.3551 21.8933 18.5025 21.8819 18.6499 21.8706C18.9174 21.85 19.1854 21.8293 19.4509 21.794L19.5409 21.7818C19.9148 21.7314 20.2926 21.6805 20.6476 21.5659C21.1266 21.4122 21.6039 21.2248 22.0405 20.9791C22.7794 20.5637 23.5006 20.1147 24.2006 19.6357C24.5043 19.4282 24.7737 19.173 25.043 18.9177C25.1248 18.8402 25.2067 18.7626 25.2895 18.6864C25.3302 18.6493 25.3461 18.5132 25.3142 18.4778C24.8055 17.9331 24.2907 17.396 23.7671 16.8496L23.6411 16.7181ZM19.5501 11.7362L19.5481 11.7359C20.9623 10.3536 22.5761 9.34955 24.418 8.71847L24.456 8.74855L24.4941 8.77856C24.4604 8.8686 24.4284 8.95942 24.3965 9.05024C24.3261 9.25019 24.2558 9.45042 24.167 9.64125C23.5289 11.02 22.6451 12.2309 21.5951 13.3268C21.4642 13.4647 21.3599 13.4771 21.2221 13.3763C21.1461 13.3215 21.0753 13.2579 21.0082 13.1907C20.5204 12.7065 20.0344 12.2205 19.5501 11.7362ZM23.0534 16.2294C22.6115 17.0937 19.1186 19.3705 18.2648 19.3122C18.8959 17.4455 19.9123 15.8599 21.2822 14.4528L23.0534 16.2294ZM88.4693 13.5837L88.4729 13.5847L88.4693 13.5865V13.5837ZM88.4693 13.5837C88.4643 13.5822 88.4586 13.5802 88.4535 13.5782C88.437 13.5722 88.4198 13.566 88.4097 13.5723C88.1506 13.7336 87.8741 13.7156 87.5977 13.6976C87.4778 13.6898 87.3579 13.682 87.2395 13.689C87.223 13.689 87.2057 13.6932 87.1813 13.6996C87.1634 13.7041 87.1426 13.7097 87.1138 13.7155C87.1074 13.7873 87.1002 13.8596 87.0923 13.9323C87.0758 14.0923 87.0586 14.2544 87.0571 14.4172C87.0514 15.0122 87.0499 15.607 87.0492 16.2019C87.0485 16.4997 87.0478 16.7975 87.0463 17.0953C87.0463 17.4382 87.322 17.7157 87.6638 17.7175C87.8476 17.7175 88.0314 17.721 88.2152 17.7246C88.33 17.7263 88.3688 17.7599 88.3638 17.8978C88.3509 18.195 88.348 18.4928 88.3458 18.7906V18.7913C88.3437 18.9962 88.3422 19.201 88.3372 19.4056C88.3372 19.4516 88.2855 19.5258 88.2432 19.54C87.6968 19.722 87.1296 19.7362 86.5696 19.6725C85.8503 19.5912 85.2314 19.2942 84.9557 18.573C84.8351 18.2602 84.7841 17.9048 84.7769 17.5672C84.7582 16.4197 84.7669 15.2706 84.7755 14.123L84.7769 13.9223C84.7769 13.7561 84.7238 13.6978 84.5666 13.7013C84.4725 13.7034 84.3785 13.7013 84.2837 13.6991C84.2162 13.6975 84.1494 13.696 84.0819 13.696C83.8098 13.696 83.7201 13.6094 83.7237 13.3495C83.7251 13.2408 83.728 13.1317 83.7309 13.0226C83.7373 12.7882 83.7438 12.553 83.7373 12.319C83.7337 12.1316 83.8192 12.0981 83.9778 12.1051C84.0848 12.1099 84.1925 12.1079 84.2995 12.106C84.3907 12.1043 84.4818 12.1027 84.5737 12.1051C84.7381 12.1104 84.7841 12.045 84.7805 11.8824C84.7719 11.3562 84.7726 10.829 84.7733 10.3023V10.0612V9.9079C84.7733 9.88988 84.7762 9.87186 84.7798 9.85025C84.7812 9.84235 84.7827 9.83395 84.7834 9.8249L84.7855 9.80889H87.0535V10.0988C87.0528 10.268 87.0521 10.4374 87.0521 10.6068C87.0507 11.0303 87.0499 11.4541 87.0399 11.8771C87.0341 12.0538 87.0959 12.1051 87.2625 12.1121C87.5776 12.1246 87.8935 12.1447 88.2087 12.1647L88.2094 12.1648C88.2963 12.1702 88.3832 12.1758 88.4693 12.1811V13.5837ZM19.9568 28.032L19.951 28.0338L19.9492 28.032H19.9568ZM19.9568 28.032C19.971 28.0275 19.9851 28.0219 19.9993 28.0162C20.0307 28.0037 20.062 27.9914 20.0925 27.9914C20.6086 27.9896 21.1247 27.9896 21.6409 27.9914C21.6674 27.9914 21.6939 28.0037 21.7205 28.016C21.7328 28.0217 21.7452 28.0275 21.7576 28.032H19.9568ZM88.4643 19.502L88.4585 19.496C88.4478 19.4843 88.4377 19.4728 88.4377 19.4622C88.4485 18.9231 88.4607 18.3839 88.4729 17.8448V19.5135L88.4708 19.5101C88.4686 19.5074 88.4665 19.5047 88.4643 19.502ZM38.2977 14.6383V10.0512C38.2977 9.73832 38.3896 9.6429 38.7008 9.64642C39.1163 9.64944 39.532 9.648 39.9477 9.64649C40.98 9.64283 42.012 9.63924 43.0404 9.70472C43.9701 9.76309 44.8735 10.0353 45.6442 10.6434C46.4644 11.2904 46.9222 12.1247 47.1697 13.1163C47.3606 13.8853 47.3571 14.6578 47.2739 15.4249C47.1361 16.7136 46.6712 17.8643 45.5911 18.6739C45.128 19.0204 44.5977 19.2254 44.032 19.3916C43.3047 19.6059 42.5731 19.5869 41.8419 19.568C41.5177 19.5595 41.1933 19.5511 40.8697 19.5631C40.3691 19.5823 39.8678 19.5748 39.3662 19.5673C39.0813 19.5631 38.7965 19.5589 38.5116 19.5595C38.3419 19.5595 38.2854 19.51 38.2854 19.3351C38.2907 18.1609 38.29 16.9877 38.2893 15.8141V15.8133C38.2891 15.4217 38.2889 15.0301 38.2889 14.6383H38.2977ZM40.9739 14.6613H40.9563V14.6633C40.9563 15.5182 40.9563 16.3748 40.9599 17.2298C40.9599 17.2916 40.997 17.3959 41.0376 17.4065L41.0677 17.4147C41.2475 17.4636 41.4331 17.5141 41.6138 17.509C41.7876 17.5038 41.9608 17.4787 42.134 17.4537C42.2533 17.4364 42.3727 17.4191 42.4924 17.4082C43.3073 17.334 44.0037 17.0707 44.3662 16.2663C44.3845 16.2257 44.4042 16.1847 44.424 16.1434C44.5002 15.9853 44.5783 15.823 44.5854 15.6618C44.5927 15.4919 44.6063 15.3214 44.6199 15.1509C44.6713 14.5055 44.7228 13.8583 44.4404 13.2348C44.4225 13.1957 44.4057 13.1557 44.3889 13.1156C44.3441 13.0089 44.2991 12.9018 44.2336 12.8106C43.7528 12.1389 43.0634 11.8772 42.2644 11.8543C42.1119 11.8502 41.959 11.8513 41.8063 11.8524C41.6209 11.8536 41.4356 11.8549 41.2515 11.8471C41.0464 11.8383 40.9687 11.9019 40.9704 12.1159C40.978 12.722 40.9766 13.329 40.9752 13.9357C40.9746 14.178 40.9739 14.4209 40.9739 14.6631V14.6613ZM78.6262 12.4709L78.5272 12.5206L78.3635 12.6018V12.607C78.3075 12.2341 78.2457 12.1528 78.0246 12.1528C77.5328 12.151 77.0396 12.1528 76.5485 12.1581C76.285 12.1616 76.2161 12.2358 76.2161 12.5063C76.2154 13.7565 76.2154 15.0066 76.2154 16.2568V16.2729C76.2147 18.1408 76.2147 20.0088 76.2125 21.8768C76.2125 22.073 76.2994 22.1542 76.4903 22.1542C76.8809 22.1507 77.2729 22.1504 77.6649 22.1499C77.8609 22.1498 78.0569 22.1496 78.2522 22.149C78.558 22.149 78.5674 22.1472 78.5674 21.8343C78.5688 21.4985 78.5688 21.1627 78.5681 20.8268C78.5681 20.4238 78.5681 20.0207 78.571 19.6177C78.5724 19.5293 78.5939 19.379 78.6363 19.3667C78.721 19.3437 78.8373 19.3755 78.9228 19.4214C79.2387 19.5894 79.5625 19.7343 79.9279 19.7378C80.004 19.7384 80.0801 19.7401 80.1555 19.7417C80.5683 19.7507 80.979 19.7597 81.3904 19.5894C81.7328 19.4462 82.0545 19.3013 82.3237 19.0485C82.7071 18.6878 82.972 18.2636 83.1845 17.7722C83.3985 17.2773 83.4796 16.7841 83.4903 16.2626C83.4911 16.221 83.4975 16.1794 83.5033 16.1378C83.5069 16.114 83.5105 16.0902 83.5133 16.0664C83.5155 16.0435 83.5191 16.0205 83.5219 15.9975L83.5291 15.9485C83.5435 15.8495 83.5578 15.7501 83.5535 15.6528C83.5485 15.5581 83.532 15.4645 83.5155 15.3708C83.5033 15.3001 83.4903 15.2293 83.4832 15.1578C83.4746 15.0776 83.4731 14.9948 83.4724 14.9121C83.4702 14.7562 83.4681 14.6006 83.4157 14.4631C83.2814 14.1043 83.1156 13.7437 82.8959 13.429C82.3854 12.6972 81.7242 12.1439 80.7873 12.0767C80.4348 12.0517 80.0772 12.0759 79.7204 12.1001C79.5998 12.1083 79.4792 12.1165 79.3593 12.1227C79.304 12.1254 79.2501 12.1554 79.1977 12.1852C79.1798 12.1954 79.1611 12.2056 79.1432 12.2147C78.9723 12.2985 78.8007 12.3839 78.6262 12.4709ZM78.5214 15.9409H78.5071V15.9391C78.5114 15.8538 78.5142 15.7683 78.5171 15.6829C78.5236 15.4833 78.53 15.2839 78.5545 15.0871C78.5738 14.9333 78.6363 14.776 78.7138 14.6399C78.739 14.5963 78.7634 14.5521 78.7878 14.5077C78.95 14.216 79.113 13.9217 79.4706 13.802C79.7865 13.6977 80.0858 13.6889 80.4003 13.8462C81.1003 14.198 81.2755 14.8273 81.3157 15.5202C81.3372 15.8702 81.3545 16.2343 81.2733 16.5685C81.19 16.9131 81.0364 17.2667 80.826 17.5513C80.2589 18.3131 79.4189 18.177 78.8783 17.4929C78.6198 17.1659 78.5107 16.7912 78.5214 16.3793C78.5236 16.2818 78.5229 16.1851 78.5221 16.0881V16.0874C78.5214 16.0386 78.5214 15.9899 78.5214 15.9409ZM52.828 16.4256C52.6244 16.4256 52.4207 16.4261 52.2171 16.4266C51.6571 16.4279 51.0971 16.4294 50.5371 16.4203C50.3285 16.4167 50.2719 16.4857 50.2755 16.6837C50.2932 17.4278 50.926 18.0466 51.6773 18.0677C52.2588 18.0837 52.7573 17.9016 53.1603 17.4915C53.2716 17.3789 53.359 17.2434 53.4464 17.108C53.4824 17.0521 53.5186 16.9959 53.5563 16.9417C53.6411 16.8198 53.7419 16.7879 53.8745 16.8622C54.0504 16.9603 54.2263 17.0579 54.4022 17.1557C54.578 17.2533 54.7539 17.3509 54.9298 17.4491C54.9556 17.4634 54.9806 17.4796 55.0056 17.4957C55.0421 17.5192 55.0783 17.5426 55.1172 17.5604C55.2727 17.6312 55.3364 17.7938 55.2302 17.9193C55.1517 18.0122 55.0748 18.1076 54.9978 18.203C54.7719 18.4834 54.5452 18.7645 54.2722 18.9887C53.8232 19.3599 53.2929 19.5986 52.7096 19.7523C52.1316 19.9043 51.5641 19.8938 50.9914 19.8513C50.7174 19.8301 50.4434 19.7223 50.1854 19.6145C49.9061 19.4995 49.6391 19.3493 49.3757 19.1973C48.7571 18.842 48.4053 18.2728 48.1808 17.6276C48.099 17.393 48.0573 17.1445 48.0156 16.8961C47.9961 16.7797 47.9764 16.6626 47.9527 16.5476C47.9414 16.4918 47.9245 16.4351 47.9076 16.3783C47.8721 16.2589 47.8364 16.1393 47.852 16.0278C47.8644 15.9408 47.8764 15.8537 47.8884 15.7666C48.0054 14.9134 48.1223 14.0603 48.7093 13.3498C49.1283 12.8425 49.6179 12.443 50.2295 12.1956C50.2419 12.1907 50.2542 12.1851 50.2666 12.1794C50.2951 12.1664 50.3237 12.1533 50.3533 12.1495C50.4902 12.1298 50.6267 12.1064 50.7631 12.083C51.2006 12.0079 51.6377 11.9327 52.0891 11.9799C53.5333 12.1284 54.5445 12.8478 55.0836 14.2036C55.3346 14.8347 55.4318 15.4887 55.4477 16.164C55.453 16.3885 55.3611 16.4397 55.1631 16.4379C54.6076 16.4342 54.0512 16.4349 53.4952 16.4356H53.4944C53.2722 16.4359 53.05 16.4362 52.828 16.4362V16.4291V16.4256ZM52.9182 14.8983C53.0556 14.4826 52.8021 14.2497 52.5539 14.0217L52.5134 13.9844C52.4091 13.8872 52.2818 13.7917 52.1492 13.7546C51.4298 13.5478 50.6555 13.912 50.3409 14.5872C50.2419 14.7976 50.3162 14.9107 50.5565 14.9107H52.7767C52.8091 14.9107 52.8414 14.9069 52.8723 14.9033L52.892 14.901C52.9015 14.9 52.9108 14.899 52.92 14.8983H52.9182ZM72.2408 16.6996C72.2846 16.4844 72.3255 16.2707 72.3657 16.0586V16.0576C72.4634 15.5444 72.5589 15.0404 72.6946 14.5482C72.7541 14.3359 72.7886 14.1235 72.8223 13.9113C72.8403 13.8018 72.8575 13.6925 72.8791 13.5831C72.9071 13.4419 72.9652 13.3074 73.0241 13.1728C73.065 13.0782 73.1059 12.9836 73.1368 12.8866C73.1756 12.7642 73.1806 12.6274 73.1856 12.496L73.1864 12.4747C73.1935 12.2661 73.312 12.1601 73.5044 12.1583C74.1427 12.1513 74.7823 12.146 75.4206 12.1618C75.6575 12.1671 75.7214 12.3422 75.5958 12.5472C75.5778 12.577 75.5692 12.6124 75.5606 12.6481C75.5549 12.6695 75.5498 12.691 75.5427 12.7116L75.4744 12.9053C75.3876 13.153 75.3014 13.4002 75.2153 13.6485C75.1499 13.8376 75.0846 14.0285 75.0265 14.2195C74.9949 14.3236 74.9661 14.4284 74.9374 14.5331C74.8951 14.6876 74.8527 14.8419 74.8017 14.9937C74.7421 15.1714 74.6725 15.3465 74.6029 15.5215C74.5727 15.5989 74.5418 15.6763 74.5124 15.7538C74.511 15.7573 74.5095 15.7604 74.5074 15.7635C74.5059 15.7666 74.5038 15.7697 74.5031 15.7733C74.4693 15.8869 74.4356 16.0008 74.4026 16.1146L74.4018 16.1154C74.3056 16.4419 74.2094 16.7688 74.1075 17.0937C74.0062 17.4118 73.9 17.7281 73.793 18.0446C73.7557 18.1553 73.7183 18.2661 73.681 18.377C73.6796 18.3812 73.6781 18.3854 73.6767 18.3896C73.6738 18.3991 73.6702 18.4086 73.6667 18.4181C73.6588 18.4381 73.6509 18.4586 73.6458 18.4796C73.6164 18.5879 73.5891 18.6971 73.5618 18.8063C73.5073 19.0246 73.4527 19.2432 73.3809 19.4553L73.3465 19.5573C73.2043 19.9783 73.0607 20.4029 72.8647 20.7987C72.6457 21.2424 72.3873 21.6914 71.8888 21.8859C71.5883 22.0043 71.2683 22.1051 70.9502 22.1298C70.5939 22.1586 70.2338 22.1486 69.8741 22.1386C69.7483 22.1351 69.6226 22.1316 69.4972 22.1298C69.2143 22.1262 69.1613 22.075 69.1595 21.7992V21.7982C69.156 21.3743 69.1525 20.9504 69.156 20.5265C69.156 20.2967 69.2302 20.2295 69.4583 20.2207C69.5566 20.2172 69.6551 20.2147 69.7536 20.2123C70.0073 20.2058 70.2616 20.1994 70.5136 20.1765C70.7504 20.1553 70.9201 19.7806 70.8141 19.5631C70.8118 19.5583 70.8095 19.5534 70.8071 19.5486C70.7968 19.5268 70.7863 19.5049 70.7805 19.4818C70.7136 19.2567 70.648 19.0311 70.5825 18.8057C70.449 18.3461 70.3153 17.8867 70.1706 17.4313C70.0446 17.0349 69.905 16.6436 69.7654 16.2521L69.765 16.251L69.7648 16.2501C69.7029 16.0766 69.641 15.9031 69.5802 15.729C69.5626 15.6813 69.5466 15.6318 69.5325 15.5841C69.4923 15.4538 69.4519 15.3237 69.4116 15.1937L69.4113 15.1928L69.4105 15.1903C69.2776 14.7618 69.1449 14.3338 69.0164 13.9048C68.9685 13.745 68.9247 13.5839 68.8811 13.4231L68.8808 13.4223C68.8487 13.3042 68.8167 13.1861 68.783 13.0687L68.7657 13.0086C68.7274 12.876 68.6888 12.7419 68.6381 12.6144C68.532 12.3457 68.6381 12.1548 68.9315 12.1513C69.5555 12.1442 70.1795 12.1477 70.8035 12.1566C70.8583 12.1566 70.9396 12.2149 70.9591 12.2643C71.0179 12.415 71.0581 12.5742 71.098 12.7319L71.1004 12.7416C71.2136 13.1924 71.3249 13.645 71.4346 14.0975L71.4595 14.1999C71.5097 14.4058 71.5598 14.611 71.6007 14.8187C71.6449 15.0405 71.686 15.2632 71.727 15.486C71.7682 15.7087 71.8093 15.9314 71.8535 16.1533C71.8617 16.1953 71.8852 16.235 71.909 16.275C71.9212 16.2955 71.9334 16.3161 71.9436 16.3371C71.9492 16.3488 71.9566 16.361 71.9637 16.3735C71.9823 16.4042 72.001 16.4356 71.9946 16.4608C71.9296 16.7111 72.0821 16.7083 72.2408 16.6996ZM61.1573 14.7761L61.155 14.7737L61.217 14.7423C61.3015 14.6998 61.4078 14.6464 61.5108 14.5887C61.6017 14.538 61.6936 14.4887 61.7855 14.4394C62.0169 14.3153 62.2485 14.1911 62.4636 14.0443C62.8101 13.8074 62.8047 13.7845 62.5555 13.4503C61.9774 12.6726 61.2368 12.1582 60.2399 12.0751C60.2122 12.0726 60.1849 12.0665 60.1577 12.0604C60.1274 12.0536 60.0973 12.0469 60.0666 12.045C59.9745 12.0399 59.881 12.0295 59.7873 12.0191C59.559 11.9938 59.3302 11.9684 59.1209 12.0185C59.0146 12.0441 58.9046 12.0546 58.7943 12.0651C58.5688 12.0866 58.3416 12.1083 58.1399 12.259C58.0382 12.3356 57.9146 12.3835 57.7909 12.4314C57.6693 12.4785 57.5477 12.5256 57.4469 12.6001C56.5966 13.2276 56.077 14.0744 55.9267 15.1155C55.8595 15.5821 55.8701 16.0665 55.8966 16.5384C55.9409 17.295 56.2148 17.972 56.7186 18.5465C57.1199 19.0044 57.5937 19.3473 58.1717 19.5718C58.7002 19.7768 59.2323 19.8882 59.7944 19.8475C60.0118 19.8334 60.231 19.7892 60.4396 19.7291C60.4898 19.7149 60.5406 19.7011 60.5917 19.6874C60.8249 19.6245 61.0623 19.5604 61.258 19.4357C61.6186 19.2076 61.9528 18.9266 62.2656 18.6332C62.3729 18.5328 62.4567 18.4087 62.5407 18.2844C62.6074 18.1854 62.6744 18.0863 62.7535 17.9986C62.8737 17.8678 62.8613 17.7811 62.7252 17.7069C62.5853 17.6296 62.4433 17.556 62.3013 17.4824C62.1188 17.3878 61.9363 17.2931 61.7583 17.1908C61.5409 17.0653 61.3305 16.9468 61.0565 17.0193C61.0285 17.3016 60.836 17.4714 60.6445 17.6404C60.607 17.6735 60.5695 17.7066 60.5333 17.7405C60.2805 17.9774 59.4585 18.0374 59.1757 17.8412C58.6861 17.5001 58.3573 17.0387 58.2724 16.443C58.1752 15.7465 58.2247 15.0642 58.6029 14.4402C58.8116 14.0991 59.1174 13.8764 59.501 13.7968C59.8528 13.7244 60.1903 13.8622 60.4608 14.0637C60.6405 14.1967 60.792 14.3682 60.9479 14.5448C61.0152 14.6211 61.0833 14.6983 61.155 14.7737L61.1502 14.7761H61.1573ZM63.7452 19.5664H65.8628V19.5647C65.8648 19.5373 65.8667 19.5125 65.8685 19.4896C65.8732 19.4296 65.877 19.3827 65.877 19.3366C65.8787 18.6631 65.8801 17.9901 65.8814 17.3171C65.8827 16.644 65.884 15.971 65.8858 15.2975C65.8875 14.9157 66.0361 14.6151 66.4073 14.4685C66.6105 14.3889 66.8227 14.3235 67.0365 14.2811C67.1847 14.2519 67.3363 14.2411 67.4877 14.2303C67.5566 14.2254 67.6255 14.2205 67.6941 14.2139C67.8355 14.1997 67.9328 14.1308 67.9328 13.9788C67.9363 13.4078 67.9363 12.8386 67.9363 12.2677C67.9363 12.1475 67.8815 12.1033 67.756 12.1175C67.5103 12.1439 67.2752 12.1864 67.0348 12.2553C66.7201 12.3455 66.4284 12.4533 66.151 12.6212C66.0914 12.6576 66.0201 12.6749 65.9453 12.693C65.9112 12.7013 65.8764 12.7097 65.8416 12.7202C65.8374 12.6946 65.8335 12.6749 65.8304 12.6589C65.8254 12.6337 65.8221 12.6172 65.8221 12.6C65.831 12.2111 65.7797 12.1546 65.3891 12.151C64.9542 12.1475 64.5211 12.1457 64.0881 12.1563C63.6656 12.1669 63.6073 12.2323 63.6073 12.6495V17.5035C63.6078 17.7096 63.6086 17.9159 63.6094 18.1223C63.611 18.5373 63.6126 18.9529 63.6126 19.3685C63.6126 19.3776 63.6124 19.3868 63.6123 19.3959C63.6107 19.4825 63.6093 19.5664 63.7452 19.5664Z" fill="currentColor"/>
</g>
<defs>
<clipPath id="clip0_184_4405">
<rect width="97.641" height="28" fill="currentColor" transform="translate(0.166687)"/>
</clipPath>
</defs>
</svg>
