<svg width="20" height="20" viewBox="0 0 20 20" fill="none" xmlns="http://www.w3.org/2000/svg">
<circle cx="10" cy="10" r="10" fill="#C2A633"/>
<path fill-rule="evenodd" clip-rule="evenodd" d="M9.59474 3.33404L9.86459 3.34116L10.1149 3.35415L10.2503 3.36385L10.4651 3.38321L10.6154 3.39973L10.7709 3.41948L11.013 3.45578L11.1795 3.48483L11.3497 3.5181L11.5232 3.55587C11.5523 3.56256 11.5816 3.56945 11.611 3.57654L11.7885 3.62159L11.9681 3.67185L12.1494 3.72761C12.1798 3.73737 12.2102 3.74738 12.2406 3.75763L12.4237 3.82216C12.5766 3.87847 12.7301 3.94125 12.8831 4.01122L13.0665 4.09868C14.7131 4.91781 16.25 6.61079 16.25 10.1071C16.25 13.2111 15.0244 14.8525 13.6482 15.7171L13.4857 15.8153C13.3226 15.91 13.158 15.9943 12.9936 16.0693L12.8294 16.1413L12.6658 16.2074L12.5031 16.2678L12.3417 16.3227L12.1821 16.3725L12.0246 16.4174L11.8696 16.4575C11.844 16.4638 11.8185 16.47 11.7931 16.4759L11.6426 16.5095L11.4955 16.5391L11.2823 16.5763L11.1456 16.5967L10.9498 16.6215L10.8259 16.6344L10.6511 16.6491L10.4407 16.6611L10.3015 16.6655L10.1319 16.6667L9.99101 16.6638L9.88931 16.6588L5.3473 16.658V10.7228H3.75V9.26893H5.34717V3.33337L9.59474 3.33404ZM9.68726 5.79628H7.89953V9.26881H10.7121V10.7227H7.89953V14.195L9.83943 14.195L10.0361 14.1913L10.2579 14.1783L10.4122 14.1635L10.5799 14.1418L10.6983 14.123L10.8212 14.1002L10.948 14.073C10.9695 14.0681 10.991 14.063 11.0127 14.0577L11.1444 14.0233L11.2785 13.9836C11.3461 13.9623 11.4144 13.939 11.4831 13.9132L11.6208 13.8586L11.759 13.7973C12.7496 13.3335 13.7282 12.3292 13.7253 10.155C13.7224 7.95473 12.7492 6.86048 11.7457 6.31896L11.6056 6.24693C11.5356 6.21266 11.4656 6.18094 11.396 6.15161L11.2573 6.09605L11.1203 6.0465C11.0976 6.03873 11.0751 6.03119 11.0526 6.02388L10.919 5.98271C10.897 5.97629 10.8751 5.97008 10.8533 5.96408L10.7245 5.93055L10.5995 5.90168L10.479 5.87714L10.3635 5.85661L10.2535 5.83974L10.1497 5.82621L10.0066 5.81142L9.92063 5.80476L9.80701 5.79872L9.68726 5.79628Z" fill="white"/>
</svg>
