<svg width="71" height="17" viewBox="0 0 71 17" fill="none" xmlns="http://www.w3.org/2000/svg">
    <path d="M22.8459 2.98659C22.8459 3.47754 22.6956 3.87074 22.3993 4.16399C22.0586 4.51163 21.615 4.68654 21.0713 4.68654C20.5517 4.68654 20.108 4.50868 19.7441 4.15811C19.3794 3.80239 19.1974 3.36583 19.1974 2.84327C19.1974 2.32072 19.3794 1.88415 19.7441 1.53137C20.108 1.17786 20.5517 1 21.0713 1C21.33 1 21.5766 1.05218 21.812 1.1492C22.0466 1.24695 22.2376 1.37924 22.376 1.5424L22.0616 1.85255C21.8203 1.574 21.4916 1.43657 21.0713 1.43657C20.6923 1.43657 20.3637 1.56592 20.0847 1.82683C19.8087 2.08847 19.6704 2.42729 19.6704 2.84327C19.6704 3.25926 19.8087 3.60101 20.0847 3.86266C20.3637 4.12063 20.6923 4.25292 21.0713 4.25292C21.4736 4.25292 21.812 4.12063 22.0789 3.85972C22.2549 3.687 22.3549 3.44888 22.3812 3.1446H21.0713V2.7198H22.8189C22.8399 2.81167 22.8459 2.9006 22.8459 2.98659Z" fill="currentColor" stroke="currentColor" stroke-width="0.16" stroke-miterlimit="10"/>
    <path d="M25.6184 1.51297H23.9768V2.6301H25.4567V3.05491H23.9768V4.17204H25.6184V4.60493H23.5121V1.08008H25.6184V1.51297Z" fill="currentColor" stroke="currentColor" stroke-width="0.16" stroke-miterlimit="10"/>
    <path d="M27.5751 4.60493H27.1104V1.51297H26.1035V1.08008H28.5828V1.51297H27.5751V4.60493Z" fill="currentColor" stroke="currentColor" stroke-width="0.16" stroke-miterlimit="10"/>
    <path d="M30.3771 4.60493V1.08008H30.841V4.60493H30.3771Z" fill="currentColor" stroke="currentColor" stroke-width="0.16" stroke-miterlimit="10"/>
    <path d="M32.8974 4.60493H32.4364V1.51297H31.4258V1.08008H33.908V1.51297H32.8974V4.60493Z" fill="currentColor" stroke="currentColor" stroke-width="0.16" stroke-miterlimit="10"/>
    <path d="M38.6016 4.15223C38.2459 4.50869 37.8052 4.68654 37.2796 4.68654C36.751 4.68654 36.3103 4.50869 35.9546 4.15223C35.5997 3.79651 35.423 3.35995 35.423 2.84327C35.423 2.3266 35.5997 1.89003 35.9546 1.53431C36.3103 1.17786 36.751 1 37.2796 1C37.8022 1 38.2429 1.17786 38.5985 1.53725C38.9565 1.89591 39.1332 2.32954 39.1332 2.84327C39.1332 3.35995 38.9565 3.79651 38.6016 4.15223ZM36.2983 3.85678C36.566 4.12063 36.8916 4.25292 37.2796 4.25292C37.6646 4.25292 37.9932 4.12063 38.2579 3.85678C38.5249 3.59293 38.6602 3.25411 38.6602 2.84327C38.6602 2.43243 38.5249 2.09362 38.2579 1.82977C37.9932 1.56592 37.6646 1.43362 37.2796 1.43362C36.8916 1.43362 36.566 1.56592 36.2983 1.82977C36.0313 2.09362 35.896 2.43243 35.896 2.84327C35.896 3.25411 36.0313 3.59293 36.2983 3.85678Z" fill="currentColor" stroke="currentColor" stroke-width="0.16" stroke-miterlimit="10"/>
    <path d="M39.7855 4.60493V1.08008H40.3495L42.1031 3.82147H42.1234L42.1031 3.14384V1.08008H42.5671V4.60493H42.0828L40.2465 1.72831H40.2262L40.2465 2.40888V4.60493H39.7855Z" fill="currentColor" stroke="currentColor" stroke-width="0.16" stroke-miterlimit="10"/>
    <path d="M35.3087 9.75332C33.8958 9.75332 32.7415 10.8043 32.7415 12.2544C32.7415 13.6927 33.8958 14.7547 35.3087 14.7547C36.7247 14.7547 37.879 13.6927 37.879 12.2544C37.879 10.8043 36.7247 9.75332 35.3087 9.75332ZM35.3087 13.7699C34.5334 13.7699 33.8665 13.1444 33.8665 12.2544C33.8665 11.3526 34.5334 10.7382 35.3087 10.7382C36.084 10.7382 36.754 11.3526 36.754 12.2544C36.754 13.1444 36.084 13.7699 35.3087 13.7699ZM29.7073 9.75332C28.2913 9.75332 27.1401 10.8043 27.1401 12.2544C27.1401 13.6927 28.2913 14.7547 29.7073 14.7547C31.1225 14.7547 32.2745 13.6927 32.2745 12.2544C32.2745 10.8043 31.1225 9.75332 29.7073 9.75332ZM29.7073 13.7699C28.9313 13.7699 28.262 13.1444 28.262 12.2544C28.262 11.3526 28.9313 10.7382 29.7073 10.7382C30.4826 10.7382 31.1496 11.3526 31.1496 12.2544C31.1496 13.1444 30.4826 13.7699 29.7073 13.7699ZM23.0418 10.5199V11.5826H25.6384C25.5624 12.1765 25.3594 12.613 25.0481 12.9173C24.6691 13.2848 24.0788 13.6927 23.0418 13.6927C21.4439 13.6927 20.1926 12.4322 20.1926 10.8705C20.1926 9.30867 21.4439 8.04822 23.0418 8.04822C23.9059 8.04822 24.5345 8.37822 24.9985 8.80596L25.7647 8.05704C25.1158 7.45144 24.2525 6.98621 23.0418 6.98621C20.8506 6.98621 19.009 8.72879 19.009 10.8705C19.009 13.0121 20.8506 14.7547 23.0418 14.7547C24.2262 14.7547 25.1158 14.3755 25.8151 13.664C26.5317 12.9636 26.7551 11.9788 26.7551 11.1835C26.7551 10.9366 26.734 10.7095 26.6964 10.5199H23.0418ZM50.2977 11.3438C50.0864 10.7845 49.4345 9.75332 48.1065 9.75332C46.7906 9.75332 45.6949 10.7668 45.6949 12.2544C45.6949 13.6552 46.7793 14.7547 48.2328 14.7547C49.4082 14.7547 50.0864 14.0543 50.3654 13.6464L49.4931 13.0783C49.2021 13.4943 48.8058 13.7699 48.2328 13.7699C47.6636 13.7699 47.2553 13.5148 46.9936 13.0121L50.4158 11.6282L50.2977 11.3438ZM46.8086 12.1765C46.7793 11.2122 47.5749 10.7183 48.1449 10.7183C48.5915 10.7183 48.9705 10.9366 49.0968 11.249L46.8086 12.1765ZM44.0271 14.6026H45.152V7.253H44.0271V14.6026ZM42.1847 10.3104H42.1471C41.8945 10.0179 41.4125 9.75332 40.8019 9.75332C39.5205 9.75332 38.3489 10.8528 38.3489 12.2625C38.3489 13.664 39.5205 14.7547 40.8019 14.7547C41.4125 14.7547 41.8945 14.4879 42.1471 14.1866H42.1847V14.5452C42.1847 15.5014 41.6621 16.0152 40.8192 16.0152C40.1319 16.0152 39.7055 15.5301 39.5295 15.1222L38.5512 15.5213C38.8332 16.1842 39.5799 17 40.8192 17C42.1381 17 43.251 16.2415 43.251 14.396V9.90546H42.1847V10.3104ZM40.8981 13.7699C40.1228 13.7699 39.4739 13.1356 39.4739 12.2625C39.4739 11.3813 40.1228 10.7382 40.8981 10.7382C41.6621 10.7382 42.2645 11.3813 42.2645 12.2625C42.2645 13.1356 41.6621 13.7699 40.8981 13.7699ZM55.5645 7.253H52.874V14.6026H53.9959V11.8178H55.5645C56.8106 11.8178 58.0325 10.9366 58.0325 9.53504C58.0325 8.13421 56.8075 7.253 55.5645 7.253ZM55.5939 10.7955H53.9959V8.27532H55.5939C56.4316 8.27532 56.9098 8.95516 56.9098 9.53504C56.9098 10.1039 56.4316 10.7955 55.5939 10.7955ZM62.5293 9.73936C61.7187 9.73936 60.8757 10.0892 60.529 10.8646L61.5247 11.2725C61.739 10.8646 62.133 10.7323 62.5496 10.7323C63.1316 10.7323 63.7219 11.074 63.7309 11.6774V11.7546C63.5279 11.64 63.0933 11.4702 62.5586 11.4702C61.4863 11.4702 60.3937 12.0471 60.3937 13.1238C60.3937 14.1087 61.272 14.7429 62.2593 14.7429C63.0143 14.7429 63.4309 14.41 63.6926 14.0227H63.7309V14.5908H64.8145V11.7715C64.8145 10.4684 63.8189 9.73936 62.5293 9.73936ZM62.3939 13.7669C62.027 13.7669 61.5156 13.5891 61.5156 13.1444C61.5156 12.5756 62.1533 12.3573 62.7052 12.3573C63.1993 12.3573 63.4309 12.4638 63.7309 12.6042C63.6429 13.2848 63.0436 13.7669 62.3939 13.7669ZM68.7624 9.90031L67.4727 13.0864H67.4344L66.1011 9.90031H64.8912L66.8945 14.3527L65.7515 16.8302H66.9238L70.0106 9.90031H68.7624ZM58.6491 14.6026H59.7741V7.253H58.6491V14.6026Z" fill="currentColor"/>
    <path d="M0.59795 1.39657C0.421237 1.57737 0.31897 1.85886 0.31897 2.2234V15.2263C0.31897 15.5908 0.421237 15.8723 0.59795 16.0531L0.641565 16.0928L8.09659 8.80935V8.63737L0.641565 1.35394L0.59795 1.39657Z" fill="url(#paint0_linear_459_3427)"/>
    <path d="M10.5788 11.2368L8.09656 8.80778V8.6358L10.5818 6.20677L10.6375 6.23837L13.5807 7.87512C14.4206 8.33962 14.4206 9.10397 13.5807 9.5714L10.6375 11.2052L10.5788 11.2368Z" fill="url(#paint1_linear_459_3427)"/>
    <path d="M10.6376 11.2073L8.09667 8.72387L0.598022 16.0536C0.877003 16.3402 1.33194 16.3748 1.8493 16.0881L10.6376 11.2073Z" fill="url(#paint2_linear_459_3427)"/>
    <path d="M10.6376 6.2407L1.8493 1.35985C1.33194 1.07616 0.877003 1.1107 0.598022 1.39733L8.09667 8.72412L10.6376 6.2407Z" fill="url(#paint3_linear_459_3427)"/>
    <defs>
        <linearGradient id="paint0_linear_459_3427" x1="7.43468" y1="15.3617" x2="-2.43022" y2="5.26843" gradientUnits="userSpaceOnUse">
            <stop stop-color="#00A0FF"/>
            <stop offset="0.0066" stop-color="#00A1FF"/>
            <stop offset="0.2601" stop-color="#00BEFF"/>
            <stop offset="0.5122" stop-color="#00D2FF"/>
            <stop offset="0.7604" stop-color="#00DFFF"/>
            <stop offset="1" stop-color="#00E3FF"/>
        </linearGradient>
        <linearGradient id="paint1_linear_459_3427" x1="14.6744" y1="8.72097" x2="0.118157" y2="8.72097" gradientUnits="userSpaceOnUse">
            <stop stop-color="#FFE000"/>
            <stop offset="0.4087" stop-color="#FFBD00"/>
            <stop offset="0.7754" stop-color="#FFA500"/>
            <stop offset="1" stop-color="#FF9C00"/>
        </linearGradient>
        <linearGradient id="paint2_linear_459_3427" x1="9.2559" y1="7.37384" x2="-4.12169" y2="-6.31342" gradientUnits="userSpaceOnUse">
            <stop stop-color="#FF3A44"/>
            <stop offset="1" stop-color="#C31162"/>
        </linearGradient>
        <linearGradient id="paint3_linear_459_3427" x1="-1.28954" y1="20.3798" x2="4.68415" y2="14.2679" gradientUnits="userSpaceOnUse">
            <stop stop-color="#32A071"/>
            <stop offset="0.0685" stop-color="#2DA771"/>
            <stop offset="0.4762" stop-color="#15CF74"/>
            <stop offset="0.8009" stop-color="#06E775"/>
            <stop offset="1" stop-color="#00F076"/>
        </linearGradient>
    </defs>
</svg>
