<svg width="20" height="20" viewBox="0 0 20 20" fill="none" xmlns="http://www.w3.org/2000/svg">
    <path fill-rule="evenodd" clip-rule="evenodd" d="M9.99988 11.25C9.31071 11.25 8.74988 10.6892 8.74988 10C8.74988 9.98909 8.75239 9.97842 8.7549 9.96774L8.7549 9.96773C8.75719 9.958 8.75948 9.94826 8.75988 9.93833L10.0615 11.24C10.0516 11.2404 10.0419 11.2427 10.0321 11.245C10.0215 11.2475 10.0108 11.25 9.99988 11.25ZM3.92238 2.74416C3.59655 2.41833 3.06988 2.41833 2.74405 2.74416C2.41821 3.06999 2.41821 3.59666 2.74405 3.92249L7.43571 8.61416C7.20571 9.03833 7.08321 9.50916 7.08321 9.99999C7.08321 11.6083 8.39155 12.9167 9.99988 12.9167C10.4907 12.9167 10.9615 12.7942 11.3857 12.5642L16.0774 17.2558C16.2399 17.4183 16.4532 17.5 16.6665 17.5C16.8799 17.5 17.0932 17.4183 17.2557 17.2558C17.5815 16.93 17.5815 16.4033 17.2557 16.0775L3.92238 2.74416ZM10.183 14.1647C6.59546 14.248 4.2538 11.1788 3.47713 9.99633C3.85796 9.40133 4.4963 8.52966 5.37963 7.73716L4.2038 6.56049C2.93546 7.71799 2.12213 8.98299 1.77713 9.58549C1.62963 9.84216 1.62963 10.158 1.77713 10.4147C2.3013 11.3288 5.13463 15.833 10.0205 15.833C10.0888 15.833 10.1571 15.8322 10.2255 15.8305C11.2121 15.8055 12.1055 15.5922 12.9146 15.2722L11.598 13.9555C11.1521 14.0738 10.683 14.1522 10.183 14.1647ZM9.77463 4.16949C14.7538 4.01366 17.6913 8.65866 18.223 9.58533C18.3696 9.842 18.3696 10.1578 18.223 10.4145C17.8771 11.017 17.0638 12.282 15.7955 13.4395L14.6196 12.2628C15.503 11.4703 16.1421 10.5987 16.5221 10.0037C15.7455 8.82116 13.393 5.74533 9.81713 5.83533C9.31713 5.84783 8.84796 5.92616 8.4013 6.04449L7.08463 4.72783C7.89463 4.40783 8.78713 4.19449 9.77463 4.16949Z" fill="white"/>
</svg>
