<svg width="127" height="32" viewBox="0 0 127 32" fill="none" xmlns="http://www.w3.org/2000/svg">
    <path d="M11.47 10.7009C11.47 11.5681 10.8024 12.271 9.97877 12.271C9.15518 12.271 8.48754 11.5681 8.48754 10.7009C8.48754 9.8338 9.15518 9.13084 9.97877 9.13084C10.8024 9.13084 11.47 9.8338 11.47 10.7009Z" fill="#2CC295"/>
    <path d="M17.5947 7C17.5947 7 16.8815 11.7843 14.9318 15.1869C11.0439 21.972 8.06147 24.8318 8.06147 24.8318H4.32007L11.3635 15.4673C11.3635 15.4673 9.0689 16.5553 7.79516 16.9813C6.60762 17.3785 5.07898 17.5981 5.07898 17.5981C5.07898 17.5981 8.68222 15.4673 11.7895 12.8318C15.1448 9.98595 17.5947 7 17.5947 7Z" fill="#2CC295"/>
    <path d="M13.0145 19.8972L14.3992 17.8224L20.6837 25H17.4882L13.0145 19.8972Z" fill="#2CC295"/>
    <path d="M40.92 23H38.64L31.78 12.62V23H29.5V9.08H31.78L38.64 19.44V9.08H40.92V23ZM46.1941 10.94V15.02H50.9941V16.88H46.1941V21.14H51.5941V23H43.9141V9.08H51.5941V10.94H46.1941ZM60.7823 16.06L65.1023 23H62.5423L59.4023 17.96L56.4623 23H53.9223L58.2423 16.06L53.9023 9.1H56.4623L59.6223 14.18L62.5823 9.1H65.1223L60.7823 16.06ZM77.3255 13.24C77.3255 13.9467 77.1588 14.6133 76.8255 15.24C76.4921 15.8667 75.9588 16.38 75.2255 16.78C74.4921 17.1667 73.5521 17.36 72.4055 17.36H69.8855V23H67.6055V9.1H72.4055C73.4721 9.1 74.3721 9.28667 75.1055 9.66C75.8521 10.02 76.4055 10.5133 76.7655 11.14C77.1388 11.7667 77.3255 12.4667 77.3255 13.24ZM72.4055 15.5C73.2721 15.5 73.9188 15.3067 74.3455 14.92C74.7721 14.52 74.9855 13.96 74.9855 13.24C74.9855 11.72 74.1255 10.96 72.4055 10.96H69.8855V15.5H72.4055ZM81.78 21.16H86.48V23H79.5V9.1H81.78V21.16ZM96.7667 20.16H90.9467L89.9467 23H87.5667L92.5467 9.08H95.1867L100.167 23H97.7667L96.7667 20.16ZM96.1267 18.3L93.8667 11.84L91.5867 18.3H96.1267ZM101.572 16.02C101.572 14.66 101.885 13.44 102.512 12.36C103.152 11.28 104.012 10.44 105.092 9.84C106.185 9.22667 107.379 8.92 108.672 8.92C110.152 8.92 111.465 9.28667 112.612 10.02C113.772 10.74 114.612 11.7667 115.132 13.1H112.392C112.032 12.3667 111.532 11.82 110.892 11.46C110.252 11.1 109.512 10.92 108.672 10.92C107.752 10.92 106.932 11.1267 106.212 11.54C105.492 11.9533 104.925 12.5467 104.512 13.32C104.112 14.0933 103.912 14.9933 103.912 16.02C103.912 17.0467 104.112 17.9467 104.512 18.72C104.925 19.4933 105.492 20.0933 106.212 20.52C106.932 20.9333 107.752 21.14 108.672 21.14C109.512 21.14 110.252 20.96 110.892 20.6C111.532 20.24 112.032 19.6933 112.392 18.96H115.132C114.612 20.2933 113.772 21.32 112.612 22.04C111.465 22.76 110.152 23.12 108.672 23.12C107.365 23.12 106.172 22.82 105.092 22.22C104.012 21.6067 103.152 20.76 102.512 19.68C101.885 18.6 101.572 17.38 101.572 16.02ZM120.081 10.94V15.02H124.881V16.88H120.081V21.14H125.481V23H117.801V9.08H125.481V10.94H120.081Z" fill="currentColor"/>
</svg>
