<svg width="20" height="20" viewBox="0 0 20 20" fill="none" xmlns="http://www.w3.org/2000/svg">
<circle cx="10" cy="10" r="10" fill="#A5A8A9"/>
<path d="M10.1622 10.329L9.12201 13.8389H14.6856C14.7753 13.8391 14.8597 13.8815 14.9135 13.9533C14.9672 14.0251 14.9841 14.118 14.959 14.2042L14.4752 15.8708C14.4277 16.0344 14.2778 16.1469 14.1075 16.1466H5.60967L7.04654 11.2941L5.45728 11.7779L5.80803 10.6434L7.3997 10.1596L9.41712 3.343C9.4627 3.17884 9.61202 3.06512 9.78238 3.06482H11.9353C12.0248 3.0645 12.1093 3.10624 12.1635 3.17754C12.2177 3.24885 12.2353 3.34146 12.211 3.42767L10.5177 9.19206L12.107 8.70827L11.7659 9.86211L10.1622 10.329Z" fill="white"/>
</svg>
