<svg width="20" height="20" viewBox="0 0 20 20" fill="none" xmlns="http://www.w3.org/2000/svg">
    <path fill-rule="evenodd" clip-rule="evenodd" d="M6.20086 4.09836C5.78419 4.39336 5.40169 4.73503 5.05503 5.12169C2.68086 7.76419 2.75836 11.9925 5.22753 14.5467C6.53253 15.8975 8.28586 16.6509 10.1642 16.6667C10.185 16.6675 10.2067 16.6675 10.2284 16.6675C12.0825 16.6675 13.8234 15.9484 15.1367 14.6375C15.41 14.365 15.6584 14.0725 15.8809 13.7609C13.2592 14.0875 10.5717 13.2092 8.66253 11.3042C6.75419 9.39919 5.87086 6.71753 6.20086 4.09836ZM10.2284 18.3342C10.2017 18.3342 10.1759 18.3342 10.1492 18.3334C7.82086 18.3134 5.64669 17.38 4.02919 15.7059C0.965026 12.535 0.869193 7.28753 3.81419 4.00836C4.73169 2.98586 5.85169 2.21669 7.14253 1.72253C7.44669 1.60419 7.79253 1.67753 8.02503 1.90753C8.25753 2.13669 8.33503 2.48086 8.22253 2.78753C7.29086 5.33336 7.92586 8.21336 9.84003 10.1242C11.755 12.035 14.6425 12.6692 17.1967 11.7392C17.5034 11.6259 17.8484 11.7059 18.0767 11.9375C18.305 12.1717 18.3775 12.5167 18.26 12.8209C17.8234 13.9567 17.1684 14.965 16.3134 15.8175C14.6859 17.4425 12.5275 18.3342 10.2284 18.3342Z" fill="white"/>
    <mask id="mask0_226_5541" style="mask-type:luminance" maskUnits="userSpaceOnUse" x="1" y="1" width="18" height="18">
        <path fill-rule="evenodd" clip-rule="evenodd" d="M6.20086 4.09836C5.78419 4.39336 5.40169 4.73503 5.05503 5.12169C2.68086 7.76419 2.75836 11.9925 5.22753 14.5467C6.53253 15.8975 8.28586 16.6509 10.1642 16.6667C10.185 16.6675 10.2067 16.6675 10.2284 16.6675C12.0825 16.6675 13.8234 15.9484 15.1367 14.6375C15.41 14.365 15.6584 14.0725 15.8809 13.7609C13.2592 14.0875 10.5717 13.2092 8.66253 11.3042C6.75419 9.39919 5.87086 6.71753 6.20086 4.09836ZM10.2284 18.3342C10.2017 18.3342 10.1759 18.3342 10.1492 18.3334C7.82086 18.3134 5.64669 17.38 4.02919 15.7059C0.965026 12.535 0.869193 7.28753 3.81419 4.00836C4.73169 2.98586 5.85169 2.21669 7.14253 1.72253C7.44669 1.60419 7.79253 1.67753 8.02503 1.90753C8.25753 2.13669 8.33503 2.48086 8.22253 2.78753C7.29086 5.33336 7.92586 8.21336 9.84003 10.1242C11.755 12.035 14.6425 12.6692 17.1967 11.7392C17.5034 11.6259 17.8484 11.7059 18.0767 11.9375C18.305 12.1717 18.3775 12.5167 18.26 12.8209C17.8234 13.9567 17.1684 14.965 16.3134 15.8175C14.6859 17.4425 12.5275 18.3342 10.2284 18.3342Z" fill="white"/>
    </mask>
    <g mask="url(#mask0_226_5541)">
    </g>
</svg>
