<svg width="20" height="20" viewBox="0 0 20 20" fill="none" xmlns="http://www.w3.org/2000/svg">
    <path fill-rule="evenodd" clip-rule="evenodd" d="M2.5 10C2.5 5.85833 5.85833 2.5 10 2.5C10.3833 2.5 10.7667 2.53333 11.1333 2.58333C9.99167 3.4 9.25 4.74167 9.25 6.25C9.25 8.73333 11.2667 10.75 13.75 10.75C15.2667 10.75 16.6 10.0083 17.4167 8.86667C17.4667 9.23333 17.5 9.61667 17.5 10C17.5 14.1417 14.1417 17.5 10 17.5C5.85833 17.5 2.5 14.1417 2.5 10ZM7.58336 6.24992C7.58336 5.68325 7.65836 5.12492 7.80836 4.59159C5.67503 5.45825 4.1667 7.55825 4.1667 9.99992C4.1667 13.2166 6.78336 15.8333 10 15.8333C12.4417 15.8333 14.5417 14.3249 15.4084 12.1916C14.875 12.3416 14.3167 12.4166 13.75 12.4166C10.35 12.4166 7.58336 9.64992 7.58336 6.24992Z" fill="#03131B" fill-opacity="0.6"/>
</svg>
