<svg width="20" height="20" viewBox="0 0 20 20" fill="none" xmlns="http://www.w3.org/2000/svg">
    <path d="M10.0033 15.612C10.4785 15.612 10.8691 15.2214 10.8691 14.7461V10.957H14.6582C15.1335 10.957 15.5241 10.5729 15.5241 10.0911C15.5241 9.61589 15.1335 9.22526 14.6582 9.22526H10.8691V5.4362C10.8691 4.96094 10.4785 4.57031 10.0033 4.57031C9.528 4.57031 9.13737 4.96094 9.13737 5.4362V9.22526H5.34831C4.87305 9.22526 4.48242 9.61589 4.48242 10.0911C4.48242 10.5729 4.87305 10.957 5.34831 10.957H9.13737V14.7461C9.13737 15.2214 9.528 15.612 10.0033 15.612Z" fill="white"/>
</svg>
