<svg width="20" height="20" viewBox="0 0 20 20" fill="none" xmlns="http://www.w3.org/2000/svg">
    <path fill-rule="evenodd" clip-rule="evenodd" d="M0.5 1.9C0.5 1.66131 0.594821 1.43239 0.763604 1.2636C0.932387 1.09482 1.16131 1 1.4 1H7.7C7.93869 1 8.16761 1.09482 8.3364 1.2636C8.50518 1.43239 8.6 1.66131 8.6 1.9V8.2C8.6 8.43869 8.50518 8.66761 8.3364 8.8364C8.16761 9.00518 7.93869 9.1 7.7 9.1H1.4C1.16131 9.1 0.932387 9.00518 0.763604 8.8364C0.594821 8.66761 0.5 8.43869 0.5 8.2V1.9ZM3.2 4.6C3.2 4.36131 3.29482 4.13239 3.4636 3.9636C3.63239 3.79482 3.86131 3.7 4.1 3.7H5C5.23869 3.7 5.46761 3.79482 5.6364 3.9636C5.80518 4.13239 5.9 4.36131 5.9 4.6V5.5C5.9 5.73869 5.80518 5.96761 5.6364 6.1364C5.46761 6.30518 5.23869 6.4 5 6.4H4.1C3.86131 6.4 3.63239 6.30518 3.4636 6.1364C3.29482 5.96761 3.2 5.73869 3.2 5.5V4.6ZM0.5 11.8C0.5 11.5613 0.594821 11.3324 0.763604 11.1636C0.932387 10.9948 1.16131 10.9 1.4 10.9H7.7C7.93869 10.9 8.16761 10.9948 8.3364 11.1636C8.50518 11.3324 8.6 11.5613 8.6 11.8V18.1C8.6 18.3387 8.50518 18.5676 8.3364 18.7364C8.16761 18.9052 7.93869 19 7.7 19H1.4C1.16131 19 0.932387 18.9052 0.763604 18.7364C0.594821 18.5676 0.5 18.3387 0.5 18.1V11.8ZM4.1 13.6C3.86131 13.6 3.63239 13.6948 3.4636 13.8636C3.29482 14.0324 3.2 14.2613 3.2 14.5V15.4C3.2 15.6387 3.29482 15.8676 3.4636 16.0364C3.63239 16.2052 3.86131 16.3 4.1 16.3H5C5.23869 16.3 5.46761 16.2052 5.6364 16.0364C5.80518 15.8676 5.9 15.6387 5.9 15.4V14.5C5.9 14.2613 5.80518 14.0324 5.6364 13.8636C5.46761 13.6948 5.23869 13.6 5 13.6H4.1ZM11.3 1C11.0613 1 10.8324 1.09482 10.6636 1.2636C10.4948 1.43239 10.4 1.66131 10.4 1.9V8.2C10.4 8.43869 10.4948 8.66761 10.6636 8.8364C10.8324 9.00518 11.0613 9.1 11.3 9.1H17.6C17.8387 9.1 18.0676 9.00518 18.2364 8.8364C18.4052 8.66761 18.5 8.43869 18.5 8.2V1.9C18.5 1.66131 18.4052 1.43239 18.2364 1.2636C18.0676 1.09482 17.8387 1 17.6 1H11.3ZM13.1 4.6C13.1 4.36131 13.1948 4.13239 13.3636 3.9636C13.5324 3.79482 13.7613 3.7 14 3.7H14.9C15.1387 3.7 15.3676 3.79482 15.5364 3.9636C15.7052 4.13239 15.8 4.36131 15.8 4.6V5.5C15.8 5.73869 15.7052 5.96761 15.5364 6.1364C15.3676 6.30518 15.1387 6.4 14.9 6.4H14C13.7613 6.4 13.5324 6.30518 13.3636 6.1364C13.1948 5.96761 13.1 5.73869 13.1 5.5V4.6Z" fill="currentColor"/>
    <path d="M11.2999 10.8999C11.0612 10.8999 10.8323 10.9947 10.6635 11.1635C10.4947 11.3323 10.3999 11.5612 10.3999 11.7999V12.6999C10.3999 12.9386 10.4947 13.1675 10.6635 13.3363C10.8323 13.5051 11.0612 13.5999 11.2999 13.5999H12.1999V15.3999C12.1999 15.6386 12.2947 15.8675 12.4635 16.0363C12.6323 16.2051 12.8612 16.2999 13.0999 16.2999H13.9999C14.2386 16.2999 14.4675 16.2051 14.6363 16.0363C14.8051 15.8675 14.8999 15.6386 14.8999 15.3999V13.5999C14.8999 13.3612 14.8051 13.1323 14.6363 12.9635C14.4675 12.7947 14.2386 12.6999 13.9999 12.6999H13.0999V11.7999C13.0999 11.5612 13.0051 11.3323 12.8363 11.1635C12.6675 10.9947 12.4386 10.8999 12.1999 10.8999H11.2999ZM11.2999 16.2999C11.0612 16.2999 10.8323 16.3947 10.6635 16.5635C10.4947 16.7323 10.3999 16.9612 10.3999 17.1999V18.0999C10.3999 18.3386 10.4947 18.5675 10.6635 18.7363C10.8323 18.9051 11.0612 18.9999 11.2999 18.9999H12.1999C12.4386 18.9999 12.6675 18.9051 12.8363 18.7363C13.0051 18.5675 13.0999 18.3386 13.0999 18.0999V17.1999C13.0999 16.9612 13.0051 16.7323 12.8363 16.5635C12.6675 16.3947 12.4386 16.2999 12.1999 16.2999H11.2999ZM14.8999 11.7999C14.8999 11.5612 14.9947 11.3323 15.1635 11.1635C15.3323 10.9947 15.5612 10.8999 15.7999 10.8999H16.6999C16.9386 10.8999 17.1675 10.9947 17.3363 11.1635C17.5051 11.3323 17.5999 11.5612 17.5999 11.7999V12.6999C17.5999 12.9386 17.5051 13.1675 17.3363 13.3363C17.1675 13.5051 16.9386 13.5999 16.6999 13.5999H15.7999C15.5612 13.5999 15.3323 13.5051 15.1635 13.3363C14.9947 13.1675 14.8999 12.9386 14.8999 12.6999V11.7999ZM15.7999 16.2999C15.5612 16.2999 15.3323 16.3947 15.1635 16.5635C14.9947 16.7323 14.8999 16.9612 14.8999 17.1999V18.0999C14.8999 18.3386 14.9947 18.5675 15.1635 18.7363C15.3323 18.9051 15.5612 18.9999 15.7999 18.9999H16.6999C16.9386 18.9999 17.1675 18.9051 17.3363 18.7363C17.5051 18.5675 17.5999 18.3386 17.5999 18.0999V17.1999C17.5999 16.9612 17.5051 16.7323 17.3363 16.5635C17.1675 16.3947 16.9386 16.2999 16.6999 16.2999H15.7999Z" fill="currentColor"/>
</svg>
