<svg width="20" height="20" viewBox="0 0 20 20" fill="none" xmlns="http://www.w3.org/2000/svg">
<circle cx="10" cy="10" r="10" fill="black"/>
<path fill-rule="evenodd" clip-rule="evenodd" d="M14.2263 6.6988C14.1622 6.72717 14.093 6.74186 14.023 6.74192H3.58899C3.53923 6.7419 3.49055 6.72717 3.44892 6.69953C3.40729 6.6719 3.37452 6.63257 3.35461 6.58635C3.33471 6.54013 3.32853 6.48904 3.33685 6.43932C3.34516 6.3896 3.3676 6.34341 3.40143 6.30642L5.60003 3.91494C5.64764 3.863 5.70529 3.82155 5.76941 3.79318C5.83351 3.76481 5.90271 3.75013 5.97267 3.75006H16.4067C16.4569 3.749 16.5063 3.76303 16.5487 3.79036C16.591 3.8177 16.6246 3.85712 16.6448 3.90368C16.6652 3.95023 16.6714 4.00183 16.6628 4.05199C16.6543 4.10215 16.6313 4.14862 16.5968 4.18556L14.3957 6.57703C14.3481 6.62898 14.2904 6.67044 14.2263 6.6988ZM14.3957 8.46001C14.3479 8.40831 14.2902 8.36702 14.2261 8.33866C14.1621 8.31032 14.0929 8.2955 14.023 8.29514H3.58899C3.53923 8.29516 3.49055 8.30989 3.44892 8.33753C3.40729 8.36516 3.37452 8.40449 3.35461 8.45071C3.33471 8.49693 3.32853 8.54802 3.33685 8.59774C3.34516 8.64745 3.3676 8.69365 3.40143 8.73064L5.60003 11.1234C5.64781 11.1751 5.70551 11.2164 5.76958 11.2447C5.83365 11.2731 5.90276 11.2879 5.97267 11.2883H16.4067C16.4564 11.288 16.5048 11.2731 16.5463 11.2454C16.5878 11.2176 16.6204 11.1783 16.6401 11.1321C16.6599 11.0859 16.6659 11.0349 16.6575 10.9853C16.6492 10.9357 16.6268 10.8897 16.593 10.8528L14.3957 8.46001ZM16.5968 13.277L14.3957 15.6684C14.3481 15.7204 14.2904 15.7619 14.2263 15.7902C14.1622 15.8186 14.093 15.8333 14.023 15.8333H3.58899C3.53923 15.8333 3.49055 15.8186 3.44892 15.7909C3.40729 15.7633 3.37452 15.724 3.35461 15.6778C3.33471 15.6315 3.32853 15.5805 3.33685 15.5307C3.34516 15.481 3.3676 15.4348 3.40143 15.3978L5.60003 13.0063C5.64764 12.9544 5.70529 12.913 5.76941 12.8846C5.83351 12.8562 5.90271 12.8415 5.97267 12.8415H16.4067C16.4569 12.8404 16.5063 12.8544 16.5487 12.8818C16.591 12.9091 16.6246 12.9485 16.6448 12.9951C16.6652 13.0416 16.6714 13.0932 16.6628 13.1434C16.6543 13.1936 16.6313 13.24 16.5968 13.277Z" fill="url(#paint0_linear_227_2810)"/>
<defs>
<linearGradient id="paint0_linear_227_2810" x1="11.3543" y1="21.0791" x2="21.0061" y2="7.65379" gradientUnits="userSpaceOnUse">
<stop offset="0.08" stop-color="#9945FF"/>
<stop offset="0.3" stop-color="#8752F3"/>
<stop offset="0.5" stop-color="#5497D5"/>
<stop offset="0.6" stop-color="#43B4CA"/>
<stop offset="0.72" stop-color="#28E0B9"/>
<stop offset="0.97" stop-color="#19FB9B"/>
</linearGradient>
</defs>
</svg>
