<svg width="20" height="20" viewBox="0 0 20 20" fill="none" xmlns="http://www.w3.org/2000/svg">
    <path fill-rule="evenodd" clip-rule="evenodd" d="M10.0001 4.99999C10.4601 4.99999 10.8334 4.62749 10.8334 4.16666V2.49999C10.8334 2.03916 10.4601 1.66666 10.0001 1.66666C9.54008 1.66666 9.16675 2.03916 9.16675 2.49999V4.16666C9.16675 4.62749 9.54008 4.99999 10.0001 4.99999ZM10.0001 11.6667C9.08091 11.6667 8.33341 10.9192 8.33341 9.99999C8.33341 9.08082 9.08091 8.33332 10.0001 8.33332C10.9192 8.33332 11.6667 9.08082 11.6667 9.99999C11.6667 10.9192 10.9192 11.6667 10.0001 11.6667ZM10.0001 6.66666C8.16175 6.66666 6.66675 8.16166 6.66675 9.99999C6.66675 11.8383 8.16175 13.3333 10.0001 13.3333C11.8384 13.3333 13.3334 11.8383 13.3334 9.99999C13.3334 8.16166 11.8384 6.66666 10.0001 6.66666ZM15.8334 9.16666H17.5001C17.9601 9.16666 18.3334 9.53916 18.3334 9.99999C18.3334 10.4608 17.9601 10.8333 17.5001 10.8333H15.8334C15.3734 10.8333 15.0001 10.4608 15.0001 9.99999C15.0001 9.53916 15.3734 9.16666 15.8334 9.16666ZM5.00008 9.99999C5.00008 9.53916 4.62675 9.16666 4.16675 9.16666H2.50008C2.04008 9.16666 1.66675 9.53916 1.66675 9.99999C1.66675 10.4608 2.04008 10.8333 2.50008 10.8333H4.16675C4.62675 10.8333 5.00008 10.4608 5.00008 9.99999ZM4.00566 4.21107C4.32566 3.88107 4.85316 3.87107 5.184 4.19024L6.38316 5.34857C6.714 5.66774 6.72316 6.19607 6.40316 6.52691C6.23983 6.69607 6.02233 6.78107 5.804 6.78107C5.59566 6.78107 5.38733 6.70441 5.22483 6.54774L4.02566 5.38941C3.69483 5.07024 3.68566 4.54191 4.00566 4.21107ZM14.1961 6.78141C14.4044 6.78141 14.6127 6.70391 14.7752 6.54807L15.9744 5.38974C16.3052 5.06974 16.3144 4.54141 15.9944 4.21141C15.6752 3.88141 15.1486 3.87141 14.8161 4.19057L13.6169 5.34807C13.2861 5.66807 13.2769 6.19641 13.5969 6.52641C13.7602 6.69557 13.9777 6.78141 14.1961 6.78141ZM9.16675 15.8333C9.16675 15.3725 9.54008 15 10.0001 15C10.4601 15 10.8334 15.3725 10.8334 15.8333V17.5C10.8334 17.9608 10.4601 18.3333 10.0001 18.3333C9.54008 18.3333 9.16675 17.9608 9.16675 17.5V15.8333ZM14.7751 13.4522C14.4442 13.133 13.9167 13.143 13.5967 13.473C13.2767 13.8038 13.2859 14.3322 13.6167 14.6513L14.8159 15.8097C14.9784 15.9663 15.1867 16.043 15.3951 16.043C15.6134 16.043 15.8309 15.958 15.9942 15.7888C16.3142 15.458 16.3051 14.9297 15.9742 14.6105L14.7751 13.4522ZM4.02591 14.6105L5.22508 13.4522C5.55675 13.133 6.08425 13.143 6.40341 13.473C6.72341 13.8038 6.71425 14.3322 6.38341 14.6513L5.18425 15.8097C5.02175 15.9663 4.81341 16.043 4.60508 16.043C4.38675 16.043 4.16925 15.958 4.00591 15.7888C3.68591 15.458 3.69508 14.9297 4.02591 14.6105Z" fill="white"/>
    <mask id="mask0_224_2814" style="mask-type:luminance" maskUnits="userSpaceOnUse" x="1" y="1" width="18" height="18">
        <path fill-rule="evenodd" clip-rule="evenodd" d="M10.0001 4.99999C10.4601 4.99999 10.8334 4.62749 10.8334 4.16666V2.49999C10.8334 2.03916 10.4601 1.66666 10.0001 1.66666C9.54008 1.66666 9.16675 2.03916 9.16675 2.49999V4.16666C9.16675 4.62749 9.54008 4.99999 10.0001 4.99999ZM10.0001 11.6667C9.08091 11.6667 8.33341 10.9192 8.33341 9.99999C8.33341 9.08082 9.08091 8.33332 10.0001 8.33332C10.9192 8.33332 11.6667 9.08082 11.6667 9.99999C11.6667 10.9192 10.9192 11.6667 10.0001 11.6667ZM10.0001 6.66666C8.16175 6.66666 6.66675 8.16166 6.66675 9.99999C6.66675 11.8383 8.16175 13.3333 10.0001 13.3333C11.8384 13.3333 13.3334 11.8383 13.3334 9.99999C13.3334 8.16166 11.8384 6.66666 10.0001 6.66666ZM15.8334 9.16666H17.5001C17.9601 9.16666 18.3334 9.53916 18.3334 9.99999C18.3334 10.4608 17.9601 10.8333 17.5001 10.8333H15.8334C15.3734 10.8333 15.0001 10.4608 15.0001 9.99999C15.0001 9.53916 15.3734 9.16666 15.8334 9.16666ZM5.00008 9.99999C5.00008 9.53916 4.62675 9.16666 4.16675 9.16666H2.50008C2.04008 9.16666 1.66675 9.53916 1.66675 9.99999C1.66675 10.4608 2.04008 10.8333 2.50008 10.8333H4.16675C4.62675 10.8333 5.00008 10.4608 5.00008 9.99999ZM4.00566 4.21107C4.32566 3.88107 4.85316 3.87107 5.184 4.19024L6.38316 5.34857C6.714 5.66774 6.72316 6.19607 6.40316 6.52691C6.23983 6.69607 6.02233 6.78107 5.804 6.78107C5.59566 6.78107 5.38733 6.70441 5.22483 6.54774L4.02566 5.38941C3.69483 5.07024 3.68566 4.54191 4.00566 4.21107ZM14.1961 6.78141C14.4044 6.78141 14.6127 6.70391 14.7752 6.54807L15.9744 5.38974C16.3052 5.06974 16.3144 4.54141 15.9944 4.21141C15.6752 3.88141 15.1486 3.87141 14.8161 4.19057L13.6169 5.34807C13.2861 5.66807 13.2769 6.19641 13.5969 6.52641C13.7602 6.69557 13.9777 6.78141 14.1961 6.78141ZM9.16675 15.8333C9.16675 15.3725 9.54008 15 10.0001 15C10.4601 15 10.8334 15.3725 10.8334 15.8333V17.5C10.8334 17.9608 10.4601 18.3333 10.0001 18.3333C9.54008 18.3333 9.16675 17.9608 9.16675 17.5V15.8333ZM14.7751 13.4522C14.4442 13.133 13.9167 13.143 13.5967 13.473C13.2767 13.8038 13.2859 14.3322 13.6167 14.6513L14.8159 15.8097C14.9784 15.9663 15.1867 16.043 15.3951 16.043C15.6134 16.043 15.8309 15.958 15.9942 15.7888C16.3142 15.458 16.3051 14.9297 15.9742 14.6105L14.7751 13.4522ZM4.02591 14.6105L5.22508 13.4522C5.55675 13.133 6.08425 13.143 6.40341 13.473C6.72341 13.8038 6.71425 14.3322 6.38341 14.6513L5.18425 15.8097C5.02175 15.9663 4.81341 16.043 4.60508 16.043C4.38675 16.043 4.16925 15.958 4.00591 15.7888C3.68591 15.458 3.69508 14.9297 4.02591 14.6105Z" fill="white"/>
    </mask>
    <g mask="url(#mask0_224_2814)">
    </g>
</svg>
