<svg width="20" height="20" viewBox="0 0 20 20" fill="none" xmlns="http://www.w3.org/2000/svg">
    <path fill-rule="evenodd" clip-rule="evenodd" d="M10 5.00002C10.46 5.00002 10.8334 4.62752 10.8334 4.16669V2.50002C10.8334 2.03919 10.46 1.66669 10 1.66669C9.54002 1.66669 9.16669 2.03919 9.16669 2.50002V4.16669C9.16669 4.62752 9.54002 5.00002 10 5.00002ZM10 11.6667C9.08085 11.6667 8.33335 10.9192 8.33335 10C8.33335 9.08085 9.08085 8.33335 10 8.33335C10.9192 8.33335 11.6667 9.08085 11.6667 10C11.6667 10.9192 10.9192 11.6667 10 11.6667ZM10 6.66669C8.16169 6.66669 6.66669 8.16169 6.66669 10C6.66669 11.8384 8.16169 13.3334 10 13.3334C11.8384 13.3334 13.3334 11.8384 13.3334 10C13.3334 8.16169 11.8384 6.66669 10 6.66669ZM15.8334 9.16669H17.5C17.96 9.16669 18.3334 9.53919 18.3334 10C18.3334 10.4609 17.96 10.8334 17.5 10.8334H15.8334C15.3734 10.8334 15 10.4609 15 10C15 9.53919 15.3734 9.16669 15.8334 9.16669ZM5.00002 10C5.00002 9.53919 4.62669 9.16669 4.16669 9.16669H2.50002C2.04002 9.16669 1.66669 9.53919 1.66669 10C1.66669 10.4609 2.04002 10.8334 2.50002 10.8334H4.16669C4.62669 10.8334 5.00002 10.4609 5.00002 10ZM4.0056 4.2111C4.3256 3.8811 4.8531 3.8711 5.18394 4.19027L6.3831 5.3486C6.71394 5.66777 6.7231 6.1961 6.4031 6.52694C6.23977 6.6961 6.02227 6.7811 5.80394 6.7811C5.5956 6.7811 5.38727 6.70444 5.22477 6.54777L4.0256 5.38944C3.69477 5.07027 3.6856 4.54194 4.0056 4.2111ZM14.196 6.78144C14.4044 6.78144 14.6127 6.70394 14.7752 6.5481L15.9744 5.38977C16.3052 5.06977 16.3144 4.54144 15.9944 4.21144C15.6752 3.88144 15.1485 3.87144 14.816 4.1906L13.6169 5.3481C13.286 5.6681 13.2769 6.19644 13.5969 6.52644C13.7602 6.6956 13.9777 6.78144 14.196 6.78144ZM9.16669 15.8334C9.16669 15.3725 9.54002 15 10 15C10.46 15 10.8334 15.3725 10.8334 15.8334V17.5C10.8334 17.9609 10.46 18.3334 10 18.3334C9.54002 18.3334 9.16669 17.9609 9.16669 17.5V15.8334ZM14.775 13.4522C14.4442 13.133 13.9167 13.143 13.5967 13.473C13.2767 13.8039 13.2859 14.3322 13.6167 14.6514L14.8159 15.8097C14.9784 15.9664 15.1867 16.043 15.395 16.043C15.6134 16.043 15.8309 15.958 15.9942 15.7889C16.3142 15.458 16.305 14.9297 15.9742 14.6105L14.775 13.4522ZM4.02585 14.6105L5.22502 13.4522C5.55669 13.133 6.08419 13.143 6.40335 13.473C6.72335 13.8039 6.71419 14.3322 6.38335 14.6514L5.18419 15.8097C5.02169 15.9664 4.81335 16.043 4.60502 16.043C4.38669 16.043 4.16919 15.958 4.00585 15.7889C3.68585 15.458 3.69502 14.9297 4.02585 14.6105Z" fill="white"/>
    <mask id="mask0_175_933" style="mask-type:luminance" maskUnits="userSpaceOnUse" x="1" y="1" width="18" height="18">
        <path fill-rule="evenodd" clip-rule="evenodd" d="M10 5.00002C10.46 5.00002 10.8334 4.62752 10.8334 4.16669V2.50002C10.8334 2.03919 10.46 1.66669 10 1.66669C9.54002 1.66669 9.16669 2.03919 9.16669 2.50002V4.16669C9.16669 4.62752 9.54002 5.00002 10 5.00002ZM10 11.6667C9.08085 11.6667 8.33335 10.9192 8.33335 10C8.33335 9.08085 9.08085 8.33335 10 8.33335C10.9192 8.33335 11.6667 9.08085 11.6667 10C11.6667 10.9192 10.9192 11.6667 10 11.6667ZM10 6.66669C8.16169 6.66669 6.66669 8.16169 6.66669 10C6.66669 11.8384 8.16169 13.3334 10 13.3334C11.8384 13.3334 13.3334 11.8384 13.3334 10C13.3334 8.16169 11.8384 6.66669 10 6.66669ZM15.8334 9.16669H17.5C17.96 9.16669 18.3334 9.53919 18.3334 10C18.3334 10.4609 17.96 10.8334 17.5 10.8334H15.8334C15.3734 10.8334 15 10.4609 15 10C15 9.53919 15.3734 9.16669 15.8334 9.16669ZM5.00002 10C5.00002 9.53919 4.62669 9.16669 4.16669 9.16669H2.50002C2.04002 9.16669 1.66669 9.53919 1.66669 10C1.66669 10.4609 2.04002 10.8334 2.50002 10.8334H4.16669C4.62669 10.8334 5.00002 10.4609 5.00002 10ZM4.0056 4.2111C4.3256 3.8811 4.8531 3.8711 5.18394 4.19027L6.3831 5.3486C6.71394 5.66777 6.7231 6.1961 6.4031 6.52694C6.23977 6.6961 6.02227 6.7811 5.80394 6.7811C5.5956 6.7811 5.38727 6.70444 5.22477 6.54777L4.0256 5.38944C3.69477 5.07027 3.6856 4.54194 4.0056 4.2111ZM14.196 6.78144C14.4044 6.78144 14.6127 6.70394 14.7752 6.5481L15.9744 5.38977C16.3052 5.06977 16.3144 4.54144 15.9944 4.21144C15.6752 3.88144 15.1485 3.87144 14.816 4.1906L13.6169 5.3481C13.286 5.6681 13.2769 6.19644 13.5969 6.52644C13.7602 6.6956 13.9777 6.78144 14.196 6.78144ZM9.16669 15.8334C9.16669 15.3725 9.54002 15 10 15C10.46 15 10.8334 15.3725 10.8334 15.8334V17.5C10.8334 17.9609 10.46 18.3334 10 18.3334C9.54002 18.3334 9.16669 17.9609 9.16669 17.5V15.8334ZM14.775 13.4522C14.4442 13.133 13.9167 13.143 13.5967 13.473C13.2767 13.8039 13.2859 14.3322 13.6167 14.6514L14.8159 15.8097C14.9784 15.9664 15.1867 16.043 15.395 16.043C15.6134 16.043 15.8309 15.958 15.9942 15.7889C16.3142 15.458 16.305 14.9297 15.9742 14.6105L14.775 13.4522ZM4.02585 14.6105L5.22502 13.4522C5.55669 13.133 6.08419 13.143 6.40335 13.473C6.72335 13.8039 6.71419 14.3322 6.38335 14.6514L5.18419 15.8097C5.02169 15.9664 4.81335 16.043 4.60502 16.043C4.38669 16.043 4.16919 15.958 4.00585 15.7889C3.68585 15.458 3.69502 14.9297 4.02585 14.6105Z" fill="white"/>
    </mask>
    <g mask="url(#mask0_175_933)">
        <rect width="20" height="20" fill="white"/>
    </g>
</svg>
