<svg width="92" height="28" viewBox="0 0 92 28" fill="none" xmlns="http://www.w3.org/2000/svg">
<mask id="mask0_184_4398" style="mask-type:luminance" maskUnits="userSpaceOnUse" x="7" y="0" width="77" height="28">
<path d="M83.8334 0H7.16669V27.3385H83.8334V0Z" fill="white"/>
</mask>
<g mask="url(#mask0_184_4398)">
<path fill-rule="evenodd" clip-rule="evenodd" d="M16.9832 5.14967H21.5026C20.3809 7.75267 19.2692 10.3519 18.1558 12.9554C17.0402 15.5637 15.9229 18.1762 14.7919 20.801H10.2725L12.0918 16.5792C11.0155 14.0829 9.93975 11.586 8.86409 9.0892C8.29829 7.776 7.73255 6.4628 7.16669 5.14967H11.6861L14.3346 11.2961L16.9832 5.14967ZM83.8334 0.0328H78.9694L74.5714 10.3881H79.4354L83.8334 0.0328ZM78.5094 14.0587C78.5094 12.5829 77.2814 11.3867 75.7667 11.3867C74.2527 11.3867 73.0247 12.5831 73.0247 14.0587C73.0247 15.5343 74.2527 16.7306 75.7667 16.7306C77.2814 16.7306 78.5094 15.5343 78.5094 14.0587ZM72.37 10.8473C72.37 7.52893 69.6094 4.8388 66.2038 4.8388C62.7983 4.8388 60.0375 7.5288 60.0375 10.8473C60.0375 14.1656 62.7982 16.8557 66.2038 16.8557C69.6094 16.8557 72.37 14.1657 72.37 10.8473ZM68.6114 10.8473C68.6114 9.5516 67.5334 8.5012 66.2038 8.5012C64.8741 8.5012 63.796 9.5516 63.796 10.8473C63.796 12.1431 64.8741 13.1935 66.2038 13.1935C67.5334 13.1935 68.6114 12.1431 68.6114 10.8473ZM59.132 10.8473C59.132 7.52893 56.3713 4.8388 52.9656 4.8388C49.5601 4.8388 46.7993 7.5288 46.7993 10.8473C46.7993 14.1656 49.56 16.8557 52.9656 16.8557C56.3712 16.8557 59.132 14.1657 59.132 10.8473ZM55.3734 10.8473C55.3734 9.5516 54.2954 8.5012 52.9656 8.5012C51.6358 8.5012 50.5578 9.5516 50.5578 10.8473C50.5578 12.1431 51.6358 13.1935 52.9656 13.1935C54.2954 13.1935 55.3734 12.1431 55.3734 10.8473ZM38.8384 0.000133514H34.7608L34.7606 16.7306H38.8383L38.8389 10.0259C38.8186 9.23193 39.467 8.57767 40.2836 8.57767C41.0819 8.57767 41.729 9.2082 41.729 9.986V16.7306H45.8066V9.986C45.7764 5.84907 44.265 4.8388 41.9084 4.8388C39.5518 4.8388 38.8384 6.17707 38.8384 6.17707V0.000133514ZM33.286 5.14967H29.2084V6.05593C28.2953 5.29233 27.1572 4.839 25.9232 4.839C22.916 4.839 20.4782 7.529 20.4782 10.8475C20.4782 14.1658 22.916 16.8559 25.9232 16.8559C27.1572 16.8559 28.2952 16.4025 29.2084 15.639V16.7307H33.286V5.14967ZM29.3194 10.8473C29.3194 9.5516 28.2414 8.5012 26.9116 8.5012C25.5818 8.5012 24.5038 9.5516 24.5038 10.8473C24.5038 12.1431 25.5818 13.1935 26.9116 13.1935C28.2414 13.1935 29.3194 12.1431 29.3194 10.8473ZM36.7846 27.22H36.0021C35.7294 27.2208 35.61 27.0915 35.627 26.8222C35.643 26.5686 35.6592 26.3141 35.66 26.0605C35.6633 25.2786 35.663 24.4967 35.6627 23.7147L35.6626 23.0445C35.6626 22.7777 35.4771 22.5912 35.2069 22.5846C35.1742 22.5838 35.1412 22.5843 35.1082 22.5848C35.0704 22.5853 35.0327 22.5859 34.9952 22.5846C34.803 22.5763 34.7437 22.5191 34.7446 22.3309C34.7446 22.267 34.7488 22.2033 34.753 22.1395C34.7575 22.0727 34.7619 22.0059 34.7615 21.9389C34.7602 21.7195 34.7552 21.4995 34.7504 21.2798L34.7462 21.0927C34.742 20.8864 34.7734 20.8532 34.985 20.8491C35.0284 20.8481 35.0714 20.8485 35.1144 20.8489C35.1488 20.8491 35.1833 20.8495 35.218 20.8491C35.5008 20.8449 35.6253 20.7331 35.6617 20.4563C35.6762 20.3453 35.6917 20.2343 35.7072 20.1233C35.7308 19.9549 35.7544 19.7863 35.7743 19.6175C35.7912 19.4708 35.8166 19.3324 35.9378 19.228C35.9632 19.2064 35.9818 19.1716 35.9903 19.1393C36.0642 18.8722 36.256 18.6952 36.4476 18.5183C36.504 18.4664 36.5603 18.4145 36.6136 18.3602C36.6377 18.3359 36.6738 18.3225 36.7092 18.3091C36.721 18.3047 36.7328 18.3003 36.744 18.2956C36.7638 18.2867 36.7857 18.2801 36.8076 18.2734C36.8491 18.2607 36.8904 18.2481 36.9159 18.221C37.0433 18.0873 37.207 18.0562 37.3725 18.0247C37.4061 18.0183 37.4397 18.0119 37.4731 18.0047C37.5419 17.9893 37.6083 17.9631 37.6747 17.9369C37.7121 17.9221 37.7494 17.9073 37.7873 17.8945C37.8016 17.8895 37.8159 17.8843 37.8304 17.8789C37.8818 17.8599 37.934 17.8407 37.9863 17.8381C38.2742 17.824 38.563 17.8165 38.8518 17.8124C39.02 17.81 39.1634 17.8812 39.3066 17.9523C39.3645 17.9811 39.4224 18.0098 39.4818 18.0337C39.525 18.0511 39.553 18.1481 39.5564 18.2102C39.5633 18.3407 39.5628 18.4715 39.5622 18.6025C39.562 18.6645 39.5618 18.7267 39.5623 18.7887L39.5635 18.9087C39.5655 19.1097 39.5675 19.3103 39.5725 19.5114C39.5776 19.6879 39.531 19.7343 39.354 19.7253C39.2744 19.7213 39.1949 19.7189 39.1154 19.7165C39.012 19.7134 38.9086 19.7103 38.8052 19.7037C38.4885 19.6838 38.2717 19.8769 38.0778 20.0675C37.9338 20.2084 37.9101 20.4305 37.9186 20.6311C37.9236 20.7505 38.0338 20.8167 38.1514 20.8391C38.2196 20.8519 38.2906 20.8517 38.3612 20.8516H38.3835C38.4969 20.8519 38.6102 20.8517 38.7236 20.8514C38.9274 20.851 39.1312 20.8505 39.3354 20.8532C39.4895 20.8549 39.5149 20.8731 39.5174 21.0173C39.525 21.4781 39.5268 21.9398 39.52 22.4006C39.5183 22.5531 39.4683 22.5895 39.3066 22.5912C38.9822 22.5945 38.6578 22.5953 38.3335 22.5871C38.1786 22.5829 38.0634 22.6376 37.9652 22.7495C37.8966 22.8283 37.8593 22.9053 37.8796 23.0122C37.8957 23.0926 37.8966 23.1763 37.8966 23.2592C37.9008 24.4577 37.9042 25.6553 37.9067 26.8537C37.9067 27.128 37.8076 27.2225 37.5239 27.2217H36.7842L36.7846 27.22ZM76.696 24.5193C76.812 24.5191 76.928 24.5189 77.044 24.5189L77.0434 24.5173V24.4941C77.1327 24.4941 77.222 24.4937 77.3114 24.4933C77.49 24.4925 77.6687 24.4918 77.8467 24.4941C78.0094 24.4962 78.1714 24.4999 78.334 24.5037C78.5447 24.5085 78.7554 24.5133 78.9667 24.5147C79.1867 24.5164 79.2367 24.4708 79.2327 24.2636C79.2254 23.8923 79.2127 23.5202 79.19 23.1497C79.184 23.0511 79.1567 22.9359 79.0967 22.8621C79.012 22.7585 78.98 22.6483 78.9554 22.5257V22.5245C78.9394 22.4469 78.9207 22.3563 78.8694 22.3011C78.782 22.2066 78.7267 22.1038 78.6734 21.9894C78.6374 21.9118 78.576 21.8451 78.5147 21.7787C78.4927 21.7551 78.4714 21.7316 78.4507 21.7077C78.4074 21.6571 78.3594 21.6099 78.3094 21.5659C78.2967 21.5548 78.28 21.5466 78.2634 21.5385C78.24 21.5273 78.2174 21.5163 78.2067 21.4979C78.1347 21.3776 78.018 21.3123 77.902 21.2469C77.8254 21.2039 77.7487 21.1607 77.684 21.1018C77.652 21.0722 77.6047 21.0602 77.556 21.0481C77.512 21.0371 77.468 21.0259 77.4347 21.0015C77.2574 20.8731 77.062 20.8167 76.846 20.7976C76.7847 20.7923 76.7247 20.7759 76.664 20.7595C76.6227 20.7481 76.5807 20.7367 76.5374 20.7289L76.502 20.7224C76.2447 20.6754 75.9854 20.6281 75.7214 20.6733C75.64 20.6871 75.5594 20.7043 75.478 20.7215C75.3454 20.7498 75.2127 20.7781 75.0787 20.791C74.822 20.8159 74.5747 20.8473 74.3707 21.0197C74.3514 21.0363 74.32 21.0446 74.2927 21.0487C74.108 21.0748 73.9627 21.1792 73.8207 21.2818C73.7774 21.3131 73.7347 21.3441 73.6907 21.3728C73.5547 21.4613 73.4394 21.5802 73.324 21.6991C73.2754 21.7494 73.2267 21.7997 73.1767 21.8477C73.1634 21.8605 73.1547 21.8779 73.146 21.8947L73.1434 21.8999C73.108 21.9659 73.0627 22.0267 73.0174 22.0875C72.9334 22.2011 72.8487 22.3148 72.8267 22.4627C72.8234 22.4867 72.7987 22.5141 72.7767 22.5273C72.6594 22.5994 72.6447 22.7155 72.6314 22.8331C72.6074 23.0312 72.5707 23.2251 72.4847 23.4108C72.4387 23.5086 72.4234 23.6238 72.4187 23.7324C72.4094 23.9454 72.412 24.1592 72.42 24.3722C72.4234 24.4601 72.4387 24.5537 72.4767 24.6316C72.5754 24.8355 72.614 25.0501 72.63 25.2706C72.638 25.3775 72.6787 25.4629 72.754 25.5458C72.7987 25.5948 72.8254 25.6593 72.852 25.7236C72.8587 25.7381 72.8647 25.7526 72.8707 25.7669C72.8754 25.777 72.8794 25.787 72.884 25.7969C72.8934 25.8162 72.9007 25.8399 72.9074 25.8635C72.9194 25.9067 72.932 25.9489 72.958 25.9602C73.042 25.9961 73.0854 26.0689 73.1287 26.1411C73.1774 26.2221 73.2253 26.3023 73.3287 26.329C73.482 26.5445 73.6667 26.7251 73.9234 26.8221C73.936 26.8273 73.9473 26.8376 73.958 26.848C73.968 26.8573 73.978 26.8668 73.9894 26.8727C74.0887 26.9207 74.1887 26.9671 74.2887 27.0127C74.316 27.0255 74.346 27.0363 74.3754 27.047C74.432 27.0676 74.4887 27.0881 74.5334 27.1229C74.632 27.2017 74.7387 27.2373 74.8607 27.2481C74.8894 27.2506 74.918 27.2529 74.946 27.2553C75.03 27.2621 75.114 27.2689 75.1974 27.2813C75.71 27.3559 76.222 27.3443 76.734 27.2788C76.7454 27.2774 76.7574 27.2758 76.7687 27.2741C76.792 27.2708 76.816 27.2675 76.8394 27.2663L76.862 27.2653C77.1007 27.2551 77.3407 27.2448 77.5267 27.0625C77.754 27.026 77.944 26.9215 78.1134 26.7715C78.196 26.6986 78.288 26.634 78.382 26.5751C78.5254 26.4857 78.624 26.3573 78.722 26.229C78.7747 26.16 78.828 26.091 78.888 26.0281C79.026 25.8839 78.9527 25.6883 78.7554 25.6328C78.7007 25.6175 78.6447 25.6054 78.5887 25.5933C78.542 25.5831 78.4947 25.5728 78.448 25.5607C78.3874 25.5449 78.328 25.5251 78.2694 25.5019C78.2254 25.4844 78.182 25.4651 78.1387 25.4458C78.0487 25.4056 77.958 25.3654 77.8627 25.3419L77.86 25.3412C77.7107 25.3041 77.5694 25.2692 77.438 25.1769C77.3154 25.0899 77.156 25.0692 77.0207 25.1587C76.9 25.2383 76.7894 25.3361 76.6867 25.438C76.592 25.5333 76.4774 25.5823 76.3494 25.5881L76.2687 25.5916C76.0634 25.6009 75.8567 25.6103 75.6534 25.5905C75.254 25.5516 74.972 25.3245 74.772 24.9929C74.7507 24.9581 74.7334 24.9192 74.7214 24.8803C74.6707 24.7054 74.734 24.5811 74.914 24.528C75.0007 24.5031 75.0947 24.4957 75.1854 24.4965C75.3014 24.4977 75.4174 24.5025 75.534 24.5073C75.65 24.5121 75.766 24.5168 75.882 24.5181C76.1534 24.5204 76.4247 24.5199 76.696 24.5193ZM75.888 23.3287V23.318H75.9094L76.1094 23.3212C76.31 23.3245 76.5114 23.3277 76.7127 23.3296C76.968 23.3321 77.054 23.2243 77.0067 22.9782C76.9867 22.8696 76.934 22.7892 76.8427 22.7254C76.806 22.7005 76.774 22.6702 76.742 22.64L76.7414 22.6399C76.718 22.618 76.6947 22.5961 76.67 22.5762L76.6567 22.5656C76.6127 22.5306 76.5674 22.4947 76.5154 22.4751L76.504 22.4705C76.3654 22.4165 76.2247 22.3614 76.0807 22.3276C75.9734 22.3027 75.8394 22.2745 75.7507 22.316C75.6714 22.3534 75.5847 22.3769 75.4974 22.4004C75.3207 22.4481 75.1447 22.4958 75.0287 22.6607C74.852 22.7178 74.8047 22.8669 74.7574 23.0169L74.7554 23.0246C74.706 23.1804 74.7554 23.2774 74.9174 23.3139C74.9814 23.3279 75.048 23.3283 75.1147 23.3285L75.1487 23.3287C75.3134 23.3299 75.478 23.3295 75.6427 23.3291C75.7247 23.3289 75.806 23.3287 75.888 23.3287ZM61.9519 21.3887C61.9262 21.3961 61.9002 21.4034 61.8744 21.4117L61.8736 21.4134C61.74 21.3357 61.7266 21.2066 61.7132 21.0783L61.7126 21.0727C61.6898 20.8556 61.6779 20.844 61.456 20.844H59.8072L59.7649 20.8442C59.7366 20.8444 59.7084 20.8445 59.6802 20.844C59.5692 20.8423 59.5091 20.8913 59.5058 21.0031C59.505 21.0253 59.504 21.0475 59.503 21.0696C59.5014 21.0998 59.4997 21.13 59.498 21.1602C59.4934 21.2385 59.4888 21.3167 59.4888 21.3951C59.4882 22.5743 59.4884 23.7537 59.4886 24.9331L59.4888 26.7019C59.4888 26.7981 59.4922 26.8942 59.5006 26.9903C59.521 27.2116 59.5312 27.2207 59.7547 27.2207C59.9602 27.2207 60.1658 27.2202 60.3714 27.2197C60.6801 27.2189 60.9892 27.2181 61.2977 27.2191H61.3052C61.7211 27.2207 61.722 27.2207 61.722 26.8113C61.7228 25.8615 61.7236 24.9117 61.7202 23.9619C61.7186 23.5376 61.8668 23.1878 62.1852 22.8886C62.3292 22.7535 62.4723 22.7055 62.6544 22.7113C62.6901 22.7122 62.7258 22.7125 62.7616 22.7129C62.8531 22.7137 62.9445 22.7147 63.0346 22.7253C63.0998 22.7328 63.1743 22.7602 63.2209 22.8033C63.4868 23.0453 63.6808 23.3229 63.6333 23.7041C63.6294 23.7357 63.6307 23.7679 63.632 23.8001C63.6326 23.8162 63.6333 23.8323 63.6333 23.8484L63.6257 26.8627C63.6248 27.1735 63.6714 27.2191 63.9916 27.2191C64.1654 27.2191 64.3393 27.2189 64.5131 27.2187C64.8605 27.2183 65.208 27.2179 65.5557 27.2191C65.8284 27.2207 65.875 27.1843 65.9054 26.924C65.9095 26.8915 65.9092 26.8585 65.909 26.8253L65.9088 26.8005V26.798V26.7955V26.7931V26.7905V26.7881V26.7855V26.7831C65.908 25.8465 65.9071 24.9092 65.9054 23.9719C65.9053 23.8711 65.906 23.7702 65.9068 23.6693C65.9104 23.179 65.914 22.6885 65.8156 22.2032C65.7922 22.0911 65.7443 21.9827 65.6973 21.8767L65.6903 21.8609C65.6662 21.8057 65.6336 21.7538 65.6009 21.7017L65.5877 21.6806L65.5746 21.6595L65.5681 21.6487L65.5582 21.6322C65.5488 21.6159 65.5402 21.5989 65.5316 21.5819C65.5116 21.5426 65.4918 21.5034 65.4617 21.4739C65.4315 21.444 65.4015 21.4139 65.3715 21.3837C65.0988 21.109 64.8249 20.8333 64.3963 20.7893C64.3772 20.7869 64.3584 20.7788 64.3398 20.7707C64.3322 20.7674 64.3244 20.7641 64.3167 20.7611C64.0118 20.6451 63.701 20.6252 63.3835 20.6981C63.1989 20.7404 63.0142 20.7827 62.8322 20.8324C62.6112 20.8929 62.4401 21.0271 62.2919 21.1954C62.2428 21.2509 62.1801 21.299 62.114 21.3321C62.0636 21.3572 62.0082 21.3728 61.9519 21.3887ZM56.1498 27.0888L56.1499 27.0899C56.1526 27.1254 56.1553 27.1632 56.159 27.2043L56.1624 27.2076C56.1958 27.2095 56.2254 27.2117 56.2528 27.2137C56.2982 27.2171 56.3372 27.22 56.3758 27.22C56.5519 27.2225 56.728 27.2233 56.9042 27.2233C57.0384 27.2233 57.1724 27.2235 57.3064 27.2237C57.5741 27.2241 57.8418 27.2244 58.1093 27.2233C58.299 27.2225 58.3261 27.1951 58.3404 27.0095C58.3438 26.9481 58.3438 26.886 58.3438 26.8239V21.1873C58.3438 21.1259 58.3422 21.0654 58.3405 21.0041L58.3404 21.0016C58.3379 20.9029 58.2896 20.8466 58.1846 20.8466H58.0576L57.522 20.8459H57.5212C57.1644 20.8456 56.8076 20.8452 56.4511 20.8441L56.4462 20.8441C56.1716 20.8433 56.1715 20.8433 56.1403 21.1176L56.1398 21.1224L56.1388 21.1315L56.1378 21.1409C56.1371 21.1467 56.1364 21.1525 56.1352 21.1582C56.1064 21.3124 56.0234 21.3679 55.866 21.3381C55.7525 21.3165 55.6661 21.2577 55.5763 21.1839C55.423 21.0579 55.2554 20.9311 55.0716 20.864C54.8294 20.7761 54.5677 20.7339 54.3111 20.6949C53.9654 20.6423 53.6347 20.7199 53.3044 20.7975C53.1977 20.8225 53.0912 20.8475 52.9841 20.8681C52.957 20.8731 52.9299 20.8881 52.9087 20.9046C52.8177 20.9766 52.7163 21.0316 52.6143 21.0869C52.5038 21.1469 52.3926 21.2073 52.2931 21.29C52.0737 21.4732 51.8688 21.653 51.7138 21.8959C51.686 21.9393 51.6552 21.9808 51.6244 22.0221C51.5454 22.1282 51.467 22.2336 51.442 22.3707C51.4352 22.4072 51.4005 22.4429 51.3708 22.4711C51.2799 22.5592 51.2593 22.6695 51.2374 22.7863L51.237 22.7885C51.1922 23.0313 51.1388 23.2725 51.077 23.512C50.9796 23.8883 50.9898 24.2595 51.0964 24.6317C51.1424 24.7922 51.1802 24.9542 51.2182 25.117L51.2184 25.1177L51.226 25.1505C51.2329 25.18 51.2356 25.211 51.2382 25.2419C51.2422 25.2875 51.2462 25.333 51.2633 25.3735C51.295 25.4475 51.3362 25.5173 51.3774 25.5871C51.4472 25.7055 51.5171 25.8239 51.541 25.9635C51.6284 26.0163 51.6777 26.0973 51.7269 26.1782C51.7526 26.2204 51.7784 26.2628 51.8095 26.3009C51.9272 26.4459 52.05 26.5951 52.2008 26.7029C52.25 26.7379 52.2972 26.7769 52.3445 26.816C52.4787 26.927 52.6142 27.0391 52.802 27.0642C52.8206 27.0667 52.841 27.0824 52.8545 27.0973C52.9773 27.2357 53.1416 27.2573 53.3152 27.2615C53.4067 27.2631 53.4982 27.2705 53.5888 27.283C54.0342 27.3435 54.4796 27.3045 54.915 27.2341C55.1284 27.1993 55.3358 27.0534 55.5128 26.9175L55.5248 26.9083C55.621 26.8338 55.7107 26.7643 55.8278 26.7277C56.015 26.6697 56.1073 26.7244 56.1336 26.9142C56.1411 26.9695 56.1452 27.0259 56.1498 27.0888ZM55.7956 23.1042C56.098 23.4001 56.1827 23.6711 56.159 24.0913L56.1573 24.0921C56.155 24.1201 56.1537 24.1484 56.1523 24.1767C56.149 24.2449 56.1457 24.3134 56.1302 24.3789C56.1107 24.4618 56.0675 24.5413 56.026 24.6176C56.014 24.6403 55.9959 24.6597 55.9778 24.6792C55.9574 24.701 55.9373 24.7227 55.9261 24.7485C55.8538 24.9169 55.7199 25.0196 55.5798 25.1271C55.5642 25.1391 55.548 25.1515 55.5323 25.1638C55.2545 25.3793 54.9386 25.3884 54.6152 25.3817C54.5324 25.3798 54.4497 25.3621 54.3674 25.3445L54.3668 25.3444L54.335 25.3377L54.3035 25.3312L54.2946 25.3295C54.2428 25.3192 54.186 25.308 54.1452 25.279C53.914 25.1149 53.6878 24.9425 53.5142 24.7162C53.4842 24.6766 53.4663 24.6275 53.4486 24.5789C53.4448 24.5685 53.441 24.5582 53.4372 24.548C53.397 24.4427 53.3588 24.3361 53.3209 24.2299L53.3102 24.1999C53.2678 24.0789 53.2636 23.9595 53.3135 23.8377C53.3371 23.7807 53.3569 23.7221 53.3766 23.6637C53.3987 23.5983 53.4209 23.5327 53.4482 23.4697C53.4777 23.4021 53.52 23.3393 53.5622 23.2767L53.5845 23.2435C53.6628 23.126 53.7737 23.0437 53.8848 22.9614C53.9516 22.9119 54.0184 22.8623 54.0782 22.8051C54.1112 22.7727 54.1587 22.7453 54.2044 22.7354C54.566 22.6575 54.9378 22.6293 55.2876 22.7487C55.4772 22.8133 55.65 22.9609 55.7956 23.1042ZM43.7847 24.0067V21.2195C43.7847 20.8597 43.7906 20.8531 44.1624 20.8523C44.6976 20.8515 45.2337 20.8506 45.7689 20.8515C45.9552 20.8515 45.9628 20.8672 45.9899 21.0471C46.0068 21.1606 46.0407 21.2733 46.0797 21.3827C46.1034 21.4507 46.1712 21.4755 46.2364 21.4383C46.2726 21.4173 46.3123 21.4006 46.3521 21.3839C46.4602 21.3384 46.569 21.2927 46.6098 21.1606C46.6174 21.1365 46.6403 21.1084 46.6632 21.0993C46.7473 21.0656 46.8256 21.0193 46.904 20.9729C47.0631 20.8787 47.2224 20.7843 47.4312 20.7959C47.5151 20.8003 47.6002 20.7779 47.6857 20.7554C47.7453 20.7397 47.8051 20.724 47.8648 20.7172C48.0029 20.7015 48.1477 20.6907 48.284 20.7105C48.5059 20.7429 48.732 20.7819 48.942 20.8573C49.1089 20.9177 49.274 21.0164 49.4036 21.1357C49.426 21.1563 49.4486 21.1768 49.4714 21.1973C49.6382 21.3478 49.8085 21.5015 49.8778 21.7283C49.8854 21.754 49.8973 21.7863 49.9176 21.7996C50.0609 21.8912 50.0761 22.0291 50.0917 22.1712C50.0942 22.1937 50.0967 22.2163 50.0997 22.2389C50.1683 22.7593 50.1759 23.2807 50.1717 23.8045C50.1649 24.6921 50.1692 25.5797 50.1734 26.4682C50.1734 26.59 50.1937 26.7135 50.22 26.8337C50.2572 27.0069 50.104 27.2166 49.921 27.2174C49.3714 27.2207 48.8218 27.2215 48.2722 27.2191C48.0325 27.2182 47.9343 27.1063 47.9377 26.8668C47.94 26.6782 47.9423 26.4895 47.9447 26.3009C47.9548 25.4991 47.965 24.6973 47.9656 23.8956C47.9656 23.6776 47.9233 23.4572 47.8801 23.2425C47.8648 23.1671 47.8048 23.0962 47.7502 23.0319L47.7412 23.0212C47.6786 22.9475 47.6066 22.8795 47.5295 22.8207C47.4719 22.7767 47.4008 22.7287 47.333 22.7245C47.1796 22.7141 47.0256 22.7165 46.8714 22.7187C46.8283 22.7194 46.7851 22.72 46.7419 22.7204C46.7072 22.7204 46.6623 22.7204 46.6403 22.7411C46.5957 22.7824 46.5454 22.8187 46.4952 22.8549C46.3718 22.944 46.2482 23.0333 46.2067 23.1969C46.1932 23.25 46.1728 23.3039 46.1424 23.3486C46.0111 23.545 46.0094 23.7663 46.0102 23.9859C46.0115 24.6927 46.0156 25.4 46.0198 26.107V26.1079C46.0212 26.3432 46.0225 26.5785 46.0238 26.8138C46.0238 26.8411 46.0238 26.8693 46.0212 26.8967C45.995 27.1925 45.9636 27.2182 45.663 27.2166C45.2795 27.2146 44.8966 27.2147 44.5132 27.2149L44.2259 27.2149L44.2019 27.215L44.1681 27.2152C44.1101 27.2157 44.0516 27.2161 43.9939 27.2124C43.855 27.2033 43.8254 27.1785 43.8008 27.0425C43.789 26.9754 43.7872 26.9058 43.7872 26.837V24.0083L43.7847 24.0067ZM71.7227 22.8995L71.7234 22.8995L71.7227 22.9003V22.8995ZM71.7327 22.8367C71.7294 22.8575 71.7254 22.8784 71.7227 22.8995C71.714 22.8999 71.7067 22.9004 71.7007 22.9009C71.69 22.9017 71.6827 22.9025 71.6767 22.9031C71.666 22.9042 71.662 22.9046 71.66 22.9028C71.406 22.6932 71.1034 22.6859 70.8027 22.6787C70.7414 22.6771 70.6794 22.6757 70.618 22.6724C70.45 22.6636 70.278 22.6951 70.1114 22.7257L70.0947 22.7287C70.0307 22.7406 69.9694 22.7737 69.9094 22.8063C69.89 22.8169 69.87 22.8275 69.85 22.8373C69.836 22.8446 69.824 22.8561 69.812 22.8675C69.798 22.8808 69.784 22.8941 69.7674 22.9003C69.5847 22.9659 69.48 23.107 69.3754 23.2479C69.332 23.3066 69.2887 23.3652 69.2394 23.4183C69.204 23.4565 69.1827 23.5153 69.1754 23.5675C69.152 23.7241 69.1327 23.8816 69.1254 24.0391C69.1014 24.5339 69.3554 24.872 69.7534 25.1513C70.044 25.3544 70.3647 25.3834 70.6947 25.3892C70.8834 25.3925 71.0747 25.3651 71.26 25.3303C71.3187 25.3191 71.3734 25.2867 71.4274 25.2542C71.458 25.2361 71.488 25.218 71.5194 25.2035C71.5267 25.2 71.5347 25.1961 71.5427 25.192L71.5634 25.1808C71.612 25.1549 71.6627 25.1277 71.7027 25.1372C71.7814 25.1563 71.7787 25.2303 71.776 25.2975C71.7754 25.3093 71.7747 25.3209 71.7747 25.332L71.7754 25.6216V25.6243C71.7754 26.0084 71.7754 26.3927 71.7734 26.7774C71.7727 26.9921 71.6127 27.2084 71.3907 27.2275C71.25 27.2395 71.1094 27.2577 70.9694 27.2757C70.6007 27.3233 70.232 27.3709 69.856 27.3103C69.6994 27.2846 69.5394 27.2736 69.38 27.2626C69.3287 27.2591 69.2767 27.2555 69.2254 27.2515C69.0954 27.2415 68.9754 27.2142 68.8747 27.1271L68.8734 27.1261C68.8527 27.1082 68.8294 27.0881 68.804 27.0824C68.6074 27.0402 68.4407 26.9401 68.274 26.8399C68.2214 26.8083 68.1687 26.7766 68.1147 26.7467C68.1054 26.7417 68.0954 26.7379 68.0854 26.7342C68.0687 26.7279 68.052 26.7217 68.0407 26.7103C67.9994 26.671 67.96 26.629 67.9207 26.587C67.842 26.5031 67.764 26.4193 67.67 26.3581C67.582 26.3005 67.53 26.2177 67.4787 26.1351C67.4294 26.0569 67.3807 25.9789 67.3014 25.9229C67.2674 25.899 67.2534 25.8479 67.24 25.7961C67.2327 25.7691 67.226 25.7419 67.2154 25.7182C67.2067 25.6977 67.1987 25.6764 67.1907 25.6551C67.1664 25.5922 67.1421 25.5288 67.1004 25.4812C67.0106 25.3809 66.9835 25.2665 66.9615 25.143C66.9528 25.0946 66.9443 25.0461 66.9358 24.9977L66.9356 24.9962L66.9353 24.9947C66.8964 24.7736 66.8576 24.5521 66.8056 24.3333C66.7616 24.1468 66.7616 23.9686 66.8023 23.783C66.8624 23.5078 66.9107 23.2293 66.9572 22.9517C66.9801 22.8133 67.0064 22.6807 67.1156 22.5787C67.1359 22.5605 67.1588 22.5357 67.163 22.5116C67.1927 22.3415 67.288 22.2045 67.3827 22.068C67.4167 22.0191 67.4507 21.9702 67.4814 21.9199C67.5047 21.8813 67.5427 21.8515 67.5807 21.8216C67.6034 21.8039 67.626 21.7862 67.646 21.7665C67.6874 21.7251 67.7274 21.681 67.7674 21.6369C67.846 21.5497 67.9247 21.4627 68.018 21.3961C68.1574 21.2979 68.312 21.2185 68.4654 21.1396C68.5154 21.1139 68.5654 21.0883 68.6147 21.0621C68.6827 21.0258 68.7527 20.9936 68.8227 20.9615C68.8474 20.9503 68.8714 20.9391 68.8954 20.9278C68.9127 20.9198 68.93 20.911 68.9474 20.9022C68.9927 20.879 69.038 20.8556 69.086 20.8466C69.264 20.8139 69.442 20.7842 69.6207 20.7545C69.768 20.73 69.9154 20.7054 70.0627 20.6791C70.2667 20.6427 70.468 20.6485 70.6714 20.6875C70.788 20.7101 70.904 20.7309 71.0207 20.7518L71.0214 20.7519C71.1607 20.777 71.3 20.802 71.4394 20.83C71.6674 20.8756 71.7647 20.9899 71.764 21.2179C71.762 21.7127 71.7567 22.2083 71.7487 22.7031C71.748 22.7477 71.7407 22.7919 71.7327 22.8367ZM40.4879 24.0325V21.2477C40.4879 20.985 40.6132 20.859 40.886 20.8565C41.3856 20.8524 41.8861 20.8482 42.3857 20.8457C42.6482 20.8441 42.7372 20.9353 42.7372 21.193V21.1979V21.2029C42.7338 22.9815 42.7304 24.7593 42.7287 26.5379C42.7287 26.578 42.7328 26.6183 42.737 26.6587C42.742 26.7074 42.7471 26.7562 42.7448 26.8047C42.7414 26.876 42.7219 26.9489 42.6974 27.0169C42.6406 27.1769 42.5178 27.2158 42.351 27.2125C42.0224 27.2065 41.6938 27.207 41.3652 27.2075C41.201 27.2078 41.0367 27.2081 40.8724 27.2075C40.6361 27.2075 40.4862 27.0501 40.4862 26.818C40.4874 26.1991 40.487 25.5799 40.4866 24.9608C40.4864 24.6513 40.4862 24.3418 40.4862 24.0325H40.4879Z" fill="currentColor"/>
</g>
</svg>
