<svg width="160" height="28" viewBox="0 0 160 28" fill="none" xmlns="http://www.w3.org/2000/svg">
<path d="M9.33334 1.75H19.5971C21.5521 1.75 23.0183 2.23872 24.1045 3.05328C25.2992 4.03083 25.9509 5.44273 25.9509 7.1806C25.9509 9.18983 25.1363 10.4389 23.5072 11.1992V11.3078C25.6794 12.0137 26.9284 13.9687 26.9284 16.3039C26.9284 18.5304 26.0595 20.2683 24.6476 21.3543C23.4528 22.2232 21.9323 22.6033 19.8687 22.6033H9.33334V1.75ZM18.5653 9.8959C19.6515 9.8959 20.466 9.29845 20.466 8.04942C20.466 6.85475 19.6515 6.25742 18.511 6.25742H14.9812V9.84153H18.5653V9.8959ZM19.054 17.9874C20.303 17.9874 21.2262 17.2271 21.2262 15.8695C21.2262 14.4032 20.2488 13.7515 19.054 13.7515H15.0354V18.0417H19.054V17.9874ZM27.8516 1.75H33.2278V22.6577H27.8516V1.75ZM34.3139 15.2178C34.3139 10.4932 37.355 7.34347 42.0797 7.34347C46.8042 7.34347 49.791 10.5475 49.791 15.2178C49.791 19.9424 46.8042 23.0922 42.0797 23.0922C37.355 23.0922 34.3139 19.9424 34.3139 15.2178ZM44.4148 15.2178C44.4148 12.6111 43.6002 10.9819 41.9711 10.9819C40.3418 10.9819 39.5816 12.6111 39.5816 15.2178C39.5816 17.8244 40.3418 19.5079 41.9711 19.5079C43.6002 19.4537 44.4148 17.8244 44.4148 15.2178ZM50.3885 15.2178C50.3885 10.4932 53.4295 7.34347 58.1541 7.34347C62.8787 7.34347 65.8112 10.4932 65.8112 15.2178C65.8112 19.9424 62.8244 23.0922 58.0998 23.0922C53.4295 23.0922 50.3885 19.9424 50.3885 15.2178ZM60.4892 15.2178C60.4892 12.6111 59.6747 10.9819 58.0455 10.9819C56.4164 10.9819 55.6561 12.6111 55.6561 15.2178C55.6561 17.8244 56.4164 19.5079 58.0455 19.5079C59.6747 19.4537 60.4892 17.8244 60.4892 15.2178ZM66.8974 7.72357H71.8935V9.95015H72.0021C72.9796 8.2124 74.3372 7.28922 76.5094 7.28922C78.4102 7.28922 79.8221 8.2124 80.5281 9.84153H80.6366C81.8314 7.88655 83.4063 7.28922 85.2527 7.28922C88.7283 7.28922 90.1944 9.84153 90.1944 13.2628V22.6033H84.9812V14.186C84.9812 12.6655 84.4923 11.6879 83.1891 11.6879C81.8857 11.6879 81.2341 12.8827 81.2341 14.5118V22.6033H76.0207V14.186C76.0207 12.6655 75.532 11.6879 74.2286 11.6879C72.9253 11.6879 72.2736 12.8827 72.2736 14.5118V22.6033H66.8974V7.72357ZM96.7654 20.6484H96.7112V22.6033H91.7151V1.75H96.9284V9.2442H97.037C98.0145 7.9408 99.3721 7.23485 101.273 7.23485C105.02 7.23485 107.192 10.6018 107.192 15.1091C107.192 20.1596 104.857 23.0922 100.947 23.0922C99.3179 23.0922 97.6344 22.3319 96.7654 20.6484ZM101.816 15.0549C101.816 12.6655 100.947 11.0906 99.3721 11.0906C97.743 11.0906 96.7654 12.6655 96.7654 15.0549C96.7654 17.4444 97.7972 19.0192 99.3721 19.0192C100.947 19.0192 101.816 17.4986 101.816 15.0549ZM107.79 15.1635C107.79 10.4932 110.885 7.28922 115.338 7.28922C117.565 7.28922 119.249 7.99517 120.552 9.2442C122.289 10.9277 123.05 13.5344 122.995 16.5754H113.003C113.22 18.4218 114.089 19.3993 115.664 19.3993C116.587 19.3993 117.402 18.9649 117.727 17.9874H122.778C121.909 21.4087 119.249 23.0922 115.501 23.0922C110.885 23.0378 107.79 19.888 107.79 15.1635ZM113.003 13.5886H117.782C117.674 11.7965 116.696 10.8733 115.447 10.8733C113.98 10.8191 113.166 11.8509 113.003 13.5886ZM128.914 10.276H129.023C130.109 8.2124 131.521 7.39783 133.313 7.39783C133.748 7.39783 134.02 7.45208 134.182 7.5607V12.1224H134.073C130.978 11.5793 129.186 13.0456 129.186 16.4126V22.6577H123.919V7.72357H128.914V10.276ZM134.726 22.6577H139.776C139.993 23.3093 140.644 23.9067 141.894 23.9067C143.577 23.9067 144.174 22.8749 144.174 21.3001V20.2139H144.066C143.252 21.1914 142.111 21.8974 140.482 21.8974C137.277 21.8974 134.454 19.5079 134.454 14.8377C134.454 10.5475 136.735 7.23485 140.21 7.23485C142.219 7.23485 143.414 8.04942 144.229 9.29845H144.338V7.66932H149.333V20.5941C149.333 22.9836 148.519 24.8299 147.27 25.916C145.966 27.0564 144.12 27.5452 142.002 27.5452C137.984 27.5995 135.214 25.9703 134.726 22.6577ZM144.391 14.6204C144.391 12.7741 143.522 11.2536 142.002 11.2536C140.536 11.2536 139.613 12.5568 139.613 14.6204C139.613 16.6298 140.536 18.0417 142.002 18.0417C143.469 18.0417 144.391 16.5754 144.391 14.6204Z" fill="white"/>
</svg>
