<svg width="160" height="28" viewBox="0 0 160 28" fill="none" xmlns="http://www.w3.org/2000/svg">
<path fill-rule="evenodd" clip-rule="evenodd" d="M13.5433 0.065807C13.4589 0.0711737 13.375 0.0736233 13.2912 0.07619C13.026 0.0840066 12.762 0.0919401 12.4851 0.189357C11.4349 0.560123 10.7315 1.27296 10.3561 2.27407C9.99175 3.24824 10.109 4.23839 10.5684 5.17616C10.6254 5.29177 10.7109 5.40587 10.8107 5.48824C11.4317 6.01569 11.9544 6.60661 12.1429 7.42876C12.2602 7.93882 12.2697 8.44889 12.1556 8.95896C11.9988 9.66071 11.6345 10.2452 11.1149 10.7331C10.7981 11.0293 10.6143 11.4095 10.5002 11.8055C10.4033 12.1483 10.3664 12.5087 10.3296 12.8675C10.3237 12.9249 10.3179 12.9823 10.3117 13.0396C10.2056 14.0123 10.6127 14.8058 11.2479 15.4886C11.6265 15.8957 11.937 16.3218 12.1271 16.8477C12.4819 17.833 12.3647 18.7709 11.8404 19.6499C11.6639 19.9449 11.4506 20.2173 11.2369 20.4904C11.1188 20.6413 11.0005 20.7923 10.8883 20.9474C10.5335 21.4368 10.2009 21.9406 10.1676 22.5727L10.1666 22.5909C10.14 23.0916 10.1136 23.5874 10.364 24.0585C10.7236 24.735 11.2289 25.2798 11.8198 25.7551L11.8348 25.7672C11.9464 25.8575 12.0681 25.9561 12.2 25.988L12.3318 26.0203C12.7367 26.1198 13.1445 26.2199 13.5559 26.2556C13.9219 26.2873 14.3005 26.2334 14.6649 26.1732C15.2335 26.0798 15.7642 25.8929 16.1713 25.4445C16.4992 25.085 16.8762 24.784 17.334 24.6002C18.2069 24.2534 19.0702 24.2565 19.935 24.6399C20.3836 24.8395 20.7298 25.1614 21.0787 25.486C21.1231 25.5271 21.1673 25.5683 21.2118 25.6094C21.665 26.026 22.2004 26.3143 22.807 26.3967C23.3932 26.4774 23.9872 26.4742 24.5669 26.2635C25.5538 25.9056 26.2714 25.2545 26.6675 24.2961C27.0001 23.4883 26.9954 22.6503 26.696 21.8139C26.3475 20.8396 25.6885 20.1537 24.7381 19.8069C23.5531 19.3744 22.4046 19.5042 21.3972 20.3121L21.2996 20.3907C20.7888 20.8018 20.2853 21.207 19.6405 21.4036C18.6678 21.6983 17.7173 21.6697 16.8477 21.1327C15.8038 20.4863 15.1654 19.5518 15.064 18.294C14.9895 17.3546 15.2351 16.523 15.8846 15.8307C16.3044 15.3824 16.7083 14.9262 16.8699 14.3148C17.1899 13.1077 17.109 11.9861 16.2156 11.0088C15.7277 10.4766 15.2826 9.89509 15.121 9.17281C14.8486 7.94676 15.1052 6.84892 16.005 5.93169C16.4944 5.43271 17.0283 4.99556 17.7284 4.84821C18.8056 4.62012 19.7973 4.82289 20.6273 5.57691C21.0044 5.92061 21.3893 6.23584 21.8408 6.47979L21.8549 6.48761C22.2158 6.68442 22.5625 6.87354 22.9972 6.82046C23.0896 6.80891 23.185 6.81416 23.28 6.81929C23.3935 6.82559 23.5064 6.83177 23.6133 6.80937C23.6711 6.79736 23.7294 6.78581 23.788 6.77426C24.117 6.70916 24.4544 6.64242 24.7381 6.48772C25.1626 6.25812 25.5475 5.93962 25.9071 5.61331C26.5946 4.99241 27.3883 4.66446 28.307 4.71836C29.2051 4.77214 29.9593 5.16659 30.5676 5.83672C30.9525 6.25964 31.4134 6.56064 31.9678 6.73167C32.9881 7.04539 33.9384 6.91391 34.8272 6.33722C35.5938 5.83987 36.039 5.11911 36.2798 4.24469C36.4619 3.58412 36.4398 2.93149 36.21 2.30732C35.8108 1.22384 35.0442 0.487206 33.9179 0.179906C32.7456 -0.138477 31.678 0.0833075 30.7481 0.891224C30.1462 1.41389 29.5109 1.85909 28.6888 1.99372C27.7669 2.14574 26.9447 1.94297 26.2018 1.41074C26.0686 1.31577 25.9541 1.19502 25.8397 1.07416C25.7363 0.96519 25.633 0.856224 25.5158 0.766041C24.8363 0.243258 24.0822 -0.0117754 23.2 0.000941261C22.4443 0.0120246 21.8138 0.222724 21.2419 0.693124C21.1766 0.746674 21.1116 0.800807 21.0466 0.854824C20.5601 1.25931 20.0738 1.66356 19.4519 1.87169C18.7487 2.10619 18.0547 2.08402 17.3546 1.87169C16.8065 1.70544 16.3836 1.34739 15.9733 0.975107C15.2826 0.35094 14.5144 -0.0561097 13.5433 0.065807ZM34.222 23.1144C34.2189 22.3857 33.6501 21.8091 32.9246 21.8265C32.6952 21.832 32.4872 21.8917 32.3096 21.992C31.9223 22.2102 31.6788 22.6224 31.6701 23.0874C31.6575 23.7876 32.2657 24.3753 32.958 24.369C33.3033 24.3657 33.6246 24.2136 33.8565 23.9773C34.0819 23.7487 34.2236 23.4408 34.222 23.1128V23.1144ZM33.3661 14.5185C33.886 14.3541 34.2041 13.8488 34.2204 13.3674C34.2457 12.6736 33.6723 12.0939 32.9816 12.0701C32.8227 12.0646 32.6683 12.0898 32.5245 12.1403C32.0438 12.3088 31.6822 12.761 31.6749 13.3015C31.6669 13.9811 32.1992 14.6116 32.9247 14.5719C33.0842 14.581 33.2319 14.5612 33.3661 14.5185ZM22.0656 13.3221C22.0656 12.7729 22.403 12.3211 22.8869 12.1549C23.0149 12.1107 23.1532 12.0866 23.2981 12.086C24.0537 12.0828 24.597 12.6261 24.597 13.3659C24.597 13.8066 24.3725 14.199 24.0026 14.4212C23.8073 14.5388 23.5712 14.6088 23.306 14.6131C22.6264 14.6242 22.0656 14.0317 22.0656 13.3221ZM75.7473 8.55809C74.5403 8.54537 73.5739 7.56957 73.5898 6.37841C73.6057 5.22364 74.5735 4.25729 75.7078 4.26522C76.9164 4.27316 77.916 5.24254 77.9002 6.39101C77.8843 7.58392 76.9054 8.56917 75.7473 8.55809ZM56.3755 10.6283H56.873L56.8761 10.6252C56.8751 10.5968 56.8751 10.5715 56.875 10.5483C56.8749 10.4977 56.8749 10.4573 56.8651 10.4193C56.8185 10.2432 56.7759 10.0658 56.7332 9.88821L56.7329 9.88704C56.6332 9.47241 56.5336 9.05777 56.3851 8.66087C55.7736 7.02614 54.6219 5.85866 53.0411 5.13626C51.4079 4.38866 49.6843 4.16687 47.9038 4.45994C46.8029 4.64206 45.7431 4.94621 44.7911 5.54494C43.1516 6.57627 42.0475 8.03682 41.3932 9.83629C40.7802 11.5201 40.6249 13.25 40.9038 15.0257C41.1319 16.4768 41.6451 17.8106 42.4815 19.0129C43.5064 20.4877 44.932 21.4318 46.6382 21.961C48.2269 22.4536 49.8428 22.4663 51.4696 22.1573C54.7312 21.5396 56.7541 18.834 57.0091 16.1585C57.0219 16.027 56.9918 15.9858 56.8571 15.9858C55.5502 15.9905 54.2433 15.9921 52.9365 15.9842C52.7639 15.9842 52.7115 16.0427 52.6847 16.1996C52.3473 18.2082 50.4685 19.0905 48.7925 18.8323C47.1957 18.5869 46.193 17.6015 45.6275 16.152C45.0635 14.7074 45.0414 13.2073 45.2853 11.6961C45.4279 10.8073 45.74 9.97886 46.3086 9.27547C47.2576 8.10484 48.5106 7.69616 49.979 7.97336C51.3793 8.23796 52.2712 9.06326 52.5801 10.4636C52.6165 10.6315 52.7083 10.6315 52.8319 10.6315H52.8331C54.0126 10.63 55.1945 10.6283 56.3755 10.6283ZM93.8631 11.9197V13.3264C93.8631 14.2662 93.8632 15.2062 93.8634 16.1463V16.1814C93.8638 18.05 93.8642 19.9189 93.8631 21.787V21.7903C93.8631 21.9121 93.863 21.9946 94.0341 21.9946C95.1556 21.993 96.2776 21.993 97.3995 21.993H97.4043C98.5246 21.993 99.645 21.993 100.765 21.9913C101.69 21.9898 102.607 21.909 103.51 21.6904C105.373 21.2373 106.889 20.2742 107.939 18.6569C108.714 17.4641 109.129 16.1461 109.273 14.7315C109.406 13.4405 109.349 12.1685 109.062 10.9027C108.706 9.33136 107.992 7.94676 106.848 6.80156C105.467 5.41859 103.73 4.77226 101.822 4.71206C100.039 4.65524 98.2543 4.66551 96.4693 4.67577C95.6671 4.68044 94.8648 4.68511 94.0627 4.68359C93.9154 4.68359 93.8583 4.71999 93.8583 4.88472C93.8636 7.22926 93.8633 9.57484 93.8631 11.9197ZM98.175 18.1673V13.3264V8.58364L98.1749 8.52227C98.1743 8.37866 98.174 8.31321 98.2065 8.28416C98.2335 8.25989 98.2836 8.26117 98.3753 8.26351C98.4076 8.26432 98.4451 8.26526 98.4886 8.26526C98.7281 8.26526 98.9676 8.26339 99.2072 8.26141C99.7602 8.25709 100.313 8.25277 100.865 8.27156C102.237 8.32067 103.366 8.84019 104.134 10.0235C104.486 10.5637 104.725 11.1467 104.85 11.7772C105.123 13.1458 105.096 14.5018 104.643 15.8324C104.15 17.2772 102.88 18.2593 101.343 18.3385C100.686 18.3728 100.027 18.3757 99.3681 18.3786C99.0242 18.3801 98.6803 18.3815 98.3366 18.3876C98.1726 18.3905 98.1737 18.2988 98.1747 18.1937L98.175 18.1673ZM141.469 13.8083C141.479 13.7884 141.486 13.7674 141.494 13.7463C141.508 13.7036 141.523 13.6611 141.551 13.6292C141.847 13.29 142.146 12.9516 142.445 12.6132L142.446 12.611C142.683 12.3435 142.918 12.0758 143.154 11.8076C143.37 11.5606 143.586 11.3133 143.801 11.0661L143.803 11.0644C144.191 10.6191 144.578 10.1742 144.97 9.73234C145.028 9.66747 145.134 9.60879 145.218 9.60727C146.351 9.60109 147.483 9.60167 148.629 9.60214L149.617 9.60249C149.608 9.61999 149.602 9.63574 149.595 9.64974C149.583 9.67774 149.574 9.69921 149.56 9.71496L148.629 10.6975C147.542 11.846 146.454 12.9945 145.372 14.1457C145.332 14.1884 145.32 14.3088 145.351 14.3579C146.04 15.4669 146.736 16.5741 147.434 17.6782C147.929 18.4613 148.425 19.2429 148.922 20.0246C149.291 20.606 149.659 21.1875 150.029 21.7699C150.052 21.808 150.072 21.8495 150.097 21.9007C150.11 21.9283 150.124 21.9589 150.141 21.9933H149.88L149.217 21.9931C148.111 21.9926 147.005 21.9923 145.9 22.0028C145.663 22.0044 145.542 21.9235 145.423 21.7224C144.66 20.4167 143.889 19.1176 143.117 17.8178L143.111 17.8093L143.107 17.803L142.667 17.062C142.655 17.0395 142.638 17.0192 142.615 16.991C142.604 16.9772 142.592 16.9617 142.578 16.9432C142.55 16.9702 142.524 16.9961 142.498 17.0214L142.497 17.0226C142.448 17.0709 142.4 17.1175 142.355 17.1649C142.273 17.2501 142.19 17.3347 142.106 17.4193C141.903 17.6258 141.701 17.8327 141.508 18.0473C141.437 18.1249 141.388 18.2517 141.385 18.3577C141.378 19.492 141.378 20.6277 141.385 21.762C141.385 21.9315 141.347 21.9917 141.168 21.99C139.995 21.9854 138.82 21.9885 137.646 21.9965C137.466 21.9965 137.468 21.9017 137.47 21.7835V21.7684C137.472 21.3247 137.473 20.881 137.476 20.4372V20.4359V20.4346V20.4332V20.432C137.482 19.3165 137.486 18.2007 137.487 17.0857C137.487 14.2914 137.484 11.497 137.48 8.70276C137.479 7.43704 137.476 6.17132 137.465 4.90572C137.465 4.73306 137.513 4.68231 137.688 4.68394C138.843 4.69187 139.998 4.69187 141.153 4.68394C141.335 4.68394 141.385 4.73621 141.385 4.91681C141.382 6.90364 141.381 8.89059 141.381 10.8774C141.381 11.6723 141.379 12.467 141.379 13.2617V13.7402C141.395 13.752 141.41 13.7635 141.425 13.775L141.448 13.7921L141.456 13.7979L141.472 13.8098L141.469 13.8083ZM83.7234 9.61672H79.8993V10.1617C79.9009 14.0585 79.9025 17.9554 79.9009 21.8523C79.9009 21.9599 79.931 21.9884 80.034 21.9884C81.249 21.9853 82.4624 21.9837 83.6774 21.9884C83.8405 21.99 83.8737 21.9235 83.8737 21.7762V21.7748V21.7734V21.772C83.8691 19.5827 83.8643 17.3914 83.8691 15.2023C83.8706 14.8981 83.8881 14.5812 83.9641 14.2882C84.2318 13.2553 84.9114 12.6217 85.8602 12.541C86.5003 12.4871 87.1006 12.6186 87.5298 13.1587C87.8705 13.5864 88.0098 14.0791 88.0098 14.6241C88.0085 15.6344 88.0089 16.6446 88.0092 17.6546V17.6699C88.0098 19.0232 88.0103 20.3771 88.0067 21.7302C88.0051 21.9219 88.0399 21.9963 88.2506 21.9948C89.1059 21.9877 89.962 21.9885 90.8183 21.9895C91.1038 21.9897 91.3899 21.99 91.6755 21.99C91.9811 21.9884 91.9843 21.9869 91.9843 21.6717C91.9843 20.8325 91.9845 19.9931 91.9846 19.1536V19.1213C91.985 17.4522 91.9853 15.7827 91.9843 14.1139C91.9828 13.5151 91.9226 12.9242 91.7594 12.3445C91.4315 11.1802 90.7994 10.2408 89.6811 9.70387C87.9117 8.85314 85.3629 9.07177 83.9071 11.158C83.8807 11.1953 83.8505 11.2296 83.8202 11.2641L83.7998 11.2874L83.7803 11.3101L83.7234 11.2911V9.61672ZM114.322 16.8575C114.355 16.9777 114.384 17.0923 114.412 17.2027C114.471 17.4328 114.525 17.6454 114.597 17.8507C115.161 19.4475 116.817 19.8784 118.081 19.4333C118.522 19.2764 118.884 18.9977 119.102 18.5794C119.196 18.4004 119.31 18.3561 119.49 18.3576C120.102 18.3618 120.713 18.3618 121.324 18.3618C121.63 18.3618 121.937 18.3618 122.243 18.3624H123.126C123.074 18.4853 123.028 18.6041 122.982 18.7193C122.888 18.9603 122.8 19.1846 122.686 19.3936C121.831 20.9476 120.476 21.8394 118.772 22.2339C117.992 22.4145 117.195 22.4905 116.394 22.3986C114.234 22.1531 112.478 21.2534 111.363 19.3223C110.862 18.4559 110.604 17.5133 110.509 16.5233C110.374 15.1246 110.615 13.7859 111.283 12.5488C112.15 10.9425 113.492 9.92239 115.283 9.50577C117.224 9.05427 119.031 9.35527 120.666 10.5069C121.904 11.3782 122.57 12.6359 122.962 14.0537C123.2 14.9091 123.315 15.7866 123.325 16.6753C123.328 16.848 123.266 16.8845 123.108 16.8845C120.668 16.8718 118.227 16.8638 115.785 16.8559H114.323L114.322 16.8575ZM114.399 14.5194L114.431 14.5243C114.465 14.5298 114.5 14.5353 114.534 14.5353C115.017 14.5353 115.499 14.5357 115.982 14.5363H115.985C116.952 14.5374 117.92 14.5384 118.887 14.5353C118.951 14.5353 119.006 14.5374 119.054 14.5391C119.318 14.5492 119.321 14.5492 119.248 14.1107C119.08 13.0795 118.185 12.1876 117.178 12.1305C115.475 12.0356 114.664 12.9654 114.399 14.5194ZM69.2971 20.9235C70.8906 19.6055 71.5687 17.8694 71.6272 15.6469H71.6256C71.6134 15.5546 71.602 15.4466 71.5894 15.3277C71.5565 15.0159 71.5156 14.6283 71.4308 14.2513C70.9778 12.2316 69.8515 10.7219 67.922 9.87922C66.3427 9.18856 64.7095 9.08717 63.0304 9.51954C61.2752 9.97104 59.9873 11.0039 59.135 12.5595C58.2259 14.2196 58.0626 15.9811 58.6044 17.7949C59.1762 19.7069 60.3707 21.0819 62.2367 21.8454C63.4343 22.3364 64.6842 22.4601 65.9641 22.2969C67.1997 22.1401 68.3323 21.7218 69.2971 20.9235ZM62.8181 18.2543C62.4648 17.5684 62.3333 16.9268 62.327 16.1918H62.3302C62.3143 14.9594 62.4506 14.0912 62.872 13.2881C63.7416 11.6312 65.8976 11.7294 66.8275 12.9492C67.2361 13.4862 67.4421 14.0849 67.5466 14.7313C67.6892 15.6216 67.6733 16.5102 67.4437 17.383C67.252 18.1085 66.9209 18.758 66.2603 19.1809C65.0421 19.9619 63.4787 19.539 62.8181 18.2543ZM126.1 18.0612H127.782C127.894 18.0612 127.955 18.0865 127.974 18.2196C128.097 19.0259 128.694 19.6342 129.5 19.7989C130.051 19.9129 130.602 19.9082 131.147 19.7625C131.449 19.6817 131.731 19.5533 131.94 19.3079C132.342 18.8357 132.254 18.2148 131.745 17.8488C131.368 17.5779 130.932 17.488 130.493 17.3977L130.408 17.38L130.318 17.3609C129.981 17.289 129.644 17.2194 129.307 17.15C128.651 17.0148 127.995 16.8796 127.344 16.7258C126.738 16.5816 126.175 16.3155 125.69 15.9131C124.953 15.3 124.612 14.4922 124.556 13.5545C124.452 11.7898 125.39 10.5209 126.958 9.88249C128.987 9.05556 131.059 9.08414 133.088 9.89521C134.49 10.4544 135.291 11.5331 135.512 13.0269C135.544 13.2439 135.525 13.2645 135.305 13.2645C134.249 13.2645 133.193 13.2645 132.136 13.2708C131.966 13.2708 131.883 13.2281 131.842 13.0444C131.704 12.4392 131.324 12.059 130.708 11.9228C130.063 11.7787 129.418 11.758 128.811 12.0496C128.609 12.1462 128.408 12.3172 128.291 12.5057C128.035 12.9113 128.155 13.3881 128.593 13.5892C129.01 13.7825 129.467 13.9155 129.92 14.0123C130.281 14.0895 130.645 14.1542 131.009 14.219C131.792 14.3585 132.576 14.4979 133.331 14.7631C133.966 14.9864 134.551 15.2874 135.02 15.7848C135.588 16.3884 135.846 17.1155 135.907 17.9218C135.992 19.1051 135.694 20.1616 134.805 20.998C134.229 21.5415 133.534 21.8852 132.775 22.0942C130.898 22.6107 129.033 22.5679 127.194 21.9263C126.145 21.5604 125.313 20.9141 124.744 19.9494C124.417 19.3982 124.309 18.7882 124.215 18.172C124.211 18.1372 124.306 18.0532 124.359 18.0501C124.554 18.0387 124.749 18.0395 124.943 18.0402L125.015 18.0404L125.09 18.0405H126.1V18.0612ZM77.9096 9.61334H72.2829L72.2813 9.61182C72.2813 9.91399 72.2815 10.2136 72.2816 10.5113C72.282 11.1017 72.2823 11.685 72.2813 12.2683C72.2813 12.3901 72.3565 12.3887 72.4341 12.3874L72.4587 12.3871C72.6011 12.3871 72.7436 12.388 72.8862 12.3888C73.172 12.3906 73.4587 12.3923 73.745 12.3871C73.8892 12.3855 73.9462 12.422 73.9462 12.5725C73.9462 12.7594 73.9514 12.9463 73.9565 13.1332C73.9616 13.3201 73.9668 13.5071 73.9668 13.694C73.9605 16.398 73.9542 19.1004 73.9414 21.8029C73.9399 21.9503 73.9778 21.9946 74.1283 21.9946C75.3228 21.9898 76.5172 21.9914 77.7116 21.9977C77.8716 21.9977 77.9111 21.9423 77.9111 21.7903C77.9096 18.0692 77.9096 14.3498 77.9096 10.6303V9.61334Z" fill="white"/>
</svg>
