<svg width="160" height="28" viewBox="0 0 160 28" fill="none" xmlns="http://www.w3.org/2000/svg">
<path fill-rule="evenodd" clip-rule="evenodd" d="M39.194 25.5226L39.0112 25.503L39.0098 25.5029L39.0084 25.5027C38.8846 25.4895 38.7609 25.4763 38.6372 25.4626C36.6915 25.2485 35.1625 24.5614 34.0317 23.4308C33.4186 22.818 33.0399 22.1354 32.8821 21.3937C32.8592 21.2858 32.8582 21.1752 32.8572 21.0654L32.8568 21.0281C32.8527 20.664 32.848 20.3 32.8432 19.9359C32.8306 18.9679 32.818 17.9994 32.8169 17.0312C32.8144 14.5163 32.8209 12.0016 32.833 9.48669V9.46437C32.8349 9.0732 32.8368 8.68029 32.9584 8.29373C33.2696 7.30582 33.9454 6.46442 34.9877 5.77117C35.9438 5.13533 37.0664 4.72274 38.3592 4.54716C38.5268 4.52435 38.6959 4.50574 38.8649 4.48721C38.9432 4.47856 39.0214 4.47 39.0995 4.46094H40.1388C40.2235 4.4709 40.3085 4.48013 40.3936 4.48935C40.5797 4.50953 40.7658 4.5297 40.9493 4.55803C43.376 4.93101 45.0509 5.93662 46.002 7.55148C46.2002 7.88797 46.2931 8.24184 46.3643 8.59876C46.4023 8.78949 46.421 8.98376 46.4219 9.17638C46.4346 12.3247 46.4455 15.4728 46.4505 18.6211C46.4511 19.0185 46.443 19.4159 46.435 19.8133C46.4281 20.1543 46.4212 20.4953 46.4197 20.8363C46.4143 22.1279 45.7067 23.2025 44.4311 24.1105C43.3372 24.8891 42.0138 25.3305 40.4853 25.4823C40.404 25.4903 40.3228 25.4987 40.2416 25.5071L40.0916 25.5225L39.194 25.5226ZM37.7784 14.9716H37.7603L37.7602 15.9843C37.7601 17.5899 37.76 19.1956 37.7629 20.8013C37.7629 20.9053 37.7862 21.0118 37.8229 21.1127C38.0683 21.787 38.9599 22.1934 39.9424 22.0883C40.7178 22.0052 41.5763 21.448 41.484 20.7231C41.4748 20.6514 41.473 20.5791 41.4732 20.5068C41.4743 20.209 41.4757 19.9112 41.4771 19.6133C41.4787 19.2783 41.4804 18.9431 41.4813 18.6081L41.4874 16.5471V16.5461V16.5451C41.4946 14.0742 41.5017 11.6026 41.5115 9.13167C41.5123 8.95041 41.4672 8.78554 41.3535 8.62075C40.9926 8.09764 40.3048 7.81377 39.4794 7.85231C38.6676 7.8902 37.7898 8.37114 37.7837 9.14188C37.7722 10.5265 37.7744 11.911 37.7767 13.2956C37.7776 13.8543 37.7784 14.413 37.7784 14.9716ZM97.526 25.5227L97.3673 25.5036C97.2517 25.4896 97.1361 25.4757 97.0202 25.4623C94.7946 25.2066 93.1232 24.3823 92.0225 22.999C91.5197 22.367 91.245 21.6818 91.2417 20.9473C91.2383 20.1893 91.2313 19.4313 91.2245 18.6733C91.2157 17.7209 91.207 16.7686 91.2053 15.8162C91.2011 13.2471 91.2019 10.6779 91.2028 8.10876C91.2031 7.06823 91.2035 6.02762 91.2035 4.98701V4.76606H96.078C96.0805 4.7775 96.0834 4.78895 96.0863 4.8004C96.0926 4.82535 96.0989 4.8503 96.1008 4.87542C96.1036 4.91462 96.103 4.9539 96.1024 4.99318C96.1022 5.00949 96.1019 5.0258 96.1019 5.04202L96.1036 8.7834C96.1051 12.2622 96.1066 15.7411 96.11 19.2199C96.1102 19.4661 96.1169 19.7122 96.1235 19.9584C96.1305 20.2173 96.1376 20.4763 96.1372 20.7353C96.1354 21.5413 97.2272 22.2403 98.5549 21.9786C99.2144 21.8485 99.8885 21.4317 99.8874 20.7078C99.8863 19.8741 99.8889 19.0404 99.8916 18.2067C99.8936 17.5688 99.8957 16.931 99.8959 16.2932C99.8975 13.3901 99.8975 10.4871 99.8976 7.58409V4.99755V4.78771C100.084 4.75024 104.414 4.73674 104.83 4.76993L104.834 4.79801L104.849 4.89395C104.849 4.89757 104.849 4.90128 104.849 4.90498L104.849 4.91067L104.846 7.36306L104.846 7.42993V7.43116V7.43231C104.842 11.4954 104.837 15.5585 104.832 19.6215C104.831 19.8208 104.825 20.02 104.82 20.2193C104.813 20.4421 104.807 20.6648 104.808 20.8875C104.812 21.6804 104.509 22.416 103.935 23.0879C102.905 24.2941 101.436 25.0959 99.4639 25.4025C99.283 25.4306 99.0989 25.4482 98.9147 25.4658C98.8182 25.4749 98.7217 25.4842 98.6257 25.4949C98.5893 25.4989 98.5535 25.5062 98.5178 25.5134C98.5019 25.5166 98.4859 25.5198 98.47 25.5227H97.526ZM144.243 25.2298C144.26 25.2284 144.276 25.227 144.293 25.2257C144.307 25.2246 144.319 25.2236 144.333 25.2227V21.7571C144.3 21.7565 144.267 21.7556 144.233 21.7548C144.156 21.7529 144.08 21.7511 144.003 21.7511C141.88 21.7508 139.757 21.7508 137.633 21.7508H137.603H137.329C137.273 21.6097 137.248 16.9371 137.298 16.4592C137.464 16.4527 137.632 16.4536 137.8 16.4544C137.881 16.4548 137.96 16.4551 138.04 16.4548C138.207 16.4542 138.375 16.4543 138.543 16.4545L138.772 16.4547H141.76C141.81 16.3183 141.824 13.1838 141.776 12.9624H137.297V8.24547H137.606H138.408C140.282 8.24547 142.156 8.24547 144.03 8.24456C144.099 8.24456 144.168 8.23921 144.237 8.23377C144.269 8.2313 144.301 8.22875 144.333 8.22677V4.76087L144.269 4.75922C144.22 4.75798 144.17 4.75667 144.121 4.75667C140.265 4.7565 136.409 4.7565 132.552 4.757C132.507 4.75708 132.46 4.76054 132.415 4.76383C132.395 4.76531 132.374 4.76688 132.354 4.76803C132.307 5.05701 132.326 25.1053 132.376 25.2414H132.627C136.435 25.2414 140.244 25.2414 144.053 25.2405C144.116 25.2405 144.181 25.2351 144.243 25.2298ZM116.02 15.4179V25.2051C115.822 25.249 111.384 25.2562 111.136 25.2176V4.75938C112.768 4.75667 114.393 4.76334 116.037 4.77017L118.053 9.28493L120.904 15.6704C120.921 15.6691 120.937 15.6678 120.953 15.6666C120.995 13.3828 120.994 11.0987 120.993 8.81238C120.993 7.46468 120.992 6.11623 121 4.76655H125.932V25.2116C125.78 25.2441 121.095 25.2439 120.454 25.2106L118.628 21.1009L116.098 15.405L116.02 15.4179ZM52.9915 4.76046C52.9665 4.76153 52.9397 4.7626 52.91 4.76358V25.2161C53.1503 25.2558 57.6655 25.2496 57.8508 25.2083V15.0321V11.6498V10.293C57.8507 9.61458 57.8506 8.93616 57.851 8.25757C57.8779 8.25543 57.9001 8.25337 57.9194 8.25156C57.9529 8.24843 57.9776 8.24613 58.0022 8.24621L58.2177 8.24744C58.8147 8.25082 59.412 8.2542 60.0091 8.26087C60.118 8.26202 60.2286 8.27651 60.3351 8.29455C60.9701 8.40243 61.4795 8.726 61.5428 9.20158C61.5506 9.26104 61.5609 9.3205 61.5711 9.37996C61.5929 9.50827 61.6148 9.63649 61.6143 9.76471C61.6099 10.8808 61.6019 11.9971 61.5793 13.1131C61.5697 13.594 61.3264 14.0264 60.9155 14.4069C60.4169 14.8689 59.771 15.1941 59.0001 15.3977C58.898 15.4247 58.7986 15.4569 58.691 15.4917C58.6385 15.5087 58.5839 15.5265 58.5262 15.5444L62.1376 25.2193H67.2359L63.9064 17.1268C63.9903 17.0704 64.0737 17.0166 64.1553 16.964C64.3285 16.8524 64.4943 16.7455 64.6428 16.6278C65.8006 15.71 66.4285 14.6299 66.4792 13.4055C66.5224 12.3664 66.525 11.3265 66.5275 10.2867C66.5281 10.0436 66.5287 9.80021 66.5299 9.5571C66.5326 8.95906 66.4082 8.37591 66.0829 7.81583C65.6383 7.05069 64.9938 6.38997 64.0845 5.8667C62.8201 5.13911 61.3714 4.76507 59.7337 4.76441C58.2643 4.76391 56.795 4.76185 55.3258 4.7598C54.5911 4.75881 53.8561 4.75774 53.1215 4.75691C53.0804 4.75683 53.0395 4.75848 52.9915 4.76046ZM71.9098 8.24003V4.77997C72.0716 4.74975 85.0101 4.73476 85.4845 4.76647C85.5338 4.88036 85.5547 7.92404 85.5045 8.24308H81.1816V25.2294H76.2298V8.24003H71.9098ZM27.9865 4.76433H16V25.2297H20.9649V16.4506H25.5388C25.5397 15.2898 25.5354 14.1442 25.4978 12.9817L20.9706 12.9555V8.24473H27.9865V4.76433Z" fill="white"/>
</svg>
