<svg width="154" height="28" viewBox="0 0 154 28" fill="none" xmlns="http://www.w3.org/2000/svg">
<g clip-path="url(#clip0_2001_1828)">
<path fill-rule="evenodd" clip-rule="evenodd" d="M-0.368675 12.7514C-0.372595 12.8354 -0.376655 12.9212 -0.464015 12.9769L-0.466675 12.9717V14.763C-0.372455 14.8 -0.373295 14.8756 -0.374135 14.948C-0.374415 14.9676 -0.374554 14.9869 -0.372874 15.0052C-0.313094 15.6769 -0.211455 16.341 -0.0605347 16.9971C0.304025 18.5828 0.942005 20.0512 1.82989 21.413C3.20721 23.5273 5.04288 25.1365 7.29254 26.2717C8.65166 26.9565 10.0942 27.3888 11.6071 27.5918C11.78 27.615 11.953 27.6432 12.1252 27.671C12.2043 27.6839 12.2834 27.6966 12.3621 27.709H14.7732C14.8159 27.6987 14.8587 27.6868 14.9015 27.6748C14.9892 27.6503 15.0771 27.6258 15.1664 27.6153C15.8225 27.5424 16.4656 27.4173 17.1036 27.2481C19.512 26.6051 21.5951 25.3942 23.363 23.6497C24.1988 22.8269 24.9097 21.8999 25.519 20.8949C26.6229 19.0724 27.201 17.083 27.3832 14.974C27.5238 13.344 27.3781 11.7348 26.9224 10.1649C25.8028 6.30604 23.4516 3.42106 19.8923 1.54898C17.6112 0.348619 15.1638 -0.138302 12.5834 0.033478C11.3049 0.116778 10.0603 0.364158 8.8548 0.796478C5.8917 1.86132 3.54307 3.7075 1.81421 6.33208C0.827345 7.83442 0.165985 9.46962 -0.164695 11.2324C-0.221675 11.5395 -0.259335 11.8499 -0.296995 12.1608C-0.317715 12.3322 -0.338435 12.5037 -0.362515 12.6748C-0.366295 12.6996 -0.367415 12.7253 -0.368675 12.7514ZM15.7053 21.6213L15.6715 21.5719L15.6741 21.5641C15.8066 21.4381 15.9391 21.3126 16.0717 21.1873C16.2045 21.0618 16.3381 20.9352 16.4708 20.8091C16.4604 20.7986 16.4526 20.7907 16.4448 20.7804C16.3878 20.8224 16.3312 20.8646 16.2748 20.9068C16.1562 20.9954 16.0379 21.0836 15.9163 21.1683C15.7893 21.2561 15.6633 21.3458 15.5374 21.4357C15.1964 21.679 14.8552 21.9223 14.492 22.1239C14.0527 22.3681 13.5893 22.5703 13.1258 22.7724C13.0016 22.8266 12.8764 22.8812 12.7527 22.9362C12.521 23.0379 12.2658 23.0509 12.0236 22.9728C11.5432 22.8164 11.0667 22.6482 10.5908 22.4801L10.378 22.4051C10.3156 22.3817 10.2556 22.3453 10.2036 22.3009C9.96402 22.0979 10.0057 21.7828 10.2974 21.6656C10.5229 21.5739 10.7603 21.5058 10.9937 21.4388L11.029 21.4287C11.0863 21.4105 11.1669 21.4209 11.2243 21.4444C11.6096 21.6058 11.9923 21.7724 12.3751 21.9417C12.5522 22.0198 12.6485 22.1682 12.7006 22.3478C12.7345 22.1134 12.6146 21.9677 12.422 21.8609C11.9142 21.5771 11.4091 21.2907 10.904 21.0042C10.7868 20.9393 10.6696 20.8715 10.5082 20.7777C10.5502 20.7602 10.5852 20.7445 10.6161 20.7305C10.6678 20.7073 10.7081 20.6892 10.7504 20.6762L11.2683 20.5249C12.014 20.3067 12.7593 20.0888 13.5077 19.8795C13.5984 19.8533 13.6985 19.8599 13.808 19.867C13.8619 19.8706 13.918 19.8743 13.9764 19.8743C13.9217 19.8373 13.8672 19.8009 13.8133 19.7648C13.6233 19.6378 13.4383 19.5139 13.2578 19.3822C13.1954 19.3379 13.1433 19.265 13.1119 19.1921L13.0941 19.1505C13.0474 19.0407 13.0037 18.938 12.8881 18.864C12.8335 18.8292 12.8071 18.7303 12.7868 18.6535L12.7839 18.6427C12.7749 18.6081 12.7667 18.5733 12.7581 18.5384C12.7248 18.3999 12.6911 18.2597 12.6225 18.1246C12.6286 18.1943 12.634 18.264 12.6393 18.3336C12.6475 18.4405 12.6557 18.5474 12.6667 18.6531L12.6676 18.6615C12.6954 18.9238 12.6956 18.9252 12.4662 19.054C12.3647 19.1113 12.2631 19.166 12.1199 19.2415V18.1323C12.1017 18.1297 12.0861 18.1297 12.0678 18.1297C12.0566 18.229 12.0451 18.3284 12.0336 18.4277L12.0335 18.4291C12.0103 18.6287 11.9872 18.8283 11.9663 19.028C11.9377 19.3066 11.9324 19.3196 11.6538 19.3692C11.5289 19.3925 11.4013 19.4082 11.2737 19.4238C11.2593 19.427 11.2447 19.4212 11.2247 19.4134C11.2124 19.4085 11.1978 19.4028 11.1799 19.3977C11.2152 19.1907 11.2509 18.983 11.2867 18.7753C11.3226 18.5677 11.3584 18.36 11.3936 18.1531C11.3857 18.1519 11.3786 18.1499 11.3714 18.1479C11.3643 18.146 11.357 18.144 11.3492 18.1428C11.2971 18.3015 11.245 18.4604 11.1956 18.6218C11.1792 18.6752 11.1626 18.7284 11.146 18.7814C11.0913 18.9566 11.0364 19.1314 10.9925 19.3092C10.9612 19.4394 10.891 19.494 10.7634 19.4994C10.6387 19.503 10.5153 19.5092 10.3769 19.5163L10.1932 19.5254C10.3702 19.0124 10.5316 18.5411 10.6931 18.0698L10.6462 18.0464L10.5992 18.1374C10.5594 18.214 10.5194 18.291 10.4822 18.3693C10.4367 18.4634 10.3907 18.5573 10.3447 18.6515C10.2302 18.8859 10.1152 19.1209 10.0057 19.3587C9.94065 19.4994 9.84684 19.5696 9.6906 19.5696C9.59442 19.5696 9.49937 19.5747 9.39241 19.5804C9.32857 19.5839 9.26038 19.5876 9.18548 19.5905C9.24876 19.4663 9.30897 19.3491 9.36721 19.2359C9.44085 19.0925 9.51154 18.9552 9.58126 18.8171C9.7011 18.5776 9.81828 18.3354 9.89892 18.0698C9.80512 18.1975 9.71146 18.325 9.62298 18.4552L9.47655 18.6724C9.30099 18.9326 9.12542 19.1928 8.9563 19.4576C8.86782 19.5957 8.76115 19.6608 8.60225 19.6738C8.50579 19.6818 8.40933 19.6948 8.29887 19.7096C8.23041 19.7189 8.1562 19.729 8.07374 19.7389C8.24048 19.4924 8.4012 19.2544 8.55828 19.0214C8.7813 18.691 8.99732 18.3708 9.21418 18.0516C9.20634 18.045 9.1985 18.0393 9.19066 18.0334C9.18282 18.0275 9.17512 18.0217 9.16728 18.0152L7.17536 20.3273L7.14681 20.3195L7.1181 20.3116C7.11684 20.2997 7.11461 20.2871 7.11237 20.2744C7.10593 20.237 7.09934 20.1982 7.11292 20.1711C7.17214 20.0598 7.2399 19.957 7.3085 19.8531L7.32895 19.8222C7.54259 19.4928 7.75665 19.1641 7.97085 18.8353C8.18505 18.5066 8.39911 18.1779 8.61261 17.8485C8.62255 17.8328 8.6336 17.8174 8.64452 17.8019C8.66832 17.7685 8.69213 17.7348 8.70641 17.6976C8.82359 17.3721 9.07348 17.221 9.39114 17.109C10.1291 16.8517 10.8581 16.5749 11.5884 16.2976L12.0574 16.1196C12.2085 16.0624 12.3569 15.9921 12.4949 15.9086C12.7345 15.7656 12.8984 15.5572 12.948 15.2656C12.9341 15.2847 12.9198 15.3037 12.9057 15.3229C12.8774 15.3611 12.849 15.3992 12.823 15.4374C12.6901 15.6354 12.508 15.7759 12.2918 15.8671C12.1749 15.9155 12.057 15.9585 11.9387 16.0017C11.8725 16.026 11.8061 16.0502 11.7398 16.0754C11.6513 16.1093 11.581 16.1144 11.5211 16.0181C11.4143 15.8462 11.3961 15.7707 11.482 15.6744C11.5074 15.645 11.5372 15.6202 11.567 15.5953L11.5848 15.5803L11.5966 15.5703C11.6278 15.5442 11.6591 15.5155 11.6668 15.4504C11.4076 15.6092 11.1483 15.766 10.8757 15.9308L10.7399 16.0128C10.6658 15.8647 10.6005 15.7318 10.5299 15.5882L10.5109 15.5494C10.7349 15.3793 10.9559 15.213 11.1752 15.0478C11.3686 14.9022 11.5613 14.7571 11.7528 14.6121C11.7489 14.6055 11.7444 14.5996 11.7398 14.5938C11.7353 14.5879 11.7307 14.5821 11.7268 14.5756C11.0889 14.9583 10.4483 15.3411 9.77657 15.742C9.70881 15.5703 9.64903 15.4244 9.57609 15.2474C10.2009 14.8308 10.818 14.4193 11.4378 14.008C11.43 13.9975 11.4221 13.9846 11.4144 13.9716L10.6562 14.3878C10.1162 14.6841 9.57287 14.9824 9.01623 15.289C9.00643 15.2607 8.99691 15.2345 8.98781 15.2099C8.96387 15.1437 8.94356 15.0881 8.93026 15.0313C8.8835 14.836 8.8912 14.8126 9.07096 14.6979C9.4561 14.4536 9.84264 14.2107 10.2286 13.9682L10.6748 13.6877C10.7244 13.6565 10.7713 13.6201 10.7972 13.5471L10.7948 13.5484C10.0067 13.9514 9.21853 14.3546 8.42781 14.7578C8.32841 14.6268 8.33092 14.482 8.3333 14.344C8.33372 14.323 8.334 14.302 8.334 14.2814C8.334 14.2215 8.43047 14.1486 8.49809 14.1122C8.99075 13.8459 9.48718 13.5834 9.9825 13.3214L10.24 13.1852C10.2765 13.1644 10.3104 13.1408 10.3286 13.0836C9.91544 13.2563 9.50175 13.4285 9.08805 13.6006L9.08524 13.6017C8.67056 13.7742 8.25603 13.9468 7.84191 14.1199C7.76127 13.9038 7.7586 13.8569 7.80284 13.581L8.42459 13.3415C8.87819 13.1666 9.33515 12.9903 9.79225 12.8155L9.78441 12.7894L9.77657 12.7634C8.96933 12.9847 8.15956 13.2059 7.33944 13.4299C7.27182 13.2562 7.30263 13.1004 7.33245 12.95L7.33944 12.9143C7.3498 12.8676 7.44878 12.818 7.51654 12.8025C7.85828 12.721 8.20156 12.644 8.54526 12.567L8.86531 12.4952L8.87231 12.4933C8.94301 12.4757 9.01594 12.4575 9.08398 12.4222C8.67812 12.4428 8.2766 12.5016 7.87592 12.5604C7.51584 12.6132 7.15646 12.6658 6.79526 12.6905C6.78868 12.6671 6.7842 12.6534 6.78126 12.6445C6.77832 12.6357 6.77707 12.6318 6.77707 12.628C6.79037 12.5474 6.79905 12.482 6.80619 12.4288C6.82229 12.3087 6.82998 12.2507 6.86316 12.2196C6.8941 12.1907 6.94717 12.1855 7.05007 12.1753C7.10327 12.1699 7.16991 12.1634 7.25349 12.1515C7.53503 12.1107 7.81881 12.0857 8.11085 12.0599C8.24833 12.0477 8.38776 12.0354 8.5293 12.0213C8.1912 11.9493 7.86598 11.9613 7.54426 11.9734C7.48196 11.9756 7.41981 11.9779 7.35765 11.9797C7.08773 11.9847 6.81795 11.9832 6.53753 11.9814C6.39347 11.9805 6.24591 11.9797 6.09485 11.9797C6.10269 11.8964 6.11151 11.8162 6.12061 11.7323C6.12663 11.6771 6.13292 11.6204 6.13908 11.5604H7.86024C7.86276 11.5448 7.86277 11.5265 7.86277 11.511C7.82245 11.5058 7.78213 11.5002 7.74167 11.4947C7.62057 11.4781 7.49961 11.4615 7.37851 11.4537C6.95753 11.4251 6.53584 11.3971 6.11416 11.3691L6.11179 11.369L6.10941 11.3689C5.68773 11.341 5.26604 11.313 4.84506 11.2844C4.77968 11.2794 4.71641 11.2647 4.65327 11.2499C4.61827 11.2417 4.58341 11.2336 4.54813 11.2272C4.54295 11.2088 4.54043 11.1906 4.53777 11.1724C4.69653 11.1177 4.85557 11.0631 5.07159 10.9902C4.74287 10.8615 4.43346 10.7417 4.12224 10.621C3.9233 10.544 3.72311 10.4663 3.51703 10.3861C3.63883 10.3124 3.75167 10.3098 3.86227 10.307C3.93157 10.3053 3.99988 10.3036 4.06904 10.2846C3.99806 10.1772 3.8953 10.1208 3.7945 10.0653C3.7511 10.0414 3.70812 10.0177 3.66808 9.99028C3.57974 9.9298 3.48819 9.87534 3.39621 9.82074C3.34189 9.78854 3.28743 9.75592 3.23325 9.72218C3.15373 9.6729 3.07575 9.62292 2.98951 9.56776C2.92063 9.52352 2.84643 9.47592 2.76201 9.42272C2.95031 9.3803 3.12026 9.39556 3.28966 9.41082C3.43162 9.42356 3.57344 9.4363 3.72534 9.41488L3.33894 9.04808C3.1148 8.83528 2.89794 8.62962 2.68122 8.42284C2.68444 8.4136 2.68837 8.4052 2.69229 8.39708C2.69495 8.39176 2.69746 8.38644 2.69956 8.38126C2.75836 8.38644 2.81661 8.39218 2.87933 8.3982C2.97229 8.4073 3.07462 8.41724 3.20202 8.42802C2.75682 7.98282 2.49377 7.50374 2.43399 6.9205C2.47459 6.96978 2.51365 7.02074 2.55257 7.07156C2.64329 7.18986 2.73345 7.30746 2.84279 7.40224C2.96739 7.51102 3.11453 7.59726 3.26041 7.68266C3.30647 7.70968 3.35225 7.73656 3.39733 7.76414C3.50667 7.83162 3.61782 7.89616 3.72926 7.9607C3.79842 8.00074 3.86759 8.04092 3.93633 8.0818L3.97021 8.04008L3.85401 7.87054C3.75041 7.71892 3.64681 7.56772 3.54055 7.41778C3.38697 7.20176 3.24892 6.98294 3.2072 6.70952C3.19026 6.60088 3.16787 6.49308 3.14533 6.38514C3.11621 6.24472 3.08694 6.10388 3.0693 5.95968C3.21252 6.08442 3.31472 6.23898 3.4165 6.39284C3.52934 6.5635 3.64162 6.73332 3.80878 6.86058C3.89642 6.92736 3.98294 6.99526 4.06974 7.06344C4.2845 7.23214 4.50095 7.40196 4.73825 7.55582C4.72537 7.52992 4.71305 7.50374 4.70073 7.47756C4.66825 7.40868 4.63577 7.33938 4.59251 7.27722C4.17069 6.68362 3.97791 6.01176 3.92065 5.2958C3.91617 5.2377 3.90833 5.17974 3.90049 5.12164C3.89461 5.0781 3.88872 5.03456 3.88424 4.99116C3.88256 4.98416 3.88886 4.97492 3.9009 4.95742C3.90692 4.94846 3.91449 4.9374 3.92331 4.9234C3.94207 4.95462 3.96125 4.9843 3.97973 5.01342C4.02789 5.0886 4.07283 5.15888 4.10293 5.23588C4.35549 5.88422 4.77996 6.38934 5.34752 6.78512C5.41402 6.83188 5.47829 6.8813 5.54297 6.931C5.66561 7.0255 5.78922 7.1207 5.93076 7.1991C5.92124 7.18104 5.91257 7.16312 5.90375 7.1452C5.88849 7.11398 5.8735 7.08304 5.8553 7.05322L5.77971 6.93086C5.60737 6.65156 5.43558 6.37296 5.25386 6.10024C5.11064 5.88422 5.0013 5.66554 4.98296 5.3973C4.9621 5.11856 4.92725 4.84108 4.89239 4.56388C4.87517 4.42668 4.85795 4.28976 4.84241 4.1527C4.83919 4.1268 4.84003 4.10104 4.84101 4.0659C4.84171 4.04434 4.84241 4.01928 4.84241 3.98862C4.92879 4.06338 4.95441 4.138 4.97947 4.21094L4.98829 4.236C5.01937 4.32168 5.05002 4.40764 5.08082 4.4936C5.17658 4.76072 5.27249 5.02854 5.37875 5.29048C5.43349 5.42068 5.5116 5.55354 5.6131 5.6472C5.80028 5.8201 5.99195 5.98796 6.18361 6.15568C6.44807 6.38724 6.71239 6.61866 6.96453 6.86324C7.34463 7.23298 7.79248 7.49072 8.25602 7.7276C8.67966 7.94404 9.10722 8.15068 9.5352 8.35774L9.75053 8.4619C9.88591 8.527 9.99007 8.61548 10.0785 8.73798C10.3364 9.09554 10.5956 9.45198 10.8548 9.80842C11.3733 10.5212 11.8917 11.234 12.3985 11.9562C12.651 12.3189 12.9749 12.6009 13.3009 12.8846L13.362 12.9378C13.4353 13.0039 13.5139 13.0661 13.5923 13.128C13.625 13.154 13.6578 13.1799 13.69 13.2059C13.6966 13.2008 13.703 13.1949 13.7096 13.189C13.716 13.1833 13.7226 13.1774 13.729 13.1722C13.6649 13.0844 13.6001 12.9966 13.5318 12.9041L13.5308 12.9028L13.5298 12.9014C13.471 12.8218 13.4096 12.7386 13.3438 12.6487C13.5344 12.5983 13.7145 12.5516 13.8893 12.5061C14.0487 12.4646 14.2041 12.4242 14.3592 12.3832V12.3259C14.1327 12.3104 13.9088 12.2973 13.6821 12.2843V12.2244C13.8893 12.1579 14.1038 12.1218 14.3197 12.0854C14.4674 12.0605 14.6157 12.0354 14.7628 12.0004C14.5424 11.9448 14.3176 11.9256 14.0922 11.9065C13.8328 11.8845 13.5727 11.8624 13.3177 11.7844C13.3373 11.7778 13.3566 11.7705 13.376 11.7632C13.4181 11.7473 13.4597 11.7316 13.5025 11.7245C13.6805 11.6942 13.8588 11.6658 14.037 11.6375C14.3646 11.5854 14.6925 11.5334 15.0179 11.4692C15.2809 11.4172 15.5257 11.4485 15.7757 11.5135C15.8472 11.5324 15.9188 11.5471 15.9993 11.5637C16.0299 11.57 16.0623 11.5768 16.0959 11.5839C15.9266 11.4172 15.4814 11.2272 15.2653 11.2272H14.242C14.2412 11.2207 14.2399 11.2146 14.2386 11.2086C14.2364 11.1975 14.2342 11.1869 14.2342 11.1751C14.2906 11.1629 14.3473 11.1521 14.404 11.1415C14.5174 11.1201 14.6308 11.0987 14.7419 11.0658C15.2549 10.9147 15.7522 10.9459 16.2364 11.1724C16.273 11.1881 16.312 11.1985 16.3693 11.1751L16.2346 11.088C16.0458 10.9657 15.8573 10.8434 15.6637 10.7298C15.5945 10.6889 15.5028 10.6831 15.4205 10.678L15.4163 10.6777C15.3365 10.6721 15.2563 10.6677 15.1761 10.6634C15.0364 10.6558 14.8965 10.6484 14.7576 10.6334C15.4137 10.3575 16.0256 10.4695 16.6062 10.8756C16.6101 10.8678 16.6147 10.86 16.6192 10.8523C16.6238 10.8444 16.6284 10.8366 16.6322 10.8287C16.6233 10.817 16.6149 10.8049 16.6066 10.793C16.5909 10.7706 16.5755 10.7485 16.5568 10.7298C16.482 10.6593 16.406 10.5899 16.3298 10.5203C16.223 10.4227 16.1159 10.325 16.0126 10.2246C15.9266 10.1413 15.8303 10.1101 15.7131 10.1101C15.6024 10.1118 15.4926 10.1066 15.3826 10.1014C15.3271 10.0989 15.2717 10.0963 15.2158 10.0944C15.2132 10.0789 15.2107 10.0607 15.2107 10.045C15.2307 10.0383 15.25 10.0309 15.2693 10.0236C15.3024 10.011 15.3348 9.99854 15.3694 9.99028C15.4156 9.98034 15.4629 9.97334 15.5104 9.9662C15.5994 9.95276 15.6889 9.93932 15.7704 9.90698C15.9996 9.8185 16.1715 9.87058 16.3459 10.0372C16.5411 10.2246 16.7624 10.3861 17.0046 10.5398C16.9959 10.5249 16.9875 10.51 16.9791 10.4948C16.9623 10.4647 16.9455 10.4348 16.9265 10.4069C16.8746 10.3312 16.8211 10.256 16.7675 10.1807C16.6627 10.0335 16.5577 9.88584 16.4631 9.73254C16.3745 9.58932 16.26 9.51652 16.0959 9.493C16.026 9.48348 15.956 9.46808 15.8731 9.44988C15.8201 9.43826 15.7618 9.42552 15.6949 9.41236C15.9371 9.31338 16.152 9.31478 16.3575 9.31632C16.4063 9.3166 16.4543 9.31702 16.5022 9.3159C16.5594 9.3159 16.627 9.39668 16.6739 9.45394C16.8193 9.62656 16.9608 9.8017 17.1029 9.97754C17.1645 10.0537 17.2262 10.1301 17.2884 10.2064C17.3196 10.2455 17.3535 10.2819 17.4264 10.3002C17.3849 10.2039 17.343 10.1075 17.2989 10.0138C17.2537 9.91902 17.2076 9.8241 17.1616 9.72918C17.0771 9.55558 16.9926 9.3817 16.9135 9.20656C16.8536 9.07118 16.7677 8.98788 16.6192 8.95148C16.4994 8.92054 16.3832 8.87826 16.2672 8.83598C16.2171 8.81778 16.167 8.79944 16.1167 8.78222C16.1167 8.77466 16.118 8.76654 16.1191 8.75814C16.1205 8.74904 16.1219 8.73952 16.1219 8.73014C16.1358 8.7293 16.1498 8.72776 16.1636 8.72636C16.1914 8.72342 16.2191 8.72062 16.2469 8.7223C16.3207 8.72832 16.3945 8.73504 16.4683 8.74162C16.6157 8.75492 16.7634 8.76836 16.9108 8.77704C17.0255 8.78222 17.0906 8.83164 17.1478 8.93314C17.2853 9.18178 17.4295 9.42622 17.5737 9.67066C17.6287 9.76404 17.6842 9.85784 17.7389 9.95122C17.7753 10.0163 17.817 10.0814 17.8898 10.131C17.8749 10.083 17.8602 10.0347 17.8453 9.98622C17.8193 9.90082 17.7931 9.81472 17.765 9.73002C17.7265 9.61354 17.6866 9.49748 17.6467 9.38128C17.5761 9.17548 17.5053 8.96926 17.4421 8.76136C17.3926 8.59728 17.3014 8.50614 17.1375 8.45406C16.9213 8.38644 16.7078 8.2953 16.4995 8.18078C16.516 8.18078 16.5328 8.1798 16.5495 8.17896C16.5831 8.17728 16.6167 8.17546 16.6479 8.18078C16.7397 8.19688 16.8316 8.21424 16.9234 8.23174C17.0841 8.2624 17.2449 8.29292 17.4056 8.31616C17.5592 8.33954 17.6426 8.41248 17.6999 8.5557C17.8898 9.0296 18.093 9.49818 18.317 9.9669C18.3152 9.94968 18.3143 9.93232 18.3135 9.91524C18.3117 9.88052 18.31 9.84636 18.3013 9.81332C18.2645 9.66338 18.2272 9.51344 18.1901 9.36336C18.1067 9.02638 18.023 8.68856 17.9419 8.3499C17.9055 8.19632 17.817 8.1 17.679 8.02706C17.5107 7.93508 17.3447 7.83848 17.1786 7.74188C17.0956 7.69358 17.0125 7.64528 16.9292 7.59754C16.9313 7.59306 16.9334 7.58844 16.9352 7.58382C16.9367 7.58018 16.9381 7.5764 16.9395 7.57276C16.9427 7.56422 16.9461 7.55582 16.9499 7.54798C16.978 7.55736 17.0059 7.56604 17.0333 7.57472C17.0825 7.58998 17.1308 7.60524 17.1791 7.62358C17.2589 7.65396 17.3382 7.6863 17.4175 7.71864C17.576 7.78346 17.7346 7.84828 17.8977 7.89686C18.0774 7.9516 18.1607 8.05828 18.2128 8.22502C18.3301 8.5991 18.4568 8.96954 18.5834 9.33942L18.6502 9.53472C18.6762 9.61536 18.7074 9.69096 18.7752 9.76124C18.7361 9.54004 18.6971 9.31842 18.6554 9.09722C18.6306 8.96632 18.6047 8.83584 18.5788 8.70536C18.5366 8.4934 18.4946 8.28158 18.4575 8.06878C18.4263 7.88132 18.3455 7.74062 18.1815 7.63394C17.9185 7.46202 17.6712 7.26686 17.4316 7.04552C17.4446 7.04888 17.4582 7.05154 17.4718 7.0542C17.4991 7.05938 17.5263 7.06456 17.5488 7.07674C17.6633 7.13946 17.777 7.20288 17.8908 7.2663C18.0979 7.38166 18.3047 7.49702 18.5148 7.6079C18.6163 7.6625 18.6528 7.74594 18.6814 7.84744C18.8038 8.29012 18.9288 8.73266 19.0538 9.17534C19.0798 9.27166 19.1137 9.36798 19.1735 9.45912C19.1735 9.44176 19.1745 9.4244 19.1753 9.40704C19.177 9.37232 19.1788 9.3376 19.1735 9.30288C19.143 9.12144 19.1113 8.93986 19.0797 8.75814C19.0251 8.44468 18.9705 8.13094 18.9209 7.81622C18.8872 7.60272 18.8064 7.43864 18.6346 7.29808C18.3404 7.05588 18.0669 6.78764 17.8065 6.4935C17.8187 6.49952 17.8312 6.50498 17.8436 6.51058C17.8686 6.5215 17.8933 6.53256 17.9159 6.5481C18.0219 6.6202 18.1269 6.6937 18.2319 6.7672C18.4419 6.91406 18.652 7.06106 18.8689 7.19644C19.0616 7.31628 19.1553 7.46986 19.1944 7.68602C19.2553 8.00564 19.3232 8.32246 19.3908 8.63858C19.4157 8.75506 19.4406 8.87154 19.4651 8.98788C19.4781 9.04514 19.4965 9.09988 19.5432 9.15448C19.5432 9.13096 19.5439 9.10758 19.5445 9.08448C19.5456 9.0387 19.5467 8.99376 19.5432 8.94882L19.5143 8.64082C19.4755 8.22544 19.4367 7.81034 19.3845 7.39692C19.3715 7.29024 19.3012 7.17572 19.2282 7.08976C19.0548 6.88648 18.8735 6.68866 18.6916 6.49042C18.6197 6.41174 18.5474 6.33306 18.4757 6.25396C18.4497 6.22274 18.4315 6.18886 18.434 6.1316C18.447 6.14028 18.4605 6.14868 18.4738 6.15708C18.5004 6.17374 18.527 6.19054 18.5512 6.20972C18.6653 6.30408 18.7791 6.39928 18.8928 6.49448C19.0801 6.65128 19.2679 6.80822 19.4574 6.96222C19.5486 7.03768 19.598 7.12364 19.6162 7.24082C19.6767 7.6037 19.7419 7.96812 19.8069 8.33184L19.8636 8.64936C19.8818 8.7405 19.9026 8.82912 19.952 8.91494C19.939 8.71712 19.9254 8.51916 19.9117 8.32134C19.898 8.12338 19.8844 7.92556 19.8714 7.7276C19.8694 7.69582 19.865 7.6639 19.8606 7.63212C19.8531 7.57836 19.8456 7.52488 19.8505 7.47252C19.8844 7.12616 19.7542 6.84504 19.5407 6.58464C19.3194 6.3164 19.1137 6.03262 18.9263 5.72798C18.9407 5.74058 18.9559 5.75276 18.9712 5.76508C18.9971 5.7858 19.023 5.80666 19.046 5.82948C19.1638 5.94946 19.2803 6.06972 19.3969 6.18998C19.5712 6.37002 19.7455 6.54992 19.9235 6.72786C20.0198 6.82418 20.0719 6.92316 20.0874 7.06106C20.1259 7.38684 20.1734 7.71122 20.2217 8.04148C20.2421 8.18134 20.2627 8.32204 20.2827 8.46456V7.449C20.2827 7.41764 20.2782 7.38586 20.2738 7.35394C20.2675 7.309 20.261 7.26406 20.2672 7.21996C20.3088 6.89446 20.1942 6.6237 20.0093 6.3633C19.8167 6.09254 19.6449 5.80862 19.4912 5.50398L19.506 5.51476C19.5234 5.52708 19.5416 5.53996 19.5537 5.55606C19.625 5.64468 19.6964 5.73288 19.7678 5.82108C19.9651 6.06454 20.1619 6.30744 20.353 6.55594C20.4156 6.6419 20.4572 6.75124 20.478 6.8554C20.5071 7.00534 20.5281 7.1564 20.5491 7.30774C20.562 7.40084 20.5752 7.49394 20.59 7.58704C20.5979 7.63394 20.6187 7.67818 20.6576 7.7199C20.6529 7.61812 20.6491 7.51634 20.6453 7.41456C20.6366 7.18566 20.6281 6.95676 20.6082 6.72786C20.5979 6.595 20.5458 6.46228 20.4937 6.33726C20.3947 6.10122 20.2913 5.86756 20.1877 5.6339C20.1359 5.517 20.0841 5.39982 20.0328 5.28278C20.0146 5.2384 19.9989 5.19682 20.0198 5.13424C20.0692 5.21768 20.1213 5.3035 20.1734 5.38946C20.215 5.45876 20.256 5.52862 20.2969 5.59834C20.3942 5.76438 20.4915 5.93042 20.5979 6.08988C20.7541 6.32158 20.866 6.56112 20.879 6.84504C20.8816 6.91014 20.8973 6.97776 20.9311 7.04286C20.9831 6.76692 21.0092 6.48566 20.9519 6.20706C20.908 5.9874 20.857 5.76886 20.806 5.55074C20.7815 5.44588 20.7569 5.3406 20.7332 5.23588C20.7176 5.1733 20.7072 5.10834 20.7358 5.03022C20.8457 5.28782 20.9571 5.54402 21.069 5.80106L21.1706 6.03528C21.1758 6.0343 21.1811 6.03318 21.1863 6.03206C21.1966 6.02968 21.2071 6.02744 21.2175 6.02744C21.2771 5.80764 21.3361 5.587 21.395 5.36608C21.4415 5.19178 21.4881 5.0172 21.5352 4.84262C21.5451 4.84556 21.5557 4.84752 21.5668 4.84976C21.576 4.85144 21.5856 4.8534 21.5951 4.85564C21.5788 5.03988 21.5632 5.22454 21.5475 5.40906C21.5305 5.608 21.5137 5.80666 21.4961 6.00392L21.503 6.00784C21.5164 6.01568 21.5233 6.0196 21.53 6.0196C21.5378 6.02226 21.5508 6.02478 21.5534 6.0196C21.8346 5.62382 22.1159 5.2307 22.4179 4.84528C22.36 5.02364 22.2808 5.19192 22.2009 5.36174C22.1115 5.55158 22.0214 5.74296 21.9596 5.95184L23.3031 5.00152C23.3097 5.0067 23.3168 5.01188 23.3239 5.0172C23.3311 5.02238 23.3382 5.02756 23.3448 5.03274C23.333 5.05318 23.3218 5.0739 23.3105 5.0949C23.2842 5.14348 23.2577 5.1922 23.225 5.23588C22.971 5.57832 22.7161 5.92006 22.4613 6.2618C22.0789 6.77462 21.696 7.28772 21.3165 7.8032C21.2123 7.94376 21.1238 8.10518 21.0613 8.26926C20.7853 8.99306 20.5119 9.71952 20.2542 10.4512C20.163 10.7064 20.012 10.8626 19.7567 10.9538C19.5162 11.04 19.2795 11.1363 19.0429 11.2326C18.8441 11.3136 18.6454 11.3943 18.4445 11.4692C18.1998 11.5604 17.9785 11.6802 17.7987 11.8702C17.6868 11.99 17.5566 12.0448 17.3926 12.0603C16.9838 12.0994 16.5776 12.1515 16.1688 12.2348C16.2241 12.2356 16.2798 12.2385 16.3356 12.2415C16.4476 12.2472 16.5601 12.253 16.6713 12.2426C17.2572 12.1905 17.8092 12.3025 18.3352 12.5551C18.4342 12.6028 18.5368 12.6433 18.6398 12.684C18.6884 12.7032 18.7371 12.7225 18.7856 12.7425C19.0329 12.8467 19.1918 13.029 19.2334 13.2919C19.2543 13.4299 19.3167 13.5263 19.4079 13.6226C19.5095 13.7267 19.611 13.8336 19.6891 13.9533C19.9235 14.3178 19.7828 14.651 19.3558 14.7657C19.283 14.2527 19.1553 14.1199 18.8976 14.3178C18.9337 14.3856 18.9697 14.4542 19.0066 14.5246L19.098 14.6979C18.9314 14.8229 18.77 14.7657 18.6423 14.6797C18.5044 14.5861 18.3637 14.5652 18.2075 14.5704C18.1449 14.5722 18.0821 14.5722 18.0192 14.5721C17.8207 14.5718 17.6215 14.5716 17.4238 14.6328C17.5617 14.6673 17.7014 14.7035 17.8649 14.7461L17.9706 14.7735C17.6268 15.199 17.2778 15.6097 16.9311 16.0177C16.5034 16.521 16.0796 17.0198 15.6741 17.536C15.782 17.4429 15.8894 17.3491 16.0004 17.2521C16.1253 17.143 16.2548 17.0298 16.3953 16.9085C16.4266 17.1325 16.4474 17.3225 16.3953 17.4944C16.3435 17.6621 16.3673 17.8243 16.3911 17.9858C16.4068 18.0925 16.4224 18.199 16.4162 18.3068C16.4137 18.348 16.4676 18.3981 16.5087 18.4363L16.5177 18.4447L16.5911 18.5108C16.7453 18.6498 16.8978 18.7876 17.0619 18.9135C17.239 19.0488 17.4108 19.1869 17.4994 19.4082C17.5583 19.3196 17.5288 19.166 17.4108 18.9473C17.5428 18.9126 17.7197 19.0306 17.9419 19.3014C18.0116 19.1694 17.9514 19.0788 17.8883 18.9837C17.8593 18.9402 17.8298 18.8957 17.8117 18.8457C17.8337 18.8395 17.8553 18.832 17.8765 18.8246C17.9083 18.8135 17.9394 18.8026 17.9706 18.7963C18.1798 18.7537 18.3889 18.7116 18.5981 18.6693C19.0164 18.5847 19.4347 18.5003 19.8532 18.4135C19.9704 18.3901 20.0719 18.4032 20.1734 18.4629C20.3319 18.5574 20.4909 18.6517 20.6501 18.7457C20.9252 18.9084 21.2006 19.0714 21.4727 19.2363C21.5664 19.291 21.6575 19.364 21.7305 19.4446C21.957 19.7024 21.9153 20.0357 21.6211 20.2101C21.4857 20.2909 21.319 20.343 21.1629 20.3534L21.0993 20.3571C20.2406 20.4078 19.3843 20.4585 18.5357 20.6033C18.4809 20.6138 18.421 20.6111 18.3377 20.572L18.8325 20.093C18.0125 20.6654 17.1007 21.0427 16.1908 21.4192C16.0288 21.4862 15.8667 21.5533 15.7053 21.6213ZM104.867 19.411C104.959 19.5212 105.049 19.6286 105.257 19.5461L105.252 19.5435V19.2909V12.7945C105.252 12.5936 105.251 12.3927 105.251 12.1916L105.25 12.1807C105.249 11.6354 105.247 11.0901 105.257 10.5448C105.265 10.1542 105.298 9.76376 105.447 9.39136C105.642 8.90444 105.983 8.57894 106.494 8.46176C106.767 8.39932 107.053 8.37062 107.332 8.38112C108.212 8.41752 108.788 8.91746 108.946 9.77678C109.001 10.0606 109.017 10.3522 109.017 10.6411C109.018 12.1461 109.018 13.6511 109.017 15.1563V15.177C109.017 15.9329 109.017 16.6889 109.017 17.4449C109.017 17.5906 109.014 17.7365 109.001 17.8797C108.967 18.2286 108.808 18.5124 108.522 18.718C108.311 18.8691 108.079 18.9732 107.822 19.0175C107.7 19.0383 107.579 19.0606 107.455 19.0833L107.454 19.0836L107.316 19.1086V19.3508H107.631C108.113 19.3494 108.593 19.3473 109.074 19.3454C110.355 19.34 111.635 19.3347 112.917 19.3403C113.677 19.343 114.419 19.2675 115.149 19.0617C116.406 18.7077 117.461 18.0411 118.231 16.9788C119.132 15.7367 119.44 14.3385 119.213 12.8335C118.932 10.9563 117.909 9.60752 116.203 8.77942C115.232 8.30818 114.193 8.11554 113.12 8.11554C109.793 8.11288 106.468 8.11288 103.14 8.11288H102.89C102.885 8.1532 102.88 8.191 102.876 8.2288C102.871 8.2666 102.866 8.30426 102.861 8.34458C102.898 8.35088 102.927 8.35648 102.954 8.36152C102.982 8.36698 103.007 8.37188 103.033 8.37594C103.111 8.39064 103.19 8.40394 103.268 8.41724C103.425 8.44384 103.582 8.47044 103.736 8.50866C104.252 8.63368 104.582 8.95652 104.757 9.45646C104.897 9.86526 104.937 10.2871 104.942 10.7141C104.948 11.2697 104.95 11.8247 104.953 12.3792V12.3808C104.955 12.7974 104.957 13.2139 104.96 13.6303C104.964 13.9933 104.97 14.3556 104.976 14.7175V14.7206L104.976 14.7234V14.7263C104.981 15.0859 104.987 15.4452 104.991 15.8045C104.992 15.8209 104.993 15.8375 104.994 15.8543L104.996 15.8693C105.004 15.9526 105.012 16.0408 104.942 16.1273L104.897 16.0787C104.854 16.0323 104.815 15.9905 104.778 15.9477L103.775 14.7679C102.516 13.2878 101.258 11.8089 100.005 10.3235L99.8698 10.1635C99.3536 9.55292 98.835 8.93972 98.4376 8.24056C98.3698 8.12072 98.2762 8.11288 98.1615 8.11288H94.5449C94.5078 8.11288 94.4705 8.11834 94.4348 8.12366C94.4155 8.12646 94.3965 8.12926 94.3783 8.13108L94.3776 8.1357C94.3444 8.33954 94.3431 8.34752 94.5188 8.38364C95.1151 8.50348 95.6202 8.79244 96.0525 9.21174C96.1647 9.31968 96.2746 9.4307 96.3846 9.54186C96.479 9.63706 96.5735 9.7324 96.6695 9.8262C96.7737 9.9277 96.805 10.0475 96.805 10.1933C96.805 10.7867 96.8056 11.3805 96.8062 11.9744V11.9826C96.8073 13.1681 96.8084 14.3541 96.805 15.5389C96.805 16.117 96.805 16.6975 96.6879 17.2704C96.6123 17.6402 96.5081 17.9994 96.266 18.3015C96.0135 18.6192 95.6958 18.8379 95.3077 18.955C95.1871 18.9913 95.0647 19.0213 94.9432 19.0511L94.8365 19.0774C94.7532 19.0983 94.6985 19.1425 94.7038 19.2362C94.709 19.3378 94.7766 19.3587 94.8625 19.356H95.0161L98.914 19.3482C98.9805 19.3462 99.0484 19.3413 99.1111 19.3368L99.1717 19.3326C99.2291 19.1685 99.1848 19.0956 99.0415 19.067C98.9629 19.0522 98.8853 19.0302 98.8073 19.0082C98.7615 18.9952 98.7156 18.9822 98.6693 18.9706C97.9792 18.791 97.5288 18.3588 97.3517 17.6766C97.2528 17.2938 97.1721 16.8928 97.1564 16.4971C97.1203 15.5518 97.1097 14.6066 97.099 13.6614L97.094 13.2241C97.0836 12.3319 97.0836 11.4372 97.0836 10.5424V10.5396C97.0836 10.4982 97.0877 10.458 97.0939 10.3975L97.1018 10.3183C97.1444 10.3651 97.1828 10.4058 97.218 10.4433C97.2732 10.502 97.3214 10.5534 97.3674 10.6073L97.3701 10.6106C99.1632 12.7133 100.956 14.8161 102.749 16.9214C103.101 17.3341 103.452 17.7468 103.803 18.1596C104.154 18.5723 104.504 18.985 104.856 19.3977L104.867 19.411ZM111.048 8.65188V8.43838C111.064 8.42382 111.075 8.41346 111.083 8.40632C111.095 8.39526 111.099 8.39148 111.102 8.39148C111.268 8.38938 111.433 8.38476 111.599 8.38014C112.246 8.36222 112.893 8.34416 113.532 8.47478C114.984 8.77424 115.977 9.63356 116.544 10.99C116.841 11.6958 116.984 12.4378 117.015 13.2033C117.049 14.0573 117.021 14.9061 116.81 15.7419C116.703 16.156 116.565 16.557 116.367 16.9371C115.693 18.2364 114.604 18.916 113.164 19.0592C112.8 19.0956 112.43 19.0878 112.063 19.0722C111.54 19.0487 111.204 18.7519 111.105 18.2389C111.066 18.0306 111.05 17.8146 111.05 17.6036C111.048 14.6198 111.048 11.6358 111.048 8.65188ZM48.9424 19.5384C48.7289 19.6296 48.6326 19.5254 48.5337 19.4082C47.9203 18.685 47.3041 17.963 46.6883 17.2416L46.0419 16.4842C45.4794 15.8237 44.917 15.1638 44.3545 14.5039L44.3384 14.4851C43.7709 13.8194 43.2035 13.1537 42.6361 12.4873C42.139 11.9038 41.6397 11.3203 41.1419 10.7386L41.1401 10.7363L40.9229 10.4825C40.9002 10.4551 40.8777 10.4267 40.8466 10.3875L40.777 10.3002C40.771 10.3498 40.7649 10.3896 40.7597 10.4233C40.7517 10.4764 40.7458 10.5146 40.7458 10.5528C40.7492 10.8565 40.7539 11.1597 40.7587 11.4628C40.7651 11.8667 40.7714 12.2703 40.7744 12.6748C40.7773 13.0903 40.7787 13.5058 40.7803 13.9211V13.9227C40.7828 14.6495 40.7853 15.3759 40.7952 16.1014C40.8031 16.6222 40.8525 17.1404 40.9984 17.6428C41.2015 18.3511 41.6467 18.8068 42.3705 18.9812L42.5569 19.0281L42.7429 19.0749C42.8392 19.0984 42.8965 19.1478 42.8783 19.2546C42.8615 19.3526 42.7853 19.3518 42.7166 19.3511L42.6987 19.351C42.5655 19.351 42.4324 19.3483 42.2997 19.3456C42.1677 19.3431 42.0356 19.3405 41.9045 19.3405C41.159 19.3405 40.4133 19.3428 39.667 19.3451C39.2925 19.3463 38.918 19.3475 38.5431 19.3483C38.517 19.3483 38.4911 19.3452 38.4607 19.3417C38.4424 19.3396 38.4224 19.3372 38.3998 19.3353C38.3969 19.3105 38.3944 19.2864 38.3919 19.2621C38.3875 19.2198 38.3829 19.1765 38.3763 19.127C38.4113 19.1173 38.4435 19.1071 38.4742 19.0974C38.5097 19.0861 38.5433 19.0754 38.5768 19.067C38.9883 18.9707 39.3762 18.8223 39.7069 18.5464C39.9699 18.325 40.1339 18.0386 40.238 17.7184C40.3969 17.234 40.4542 16.7367 40.4542 16.2316C40.4542 15.5669 40.4534 14.9023 40.4524 14.2376C40.4507 12.9076 40.449 11.577 40.4542 10.2455C40.4542 10.0425 40.4073 9.8836 40.2562 9.74556C40.1546 9.65092 40.0551 9.5539 39.9558 9.45688C39.7984 9.3033 39.6412 9.14986 39.4752 9.00608C39.1133 8.69374 38.694 8.48794 38.2201 8.3968C38.1872 8.38994 38.1541 8.3807 38.1212 8.37146C38.1047 8.3667 38.0882 8.36208 38.0717 8.35774C38.0669 8.35774 38.0631 8.35382 38.0567 8.34724C38.0526 8.34304 38.0475 8.33772 38.0405 8.3317L38.0374 8.3198C38.0319 8.29978 38.0249 8.27374 38.0249 8.24588C38.0249 8.21872 38.0298 8.19324 38.0358 8.16272L38.0405 8.13906C38.0564 8.13626 38.0721 8.13248 38.0874 8.1287C38.1145 8.12198 38.1404 8.11568 38.1655 8.11568H39.2695H41.8081C41.9332 8.11568 42.0347 8.12086 42.1101 8.25106C42.5116 8.95358 43.034 9.57154 43.5538 10.1864L43.6126 10.256C44.6991 11.5422 45.7903 12.826 46.8815 14.1098C47.4272 14.752 47.9729 15.394 48.5181 16.0363C48.5307 16.052 48.5452 16.065 48.5662 16.0836C48.5799 16.0958 48.5965 16.1105 48.617 16.1301C48.6205 16.0988 48.6245 16.0712 48.628 16.0458C48.6348 15.9975 48.6404 15.9576 48.6404 15.9165V15.9127C48.6378 14.5677 48.6352 13.2204 48.6274 11.8755C48.6247 11.3654 48.6222 10.852 48.5858 10.3418C48.565 10.0477 48.5077 9.75088 48.4269 9.46444C48.2837 8.96702 47.9322 8.65468 47.4349 8.52182C47.2425 8.46974 47.0453 8.43488 46.8395 8.39876C46.7472 8.38252 46.6533 8.36586 46.5574 8.34738C46.5548 8.29012 46.5497 8.21718 46.5443 8.14956C46.5607 8.14438 46.5742 8.13892 46.5859 8.13416C46.6044 8.1266 46.6187 8.12086 46.633 8.12086C46.7487 8.12086 46.864 8.12016 46.9792 8.1196C47.0944 8.1189 47.2096 8.1182 47.3255 8.1182C48.3775 8.1182 49.4293 8.11792 50.4813 8.11764C52.5852 8.11708 54.689 8.11652 56.7929 8.1182C57.8292 8.1182 58.8394 8.29796 59.7819 8.7405C61.6436 9.61284 62.7008 11.0788 62.9143 13.1226C63.0757 14.6902 62.6617 16.0988 61.6411 17.3096C60.8547 18.2417 59.834 18.8041 58.6623 19.1088C57.9724 19.2884 57.2693 19.351 56.5559 19.3456C55.5872 19.337 54.6173 19.3399 53.6479 19.3428C53.1634 19.3442 52.6787 19.3456 52.1946 19.3456C51.9668 19.3456 51.7378 19.348 51.5093 19.3504C51.3956 19.3515 51.2819 19.3526 51.1687 19.3535H51.158C51.0732 19.3538 50.9912 19.3539 50.9786 19.239C50.9662 19.1153 51.0455 19.0974 51.1404 19.0759L51.1557 19.0724C51.2117 19.0599 51.2681 19.0481 51.3244 19.0364C51.5278 18.9942 51.7316 18.9518 51.9212 18.8744C52.356 18.6973 52.6164 18.3614 52.671 17.885C52.6894 17.7158 52.7024 17.5465 52.7024 17.3747C52.7024 16.6324 52.7029 15.8906 52.7035 15.1489C52.7046 13.6656 52.7057 12.1825 52.7024 10.6985C52.7024 10.3862 52.6789 10.0659 52.6164 9.75858C52.4472 8.92026 51.9629 8.48794 51.1166 8.3891C50.7756 8.35004 50.4319 8.37076 50.1012 8.47492C49.4684 8.67288 49.1482 9.13894 49.018 9.7534C48.9659 9.99294 48.9502 10.243 48.9502 10.4902C48.9463 12.6774 48.9469 14.8647 48.9473 17.0517L48.9477 19.239V19.5409L48.9424 19.5384ZM54.6993 8.37076V8.76136V17.2262C54.6993 17.5153 54.7202 17.8069 54.7514 18.0933C54.8192 18.7103 55.1732 19.0593 55.793 19.0724C56.2616 19.0827 56.7355 19.0749 57.1964 19.0046C58.1806 18.8535 58.9982 18.3927 59.618 17.5986C60.0241 17.0778 60.2872 16.4894 60.4511 15.8567C60.6933 14.9167 60.7557 13.9584 60.6751 12.9899C60.61 12.2087 60.4538 11.4537 60.1101 10.7481C59.545 9.58414 58.6468 8.82128 57.3735 8.5088C56.7645 8.35928 56.1503 8.36558 55.5185 8.37202C55.2481 8.37482 54.9746 8.37762 54.6968 8.36824L54.6993 8.37076ZM6.0786 6.5411C6.262 6.78008 6.44568 7.0192 6.61564 7.26644C6.81864 7.56338 7.06602 7.78206 7.40454 7.9201C7.70596 8.04442 7.99926 8.18778 8.29326 8.33156C8.40554 8.38644 8.51797 8.44146 8.63095 8.4955C8.66735 8.5137 8.70123 8.53456 8.71691 8.59448C8.67015 8.57796 8.62353 8.56214 8.57705 8.54632C8.49921 8.52 8.42108 8.49354 8.3445 8.46428C8.1597 8.394 7.97547 8.32246 7.79095 8.25078C7.53097 8.14984 7.2707 8.04876 7.00876 7.95132C6.8577 7.89406 6.75103 7.8081 6.66507 7.66754C6.47943 7.35632 6.28777 7.04874 6.09583 6.7406C6.00511 6.595 5.91425 6.4494 5.82409 6.3031L5.87098 6.26922C5.93846 6.35854 6.00679 6.44758 6.07511 6.53648L6.07594 6.5376L6.07679 6.53886L6.0786 6.5411ZM4.04567 7.46174L4.04301 7.45936H4.04567V7.46174ZM4.04328 7.512C4.04426 7.49982 4.04553 7.48358 4.04567 7.46174C4.13079 7.54042 4.21478 7.61616 4.29752 7.69078C4.47952 7.85486 4.6548 8.01292 4.81902 8.18064C5.0559 8.42284 5.30846 8.6103 5.64698 8.70396C6.03716 8.81092 6.42202 8.93818 6.80632 9.06516C6.95542 9.11444 7.10439 9.16372 7.25349 9.21174C7.33161 9.23778 7.40707 9.27166 7.47217 9.34446C7.40063 9.32626 7.32839 9.30876 7.25615 9.29112C7.18391 9.27362 7.11153 9.25598 7.03999 9.23778C6.88375 9.19802 6.72722 9.1584 6.5707 9.11878C6.13264 9.00804 5.69444 8.89716 5.25904 8.78208C5.1574 8.75604 5.04555 8.70144 4.97779 8.62584C4.71431 8.33212 4.45811 8.02958 4.20303 7.7283L4.04567 7.54266C4.04119 7.53818 4.04188 7.52922 4.04328 7.512ZM93.2873 8.1441V11.3703C93.092 11.4354 93.0816 11.4354 92.9956 11.2843C92.9065 11.1271 92.8194 10.9687 92.7323 10.8108L92.7315 10.8093L92.7303 10.8072C92.6783 10.7125 92.6262 10.6182 92.5738 10.524C92.522 10.4306 92.4708 10.3379 92.4195 10.2451L92.4187 10.2437L92.4173 10.2412L92.4151 10.2371C92.3649 10.1462 92.3148 10.0555 92.264 9.96424C91.7823 9.09708 91.0428 8.61548 90.0638 8.46708C89.4387 8.37146 88.8119 8.37482 88.1848 8.37818C87.9919 8.3793 87.7988 8.38028 87.6058 8.37846C87.5842 8.37846 87.5613 8.38476 87.5345 8.39204C87.5226 8.39526 87.51 8.39876 87.4964 8.40198V13.3647C87.5023 13.3672 87.5088 13.3711 87.5155 13.3752C87.5298 13.3837 87.5457 13.3934 87.5615 13.3934C87.72 13.3891 87.8786 13.3865 88.0373 13.384C88.4601 13.3773 88.8831 13.3706 89.3036 13.3308C89.8841 13.2762 90.3398 12.9664 90.5872 12.4326C90.7313 12.1172 90.8419 11.7868 90.9526 11.4561C90.9799 11.3746 91.0072 11.2927 91.0351 11.2114C91.0818 11.076 91.1418 11.003 91.2902 11.0499C91.3449 11.2401 91.3683 15.492 91.3189 16.0232C91.1236 16.0856 91.1105 16.0856 91.0533 15.9242C91.0132 15.8108 90.9756 15.6965 90.9379 15.5823C90.8847 15.421 90.8315 15.2599 90.772 15.1014C90.7069 14.927 90.6315 14.7525 90.5403 14.5884C90.319 14.1771 89.9831 13.901 89.5144 13.8126C89.0579 13.7259 88.5974 13.7181 88.1316 13.7102C87.9254 13.7067 87.7181 13.7032 87.5095 13.6927C87.5046 13.7214 87.4985 13.747 87.4929 13.7708C87.4837 13.8098 87.4757 13.8438 87.4757 13.8777C87.4757 15.1483 87.4757 16.4189 87.4861 17.6869C87.4861 17.8719 87.5069 18.0618 87.5538 18.2416C87.6709 18.6998 87.9834 18.9993 88.4469 19.0462C89.2385 19.1243 90.0377 19.1398 90.8137 18.9081C91.5245 18.6946 92.1078 18.2885 92.5139 17.6635C92.7435 17.3114 92.9585 16.9491 93.1732 16.5875L93.1754 16.5837L93.1774 16.5804C93.2486 16.4604 93.3197 16.3404 93.3914 16.221L93.3935 16.2176C93.4631 16.1044 93.5285 15.9977 93.6882 16.057C93.7533 16.2418 93.7742 18.9759 93.7091 19.3325L93.6653 19.3361C93.6102 19.3407 93.5524 19.3455 93.4929 19.3455C92.6897 19.3442 91.8859 19.3423 91.0818 19.3403C90.278 19.3384 89.4741 19.3364 88.6708 19.3351H83.9761H83.8746C83.7887 19.3351 83.7184 19.3169 83.7211 19.2128C83.7211 19.1165 83.7835 19.0852 83.8695 19.0696C83.9225 19.0607 83.9756 19.0526 84.0286 19.0445C84.1783 19.0215 84.3274 18.9987 84.4736 18.9602C85.0802 18.8013 85.4082 18.3873 85.4369 17.7625C85.4442 17.6204 85.4425 17.4772 85.441 17.3334C85.4403 17.2717 85.4396 17.2098 85.4396 17.1479V9.86008V9.68032C85.4187 9.11542 85.1635 8.75086 84.6245 8.56592C84.4177 8.49396 84.1993 8.4493 83.9826 8.40492L83.8798 8.38364C83.7419 8.35508 83.6898 8.2848 83.7341 8.15194C83.9164 8.09986 92.9254 8.08432 93.2846 8.13892L93.2873 8.1441ZM140.723 16.0339C140.721 16.0667 140.718 16.1046 140.715 16.1506L140.709 16.1584L140.624 16.0626C140.558 15.9903 140.509 15.9357 140.463 15.8798C139.986 15.3183 139.508 14.7569 139.031 14.1956L139.008 14.1686C137.895 12.8597 136.782 11.5504 135.674 10.2374L135.569 10.1117C135.072 9.52086 134.572 8.9267 134.19 8.25078C134.12 8.13094 134.029 8.1231 133.911 8.1231H130.321C130.279 8.1231 130.236 8.12856 130.195 8.13388C130.173 8.13668 130.152 8.13962 130.131 8.14144C130.1 8.36642 130.132 8.3723 130.281 8.40044C130.299 8.4038 130.32 8.40758 130.341 8.4122C130.824 8.5137 131.245 8.72986 131.609 9.05004C131.733 9.15784 131.852 9.27278 131.969 9.38786C132.066 9.48124 132.161 9.57476 132.26 9.66464C132.475 9.85728 132.606 10.076 132.55 10.3806C132.54 10.436 132.543 10.4927 132.547 10.5497C132.549 10.5783 132.55 10.6071 132.55 10.6358C132.552 12.4585 132.552 14.2837 132.552 16.109C132.552 16.6739 132.487 17.2312 132.308 17.7701C132.178 18.1659 131.943 18.4888 131.584 18.697C131.404 18.8003 131.208 18.8775 131.012 18.9543C130.961 18.9742 130.909 18.9944 130.86 19.0147C130.816 19.033 130.768 19.0423 130.72 19.0514C130.667 19.0617 130.614 19.0719 130.565 19.0955C130.519 19.1188 130.48 19.1944 130.471 19.2517C130.461 19.3377 130.531 19.361 130.61 19.361H130.867L134.743 19.3532C134.789 19.3532 134.835 19.3483 134.881 19.3434C134.901 19.3413 134.92 19.3392 134.94 19.3377C134.971 19.1215 134.971 19.1188 134.804 19.0721L134.738 19.0535L134.666 19.0334L134.58 19.0105L134.579 19.0102C134.472 18.9816 134.366 18.9531 134.26 18.921C133.716 18.7544 133.357 18.3924 133.165 17.8612C132.993 17.3926 132.92 16.9057 132.904 16.4083C132.886 15.8641 132.869 15.3174 132.865 14.7732C132.858 13.8373 132.855 12.9027 132.853 11.9676V11.9615V11.9553V11.9492L132.851 11.943V11.937V11.9308V11.9247V11.9185V11.9123V11.9062V11.9002V11.894V11.8878V11.8817V11.8755V11.8694V11.8632V11.857V11.8509V11.8447V11.8387V11.8325V11.8264V11.8202V11.8141V11.808V11.8019V11.7957V11.7896V11.7834V11.7774V11.7712V11.7651V11.7589V11.7529V11.7467V11.7406V11.7344V11.7284V11.7222V11.7161V11.71V11.7039V11.6979V11.6917V11.6857V11.6795L132.85 11.6735V11.6673V11.6613V11.6553V11.6491V11.6431V11.6371V11.6311V11.6249V11.6189V11.6129V11.6069V11.6008V11.5948V11.5888L132.847 10.5265C132.847 10.4913 132.854 10.4551 132.861 10.4191L132.865 10.3914L132.868 10.3802L132.869 10.3676L132.917 10.3467C132.924 10.3578 132.93 10.3691 132.937 10.3805C132.946 10.3987 132.956 10.4167 132.969 10.4327C133.253 10.765 133.537 11.0975 133.821 11.43L133.847 11.4606L133.848 11.4618C134.391 12.0981 134.936 12.7347 135.479 13.3724C136.038 14.0286 136.596 14.6846 137.156 15.3408C137.715 15.997 138.273 16.6532 138.832 17.3092L138.833 17.3098L138.835 17.3113L138.836 17.3133L138.838 17.3148L138.839 17.3162C139.435 18.0144 140.032 18.7124 140.627 19.4131C140.725 19.5303 140.824 19.6293 141.009 19.5458L141.01 19.5258C141.012 19.5066 141.012 19.4869 141.013 19.4667C141.016 19.4215 141.02 19.3742 141.02 19.3272V14.3384V13.9871L141.019 13.5655C141.019 12.6637 141.017 11.7607 141.027 10.8597C141.033 10.3728 141.096 9.89116 141.281 9.4328C141.493 8.90164 141.878 8.57362 142.444 8.46162C142.57 8.43712 142.696 8.41654 142.825 8.39568C142.9 8.38336 142.977 8.37104 143.056 8.35746V8.12842H138.65V8.36012L138.712 8.36894C138.85 8.38882 138.976 8.40674 139.101 8.42256C139.806 8.51636 140.273 8.89646 140.494 9.5735L140.508 9.6155C140.53 9.68298 140.553 9.75186 140.561 9.82088C140.574 9.91538 140.588 10.01 140.6 10.1047L140.602 10.1061C140.644 10.4069 140.687 10.7081 140.697 11.0107C140.712 11.4998 140.711 11.9888 140.709 12.4778C140.709 12.7386 140.708 12.9996 140.709 13.2604C140.712 13.6993 140.716 14.1375 140.721 14.5754V14.5831C140.725 15.0208 140.728 15.4581 140.73 15.8955C140.73 15.9359 140.728 15.9765 140.723 16.0314V16.0339ZM72.7071 8.1287H63.1877H63.1825C63.1147 8.33436 63.1147 8.3422 63.284 8.38378C63.3693 8.40464 63.4555 8.42242 63.5419 8.4402C63.6824 8.46918 63.8229 8.49816 63.9584 8.54002C64.5625 8.73014 64.8541 9.12592 64.8541 9.75606C64.8552 10.8856 64.8549 12.0148 64.8545 13.1439V13.1511V13.1526C64.8541 14.654 64.8537 16.1563 64.8568 17.6585C64.8593 18.4578 64.3178 18.8926 63.7058 19.0124C63.6288 19.0276 63.5508 19.039 63.4724 19.0508C63.4159 19.0592 63.359 19.0676 63.3022 19.0775C63.1226 19.1113 63.1096 19.1373 63.1825 19.3483C64.8366 19.334 66.4913 19.3365 68.1473 19.3392H68.1489H68.1505H68.1519H68.1535H68.155H68.1566H68.1582H68.1599H68.1615H68.163H68.1645H68.1661H68.1676H68.1692H68.1707H68.1722C69.829 19.3417 71.487 19.3444 73.1471 19.3301V16.0806C72.9909 16.0128 72.8971 16.0597 72.8216 16.1926C72.6654 16.4685 72.5092 16.7419 72.3399 17.0075C72.2989 17.0718 72.2581 17.1364 72.2175 17.201C72.0574 17.4555 71.8972 17.7097 71.7124 17.9423C71.2881 18.476 70.7152 18.7963 70.0617 18.9604C69.3664 19.1348 68.653 19.1218 67.9447 19.0697C67.4162 19.0306 67.0829 18.726 66.9554 18.213C66.9163 18.0595 66.9006 17.8954 66.9006 17.734V13.9741C66.9006 13.916 66.9044 13.8593 66.9085 13.7986L66.9103 13.7708L66.9136 13.7164C67.0153 13.7164 67.1147 13.7153 67.2128 13.7143C67.4291 13.712 67.6388 13.7099 67.8484 13.7189C68.1739 13.7346 68.4968 13.758 68.8196 13.7997C69.3092 13.8621 69.6789 14.1173 69.921 14.5469C70.0096 14.7006 70.0877 14.8645 70.1502 15.0313C70.2161 15.2065 70.2752 15.3841 70.3341 15.5617C70.3637 15.6505 70.3932 15.7394 70.4236 15.828C70.4275 15.84 70.4311 15.8525 70.4348 15.8648C70.451 15.9193 70.4678 15.9751 70.5017 16.0155C70.5329 16.0519 70.6059 16.0754 70.6553 16.0702C70.6865 16.0675 70.7256 16.0051 70.7386 15.9634C70.7503 15.9282 70.7488 15.8888 70.7474 15.8491C70.747 15.836 70.7464 15.8228 70.7464 15.8098V11.2584C70.7464 11.2108 70.7396 11.1633 70.7327 11.1169C70.7302 11.0996 70.7277 11.0826 70.7256 11.0656C70.5815 11.0483 70.4904 11.0943 70.4521 11.2037C70.4117 11.3193 70.3735 11.4362 70.3354 11.5531L70.3348 11.5545L70.3343 11.5559L70.3337 11.5573C70.2449 11.8283 70.1559 12.0999 70.0382 12.3571C69.7726 12.9404 69.3117 13.3023 68.653 13.3466C68.2581 13.373 67.8631 13.3816 67.4683 13.3903C67.3164 13.3935 67.1645 13.3969 67.0126 13.4012C66.9899 13.4012 66.9673 13.3931 66.9467 13.3856L66.9316 13.3802L66.9241 13.3779C66.8694 12.9248 66.8928 8.57642 66.9554 8.38126C67.0951 8.38126 67.2352 8.38 67.3756 8.3786C67.6856 8.3758 67.9967 8.373 68.3066 8.38378C68.7077 8.39946 69.1112 8.4255 69.507 8.4801C70.3351 8.5921 71.0147 8.96702 71.4886 9.66744C71.607 9.8402 71.71 10.0239 71.8131 10.2076C71.8436 10.262 71.8741 10.3163 71.9051 10.3705C72.035 10.5987 72.1618 10.83 72.2892 11.062L72.4128 11.287C72.4779 11.4041 72.5612 11.4719 72.7071 11.3781V8.1287ZM129.467 19.3354V16.0755H129.472C129.298 16.0078 129.225 16.0832 129.157 16.2004C129.092 16.3083 129.029 16.4164 128.966 16.5246C128.76 16.8731 128.556 17.2211 128.335 17.557C127.887 18.2314 127.288 18.7261 126.488 18.9345C125.741 19.1298 124.978 19.1244 124.22 19.0516C123.746 19.0047 123.418 18.7183 123.303 18.2417C123.257 18.0543 123.221 17.8565 123.221 17.6638C123.214 16.6203 123.216 15.5749 123.219 14.5308V14.528L123.221 13.904C123.222 13.8637 123.229 13.8222 123.236 13.7819C123.24 13.7596 123.243 13.7377 123.246 13.7165C123.362 13.7165 123.477 13.7154 123.589 13.7144C123.837 13.7122 124.076 13.7101 124.317 13.719C124.6 13.7295 124.881 13.7581 125.16 13.7945C125.673 13.8623 126.049 14.1409 126.285 14.5914C126.392 14.7944 126.48 15.0105 126.561 15.224C126.652 15.4636 126.73 15.7058 126.806 15.9505C126.849 16.0885 126.931 16.0911 127.048 16.0495V11.0581C126.868 10.993 126.824 11.0945 126.779 11.2195C126.746 11.3173 126.714 11.4158 126.681 11.5142C126.583 11.8134 126.484 12.1123 126.355 12.3963C126.11 12.938 125.68 13.2842 125.077 13.3338C124.663 13.3667 124.248 13.3752 123.832 13.3836C123.659 13.3872 123.484 13.3907 123.309 13.3962C123.293 13.3979 123.277 13.3891 123.257 13.3776C123.247 13.372 123.236 13.3657 123.223 13.3598V13.1124V13.0934C123.228 11.5401 123.233 9.98678 123.242 8.43334C123.242 8.43278 123.242 8.43208 123.242 8.43138C123.242 8.4297 123.243 8.42788 123.246 8.42606C123.247 8.42382 123.25 8.42144 123.253 8.4192L123.257 8.41514L123.261 8.41094C123.267 8.40618 123.275 8.39876 123.291 8.38126C123.452 8.38126 123.614 8.38042 123.778 8.37958C124.11 8.3779 124.447 8.37608 124.786 8.38126C125.293 8.38658 125.792 8.44636 126.282 8.57656C126.772 8.70942 127.206 8.9386 127.537 9.32906C127.717 9.54256 127.887 9.77174 128.03 10.0113C128.185 10.2682 128.328 10.5311 128.471 10.7944L128.472 10.7965C128.541 10.9217 128.608 11.0478 128.678 11.1726C128.686 11.1876 128.693 11.2031 128.7 11.2188C128.723 11.2658 128.745 11.3138 128.781 11.347C128.826 11.3861 128.899 11.4173 128.956 11.4121C128.99 11.4095 129.026 11.3288 129.042 11.2793C129.054 11.2441 129.053 11.2046 129.052 11.165L129.05 11.1468V11.1257V8.33702C129.05 8.29096 129.045 8.24602 129.038 8.19898L129.035 8.17742L129.032 8.15292L129.029 8.13136H119.468C119.471 8.21214 119.473 8.27724 119.479 8.3527C119.534 8.36558 119.586 8.3765 119.636 8.38714C119.688 8.39792 119.738 8.40856 119.788 8.42032L119.822 8.42844L119.863 8.43838L119.944 8.457C120.084 8.48906 120.224 8.5214 120.359 8.56886C120.83 8.7328 121.098 9.07132 121.174 9.5609C121.192 9.68844 121.2 9.81598 121.2 9.94366V16.8487C121.2 16.9348 121.2 17.0208 121.2 17.1063C121.201 17.277 121.201 17.447 121.2 17.6169C121.194 18.1247 121.038 18.5621 120.564 18.8173C120.395 18.9084 120.202 18.9657 120.015 19.0151C119.897 19.0473 119.776 19.0647 119.652 19.0826L119.572 19.0941C119.541 19.0987 119.51 19.1036 119.479 19.1089V19.3354H129.467ZM78.3703 14.9194V14.6433C78.3991 14.6415 78.4272 14.639 78.455 14.6365C78.5045 14.632 78.5525 14.6278 78.5994 14.6278C79.818 14.646 80.8907 13.8075 81.1641 12.5422C81.3255 11.7974 81.3255 11.0527 81.125 10.3133C80.797 9.1052 79.8362 8.37874 78.5786 8.37608H78.0135C78.0116 8.42312 78.0089 8.4675 78.0063 8.51034C78.0019 8.58118 77.998 8.6481 77.998 8.7146C77.998 11.2038 77.998 13.693 78.0005 16.1849C78.0005 16.737 78.0186 17.2867 78.0368 17.8388L78.0371 17.846C78.0553 18.3355 78.3103 18.6636 78.7712 18.8173C78.9947 18.8911 79.2236 18.9469 79.4529 19.0031C79.539 19.0241 79.6252 19.0452 79.7112 19.0672C79.7284 19.0717 79.7472 19.074 79.7656 19.0763C79.8006 19.0806 79.8349 19.085 79.8571 19.1036C79.8961 19.1349 79.9273 19.1974 79.9273 19.2468C79.9273 19.2807 79.8726 19.3249 79.8335 19.3431C79.8062 19.3549 79.7732 19.3535 79.7396 19.3519C79.7284 19.3515 79.7171 19.351 79.706 19.351L74.7042 19.3588C74.6062 19.3588 74.5084 19.3539 74.4129 19.3491C74.3688 19.347 74.3252 19.3448 74.2824 19.3431C74.2695 19.2156 74.2636 19.1582 74.2894 19.126C74.3103 19.0997 74.3521 19.0899 74.4281 19.0724C74.4902 19.0585 74.5527 19.0466 74.6155 19.0347C74.7293 19.013 74.8434 18.9914 74.9541 18.9578C75.415 18.812 75.7926 18.5594 75.9201 18.0595C75.9644 17.8877 75.967 17.7054 75.967 17.5283C75.9687 15.85 75.9681 14.1705 75.9676 12.4914V12.48V12.4784V12.4767V12.4751V12.4735V12.4718V12.4704V12.4687V12.4669V12.4652V12.4638C75.9673 11.6279 75.967 10.7921 75.967 9.95654C75.967 9.829 75.967 9.70146 75.9513 9.57378C75.9046 9.16498 75.7066 8.84214 75.3317 8.66518C75.1694 8.58874 74.9946 8.53904 74.8196 8.4892C74.7557 8.471 74.6919 8.4528 74.6286 8.43334C74.594 8.42228 74.5579 8.4171 74.5219 8.41192C74.4902 8.40744 74.4587 8.40282 74.4281 8.39428C74.2589 8.3527 74.2589 8.35004 74.2719 8.11568H74.5193C74.9965 8.11568 75.4738 8.11498 75.9511 8.11428C77.0648 8.11274 78.1783 8.11106 79.292 8.11834C80.2944 8.12618 81.2422 8.35522 82.0832 8.92544C83.5622 9.92532 83.9267 11.9016 82.8878 13.3154C82.4114 13.9638 81.763 14.3752 81.0053 14.6278C80.1565 14.9116 79.2817 14.9403 78.3677 14.9194H78.3703ZM145.72 8.60792C146.281 8.34234 146.875 8.35788 147.508 8.3891L147.513 8.38658V8.67554C147.513 10.0699 147.512 11.4642 147.511 12.8585C147.509 14.2529 147.508 15.6471 147.508 17.0415C147.508 17.094 147.509 17.1465 147.509 17.1992C147.509 17.4103 147.511 17.6225 147.498 17.8331C147.474 18.2626 147.28 18.6038 146.886 18.7991C146.699 18.8927 146.493 18.9552 146.29 19.0151C146.179 19.0469 146.066 19.0652 145.951 19.0836C145.922 19.0882 145.894 19.0929 145.864 19.0978L145.815 19.1062V19.3276H151.221C151.23 19.1748 151.177 19.0889 151.062 19.0698C151.044 19.0669 151.025 19.0651 151.005 19.0631C150.974 19.0602 150.942 19.0571 150.911 19.049C150.843 19.0304 150.773 19.0141 150.703 18.998C150.539 18.9602 150.375 18.9223 150.227 18.851C149.711 18.6011 149.545 18.1481 149.545 17.6039V8.67554C149.545 8.61506 149.548 8.55444 149.552 8.48696V8.48528V8.48318V8.48178L149.555 8.4325L149.557 8.37874C149.657 8.37874 149.753 8.37706 149.85 8.37552C150.053 8.37216 150.248 8.36894 150.442 8.38126C151.244 8.43082 151.856 8.80574 152.258 9.50098C152.411 9.76656 152.549 10.0425 152.67 10.3238C152.807 10.6434 152.934 10.9679 153.063 11.2923C153.12 11.4356 153.176 11.5791 153.234 11.7219L153.239 11.7341C153.276 11.8271 153.315 11.9237 153.445 11.8939C153.55 11.8689 153.542 11.7875 153.535 11.7133C153.533 11.6946 153.531 11.6763 153.531 11.6595V8.3345C153.531 8.2876 153.525 8.24182 153.518 8.19492C153.515 8.17406 153.512 8.15292 153.51 8.13136H143.516V11.873C143.679 11.9354 143.749 11.8808 143.803 11.7428C143.977 11.2898 144.162 10.8392 144.347 10.3914C144.506 10.0034 144.678 9.62334 144.93 9.28482C145.145 9.00104 145.394 8.7615 145.72 8.60792ZM32.4476 19.3329C32.4371 19.1064 32.4371 19.1037 32.609 19.0725C32.9552 19.0127 33.2912 18.9268 33.5984 18.7418C33.9005 18.5595 34.0671 18.2993 34.1219 17.9633C34.1504 17.7967 34.1634 17.6249 34.1634 17.4556V10.0141C34.1634 9.87856 34.1479 9.74318 34.1322 9.6078C34.0723 9.07664 33.7677 8.7356 33.2756 8.56116C33.1232 8.50796 32.9635 8.47282 32.804 8.43782C32.7291 8.42144 32.6544 8.40492 32.5803 8.38672L32.54 8.3765C32.5117 8.36936 32.4819 8.36166 32.4449 8.35284C32.4398 8.28508 32.4346 8.21998 32.4267 8.13416H37.8452C37.9259 8.32414 37.9208 8.34234 37.7332 8.38672C37.6644 8.40352 37.5944 8.4171 37.5244 8.43068C37.4435 8.44636 37.3623 8.46204 37.2828 8.48304C36.5094 8.67834 36.1736 9.1157 36.1736 9.92028C36.1736 10.4787 36.1748 11.0373 36.1762 11.5958V11.5993C36.1775 12.1566 36.1787 12.714 36.1787 13.2713C36.1787 14.6762 36.1762 16.0811 36.1736 17.4885V17.492C36.1736 17.552 36.1736 17.6119 36.1762 17.6717C36.1866 18.3669 36.546 18.7602 37.2334 18.971C37.3357 19.0022 37.4428 19.022 37.5498 19.0416C37.6034 19.0514 37.6569 19.0613 37.7098 19.0725L37.7187 19.0745C37.7661 19.0843 37.8186 19.0952 37.8503 19.1246C37.8817 19.1533 37.9024 19.2184 37.8921 19.2574C37.8842 19.2938 37.8321 19.3329 37.7906 19.3459C37.7571 19.3571 37.7196 19.355 37.6821 19.3529C37.6669 19.3519 37.6518 19.3511 37.6368 19.3511C35.9522 19.3511 34.2676 19.3486 32.5856 19.3459C32.559 19.3459 32.5326 19.3428 32.5021 19.3392L32.4732 19.3358L32.4449 19.3329H32.4476ZM15.55 19.4604C15.528 19.4336 15.5055 19.406 15.4841 19.3767L15.4814 19.3741C15.6741 19.322 15.8355 19.2777 16.0595 19.2153C15.9846 19.1736 15.9151 19.1344 15.8495 19.0973C15.7098 19.0182 15.5864 18.9483 15.4606 18.8846C15.3876 18.8481 15.2991 18.822 15.2185 18.822C15.0935 18.822 15.0127 18.7674 14.9399 18.6763C14.7576 18.4498 14.5727 18.2258 14.3879 18.0044C14.359 17.9703 14.3266 17.9386 14.286 17.8992C14.2679 17.8815 14.248 17.8621 14.2265 17.8405C14.2265 17.8677 14.2256 17.8894 14.2249 17.9077C14.2239 17.9365 14.2232 17.9567 14.2265 17.9759L14.2463 18.0898L14.2594 18.1647C14.2994 18.3957 14.3393 18.6262 14.3904 18.8533C14.4164 18.9653 14.4712 19.0824 14.5466 19.1684C14.7249 19.3686 14.9122 19.5626 15.0994 19.7564C15.1556 19.8146 15.2119 19.8729 15.2679 19.9313C15.3263 19.8032 15.2613 19.7154 15.1947 19.6252C15.1544 19.5708 15.1134 19.5153 15.0987 19.4495C15.2419 19.4053 15.346 19.4652 15.4293 19.5485C15.4866 19.6074 15.5357 19.6734 15.5882 19.7438C15.6147 19.7792 15.6419 19.8158 15.6715 19.8531C15.7308 19.6818 15.6455 19.5775 15.55 19.4604ZM7.45144 9.9508C7.45284 9.9431 7.45467 9.93484 7.45663 9.92658C7.45859 9.91818 7.46055 9.90978 7.46181 9.90194C7.42975 9.89242 7.39755 9.88248 7.36549 9.87268C7.30123 9.85294 7.23697 9.83334 7.17285 9.81598C7.00471 9.7702 6.83713 9.72246 6.66941 9.67472L6.66801 9.6743L6.6666 9.67388C6.2536 9.55628 5.84004 9.43868 5.42046 9.34992C4.88412 9.2354 4.43879 8.99054 4.04833 8.61562C3.92541 8.49634 3.78653 8.39274 3.64779 8.28928C3.58381 8.2414 3.51969 8.19366 3.45725 8.14438C3.45067 8.15082 3.44478 8.15796 3.43904 8.16524C3.43316 8.17238 3.42729 8.17952 3.42071 8.18596C3.50961 8.27486 3.59865 8.36334 3.68755 8.45168C3.92443 8.68702 4.16103 8.92208 4.39203 9.16246C4.50907 9.28748 4.64458 9.35244 4.80852 9.38632C5.23538 9.47368 5.66085 9.56566 6.08589 9.6575L6.48278 9.74304C6.62544 9.77384 6.76769 9.80422 6.90965 9.83446L6.91105 9.83474L6.91244 9.83502L6.91427 9.83544L6.91566 9.83572L6.91721 9.83614C7.09515 9.87408 7.27392 9.91216 7.45144 9.9508ZM6.89005 10.3876C7.09627 10.4208 7.30248 10.454 7.5087 10.4853C7.51122 10.4671 7.51388 10.4489 7.51388 10.4307C7.2336 10.3737 6.95318 10.3161 6.67276 10.2584C5.6852 10.0554 4.69541 9.85196 3.70197 9.67556C3.72283 9.7121 3.75138 9.7303 3.78008 9.74332C4.3216 9.95682 4.87628 10.1079 5.45952 10.1782C5.93734 10.2344 6.41391 10.311 6.89005 10.3876ZM7.88097 8.88106C7.73691 8.83304 7.59355 8.78278 7.45033 8.73238C7.11209 8.61352 6.77371 8.49494 6.42805 8.40716C5.96717 8.28998 5.63649 8.04792 5.39443 7.64696C5.34487 7.56464 5.29054 7.48498 5.23594 7.40476C5.15572 7.28688 5.07467 7.16774 5.00649 7.03768L5.03435 7.05952C5.06557 7.08374 5.09762 7.10866 5.12366 7.13652L5.20613 7.2229C5.40241 7.428 5.59799 7.6324 5.78755 7.84478C5.91775 7.988 6.07132 8.08432 6.24842 8.15726C6.5644 8.28396 6.88024 8.41304 7.19622 8.54198C7.35414 8.60652 7.51207 8.67106 7.67013 8.73532C7.73075 8.75954 7.78997 8.78852 7.84877 8.81736L7.89916 8.842C7.89664 8.84858 7.89343 8.85502 7.89007 8.8616C7.88685 8.86804 7.88363 8.87462 7.88097 8.88106ZM4.79691 10.5198L4.79299 10.5192H4.7955L4.79691 10.5198ZM4.79691 10.5198L7.76645 10.9878L7.75861 11.0399C7.52761 11.014 7.29535 10.9956 7.06323 10.9771C6.29379 10.9162 5.52463 10.8553 4.79691 10.5198ZM12.7475 21.2904C13.7629 20.8296 14.8122 20.4651 15.885 20.1708C15.8902 20.1865 15.8954 20.202 15.9032 20.2204C15.3798 20.4066 14.8562 20.5933 14.3327 20.7802C13.8095 20.967 13.2862 21.1537 12.763 21.3399C12.7579 21.3243 12.7527 21.3087 12.7475 21.2904ZM14.3098 20.2234C13.5728 20.5099 12.8281 20.7703 12.0574 20.9526C12.7787 20.6219 13.5234 20.3588 14.3098 20.2234ZM11.4325 21.8141L11.4277 21.8175C11.0069 21.8719 10.8436 21.9345 10.7217 22.098L11.1374 22.2359C11.4182 22.329 11.6954 22.4212 11.9715 22.512C11.9767 22.4963 11.982 22.4833 11.9872 22.4703C11.6955 22.3376 11.4039 22.2047 11.0732 22.0537C11.1568 21.9992 11.2281 21.9513 11.3047 21.8998L11.4277 21.8175L11.4325 21.8168V21.8141ZM20.4311 19.2937C19.7724 19.4553 19.1032 19.5359 18.4315 19.5985C19.085 19.4084 19.7516 19.3146 20.4311 19.2937ZM8.70641 11.0347V10.5998L8.76549 10.6701C8.79265 10.7027 8.817 10.7317 8.84696 10.7664L9.17302 10.5947C9.45708 10.4449 9.73848 10.2965 10.0213 10.1493C10.0252 10.1559 10.0291 10.1616 10.033 10.1675L10.0393 10.1772L10.0448 10.1857C9.80806 10.3364 9.57217 10.4862 9.32801 10.6413L8.70907 11.0347H8.70641ZM9.22721 11.5658C9.68543 11.2821 10.0969 11.0295 10.5082 10.7769H10.5109C10.4978 10.7639 10.4873 10.7509 10.477 10.7379C10.3319 10.8125 10.1869 10.8874 10.041 10.9627C9.81003 11.082 9.57692 11.2025 9.33921 11.3238L9.32339 11.2902C9.29273 11.2251 9.27075 11.178 9.25059 11.1311C9.23757 11.1337 9.22202 11.1388 9.209 11.1442C9.21418 11.2689 9.21937 11.3943 9.22721 11.5658ZM8.35234 10.3938L8.35221 10.3922L8.41268 10.3557C8.831 10.1024 9.21615 9.86918 9.56825 9.584C9.20369 9.77412 8.83926 9.9641 8.46686 10.1569C8.41996 10.0788 8.38874 10.0292 8.35752 9.97978C8.35094 9.98244 8.34521 9.9844 8.33933 9.98622L8.33106 9.98902L8.32098 9.9928C8.32686 10.0593 8.33177 10.1257 8.33737 10.1992V10.2007C8.34185 10.2589 8.34647 10.3217 8.35221 10.3922L8.34968 10.3938H8.35234ZM9.88339 11.6333V12.0264C10.0332 11.9328 10.1767 11.8429 10.3161 11.7554L10.3185 11.7539C10.5659 11.5987 10.8008 11.4515 11.0368 11.3052C10.9482 11.3 10.8806 11.3287 10.8155 11.3626C10.7512 11.3953 10.687 11.4275 10.6227 11.4597C10.4574 11.5423 10.2926 11.6248 10.1333 11.7166C10.0083 11.7896 9.94065 11.7323 9.88339 11.6333ZM19.723 19.0095L19.5299 19.0452C19.1157 19.1218 18.703 19.1982 18.2883 19.2726C18.2856 19.2621 18.2837 19.251 18.2817 19.2399C18.2797 19.2289 18.2778 19.2178 18.2753 19.2075C18.7465 19.0746 19.2231 18.9783 19.71 18.9444C19.7125 18.9549 19.7145 18.966 19.7164 18.977C19.7184 18.9881 19.7203 18.9991 19.723 19.0095ZM8.17903 9.4188C8.17413 9.49944 8.16936 9.57826 8.16222 9.68858L8.16475 9.68592C8.52679 9.45674 8.83913 9.25892 9.14909 9.06096C9.14139 9.05144 9.13508 9.04052 9.12934 9.03016L9.12305 9.01938L8.90101 9.13334C8.75751 9.20698 8.61484 9.28034 8.47204 9.35258L8.46743 9.3551C8.42417 9.37806 8.37419 9.40452 8.33149 9.39948C8.30293 9.39766 8.27576 9.37652 8.24062 9.34908C8.22424 9.33648 8.20633 9.32234 8.18561 9.30834L8.17903 9.4188ZM10.5811 12.4611V11.9924C10.6185 12.0637 10.6426 12.1107 10.6656 12.1557L10.7035 12.2294C10.8862 12.1363 11.0667 12.0455 11.2456 11.9555L11.2471 11.9548L11.5184 11.818C11.2452 12.0627 10.9352 12.2502 10.5811 12.4611ZM17.6868 19.7231C17.3353 19.8663 16.9734 19.9418 16.5985 19.9756C16.9395 19.7985 17.3093 19.7413 17.6868 19.7231ZM14.6586 14.3464C14.6551 14.2006 14.5961 14.08 14.4815 13.9845C14.5592 13.973 14.6323 13.9618 14.7025 13.9512C14.8065 13.9352 14.9043 13.9204 15.0023 13.9064L15.0284 13.9533C14.9673 14.0182 14.9063 14.0837 14.8453 14.1493C14.7841 14.2149 14.7225 14.2813 14.6612 14.3464H14.6586ZM11.2762 12.5212V12.8856C11.5315 12.7217 11.7528 12.581 11.9741 12.4404C11.9636 12.4249 11.9559 12.4092 11.9481 12.3935C11.8127 12.4586 11.6773 12.5212 11.542 12.5836C11.4162 12.6426 11.4143 12.641 11.2824 12.5265L11.2762 12.5212ZM15.047 15.0415C14.984 15.1249 14.9178 15.2131 14.8461 15.3096C14.8409 15.1413 14.7715 15.0258 14.6378 14.9634L14.7407 14.9309C14.8884 14.8843 15.0218 14.8423 15.1534 14.8019L15.1898 14.8514C15.1432 14.9139 15.096 14.9765 15.047 15.0415ZM14.9816 15.9742C15.0105 15.9862 15.0379 15.9975 15.0674 16.0103H15.0648C15.0701 16.0909 15.0726 16.1508 15.0753 16.2134C15.0817 16.2147 15.0883 16.2166 15.0947 16.2186C15.1013 16.2206 15.1078 16.2225 15.1143 16.2238L15.2535 16.0065L15.3929 15.7889L15.3642 15.7472C15.2975 15.7678 15.2303 15.7887 15.1598 15.8105C15.06 15.8416 14.9536 15.8748 14.8331 15.9113C14.8934 15.9376 14.9393 15.9567 14.9816 15.9742ZM15.829 14.4525L15.7679 14.5259C15.7698 14.5061 15.7721 14.4868 15.7742 14.468C15.7924 14.3121 15.8069 14.1864 15.635 14.1353C15.7886 14.1067 15.9423 14.078 16.0934 14.052C16.0985 14.0598 16.103 14.0676 16.1076 14.0755C16.1121 14.0832 16.1167 14.091 16.1219 14.0989C16.0332 14.2076 15.9424 14.3163 15.829 14.4525ZM19.2841 13.7547C19.2337 13.7132 19.1825 13.671 19.1346 13.6254C19.032 13.7494 19.0976 13.7904 19.1554 13.8266L19.171 13.8364L19.1948 13.8519C19.3771 13.9715 19.5595 14.091 19.6319 14.3206C19.6359 14.0443 19.4639 13.9026 19.2841 13.7547ZM18.4888 13.1564C18.5096 13.237 18.5278 13.3048 18.5565 13.4038C18.6015 13.3784 18.6412 13.3553 18.6804 13.3325C18.7139 13.313 18.7471 13.2939 18.783 13.2736C18.8221 13.3881 18.8012 13.4766 18.6867 13.5183C18.5826 13.5573 18.4836 13.5391 18.4185 13.4375C18.3455 13.3256 18.3716 13.2345 18.4914 13.1537L18.4888 13.1564ZM12.2866 13.5445V13.7241V13.7267C12.521 13.6486 12.7605 13.4924 12.8412 13.3752C12.7689 13.397 12.693 13.4204 12.613 13.4449C12.5117 13.476 12.4025 13.5096 12.2866 13.5445ZM14.7471 13.2164L14.746 13.2173C14.6451 13.2975 14.5436 13.3783 14.44 13.4586C14.4269 13.4078 14.4145 13.3616 14.4022 13.3154C14.3898 13.2692 14.3774 13.2229 14.3644 13.1722H14.7159C14.7264 13.1879 14.7368 13.2034 14.7471 13.2164ZM12.0889 13.1555C12.1911 13.0876 12.2921 13.0204 12.4063 12.9432C12.2814 12.9723 12.1727 12.9965 12.0675 13.0199C11.9845 13.0384 11.9027 13.0564 11.8179 13.076C11.8218 13.1019 11.8257 13.1331 11.8306 13.1722C11.8355 13.2113 11.8414 13.2584 11.8491 13.3156C11.9342 13.2584 12.0119 13.2066 12.0889 13.1555ZM17.127 19.5096C17.0455 19.4093 16.9684 19.3136 16.8942 19.2215L16.7781 19.0774C17.0333 19.0565 17.1817 19.2285 17.127 19.5096ZM16.1415 15.0159C16.1457 15.0238 16.1501 15.0318 16.155 15.0404C16.1211 15.0808 16.0876 15.1211 16.054 15.162C16.0078 15.2179 15.9604 15.2753 15.9111 15.3335C15.8828 15.2816 15.8554 15.233 15.8269 15.1823C15.8055 15.1444 15.7835 15.1052 15.76 15.0628C15.8204 15.0502 15.8852 15.0376 15.9521 15.0245C16.0094 15.0135 16.0683 15.0019 16.1271 14.9898C16.1323 14.9989 16.137 15.0075 16.1415 15.0159ZM14.4997 19.6266C14.7758 19.6423 14.8721 19.7516 14.8618 20.0641L14.8026 19.9929L14.8016 19.9917C14.6969 19.8656 14.5983 19.7472 14.4997 19.6266ZM16.9213 13.5004H16.5282C16.5513 13.5653 16.5719 13.6202 16.5912 13.6721C16.6042 13.7073 16.6171 13.7417 16.6297 13.7763C16.6597 13.7497 16.6933 13.7277 16.7273 13.7056C16.8029 13.6565 16.88 13.6062 16.9213 13.5004ZM13.6926 14.8493C13.7461 14.8372 13.8016 14.8252 13.8619 14.8122C13.919 14.7997 13.9812 14.7863 14.0494 14.7711C14.0187 14.8847 13.957 14.9583 13.8968 15.03C13.8699 15.0618 13.8434 15.0934 13.8202 15.1279C13.7983 15.0786 13.7772 15.0329 13.7552 14.9856L13.7545 14.9841C13.7349 14.9418 13.7146 14.8981 13.6926 14.8493ZM14.0856 15.7898C14.1272 15.7321 14.1647 15.6799 14.2029 15.6277C14.1965 15.6211 14.1906 15.6139 14.1847 15.6068C14.1789 15.5997 14.173 15.5925 14.1665 15.5859L13.7993 15.6797L13.7603 15.7422C13.9463 15.7115 13.943 15.8059 13.9386 15.9249C13.9378 15.9476 13.9369 15.9711 13.9374 15.9947C13.9945 15.9163 14.0424 15.85 14.0856 15.7898ZM15.8954 13.3521C15.894 13.3443 15.8915 13.3373 15.8895 13.3304C15.8878 13.3245 15.8862 13.3186 15.885 13.313H15.5075C15.5264 13.3714 15.5453 13.4276 15.5649 13.4859L15.5959 13.5786C15.6522 13.5354 15.7078 13.4936 15.7628 13.4522C15.8068 13.4192 15.8516 13.3856 15.8954 13.3521ZM14.2336 16.6621L14.268 16.7365H14.2707C14.3207 16.6774 14.3688 16.6191 14.4164 16.5619L14.4173 16.5606C14.451 16.5197 14.4846 16.4794 14.5181 16.4397C14.5128 16.4318 14.507 16.4247 14.5011 16.4174C14.4953 16.4103 14.4894 16.4031 14.4842 16.3953C14.3644 16.4188 14.2447 16.4422 14.1405 16.4604C14.1719 16.5291 14.2003 16.5903 14.2336 16.6621ZM18.3821 14.37C18.3013 14.245 18.33 14.1435 18.4315 14.0809C18.52 14.0263 18.6216 14.034 18.7465 14.1565C18.5278 14.1252 18.4342 14.2138 18.3821 14.37ZM13.4244 16.9997C13.5155 16.9215 13.5885 16.8591 13.6588 16.7992H13.6614C13.6568 16.7915 13.653 16.7829 13.6492 16.774C13.6466 16.7677 13.6438 16.7614 13.6406 16.7549H13.3463C13.3597 16.7978 13.3723 16.8371 13.3855 16.8776C13.3978 16.9157 13.4107 16.9557 13.4244 16.9997ZM13.3828 16.1304L13.3131 16.1896C13.2668 16.229 13.2204 16.2683 13.1718 16.31C13.1354 16.2292 13.1067 16.1641 13.0703 16.0808H13.3645C13.3671 16.0887 13.3704 16.0972 13.3737 16.1056L13.379 16.12L13.3828 16.1304ZM12.5262 14.0343C12.521 14.0812 12.5131 14.1437 12.4975 14.2608L12.9375 13.9589L12.9193 13.9275C12.7944 13.9614 12.6694 13.9953 12.5262 14.0343ZM15.7156 16.6141L15.747 16.6532C15.711 16.6982 15.6741 16.7432 15.6343 16.7918C15.6052 16.8273 15.5744 16.8648 15.5413 16.9057C15.5023 16.8198 15.4736 16.7573 15.4293 16.6635C15.5387 16.6453 15.6272 16.6298 15.7156 16.6141ZM16.2243 15.9096C16.1837 15.9144 16.1405 15.9193 16.0934 15.9243H16.0959C16.117 15.9919 16.1331 16.046 16.1537 16.1154L16.1688 16.1664C16.2544 16.0731 16.3167 16.0055 16.379 15.9382C16.3738 15.9316 16.37 15.9236 16.3654 15.9165L16.3595 15.9072L16.3563 15.9026L16.3511 15.8956C16.3102 15.8997 16.2686 15.9044 16.2243 15.9096ZM12.6355 14.7997V14.5785C12.7423 14.5655 12.8386 14.555 12.9896 14.5394C12.9303 14.5827 12.8785 14.6211 12.8288 14.6577L12.8277 14.6586L12.8266 14.6594C12.7635 14.7062 12.7035 14.7506 12.6355 14.7997ZM16.8673 14.4122C16.7554 14.4182 16.6732 14.4225 16.5646 14.427L16.6395 14.5513C16.6609 14.587 16.6805 14.6198 16.7026 14.6562C16.7729 14.5781 16.8328 14.513 16.9292 14.4088L16.8673 14.4122ZM13.8879 14.0966C13.828 14.1617 13.7681 14.2268 13.6926 14.3049C13.6765 14.2659 13.6624 14.2307 13.6488 14.1969C13.6317 14.1543 13.6151 14.1129 13.5963 14.0681L13.696 14.0598C13.754 14.055 13.8072 14.0506 13.8592 14.0472C13.8632 14.0549 13.8676 14.0634 13.8723 14.0718C13.8769 14.0802 13.8814 14.0889 13.8853 14.0966H13.8879ZM16.3354 12.7656V12.9713L16.3535 12.9642C16.4555 12.9233 16.5451 12.8873 16.5698 12.7423C16.5173 12.7481 16.4716 12.7525 16.4285 12.7565C16.3972 12.7595 16.3661 12.7624 16.3354 12.7656ZM14.7081 17.3305L14.7071 17.3282C14.7666 17.2412 14.804 17.1843 14.8572 17.1034L14.8773 17.0727C14.8307 17.0799 14.793 17.0853 14.76 17.0902C14.7082 17.0979 14.6672 17.1038 14.6196 17.1118C14.648 17.1842 14.6687 17.236 14.7071 17.3282L14.7055 17.3305H14.7081ZM12.7215 17.312H12.9688C12.8203 17.5151 12.8178 17.5151 12.7215 17.312ZM16.9525 15.2995C16.9255 15.3236 16.8993 15.3477 16.8715 15.3731C16.8512 15.3919 16.8299 15.4114 16.8067 15.4324C16.7861 15.4062 16.7683 15.3828 16.748 15.3563C16.7301 15.3327 16.7101 15.3066 16.6843 15.2735C16.7833 15.2604 16.8587 15.2526 16.9342 15.2449C16.9394 15.2631 16.9447 15.2813 16.9525 15.2995ZM15.3431 12.7514C15.3091 12.7493 15.2787 12.7474 15.2445 12.7449L15.2471 12.7476L15.2501 12.7679C15.2592 12.8263 15.2669 12.8767 15.2809 12.9584C15.3197 12.921 15.3509 12.8904 15.3831 12.8589C15.4135 12.8291 15.4447 12.7985 15.4841 12.7606C15.4247 12.7564 15.3815 12.7537 15.3431 12.7514ZM11.1514 17.1849C11.1298 17.2031 11.1077 17.2213 11.084 17.2407C11.0534 17.2659 11.0202 17.2932 10.9821 17.3254C10.964 17.2689 10.9517 17.226 10.9352 17.1678L10.9274 17.1406C11.0044 17.1356 11.0695 17.1331 11.1318 17.1306L11.1409 17.1301C11.1435 17.1392 11.1455 17.1485 11.1474 17.1576C11.1494 17.1667 11.1514 17.1758 11.1539 17.1849H11.1514ZM11.8844 17.3268C11.9566 17.265 12.0111 17.2182 12.0992 17.1432H11.8439C11.8539 17.193 11.8624 17.2322 11.8728 17.2806L11.883 17.3281L11.8844 17.3268ZM12.5131 16.8437C12.5038 16.7864 12.4979 16.7463 12.493 16.7125C12.4882 16.6805 12.4843 16.6543 12.4793 16.625H12.711C12.6823 16.6571 12.6573 16.6844 12.6317 16.7125C12.597 16.7505 12.5609 16.7899 12.5131 16.8437ZM13.9798 17.4332L13.9816 17.4321V17.4346L13.9798 17.4332ZM13.9798 17.4332C13.9508 17.4523 13.9248 17.4691 13.901 17.4843C13.864 17.5081 13.8317 17.5289 13.802 17.5493C13.7937 17.5429 13.7857 17.5377 13.779 17.5333C13.7664 17.5252 13.7577 17.5196 13.7577 17.5128C13.7577 17.5053 13.7572 17.4967 13.7568 17.4876C13.7554 17.459 13.7537 17.4269 13.7654 17.4191C13.8276 17.3777 13.8973 17.3672 13.9798 17.4332ZM17.4577 12.9479C17.3744 13.0287 17.3275 13.0729 17.265 13.1302C17.2506 13.0963 17.2383 13.0678 17.226 13.0391C17.2136 13.0104 17.2012 12.9818 17.1869 12.9479H17.4577Z" fill="white"/>
</g>
<defs>
<clipPath id="clip0_2001_1828">
<rect width="154" height="28" fill="white"/>
</clipPath>
</defs>
</svg>
